<?xml version="1.0" encoding="UTF-8"?><svg id="Layer_2" xmlns="http://www.w3.org/2000/svg" viewBox="0 0 87.65 65.88"><defs><style>.cls-1{fill:#fff;}</style></defs><g id="Content"><path class="cls-1" d="m.5,65.8c-.28,0-.5-.22-.5-.5,0-11.43,5.28-22.44,14.87-31.02,9.11-8.15,20.79-12.82,32.04-12.82h6.38c.28,0,.5.22.5.5s-.22.5-.5.5h-6.38C20.63,22.46,1,45.08,1,65.3c0,.28-.22.5-.5.5Z"/><path class="cls-1" d="m.5,65.88c-.28,0-.5-.22-.5-.5C0,34.41,16.35,6.21,34.31,6.21h4.84c.28,0,.5.22.5.5s-.22.5-.5.5h-4.84C16.88,7.21,1,34.94,1,65.38c0,.28-.22.5-.5.5Z"/><path class="cls-1" d="m.5,65.88c-.28,0-.5-.22-.5-.5,0-7.74,5.31-15.18,14.94-20.95,9.09-5.45,20.74-8.57,31.96-8.57h23.13c.28,0,.5.22.5.5s-.22.5-.5.5h-23.13c-26.27,0-45.91,15.06-45.91,28.52,0,.28-.22.5-.5.5Z"/><path class="cls-1" d="m64.94,28.67c-.28,0-.5-.22-.5-.5v-12.42c0-.28.22-.5.5-.5s.5.22.5.5v12.42c0,.28-.22.5-.5.5Z"/><path class="cls-1" d="m71.15,22.46h-12.42c-.28,0-.5-.22-.5-.5s.22-.5.5-.5h12.42c.28,0,.5.22.5.5s-.22.5-.5.5Z"/><path class="cls-1" d="m51.36,13.42c-.28,0-.5-.22-.5-.5V.5c0-.28.22-.5.5-.5s.5.22.5.5v12.42c0,.28-.22.5-.5.5Z"/><path class="cls-1" d="m57.57,7.21h-12.42c-.28,0-.5-.22-.5-.5s.22-.5.5-.5h12.42c.28,0,.5.22.5.5s-.22.5-.5.5Z"/><path class="cls-1" d="m80.94,43.18c-.28,0-.5-.22-.5-.5v-12.42c0-.28.22-.5.5-.5s.5.22.5.5v12.42c0,.28-.22.5-.5.5Z"/><path class="cls-1" d="m87.15,36.97h-12.42c-.28,0-.5-.22-.5-.5s.22-.5.5-.5h12.42c.28,0,.5.22.5.5s-.22.5-.5.5Z"/></g></svg>