<?xml version="1.0" encoding="UTF-8"?><svg id="Layer_2" xmlns="http://www.w3.org/2000/svg" viewBox="0 0 50.27 87.1"><defs><style>.cls-1{fill:none;stroke:#e6e6e6;stroke-miterlimit:10;}</style></defs><g id="Content"><path class="cls-1" d="m30.02,61.59l.16-47.72S28.79.51,25.28.5h-.02c-3.51-.01-5,13.34-5,13.34l-.16,47.72,9.92.03Z"/><line class="cls-1" x1="20.26" y1="15.16" x2="30.18" y2="15.19"/><line class="cls-1" x1="20.23" y1="22.83" x2="30.15" y2="22.86"/><path class="cls-1" d="m27.37,65.78s-1.23,1.19-1.23,2.26c0,1.38,1.22,3.06,1.22,3.06,0,0,1.43-1.83,1.43-3.05,0-1.05-1.41-2.27-1.41-2.27Z"/><polygon class="cls-1" points="27.56 61.56 26.49 61.56 25.85 65.46 29.08 65.47 28.46 61.56 28.03 61.56 27.56 61.56"/><polygon class="cls-1" points="22.72 61.54 21.65 61.54 21.01 65.44 24.23 65.45 23.62 61.55 23.19 61.55 22.72 61.54"/><path class="cls-1" d="m22.52,65.76s-1.23,1.19-1.23,2.26c0,1.38,1.22,3.06,1.22,3.06,0,0,1.43-1.83,1.43-3.05,0-1.05-1.41-2.27-1.41-2.27Z"/><line class="cls-1" x1="20.11" y1="56.12" x2="30.03" y2="56.15"/><path class="cls-1" d="m49.61,76.76l.16-47.72s-1.39-13.36-4.9-13.37h-.02c-3.51-.01-5,13.34-5,13.34l-.16,47.72,9.92.03Z"/><line class="cls-1" x1="39.85" y1="30.33" x2="49.77" y2="30.37"/><line class="cls-1" x1="39.82" y1="38" x2="49.74" y2="38.03"/><path class="cls-1" d="m46.96,80.95s-1.23,1.19-1.23,2.26c0,1.38,1.22,3.06,1.22,3.06,0,0,1.43-1.83,1.43-3.05,0-1.05-1.41-2.27-1.41-2.27Z"/><polygon class="cls-1" points="47.15 76.73 46.08 76.73 45.45 80.63 48.67 80.64 48.06 76.74 47.62 76.74 47.15 76.73"/><polygon class="cls-1" points="42.31 76.72 41.24 76.71 40.6 80.61 43.83 80.62 43.22 76.72 42.78 76.72 42.31 76.72"/><path class="cls-1" d="m42.12,80.94s-1.23,1.19-1.23,2.26c0,1.38,1.22,3.06,1.22,3.06,0,0,1.43-1.83,1.43-3.05,0-1.05-1.41-2.27-1.41-2.27Z"/><line class="cls-1" x1="39.71" y1="71.29" x2="49.63" y2="71.32"/><path class="cls-1" d="m10.42,76.76l.16-47.72s-1.39-13.36-4.9-13.37h-.02c-3.51-.01-5,13.34-5,13.34l-.16,47.72,9.92.03Z"/><line class="cls-1" x1=".66" y1="30.33" x2="10.58" y2="30.37"/><line class="cls-1" x1=".64" y1="38" x2="10.55" y2="38.03"/><path class="cls-1" d="m7.77,80.95s-1.23,1.19-1.23,2.26c0,1.38,1.22,3.06,1.22,3.06,0,0,1.43-1.83,1.43-3.05,0-1.05-1.41-2.27-1.41-2.27Z"/><polygon class="cls-1" points="7.97 76.73 6.9 76.73 6.26 80.63 9.48 80.64 8.87 76.74 8.43 76.74 7.97 76.73"/><polygon class="cls-1" points="3.12 76.72 2.05 76.71 1.42 80.61 4.64 80.62 4.03 76.72 3.59 76.72 3.12 76.72"/><path class="cls-1" d="m2.93,80.94s-1.23,1.19-1.23,2.26c0,1.38,1.22,3.06,1.22,3.06,0,0,1.43-1.83,1.43-3.05,0-1.05-1.41-2.27-1.41-2.27Z"/><line class="cls-1" x1=".52" y1="71.29" x2="10.44" y2="71.32"/></g></svg>