<?xml version="1.0" encoding="UTF-8"?><svg id="Layer_2" xmlns="http://www.w3.org/2000/svg" viewBox="0 0 79.02 69.87"><defs><style>.cls-1{fill:none;stroke:#fff;stroke-miterlimit:10;}</style></defs><g id="Content"><path class="cls-1" d="m11.08,25.09C15.32,10.87,28.49.5,44.09.5c19.02,0,34.43,15.42,34.43,34.43s-15.42,34.43-34.43,34.43c-5.41,0-10.53-1.25-15.09-3.47"/><line class="cls-1" y1="32.17" x2="18.66" y2="32.17"/><line class="cls-1" x1="6.76" y1="41.02" x2="25.42" y2="41.02"/><line class="cls-1" x1="2.25" y1="49.87" x2="20.92" y2="49.87"/><line class="cls-1" x1="8.53" y1="58.88" x2="29.76" y2="58.95"/><line class="cls-1" x1="43.93" y1="4.98" x2="43.93" y2="9"/><line class="cls-1" x1="74.26" y1="35.15" x2="70.23" y2="35.15"/><line class="cls-1" x1="70.13" y1="20.31" x2="66.64" y2="22.32"/><line class="cls-1" x1="70.17" y1="49.91" x2="66.6" y2="48.07"/><line class="cls-1" x1="58.77" y1="61.35" x2="56.76" y2="57.86"/><line class="cls-1" x1="58.81" y1="9.06" x2="56.8" y2="12.54"/><line class="cls-1" x1="31.13" y1="12.38" x2="29.12" y2="8.9"/><line class="cls-1" x1="43.93" y1="61.3" x2="43.93" y2="65.32"/><polyline class="cls-1" points="43.93 14.31 43.93 35.07 57.96 35.07"/><line class="cls-1" x1="21.09" y1="22.1" x2="17.61" y2="20.09"/></g></svg>