<?xml version="1.0" encoding="UTF-8"?>
<svg id="Layer_2" data-name="Layer 2" xmlns="http://www.w3.org/2000/svg" viewBox="0 0 78.65 115.63">
  <defs>
    <style>
      .cls-1, .cls-2 {
        fill: gray;
      }

      .cls-2 {
        opacity: .5;
      }
    </style>
  </defs>
  <g id="Layer_4" data-name="Layer 4">
    <g>
      <path class="cls-2" d="m76.52,86.08c0,1.66-19.16,2.56-37.2,2.56s-37.2-.9-37.2-2.56h.25c0,1.09,15.17,2.31,36.95,2.31s36.95-1.22,36.95-2.31h.25Z"/>
      <path class="cls-2" d="m76.52,78.57c0,1.66-19.16,2.56-37.2,2.56s-37.2-.9-37.2-2.56h.25c0,1.09,15.17,2.31,36.95,2.31s36.95-1.22,36.95-2.31h.25Z"/>
      <path class="cls-2" d="m76.52,71.07c0,1.66-19.16,2.56-37.2,2.56s-37.2-.9-37.2-2.56h.25c0,1.09,15.17,2.31,36.95,2.31s36.95-1.22,36.95-2.31h.25Z"/>
      <path class="cls-2" d="m76.52,63.57c0,1.66-19.16,2.56-37.2,2.56s-37.2-.9-37.2-2.56h.25c0,1.09,15.17,2.31,36.95,2.31s36.95-1.22,36.95-2.31h.25Z"/>
      <path class="cls-2" d="m76.52,56.06c0,1.66-19.16,2.56-37.2,2.56s-37.2-.9-37.2-2.56h.25c0,1.09,15.17,2.31,36.95,2.31s36.95-1.22,36.95-2.31h.25Z"/>
      <path class="cls-2" d="m76.52,48.56c0,1.66-19.16,2.56-37.2,2.56s-37.2-.9-37.2-2.56h.25c0,1.09,15.17,2.31,36.95,2.31s36.95-1.22,36.95-2.31h.25Z"/>
      <path class="cls-2" d="m76.52,41.06c0,1.66-19.16,2.56-37.2,2.56s-37.2-.9-37.2-2.56h.25c0,1.09,15.17,2.31,36.95,2.31s36.95-1.22,36.95-2.31h.25Z"/>
      <path class="cls-2" d="m76.52,33.55c0,1.66-19.16,2.56-37.2,2.56s-37.2-.9-37.2-2.56h.25c0,1.09,15.17,2.31,36.95,2.31s36.95-1.22,36.95-2.31h.25Z"/>
      <path class="cls-1" d="m78.65,25.92c0,.22-.04.44-.13.65-.14.35-.29.7-.44,1.05-.29.69-.59,1.4-.82,2.11l-.49,1.51v54.8c0,.17-.14,4.13-3.79,9.34-6.06,8.65-16.99,13.85-25.09,16.69-1.35.47-2.27,1.75-2.27,3.18v.37h-12.58v-.37c0-1.43-.91-2.71-2.27-3.18-8.11-2.84-19.04-8.04-25.09-16.69-3.65-5.22-3.79-9.17-3.79-9.33V31.24l-.49-1.51c-.23-.72-.54-1.43-.83-2.12-.15-.35-.29-.7-.43-1.05-.08-.21-.13-.43-.13-.65,0-1.02.88-1.84,1.96-1.84h3.68L30.35,1.18h17.95l24.71,22.9h3.68c1.08,0,1.96.83,1.96,1.84Zm-2.63,5.26l.02-.12.51-1.56c.24-.74.55-1.47.85-2.17.15-.35.29-.69.43-1.04.05-.12.07-.24.07-.37,0-.61-.55-1.1-1.22-1.1h-3.97L48.01,1.92h-17.36L5.93,24.82H1.96c-.67,0-1.22.49-1.22,1.1,0,.13.02.25.07.37.14.35.28.69.43,1.03.3.7.6,1.43.85,2.17l.53,1.68v54.86c0,.15.75,15.65,28.39,25.33,1.53.54,2.6,1.92,2.75,3.51h11.13c.15-1.59,1.21-2.98,2.75-3.51,27.63-9.68,28.38-25.18,28.39-25.34V31.18Z"/>
      <path class="cls-2" d="m64.89,31.18v53.28c0,6.44-2.48,12.57-7,17.25-4.52,4.69-10.72,8.38-18.43,10.97l-.08-.24c7.67-2.58,13.84-6.25,18.33-10.91,4.47-4.64,6.93-10.7,6.93-17.08V31.18h.25Z"/>
      <path class="cls-2" d="m60.74,31.18v54.56c0,4.32-1.12,8.53-3.24,12.18-2.6,4.48-7.84,10.67-18.02,14.77l-.09-.23c10.11-4.07,15.32-10.22,17.9-14.66,2.1-3.61,3.21-7.78,3.21-12.05V31.18h.25Z"/>
      <path class="cls-2" d="m56.58,31.18v55.61c0,2.61-.41,5.16-1.21,7.57-1.88,5.66-6.17,13.42-16,18.31l-.11-.22c9.75-4.84,14.01-12.55,15.87-18.16.79-2.39,1.19-4.91,1.19-7.5V31.18h.25Z"/>
      <path class="cls-2" d="m52.22,31.18v56.51c0,1.35-.11,2.67-.32,3.94-.73,4.31-3.38,14.99-12.3,21.04l-.14-.21c8.84-5.99,11.47-16.6,12.19-20.88.21-1.25.32-2.56.32-3.9V31.18h.25Z"/>
      <path class="cls-2" d="m48.17,31.18v57.91c0,.16-.73,15.73-8.66,23.56l-.17-.18c7.86-7.76,8.58-23.23,8.58-23.39V31.18h.25Z"/>
      <path class="cls-2" d="m43.6,31.18v57.91c0,.16-.35,15.7-4.17,23.53l-.22-.11c3.79-7.77,4.14-23.27,4.14-23.42V31.18h.25Z"/>
      <path class="cls-2" d="m69.25,31.18v52.02c0,7.71-3.6,14.96-9.88,19.9-5.14,4.04-11.87,7.27-20.01,9.59l-.07-.24c8.11-2.32,14.81-5.53,19.92-9.55,6.22-4.89,9.79-12.07,9.79-19.7V31.18h.25Z"/>
      <path class="cls-2" d="m73.51,31.18v51.02c0,8.23-4.21,16.05-11.25,20.92-5.83,4.03-13.46,7.25-22.69,9.57l-.06-.24c9.2-2.31,16.81-5.52,22.61-9.53,6.98-4.82,11.15-12.57,11.15-20.71V31.18h.25Z"/>
      <path class="cls-2" d="m39.54,112.45l-.08.24c-7.71-2.59-13.91-6.28-18.43-10.97-4.51-4.68-7-10.81-7-17.25V31.18h.25v53.28c0,6.38,2.46,12.44,6.93,17.08,4.49,4.66,10.65,8.33,18.33,10.91Z"/>
      <path class="cls-2" d="m39.54,112.45l-.09.23c-10.18-4.09-15.42-10.29-18.02-14.77-2.12-3.65-3.24-7.86-3.24-12.18V31.18h.25v54.56c0,4.28,1.11,8.45,3.21,12.05,2.58,4.44,7.79,10.59,17.9,14.66Z"/>
      <path class="cls-2" d="m39.66,112.45l-.11.22c-9.82-4.88-14.12-12.65-16-18.31-.8-2.42-1.21-4.96-1.21-7.57V31.18h.25v55.61c0,2.58.4,5.11,1.19,7.5,1.86,5.61,6.12,13.32,15.87,18.16Z"/>
      <path class="cls-2" d="m39.46,112.46l-.14.21c-8.92-6.05-11.57-16.73-12.3-21.04-.21-1.27-.32-2.59-.32-3.94V31.18h.25v56.51c0,1.33.11,2.64.32,3.9.72,4.28,3.35,14.88,12.19,20.88Z"/>
      <path class="cls-2" d="m39.59,112.48l-.17.18c-7.93-7.83-8.65-23.4-8.66-23.56V31.18h.25v57.91c0,.15.73,15.62,8.58,23.38Z"/>
      <path class="cls-2" d="m39.71,112.51l-.22.11c-3.82-7.82-4.16-23.37-4.17-23.53V31.18h.25v57.91c0,.15.35,15.65,4.14,23.42Z"/>
      <path class="cls-2" d="m39.64,112.45l-.07.24c-8.14-2.33-14.87-5.55-20.01-9.59-6.28-4.94-9.88-12.19-9.88-19.9V31.18h.25v52.02c0,7.63,3.57,14.81,9.79,19.7,5.11,4.02,11.81,7.23,19.92,9.55Z"/>
      <path class="cls-2" d="m39.43,112.44l-.06.24c-9.23-2.32-16.86-5.54-22.69-9.57-7.05-4.87-11.25-12.69-11.25-20.92V31.18h.25v51.02c0,8.15,4.17,15.89,11.15,20.71,5.8,4.01,13.41,7.22,22.61,9.53Z"/>
      <rect class="cls-1" x="2.39" y="30.99" width="73.94" height=".25"/>
      <rect class="cls-1" x="2.09" y="30.35" width="74.63" height=".25"/>
      <rect class="cls-1" x="5.7" y="24.51" width="67.23" height=".25"/>
      <rect class="cls-1" x="6.47" y="23.74" width="65.94" height=".25"/>
      <rect class="cls-2" x="39.3" y="31.31" width=".25" height="80.92"/>
      <rect class="cls-1" x="55.99" y="-1.11" width=".25" height="27.77" transform="translate(3.97 37.12) rotate(-37.86)"/>
      <rect class="cls-1" x="50.04" y=".06" width=".25" height="25.43" transform="translate(.43 27.11) rotate(-30.37)"/>
      <rect class="cls-1" x="42.77" y="1.23" width=".25" height="23.09" transform="translate(-1.84 14.05) rotate(-18.22)"/>
      <rect class="cls-1" x="8.31" y="12.65" width="27.77" height=".25" transform="translate(-1.51 22.47) rotate(-52.17)"/>
      <rect class="cls-1" x="15.43" y="12.65" width="25.43" height=".25" transform="translate(2.88 30.58) rotate(-59.58)"/>
      <rect class="cls-1" x="23.87" y="12.65" width="23.09" height=".25" transform="translate(12.23 42.44) rotate(-71.83)"/>
      <path class="cls-1" d="m48.3,115.4c0,.1-.08.19-.19.19h-17.56c-.1,0-.19-.08-.19-.19s.08-.19.19-.19h17.56c.1,0,.19.08.19.19Z"/>
      <path class="cls-1" d="m47.47,0v1.52h-16.77V0h16.77Zm-.5,1.02V.5h-15.77v.52h15.77Z"/>
    </g>
  </g>
</svg>