<?xml version="1.0" encoding="UTF-8"?>
<svg id="Layer_2" data-name="Layer 2" xmlns="http://www.w3.org/2000/svg" xmlns:xlink="http://www.w3.org/1999/xlink" viewBox="0 0 198.81 323.44">
  <defs>
    <style>
      .cls-1, .cls-2, .cls-3, .cls-4 {
        fill: none;
      }

      .cls-2 {
        opacity: .5;
      }

      .cls-3 {
        opacity: .9;
      }

      .cls-5 {
        fill: url(#linear-gradient);
      }

      .cls-6 {
        fill: #8b8a8d;
      }

      .cls-7 {
        fill: #6d6e70;
      }

      .cls-8 {
        fill: gray;
      }

      .cls-9 {
        fill: #808184;
      }

      .cls-10 {
        fill: url(#linear-gradient-8);
      }

      .cls-11 {
        fill: url(#linear-gradient-9);
      }

      .cls-12 {
        fill: url(#linear-gradient-3);
      }

      .cls-13 {
        fill: url(#linear-gradient-4);
      }

      .cls-14 {
        fill: url(#linear-gradient-2);
      }

      .cls-15 {
        fill: url(#linear-gradient-6);
      }

      .cls-16 {
        fill: url(#linear-gradient-7);
      }

      .cls-17 {
        fill: url(#linear-gradient-5);
      }

      .cls-18 {
        fill: url(#linear-gradient-14);
      }

      .cls-19 {
        fill: url(#linear-gradient-15);
      }

      .cls-20 {
        fill: url(#linear-gradient-16);
      }

      .cls-21 {
        fill: url(#linear-gradient-13);
      }

      .cls-22 {
        fill: url(#linear-gradient-12);
      }

      .cls-23 {
        fill: url(#linear-gradient-10);
      }

      .cls-24 {
        fill: url(#linear-gradient-11);
      }

      .cls-4 {
        clip-path: url(#clippath);
      }
    </style>
    <clipPath id="clippath">
      <path class="cls-1" d="m132.4,301.9l-9.44,21.53h-20.51c-6.84-.14-12.42-.14-19.67,0l-15.63-.28-1.72-103.12h66.98v81.86Z"/>
    </clipPath>
    <linearGradient id="linear-gradient" x1="78.44" y1="379.48" x2="121.62" y2="379.48" gradientUnits="userSpaceOnUse">
      <stop offset="0" stop-color="#231f20"/>
      <stop offset="1" stop-color="#fff"/>
    </linearGradient>
    <linearGradient id="linear-gradient-2" x1="-.13" y1="274.13" x2="210.58" y2="274.13" xlink:href="#linear-gradient"/>
    <linearGradient id="linear-gradient-3" x1="-.13" y1="278.09" x2="210.58" y2="278.09" xlink:href="#linear-gradient"/>
    <linearGradient id="linear-gradient-4" x1="-.13" y1="278.09" x2="210.58" y2="278.09" xlink:href="#linear-gradient"/>
    <linearGradient id="linear-gradient-5" x1="-.13" y1="282.95" x2="210.58" y2="282.95" xlink:href="#linear-gradient"/>
    <linearGradient id="linear-gradient-6" x1="-.13" y1="283.27" x2="210.58" y2="283.27" xlink:href="#linear-gradient"/>
    <linearGradient id="linear-gradient-7" x1="-.13" y1="296.98" x2="210.58" y2="296.98" xlink:href="#linear-gradient"/>
    <linearGradient id="linear-gradient-8" x1="-.13" y1="301.3" x2="210.58" y2="301.3" xlink:href="#linear-gradient"/>
    <linearGradient id="linear-gradient-9" x1="-.13" y1="302.67" x2="210.58" y2="302.67" xlink:href="#linear-gradient"/>
    <linearGradient id="linear-gradient-10" x1="-.13" y1="274.13" x2="210.58" y2="274.13" xlink:href="#linear-gradient"/>
    <linearGradient id="linear-gradient-11" x1="-.13" y1="282.95" x2="210.58" y2="282.95" xlink:href="#linear-gradient"/>
    <linearGradient id="linear-gradient-12" x1="-.13" y1="283.27" x2="210.58" y2="283.27" xlink:href="#linear-gradient"/>
    <linearGradient id="linear-gradient-13" x1="-.13" y1="296.98" x2="210.58" y2="296.98" xlink:href="#linear-gradient"/>
    <linearGradient id="linear-gradient-14" x1="-.13" y1="301.3" x2="210.58" y2="301.3" xlink:href="#linear-gradient"/>
    <linearGradient id="linear-gradient-15" x1="-.13" y1="302.67" x2="210.58" y2="302.67" xlink:href="#linear-gradient"/>
    <linearGradient id="linear-gradient-16" x1="-.13" y1="301.8" x2="210.58" y2="301.8" xlink:href="#linear-gradient"/>
  </defs>
  <g id="Layer_4" data-name="Layer 4">
    <g>
      <g class="cls-4">
        <g class="cls-2">
          <path class="cls-5" d="m99.88,196.23l-.26.27c-14.86,15.65-22.52,37.32-20.99,59.38l21.25,306.87,21.55-306.47c1.57-22.37-6.31-44.33-21.55-60.04"/>
        </g>
      </g>
      <g class="cls-3">
        <circle class="cls-14" cx="61.07" cy="274.13" r="26.19"/>
        <circle class="cls-12" cx="90.05" cy="278.09" r="9.27"/>
        <circle class="cls-13" cx="108.32" cy="278.09" r="9.27"/>
        <circle class="cls-17" cx="13.06" cy="282.95" r="6.35"/>
        <circle class="cls-15" cx="27.65" cy="283.27" r="8.75"/>
        <circle class="cls-16" cx="8.75" cy="296.98" r="8.75"/>
        <circle class="cls-10" cx="24.08" cy="301.3" r="17.4"/>
        <circle class="cls-11" cx="41.12" cy="302.67" r="20.48"/>
        <circle class="cls-23" cx="137.74" cy="274.13" r="26.19"/>
        <circle class="cls-24" cx="185.75" cy="282.95" r="6.35"/>
        <circle class="cls-22" cx="171.16" cy="283.27" r="8.75"/>
        <circle class="cls-21" cx="190.06" cy="296.98" r="8.75"/>
        <circle class="cls-18" cx="174.73" cy="301.3" r="17.4"/>
        <circle class="cls-19" cx="157.69" cy="302.67" r="20.48"/>
        <rect class="cls-20" x="41.55" y="280.31" width="117.11" height="42.99"/>
      </g>
      <g>
        <g>
          <g>
            <path class="cls-8" d="m101.7,97.51c0,.16-.04.28-.13.36-.09.08-.2.12-.33.12-.11,0-.21-.02-.28-.04-.07-.03-.14-.08-.19-.14l-1.56-1.96s-.06-.05-.1-.05c-.03,0-.06,0-.08.03-.02.02-.04.04-.04.08v2.04h-.44v-2.12c0-.16.04-.28.13-.35.09-.08.21-.12.36-.12.12,0,.22.02.3.05.08.03.15.09.21.18l1.49,1.93s.07.05.11.05c.06,0,.1-.03.1-.1v-2.05h.44v2.1Z"/>
            <path class="cls-6" d="m101.24,98.12c-.13,0-.24-.02-.33-.05-.09-.04-.17-.1-.24-.18l-1.56-1.96v2.14s-.69,0-.69,0v-2.24c0-.19.06-.35.18-.45.11-.1.26-.15.44-.15.14,0,.25.02.35.06.1.04.19.11.27.22l1.48,1.91v-2.13h.69v2.23c0,.19-.06.34-.17.45-.11.1-.25.16-.41.16Zm-2.14-2.45c.08,0,.15.04.2.1l1.56,1.96s.08.08.14.1c.12.05.35.06.47-.06.06-.06.09-.15.09-.27v-1.98h-.19v1.93c0,.13-.09.22-.22.22-.08,0-.15-.03-.21-.1l-1.49-1.93c-.05-.07-.11-.12-.16-.14-.06-.02-.15-.04-.25-.04-.12,0-.21.03-.28.09-.06.05-.09.14-.09.26v1.99h.19v-1.91c0-.08.03-.14.08-.18.04-.03.1-.05.16-.05Z"/>
          </g>
          <g>
            <path class="cls-8" d="m101.48,100.08v.43h-2.14c-.06,0-.09.03-.09.09v.54h2.22v.41h-2.22v.55c0,.06.03.09.09.09h2.14v.42h-2.31c-.24,0-.36-.12-.36-.35v-1.84c0-.23.12-.34.36-.34h2.3Z"/>
            <path class="cls-6" d="m101.61,102.74h-2.43c-.31,0-.48-.17-.48-.48v-1.84c0-.3.18-.47.48-.47h2.43v.68h-2.23v.38h2.22v.66h-2.22v.39h2.23v.67Zm-2.43-2.53c-.2,0-.23.08-.23.22v1.84c0,.17.06.23.23.23h2.18v-.17h-2.01c-.13,0-.21-.09-.21-.21v-.68h2.22v-.16h-2.22v-.66c0-.13.09-.21.21-.21h2.01v-.18h-2.18Z"/>
          </g>
          <g>
            <path class="cls-8" d="m99.56,107.28c-.16,0-.3-.02-.41-.05-.11-.03-.2-.08-.28-.15-.07-.07-.12-.15-.16-.25-.03-.1-.05-.22-.05-.37v-1.72h.44v1.72c0,.13.03.23.1.3.07.06.17.09.32.09h1.18c.15,0,.26-.03.33-.09.07-.06.1-.16.1-.3v-1.72h.44v1.72c0,.28-.07.49-.21.62-.14.13-.36.19-.68.19h-1.14Z"/>
            <path class="cls-6" d="m100.69,107.41h-1.13c-.17,0-.32-.02-.44-.05-.13-.04-.24-.1-.33-.18-.08-.08-.15-.18-.19-.3-.04-.12-.05-.25-.05-.4v-1.85h.69v1.85c0,.1.02.17.06.21.04.04.12.06.24.06h1.18c.15,0,.21-.03.24-.06.04-.04.06-.1.06-.21v-1.85h.69v1.85c0,.32-.08.55-.25.71-.16.15-.41.23-.77.23Zm-1.9-2.53v1.6c0,.13.01.24.04.33.03.08.07.15.12.2.06.05.13.09.22.12.1.03.23.04.38.04h1.13c.28,0,.48-.05.6-.16.11-.1.17-.28.17-.52v-1.6h-.19v1.6c0,.17-.05.3-.14.39-.09.08-.23.12-.41.12h-1.18c-.18,0-.32-.04-.41-.13-.09-.09-.14-.22-.14-.39v-1.6h-.19Z"/>
          </g>
          <g>
            <path class="cls-8" d="m101.57,109.42v.43h-1.23v2.1h-.44v-2.1h-1.23v-.43h2.9Z"/>
            <path class="cls-6" d="m100.47,112.07h-.69v-2.1h-1.23v-.68h3.15v.68h-1.23v2.1Zm-.44-.25h.19v-2.1h1.23v-.18h-2.65v.18h1.23v2.1Z"/>
          </g>
          <g>
            <path class="cls-8" d="m99.17,116.62h-.43v-2.38c0-.1.06-.16.17-.16h1.81c.17,0,.3.02.4.06.1.04.18.1.24.16.06.06.11.14.14.22.03.08.05.16.05.24,0,.12-.02.23-.07.33-.05.1-.12.19-.23.25.1.04.19.1.24.18.06.08.08.2.08.36v.49c0,.05,0,.1,0,.13,0,.04,0,.07,0,.1h-.44s0-.08,0-.11c0-.03,0-.06,0-.09v-.45c0-.13-.04-.23-.11-.29-.07-.06-.16-.09-.28-.09h-1.56v1.03Zm1.51-1.42c.09,0,.16-.01.21-.04.05-.03.09-.06.13-.11.05-.06.07-.13.07-.21s-.02-.15-.07-.21c-.03-.04-.07-.07-.13-.1-.05-.02-.12-.04-.2-.04h-1.44s-.07.02-.07.07v.64h1.51Z"/>
            <path class="cls-6" d="m101.72,116.74h-.7v-.11s-.02-.08-.02-.11v-.55c0-.1-.02-.16-.07-.2-.05-.04-.11-.06-.2-.06h-1.43v1.03h-.68v-2.5c0-.17.11-.28.29-.28h1.81c.19,0,.33.02.45.07.11.05.21.12.28.19.07.08.12.16.16.26.04.1.06.19.06.28,0,.14-.03.27-.08.38-.03.07-.07.13-.12.18.05.04.09.08.12.13.07.11.11.25.11.43v.49c0,.05,0,.1,0,.13,0,.03,0,.06,0,.09l.02.15Zm-.47-.25h.19s0-.07,0-.11v-.49c0-.13-.02-.23-.06-.29-.04-.06-.1-.1-.18-.13l-.25-.09.23-.14c.09-.05.15-.12.18-.19.04-.09.06-.18.06-.28,0-.06-.01-.12-.04-.19-.03-.07-.06-.13-.11-.18-.05-.05-.12-.1-.2-.14-.08-.03-.2-.05-.35-.05h-1.81s-.04,0-.04,0v2.28s.18,0,.18,0v-1.03h1.68c.14,0,.26.04.36.12.1.08.15.22.15.39v.53Zm-.56-1.17h-1.63v-.77c0-.11.08-.19.2-.19h1.44c.11,0,.19.02.26.05.07.03.12.08.17.13.07.09.1.18.1.29s-.03.2-.1.29c-.04.06-.1.1-.17.14-.07.04-.16.06-.27.06Zm-1.38-.25h1.38c.08,0,.12-.01.15-.03.04-.02.07-.04.09-.07.03-.04.05-.08.05-.13s-.02-.09-.05-.14c-.02-.02-.05-.05-.08-.06-.02-.01-.07-.02-.15-.02h-1.38v.46Z"/>
          </g>
          <g>
            <path class="cls-8" d="m98.9,119.1c.07-.06.14-.12.21-.16.07-.04.15-.08.23-.11.08-.03.18-.05.28-.06.1-.01.21-.02.34-.02h.34c.13,0,.24,0,.34.02.1.01.19.03.28.06.08.03.16.06.23.11.07.04.14.1.21.16.12.11.22.25.28.4s.1.33.1.52-.03.37-.1.53-.16.29-.28.41c-.07.06-.14.11-.21.16-.07.04-.15.08-.23.1-.08.03-.18.04-.28.06-.1.01-.21.02-.34.02h-.34c-.13,0-.24,0-.34-.02-.1-.01-.19-.03-.28-.06-.08-.03-.16-.06-.23-.1-.07-.04-.14-.09-.21-.16-.12-.11-.22-.25-.28-.4-.07-.16-.1-.33-.1-.52s.03-.37.1-.52c.07-.15.16-.29.28-.4Zm2.4.93c0-.13-.03-.25-.08-.37-.05-.11-.13-.21-.22-.28-.07-.06-.16-.11-.25-.14s-.22-.05-.37-.05h-.49c-.15,0-.27.02-.37.05-.1.03-.18.08-.25.14-.09.08-.17.17-.22.28-.05.11-.08.23-.08.37,0,.11.02.22.06.32.04.1.1.19.17.26.07.08.17.14.28.19.11.05.25.07.41.07h.52c.16,0,.3-.02.41-.07.11-.05.2-.11.28-.19.07-.07.13-.16.17-.26.04-.1.06-.21.06-.32Z"/>
            <path class="cls-6" d="m100.29,121.41h-.34c-.13,0-.25,0-.36-.02-.11-.01-.21-.04-.3-.06-.09-.03-.18-.07-.26-.11-.08-.05-.16-.11-.23-.17-.13-.12-.24-.27-.31-.45-.07-.17-.11-.37-.11-.57s.04-.4.11-.57c.07-.17.18-.32.31-.44h0c.07-.07.15-.13.23-.17.08-.05.17-.09.26-.12s.19-.05.3-.07c.11-.01.23-.02.36-.02h.34c.13,0,.25,0,.36.02.11.01.21.04.3.07.09.03.18.07.26.12.08.05.15.11.23.17.13.12.24.27.31.44.07.17.11.36.11.57s-.04.4-.11.58c-.07.17-.18.33-.32.45-.07.07-.15.13-.23.17-.08.05-.17.09-.26.11-.09.03-.19.05-.3.06-.1.01-.22.02-.36.02Zm-.34-2.53c-.12,0-.23,0-.33.02-.09.01-.18.03-.25.05-.07.02-.14.06-.21.09-.06.04-.13.09-.19.14h0c-.11.1-.19.22-.25.36s-.09.3-.09.47.03.33.09.48c.06.14.15.26.25.36.06.06.12.1.19.14.06.04.13.07.21.09.08.02.16.04.25.05.09.01.2.02.33.02h.34c.12,0,.23,0,.33-.02.09-.01.17-.03.25-.05.07-.02.14-.05.2-.09.06-.04.13-.08.19-.14.11-.1.19-.22.25-.36.06-.14.09-.3.09-.48s-.03-.34-.09-.47c-.06-.14-.14-.26-.25-.36-.06-.06-.13-.11-.19-.14-.06-.04-.13-.07-.21-.1-.08-.02-.16-.04-.25-.05-.1-.01-.2-.02-.33-.02h-.34Zm.43,2.11h-.52c-.18,0-.33-.03-.46-.08-.12-.05-.23-.13-.32-.22-.08-.09-.15-.19-.19-.3-.05-.11-.07-.24-.07-.37,0-.15.03-.29.09-.42.06-.13.15-.24.26-.33.08-.07.18-.12.29-.16.11-.04.25-.06.41-.06h.49c.16,0,.3.02.41.06.11.04.21.09.29.16.11.09.2.2.26.33.06.13.09.27.09.42,0,.13-.02.25-.07.37-.05.11-.11.22-.2.3-.09.09-.19.16-.32.22-.13.05-.28.08-.46.08Zm-.51-1.68c-.13,0-.25.01-.33.04-.08.03-.16.07-.22.12-.08.07-.14.15-.19.24-.05.1-.07.2-.07.31,0,.1.02.19.05.27.04.09.08.16.14.22.07.07.14.12.24.16.09.04.21.06.36.06h.52c.14,0,.27-.02.36-.06s.17-.09.24-.16c.06-.06.11-.14.15-.22.04-.09.05-.17.05-.27,0-.12-.02-.22-.07-.31-.05-.1-.11-.18-.19-.24-.06-.05-.13-.09-.22-.12-.08-.03-.2-.04-.33-.04h-.49Z"/>
          </g>
          <g>
            <path class="cls-8" d="m101.7,125.52c0,.16-.04.28-.13.36-.09.08-.2.12-.33.12-.11,0-.21-.01-.28-.04-.07-.03-.14-.08-.19-.14l-1.56-1.96s-.06-.05-.1-.05c-.03,0-.06,0-.08.03-.02.02-.04.04-.04.08v2.04h-.44v-2.12c0-.16.04-.28.13-.35.09-.08.21-.12.36-.12.12,0,.22.02.3.05.08.03.15.09.21.18l1.49,1.93s.07.05.11.05c.06,0,.1-.03.1-.1v-2.05h.44v2.1Z"/>
            <path class="cls-6" d="m101.24,126.13c-.13,0-.24-.02-.33-.05-.09-.04-.17-.1-.24-.18l-1.56-1.96v2.14s-.69,0-.69,0v-2.24c0-.19.06-.35.18-.45.11-.1.26-.15.44-.15.14,0,.25.02.35.06.1.04.19.11.27.22l1.48,1.91v-2.13h.69v2.23c0,.19-.06.34-.17.45-.11.1-.25.16-.41.16Zm-2.14-2.45c.08,0,.15.04.2.1l1.56,1.96s.08.08.14.1c.12.05.35.07.48-.05.06-.06.09-.15.09-.27v-1.98h-.19v1.93c0,.13-.09.22-.22.22-.08,0-.15-.03-.21-.1l-1.49-1.93c-.05-.07-.11-.12-.16-.14-.06-.02-.15-.04-.25-.04-.12,0-.21.03-.28.09-.06.05-.09.14-.09.26v1.99h.19v-1.91c0-.08.03-.14.09-.18.04-.03.1-.05.15-.05Z"/>
          </g>
        </g>
        <g>
          <g>
            <path class="cls-8" d="m100.63,84.73c0,.17-.2.3-.45.3s-.45-.13-.45-.3.2-.3.45-.3.45.13.45.3"/>
            <path class="cls-6" d="m100.17,85.15c-.32,0-.58-.19-.58-.42s.25-.42.58-.42.58.19.58.42-.25.42-.58.42Zm0-.6c-.19,0-.33.09-.33.17s.14.17.33.17.33-.09.33-.17-.14-.17-.33-.17Z"/>
          </g>
          <g>
            <path class="cls-8" d="m100.42,83.85c0,.05-.11.09-.25.09s-.25-.04-.25-.09.11-.09.25-.09.25.04.25.09"/>
            <ellipse class="cls-6" cx="100.17" cy="83.85" rx=".37" ry=".22"/>
          </g>
          <g>
            <path class="cls-8" d="m99.72,92.48c0-.17.2-.3.45-.3s.45.13.45.3-.2.3-.45.3-.45-.13-.45-.3"/>
            <path class="cls-6" d="m100.17,92.9c-.32,0-.58-.19-.58-.42s.25-.42.58-.42.58.19.58.42-.25.42-.58.42Zm0-.6c-.19,0-.33.09-.33.17s.14.17.33.17.33-.09.33-.17-.14-.17-.33-.17Z"/>
          </g>
          <g>
            <path class="cls-8" d="m99.93,93.35c0-.05.11-.09.25-.09s.25.04.25.09-.11.09-.25.09-.25-.04-.25-.09"/>
            <ellipse class="cls-6" cx="100.17" cy="93.35" rx=".37" ry=".22"/>
          </g>
          <g>
            <path class="cls-8" d="m104.09,89.05c-.17,0-.3-.2-.3-.45s.13-.45.3-.45.3.2.3.45-.13.45-.3.45"/>
            <path class="cls-6" d="m104.09,89.18c-.24,0-.42-.25-.42-.58s.19-.58.42-.58.42.25.42.58-.19.58-.42.58Zm0-.91c-.08,0-.17.14-.17.33s.09.33.17.33.17-.14.17-.33-.09-.33-.17-.33Z"/>
          </g>
          <g>
            <path class="cls-8" d="m104.96,88.85c-.05,0-.09-.11-.09-.25s.04-.25.09-.25.09.11.09.25-.04.25-.09.25"/>
            <ellipse class="cls-6" cx="104.96" cy="88.6" rx=".22" ry=".37"/>
          </g>
          <g>
            <path class="cls-8" d="m103.36,85.08s.14.01.24.11c.1.1.15.2.11.24-.04.04-.14-.01-.24-.11s-.15-.2-.11-.24"/>
            <path class="cls-6" d="m103.67,85.57c-.12,0-.25-.11-.3-.16-.16-.16-.2-.32-.11-.42h0c.09-.09.26-.05.42.11.05.05.16.17.16.3,0,.05-.02.09-.05.12-.03.03-.07.05-.12.05h0Z"/>
          </g>
          <g>
            <path class="cls-8" d="m96.24,88.14c.17,0,.3.2.3.45s-.13.45-.3.45-.3-.2-.3-.45.13-.45.3-.45"/>
            <path class="cls-6" d="m96.24,89.18c-.24,0-.42-.25-.42-.58s.19-.58.42-.58.42.25.42.58-.19.58-.42.58Zm0-.91c-.08,0-.17.14-.17.33s.09.33.17.33.17-.14.17-.33-.09-.33-.17-.33Z"/>
          </g>
          <g>
            <path class="cls-8" d="m95.36,88.35c.05,0,.09.11.09.25s-.04.25-.09.25-.09-.11-.09-.25.04-.25.09-.25"/>
            <path class="cls-6" d="m95.36,88.97c-.13,0-.22-.15-.22-.37s.08-.37.22-.37.22.15.22.37-.08.37-.22.37Z"/>
          </g>
          <g>
            <path class="cls-8" d="m96.91,92.07s-.14-.01-.24-.11-.15-.2-.11-.24c.04-.04.14.01.24.11.1.1.15.2.11.24"/>
            <path class="cls-6" d="m96.88,92.21c-.12,0-.25-.11-.3-.16-.16-.16-.2-.32-.11-.42.03-.03.07-.05.12-.05h0c.12,0,.25.11.3.16.05.05.16.17.16.3,0,.05-.02.09-.05.12-.03.03-.07.05-.12.05h0Z"/>
          </g>
          <g>
            <path class="cls-8" d="m103.76,91.71s-.01.14-.11.24c-.1.1-.2.15-.24.11-.04-.04.01-.14.11-.24.1-.1.2-.15.24-.11"/>
            <path class="cls-6" d="m103.45,92.19h0s-.09-.02-.12-.05c-.03-.03-.05-.07-.05-.12,0-.12.11-.25.16-.3.05-.05.17-.16.29-.16h0s.09.02.12.05c.03.03.05.07.05.12,0,.12-.11.25-.16.3-.05.05-.17.16-.3.16Z"/>
          </g>
          <g>
            <path class="cls-8" d="m101.95,92.45c-.13,0-.2-.06-.25-.17-.1-.26-.28-.46-.5-.62-.23-.17-.49-.29-.78-.34-.29-.06-.58-.01-.85.11-.34.15-.64.36-.84.69-.03.06-.06.12-.09.18-.05.12-.12.18-.25.18-.18,0-.33-.08-.41-.24-.09-.16,0-.3.17-.33.45-.06.83-.27,1.12-.63.25-.3.5-.59.75-.89.09-.11.23-.11.32,0,.24.29.47.58.71.87.29.36.68.56,1.13.62.17.02.25.15.18.3-.07.15-.25.27-.42.26"/>
            <path class="cls-6" d="m98.41,92.6h-.01c-.23,0-.41-.11-.52-.3-.06-.11-.07-.23-.02-.32.05-.1.15-.17.29-.19.42-.06.76-.25,1.04-.58.21-.25.42-.5.63-.74l.12-.15c.07-.08.16-.12.25-.12h0c.1,0,.19.05.25.13.21.25.41.5.62.76l.09.11c.27.33.61.51,1.05.57.12.02.22.08.27.17.05.09.05.2,0,.31-.09.2-.31.34-.53.34h0c-.18,0-.3-.09-.36-.25-.08-.21-.23-.4-.46-.56-.23-.16-.47-.27-.73-.32-.25-.05-.51-.01-.77.1-.37.16-.62.37-.78.64-.03.05-.05.1-.08.16-.06.17-.18.26-.36.26Zm.36-.75c-.18.09-.38.15-.6.19-.05,0-.08.03-.1.05-.02.03,0,.07.01.09.06.11.17.17.31.17.06,0,.1-.01.13-.1.03-.07.06-.14.09-.2.04-.07.09-.14.15-.21Zm2.8-.02c.11.12.19.25.24.4.03.07.06.09.13.09h0c.12,0,.26-.08.3-.19,0-.02.02-.06,0-.09-.01-.02-.04-.04-.09-.04-.22-.03-.42-.09-.6-.17Zm-1.38-1.39s-.04.01-.06.04l-.12.15c-.21.25-.42.49-.63.74-.01.01-.02.03-.03.04.06-.03.12-.06.18-.09.31-.14.62-.18.92-.12.19.04.38.1.55.2-.01-.02-.03-.03-.04-.05l-.09-.11c-.21-.25-.41-.5-.62-.76-.02-.02-.04-.04-.06-.04h0Z"/>
          </g>
          <g>
            <path class="cls-8" d="m96.3,90.45c0-.21.04-.27.18-.33.29-.12.51-.34.67-.6.15-.24.26-.49.29-.77.03-.27-.02-.53-.13-.78-.15-.34-.36-.63-.69-.82-.04-.03-.09-.06-.14-.07-.18-.04-.22-.18-.19-.33.02-.14.09-.25.22-.32.16-.1.31-.03.34.15.06.4.22.74.51,1.01.23.21.47.4.7.6.1.08.19.16.29.25.11.09.1.23,0,.32-.3.24-.59.48-.89.73-.34.29-.53.66-.59,1.1-.02.13-.08.22-.18.23-.08,0-.15-.02-.21-.08-.11-.09-.17-.21-.17-.29"/>
            <path class="cls-6" d="m96.66,90.94c-.09,0-.18-.04-.27-.11-.13-.11-.21-.26-.22-.38h0c0-.25.06-.37.25-.45.25-.1.45-.28.62-.55.16-.25.25-.48.27-.72.03-.24-.01-.47-.12-.72-.16-.36-.37-.6-.64-.76-.05-.03-.08-.05-.11-.05-.22-.05-.33-.23-.29-.47.03-.18.12-.32.27-.41.12-.07.24-.08.34-.03.1.05.17.15.19.28.06.39.21.7.47.94.16.15.33.29.49.43l.5.42c.08.07.12.16.12.25,0,.1-.05.19-.13.25l-.31.25c-.19.16-.39.31-.58.47-.31.26-.49.6-.55,1.02-.04.28-.22.33-.29.34-.01,0-.03,0-.04,0Zm-.23-.5s.04.13.13.2c.06.05.09.05.12.05.02,0,.06,0,.07-.12.03-.21.08-.4.17-.57-.12.1-.24.18-.38.24-.08.03-.1.04-.1.21Zm.92-2.69c.03.05.05.11.08.16.13.29.18.57.14.85-.03.21-.1.43-.21.65,0,0,.02-.01.02-.02.19-.16.39-.32.58-.48l.31-.25s.04-.04.04-.06c0-.03-.02-.05-.03-.06l-.5-.42c-.14-.12-.29-.24-.43-.37Zm-.69-1.25s-.05,0-.08.03c-.09.05-.14.13-.16.24-.03.16.05.18.1.19.06.01.11.04.16.07.09.05.17.1.24.17-.09-.18-.15-.38-.19-.6,0-.05-.02-.08-.04-.09,0,0-.01,0-.02,0Z"/>
          </g>
          <g>
            <path class="cls-8" d="m103.68,90.81c-.1,0-.18-.06-.19-.17-.03-.19-.08-.37-.15-.54-.13-.29-.34-.51-.59-.71-.26-.22-.51-.44-.77-.66-.11-.09-.1-.23,0-.32.29-.24.58-.48.87-.71.35-.29.55-.67.61-1.12.02-.18.15-.26.31-.18.17.08.29.31.24.5-.02.07-.05.13-.12.15-.26.09-.46.26-.62.48-.19.25-.32.54-.37.85-.05.28,0,.55.11.81.16.36.38.67.74.87.04.02.07.04.11.05.15.06.2.13.19.29-.02.17-.1.3-.25.38-.03.02-.07.02-.11.03"/>
            <path class="cls-6" d="m103.67,90.94c-.17-.01-.28-.11-.31-.27-.03-.19-.08-.36-.15-.51-.13-.29-.35-.5-.55-.66-.19-.16-.38-.32-.57-.48l-.2-.17c-.08-.07-.12-.16-.12-.25s.05-.19.13-.25l.87-.71c.32-.26.5-.6.56-1.04.02-.13.08-.23.17-.28.09-.05.21-.05.32,0,.23.1.37.4.31.64-.04.15-.13.22-.2.24-.22.07-.4.22-.56.44-.19.25-.31.52-.35.8-.04.24,0,.48.1.74.17.39.39.65.68.81.03.02.06.03.1.04.2.08.29.21.27.42-.02.22-.13.39-.32.48-.04.02-.07.03-.1.03h-.07Zm-.25-.94s.02.04.03.06c.08.17.13.36.16.57,0,.03.01.05.06.06h.01s.03-.01.04-.02c.11-.06.17-.15.19-.28,0-.09,0-.12-.11-.16-.04-.02-.08-.04-.12-.06-.09-.05-.18-.11-.26-.18Zm-.45-2.22s-.02.02-.04.03l-.87.71s-.04.04-.04.06.01.04.03.06l.2.17c.19.16.38.32.57.48.05.04.1.08.15.13-.03-.06-.06-.12-.09-.18-.13-.29-.17-.59-.12-.88.03-.2.1-.4.2-.59Zm.69-1.27s-.02,0-.03,0c-.02.01-.04.05-.05.09-.03.21-.08.41-.17.59.13-.12.28-.2.44-.25,0,0,.03-.01.04-.06.03-.13-.05-.3-.17-.35-.01,0-.04-.02-.06-.02Z"/>
          </g>
          <g>
            <path class="cls-8" d="m98.4,84.72c.14,0,.2.05.26.18.11.26.3.46.53.62.25.17.52.3.83.34.26.04.5,0,.74-.1.35-.15.66-.35.86-.69.04-.06.06-.12.09-.18.04-.12.12-.18.25-.17.17,0,.31.08.4.22.1.17.02.31-.17.34-.45.06-.82.27-1.1.62-.24.29-.49.58-.73.86-.09.11-.22.11-.31,0-.24-.28-.47-.56-.7-.84-.3-.37-.68-.57-1.14-.63-.21-.03-.29-.18-.17-.36.08-.12.24-.21.39-.21"/>
            <path class="cls-6" d="m100.18,86.97h0c-.09,0-.18-.04-.25-.12l-.07-.08c-.21-.25-.42-.51-.63-.77-.28-.34-.62-.53-1.06-.59-.14-.02-.25-.09-.3-.2-.05-.11-.03-.23.04-.35.1-.16.3-.26.49-.26h0c.18,0,.3.08.37.26.09.22.25.41.48.57.26.18.51.28.78.32.22.03.45,0,.67-.09.38-.16.63-.36.8-.64.03-.05.06-.11.08-.17.06-.17.18-.26.35-.26,0,0,.01,0,.02,0,.22.01.39.11.5.28.07.12.08.23.04.34-.05.1-.16.17-.29.19-.42.06-.75.25-1.02.58-.18.21-.36.43-.54.64l-.19.23c-.07.08-.16.12-.25.12Zm-.81-1.19s.04.04.06.07c.21.26.42.51.63.76l.07.08s.03.03.06.03h0s.04-.01.06-.04l.19-.23c.18-.21.36-.42.54-.63.01-.02.03-.03.04-.05-.07.04-.14.07-.21.1-.26.11-.54.15-.8.11-.21-.03-.42-.1-.63-.21Zm2.56-.94c-.05,0-.09.02-.11.09-.03.07-.06.14-.1.21-.04.07-.09.13-.14.2.18-.09.37-.15.58-.18.05,0,.09-.03.1-.05.01-.02,0-.06-.02-.1-.06-.1-.16-.16-.29-.16,0,0,0,0-.01,0Zm-3.53,0c-.11,0-.23.06-.28.15-.03.04-.04.09-.03.11.01.03.05.05.11.05.21.03.4.08.58.17-.1-.12-.18-.24-.24-.38-.04-.09-.06-.1-.14-.1h0Z"/>
          </g>
          <g>
            <path class="cls-8" d="m97.58,90.64c0-.26.21-.4.45-.31.22.09.38.33.36.56-.01.21-.19.34-.4.29-.24-.06-.42-.3-.42-.54"/>
            <path class="cls-6" d="m98.1,91.32s-.08,0-.12-.01c-.3-.07-.52-.36-.52-.66,0-.17.07-.31.19-.39.12-.08.28-.09.43-.03.27.11.46.4.44.68,0,.14-.07.26-.18.33-.07.05-.16.08-.25.08Zm-.21-.89s-.07,0-.1.03c-.05.03-.08.1-.08.18h0c0,.19.15.37.33.42.06.02.12,0,.17-.03.04-.03.07-.08.07-.15.01-.17-.12-.37-.28-.43-.04-.02-.07-.02-.11-.02Z"/>
          </g>
          <g>
            <path class="cls-8" d="m102.78,90.64c0,.24-.17.47-.39.53-.23.07-.42-.07-.42-.31,0-.23.19-.47.41-.54.23-.07.41.08.41.32"/>
            <path class="cls-6" d="m102.27,91.31c-.1,0-.19-.03-.26-.08-.11-.08-.17-.22-.17-.37,0-.28.23-.58.5-.66.15-.04.29-.02.39.06.11.08.17.22.17.38h0c0,.29-.21.57-.48.65-.05.02-.1.02-.15.02Zm.21-.88s-.05,0-.07.01c-.17.05-.31.24-.32.42,0,.08.02.14.07.17.05.04.12.04.19.02.17-.05.3-.23.3-.41,0-.08-.02-.14-.07-.18-.03-.02-.06-.03-.1-.03Z"/>
          </g>
          <g>
            <path class="cls-8" d="m98.41,86.26c0,.25-.2.5-.45.55-.21.04-.38-.12-.37-.33,0-.22.17-.43.37-.51.24-.09.45.05.45.29"/>
            <path class="cls-6" d="m97.9,86.94c-.1,0-.2-.04-.28-.1-.1-.09-.16-.22-.15-.37.01-.27.2-.53.45-.62.15-.06.32-.04.44.04.12.08.18.21.18.37h0c0,.31-.25.61-.55.67-.03,0-.06,0-.09,0Zm.21-.88s-.07,0-.1.02c-.16.06-.28.23-.29.4,0,.07.02.13.07.17.04.04.1.05.15.04.19-.04.35-.24.35-.43h0c0-.07-.03-.13-.07-.16-.03-.02-.07-.03-.11-.03Z"/>
          </g>
          <g>
            <path class="cls-8" d="m102.26,85.94c.23,0,.47.22.5.47,0,.06,0,.13,0,.19-.04.16-.18.24-.34.21-.27-.05-.5-.36-.45-.62.03-.15.14-.25.3-.25"/>
            <path class="cls-6" d="m102.48,86.94s-.06,0-.09,0c-.17-.03-.33-.14-.43-.29-.1-.15-.14-.32-.12-.47.04-.21.2-.35.42-.35h0c.29,0,.58.27.62.58.01.09,0,.17-.01.23-.05.19-.21.31-.4.31Zm-.22-.87c-.09,0-.16.05-.17.15-.02.09.01.19.08.29.07.1.17.17.27.19.09.02.17-.02.2-.12,0-.04.01-.09,0-.14-.02-.18-.21-.36-.38-.36h0Z"/>
          </g>
          <g>
            <path class="cls-8" d="m96.96,85.06s.03.03.03.05c-.01.1-.22.31-.32.32-.04,0-.06,0-.06-.06.02-.11.2-.29.31-.31,0,0,.01,0,.04,0"/>
            <path class="cls-6" d="m96.66,85.56c-.07,0-.11-.03-.13-.05-.03-.03-.05-.08-.04-.15.03-.16.25-.38.41-.41h.12s.06.06.06.06h0s.05.07.04.13c-.02.16-.27.41-.43.43,0,0-.02,0-.03,0Z"/>
          </g>
          <g>
            <path class="cls-8" d="m96.97,85.07s-.01.14-.11.24-.2.15-.24.11c-.04-.04.01-.14.11-.24.1-.1.2-.15.24-.11"/>
            <path class="cls-6" d="m96.66,85.56s-.09-.02-.12-.05c-.09-.09-.05-.26.11-.42.05-.05.17-.16.3-.16h0s.09.02.12.05c.03.03.05.07.05.12,0,.12-.11.25-.16.3-.1.1-.21.16-.3.16Z"/>
          </g>
          <g>
            <path class="cls-8" d="m100.16,87.83c-.43,0-.78.35-.78.78s.35.78.78.78.78-.35.78-.78-.35-.78-.78-.78m0,1.72c-.52,0-.94-.42-.94-.94s.42-.94.94-.94.94.42.94.94-.42.94-.94.94"/>
            <path class="cls-6" d="m100.16,89.67c-.59,0-1.07-.48-1.07-1.07s.48-1.07,1.07-1.07,1.07.48,1.07,1.07-.48,1.07-1.07,1.07Zm0-1.72c-.36,0-.65.29-.65.65s.29.65.65.65.65-.29.65-.65-.29-.65-.65-.65Z"/>
          </g>
        </g>
        <g id="Back_RL_Logo" data-name="Back RL Logo">
          <g>
            <path class="cls-8" d="m98.63,59.06h0c-.36-.35-.87-.53-1.38-.49l-7.12.49,7.11.5c.52.04,1.03-.15,1.39-.5"/>
            <path class="cls-6" d="m97.37,59.69s-.09,0-.14,0l-7.11-.5v-.25l7.12-.49c.55-.04,1.08.15,1.47.52l.09.09-.09.1c-.36.35-.84.54-1.35.54Zm-5.44-.63l5.32.37c.43.03.87-.1,1.2-.37-.33-.27-.77-.4-1.19-.37l-5.33.37Z"/>
          </g>
          <g>
            <path class="cls-8" d="m106.34,64.13s0,0,0,0l.48-.86c.04-.06.1-.1.18-.1h0c.08,0,.14.04.18.1l.48.86s0,0,0,0h.25s0,0,0-.01l-.54-.96c-.08-.14-.22-.22-.38-.22h0c-.16,0-.3.08-.38.22l-.54.96s0,.01,0,.01h.24Z"/>
            <path class="cls-6" d="m107.92,64.25h-.31l-.04-.05-.5-.88s-.11-.05-.14,0l-.52.93h-.4s-.08-.13-.08-.13l.57-1.03c.1-.18.29-.28.49-.28s.39.11.49.28l.58,1.03-.07.13h-.08Z"/>
          </g>
          <g>
            <path class="cls-8" d="m93.75,62.93c.1,0,.18.03.24.1.07.07.1.15.1.24v.51c0,.1-.03.18-.1.24-.07.07-.15.1-.24.1h-1.03c-.09,0-.17-.03-.24-.1-.07-.07-.1-.15-.1-.24v-.51c0-.1.03-.18.1-.24.07-.07.15-.1.24-.1h1.03Zm.1.31s-.01-.05-.03-.07c-.02-.02-.04-.03-.07-.03h-1.03s-.05.01-.07.03c-.02.02-.03.04-.03.07v.58s.01.05.03.07c.02.02.04.03.07.03h1.03s.05-.01.07-.03c.02-.02.03-.04.03-.07v-.58Z"/>
            <path class="cls-6" d="m93.75,64.25h-1.03c-.13,0-.24-.05-.33-.14-.09-.09-.14-.2-.14-.33v-.51c0-.13.05-.24.14-.33.09-.09.2-.14.33-.14h1.03c.13,0,.24.05.33.14.09.09.14.2.14.33v.51c0,.13-.05.24-.14.33-.09.09-.2.14-.33.14Zm-.02-1h-1s.02.57.02.57l1-.02-.02-.54Zm0-.02h0s0,0,0,0Z"/>
          </g>
          <g>
            <path class="cls-8" d="m96.41,63.92s0,0,0,0c0,0,0,0,0,0v.18s0,0,0,0c0,0,0,0,0,0h-1.36c-.1,0-.18-.03-.24-.1-.07-.07-.1-.15-.1-.24v-.51c0-.09.03-.18.1-.24.07-.07.15-.1.24-.1h1.36s0,0,0,0c0,0,0,0,0,0v.18s0,0,0,0c0,0,0,0,0,0h-1.36s-.05.01-.07.03c-.02.02-.03.04-.03.07v.58s.01.05.03.07c.02.02.04.03.07.03h1.36Z"/>
            <path class="cls-6" d="m96.41,64.25h-1.36c-.13,0-.24-.05-.33-.14-.09-.09-.14-.2-.14-.33v-.51c0-.13.05-.24.14-.33.09-.09.2-.14.33-.14h1.41l.08.08v.3s-.07.08-.07.08h-.06s-1.33,0-1.33,0v.54h1.39l.08.08v.29s-.07.08-.07.08h-.06Z"/>
          </g>
          <g>
            <path class="cls-8" d="m99.44,63.43h1.42s0,0,0,0c0,0,0,0,0,0v.18s0,0,0,0c0,0,0,0,0,0h-1.42v.19s0,.05.03.07c.02.02.04.03.07.03h1.36s0,0,0,0c0,0,0,0,0,0v.18s0,0,0,0c0,0,0,0,0,0h-1.36c-.09,0-.18-.03-.24-.1-.07-.07-.1-.15-.1-.24v-.51c0-.09.03-.18.1-.24.07-.07.15-.1.24-.1h1.36s0,0,0,0c0,0,0,0,0,0v.18s0,0,0,0c0,0,0,0,0,0h-1.36s-.05.01-.07.03c-.02.02-.03.04-.03.07v.19Z"/>
            <path class="cls-6" d="m100.9,64.25h-1.36c-.13,0-.24-.05-.33-.14-.09-.09-.14-.2-.14-.33v-.51c0-.13.05-.24.14-.33.09-.09.2-.14.33-.14h1.41l.08.08v.3s-.07.08-.07.08h-.06s-1.33,0-1.33,0v.04h1.36l.07.08v.29s-.07.08-.07.08h-.06s-1.3,0-1.3,0v.04h1.39l.08.08v.29s-.07.08-.07.08h-.06Z"/>
          </g>
          <g>
            <polygon class="cls-8" points="101.55 62.94 101.55 62.94 101.56 62.93 103.24 62.93 103.25 62.94 103.25 62.94 103.25 63.13 103.25 63.14 103.24 63.14 102.52 63.14 102.52 64.12 102.52 64.12 102.51 64.13 102.29 64.13 102.29 64.12 102.28 64.12 102.28 63.14 101.56 63.14 101.55 63.14 101.55 63.13 101.55 62.94"/>
            <polygon class="cls-6" points="102.51 64.25 102.24 64.25 102.16 64.18 102.16 64.12 102.16 63.26 101.51 63.26 101.43 63.19 101.42 62.89 101.5 62.81 101.56 62.81 103.3 62.81 103.38 62.89 103.38 63.18 103.3 63.26 103.24 63.26 102.65 63.26 102.65 64.17 102.57 64.25 102.51 64.25"/>
          </g>
          <g>
            <path class="cls-8" d="m105.61,64.12s0,0,0,0c0,0,0,0,0,0h-1.36c-.09,0-.18-.03-.24-.1-.07-.07-.1-.15-.1-.24v-.84s0,0,0,0c0,0,0,0,0,0h.22s0,0,0,0c0,0,0,0,0,0v.88s.01.05.03.07c.02.02.04.03.07.03h1.36s0,0,0,0c0,0,0,0,0,0v.19Z"/>
            <path class="cls-6" d="m105.6,64.25h-1.36c-.13,0-.24-.05-.33-.14-.09-.09-.14-.2-.14-.33v-.89l.08-.08h.33s.08.07.08.07v.06s0,.86,0,.86h1.39l.08.08v.3s-.07.08-.07.08h-.06Z"/>
          </g>
          <g>
            <path class="cls-8" d="m110.12,63.27v.02c0,.09-.03.17-.1.24.07.07.1.15.1.24v.02c0,.09-.03.17-.1.24-.07.07-.15.1-.24.1h-1.36s0,0,0,0c0,0,0,0,0,0v-1.18s0,0,0,0c0,0,0,0,0,0h1.36c.09,0,.17.03.24.1.07.07.1.15.1.24m-1.47-.14v.29h1.13s.05-.01.07-.03c.02-.02.03-.04.03-.07v-.09s-.01-.05-.03-.07c-.02-.02-.04-.03-.07-.03h-1.13Zm1.23.68v-.08s-.01-.05-.03-.07c-.02-.02-.04-.03-.07-.03h-1.13v.29h1.13s.05,0,.07-.03c.02-.02.03-.04.03-.07"/>
            <path class="cls-6" d="m109.77,64.25h-1.41l-.08-.08v-.06s0-1.24,0-1.24l.09-.07h.05s1.36,0,1.36,0c.13,0,.24.05.33.14.09.09.14.2.14.33v.02c0,.09-.02.17-.06.24.04.07.06.15.06.24,0,.15-.05.26-.14.35-.09.09-.2.14-.33.14Zm-.02-.43h.12-.12Zm-.98-.02h.98v-.04h-.98v.04Zm0-.5h.98v-.04h-.98v.04Z"/>
          </g>
          <g>
            <polygon class="cls-8" points="97 61.37 98.64 61.37 97.82 60.63 97 61.37"/>
            <path class="cls-6" d="m98.97,61.49h-2.3l1.15-1.03,1.15,1.03Zm-1.64-.25h.99l-.49-.44-.5.44Z"/>
          </g>
          <g>
            <path class="cls-8" d="m102.06,59.06h-2.49l2.57,2.31h1.11l-1.74-1.57h.55c.52,0,.95-.42.95-.95v-1.16c0-.52-.42-.95-.95-.95h-5.07l.82.74h4.24c.11,0,.21.09.21.21v1.16c0,.11-.09.21-.21.21Z"/>
            <path class="cls-6" d="m103.58,61.49h-1.49l-2.84-2.56h2.82s.08-.04.08-.08v-1.16s-.04-.08-.08-.08h-4.29l-1.1-.99h5.39c.59,0,1.07.48,1.07,1.07v1.16c0,.59-.48,1.07-1.07,1.07h-.23l1.74,1.57Zm-1.39-.25h.74l-1.74-1.57h.88c.45,0,.82-.37.82-.82v-1.16c0-.45-.37-.82-.82-.82h-4.74l.54.49h4.2c.18,0,.33.15.33.33v1.16c0,.18-.15.33-.33.33h-2.16l2.29,2.06Z"/>
          </g>
          <g>
            <path class="cls-8" d="m91.38,63.69h.1c.15,0,.27-.12.27-.27v-.23c0-.15-.12-.27-.27-.27h-1.35v1.2h.24v-.99h1.12s.03.01.03.03v.3s-.01.03-.03.03h-.7l.71.64h.34l-.47-.43Z"/>
            <path class="cls-6" d="m90.5,64.25h-.49v-1.45h1.47c.22,0,.39.18.39.39v.23c0,.15-.09.29-.22.35l.52.47h-.72l-.96-.87v.87Zm0-.89h.9v-.1h-.9v.1Z"/>
          </g>
          <g>
            <path class="cls-8" d="m98.6,64.13h.04s0,0,0-.01l-.05-.03-.87-.56.86-.55.05-.03s0-.01,0-.01h-.06,0s-.31,0-.31,0c0,0,0,0-.01,0l-.8.48h-.23s0-.47,0-.47c0,0,0-.01-.01-.01h-.2s-.01,0-.01.01v1.17s0,.01.01.01h.2s.01,0,.01-.01v-.48h.23l.8.48s0,0,.01,0h.31s0,0,0,0h.02s0,0,0,0Z"/>
            <polygon class="cls-6" points="98.63 64.25 98.21 64.25 98.16 64.21 97.42 63.76 97.35 63.76 97.35 64.24 97.21 64.25 96.88 64.25 96.87 64.12 96.87 62.82 97.01 62.81 97.34 62.81 97.35 62.94 97.35 63.29 97.42 63.29 98.22 62.81 98.26 62.81 98.72 62.81 98.78 62.99 98.65 63.08 97.96 63.53 98.78 64.06 98.74 64.25 98.63 64.25"/>
          </g>
        </g>
        <g>
          <g>
            <path class="cls-7" d="m84.57,52.13l-9.33-6.12.07-8.59,9.32-3-.06,17.7Zm-8.82-6.39l8.33,5.46.05-16.09-8.32,2.68-.06,7.95Z"/>
            <path class="cls-7" d="m114.98,52.13l-.06-17.7,9.32,3,.07,8.59-9.33,6.12Zm.44-17.02l.05,16.09,8.33-5.46-.06-7.95-8.32-2.68Z"/>
            <path class="cls-7" d="m99.8,51.52c-.13,0-.26-.05-.36-.15l-.53-.53c-.1-.09-.15-.23-.15-.37l.15-15.03c0-.1.03-.2.09-.28l.38-.56c.19-.28.65-.28.84,0l.36.52c.06.09.09.19.09.29l.15,15.11c0,.14-.06.27-.15.37l-.5.49c-.1.1-.23.14-.36.14Zm-.21-16.77l.21.14-.38.56-.15,15.03.54.54.51-.49-.15-15.12-.36-.52-.22-.14Z"/>
            <rect class="cls-7" x="79.67" y="43.06" width=".5" height="9.76" transform="translate(2.72 100.14) rotate(-65.02)"/>
            <rect class="cls-7" x="114.7" y="47.69" width="9.76" height=".5" transform="translate(-9.06 54.95) rotate(-24.96)"/>
          </g>
          <path class="cls-9" d="m114.59,219.88h-29.72c-.73,0-1.33-.59-1.34-1.31l-.82-86.9,1.15-45.53v-11.63l.25-37.8c.02-2.88.36-5.69,1.01-8.35,2.42-9.94,6.47-18.99,12.04-26.89l.14-.19c.57-.81,1.46-1.28,2.44-1.28h0c.98,0,1.87.47,2.45,1.28,5.81,8.28,9.93,17.4,12.23,27.1.63,2.64.96,5.42.98,8.27l.02,2.87.17,34.99v11.63l1.15,45.52-.82,86.91c0,.72-.61,1.31-1.34,1.31Zm-14.96-.5h14.96c.46,0,.83-.37.84-.82l.82-86.9-1.15-45.51v-11.64l-.19-37.86c-.02-2.81-.34-5.55-.96-8.16-2.29-9.64-6.38-18.7-12.16-26.93-.48-.68-1.22-1.07-2.04-1.07h0c-.82,0-1.56.39-2.04,1.07l-.14.19c-5.54,7.85-9.56,16.84-11.96,26.72-.64,2.62-.97,5.4-1,8.24l-.02,1.9-.23,35.9v11.63l-1.15,45.53.82,86.89c0,.45.38.82.84.82h14.76Z"/>
          <path class="cls-9" d="m114.76,219.79l-.1-.49,5.67-1.2.31-25.59v-4.98s-1.47-50.7-1.47-50.7c-.01-.42-.12-.83-.32-1.2l-2.61-4.77.44-.24,2.61,4.77c.24.44.37.93.38,1.42l1.47,50.7v4.99s-.31,25.99-.31,25.99l-6.06,1.28Z"/>
          <path class="cls-9" d="m116.05,209.62l-.49-.07,2.69-18.85c.02-.14.09-.27.21-.36.12-.09.26-.12.41-.1l.87.15c.16.03.29.12.38.26l1,1.74-.43.25-1-1.74-.89-.17-2.73,18.88Z"/>
          <rect class="cls-9" x="118.23" y="184.91" width=".5" height="4.89" transform="translate(-77.24 291.42) rotate(-85.69)"/>
          <path class="cls-9" d="m116.45,214.88c-.05,0-.1,0-.15-.02l-.53-.15.14-.48.53.15.73-5.11c.03-.23.21-.42.44-.46l.75-.13c.17-.03.34.02.46.13l2.05,1.91-.34.37-2.05-1.91-.78.12-.71,5.11c-.02.16-.11.29-.24.38-.09.06-.19.09-.29.09Z"/>
          <rect class="cls-9" x="118.3" y="213.78" width=".5" height="5.31" transform="translate(-119.79 152.46) rotate(-46.26)"/>
          <path class="cls-9" d="m84.64,219.79l-3.54-.75c-1.49-.31-2.54-1.59-2.56-3.11l-.29-23.41v-4.98s1.47-50.71,1.47-50.71c.01-.49.14-.98.37-1.42l2.51-4.74.44.23-2.51,4.74c-.19.37-.3.78-.32,1.2l-1.47,50.71v4.97s.28,23.41.28,23.41c.02,1.28.9,2.37,2.16,2.63l3.54.75-.1.49Z"/>
          <path class="cls-9" d="m83.35,209.62l-2.69-18.85-.91.11-1.03,1.76-.43-.25,1-1.74c.08-.14.22-.23.38-.26l.87-.15c.14-.02.29,0,.41.1.12.09.2.22.21.36l2.69,18.84-.49.07Z"/>
          <rect class="cls-9" x="78.47" y="187.1" width="4.89" height=".5" transform="translate(-13.67 6.52) rotate(-4.25)"/>
          <path class="cls-9" d="m82.94,214.88c-.1,0-.2-.03-.29-.09-.13-.09-.22-.22-.24-.38l-.68-5.08-.78-.16-2.09,1.92-.34-.37,2.05-1.91c.12-.11.29-.17.46-.14l.75.13c.23.04.41.22.44.46l.68,5.08.58-.12.14.48-.53.15s-.1.02-.15.02Z"/>
          <polygon class="cls-9" points="79.58 217.97 79.24 217.61 82.59 214.42 82.94 214.78 79.58 217.97"/>
          <g>
            <polygon class="cls-9" points="105.11 219.6 104.5 216.11 104.29 214.67 101.74 186.84 101.12 134.99 99.66 131.45 98.34 134.98 97.73 186.82 95.17 214.66 94.86 216.66 94.34 219.6 93.85 219.51 94.36 216.58 94.67 214.6 97.23 186.79 97.86 134.85 99.4 130.71 99.9 130.71 101.62 134.93 102.24 186.81 104.79 214.62 104.99 216.03 105.6 219.51 105.11 219.6"/>
            <polygon class="cls-9" points="97.62 219.63 97.13 219.58 97.94 210.84 97.12 207.44 97.13 207.4 98.66 192.11 98.47 191.25 96.22 203.11 95.73 203.02 98.2 189.96 98.69 189.95 99.16 192.08 97.63 207.4 98.45 210.8 97.62 219.63"/>
            <polygon class="cls-9" points="101.88 219.63 101.06 210.8 101.88 207.4 100.35 192.08 100.81 189.95 101.3 189.96 103.71 202.98 103.22 203.07 101.04 191.27 100.85 192.11 102.39 207.44 101.57 210.84 102.38 219.58 101.88 219.63"/>
            <polygon class="cls-9" points="98.69 190.05 98.2 189.96 99.07 185.46 99.33 130.96 99.83 130.96 99.57 185.51 98.69 190.05"/>
            <polygon class="cls-9" points="100.8 190.06 99.82 185.56 99.53 130.96 100.03 130.96 100.32 185.51 101.29 189.95 100.8 190.06"/>
            <rect class="cls-9" x="98.39" y="189.88" width="2.61" height=".5"/>
            <rect class="cls-9" x="98.94" y="191.89" width="1.6" height=".5"/>
            <path class="cls-9" d="m96.15,214.81s-.05,0-.08,0l-1.25-.13.05-.5,1.25.13c.16.01.31-.1.34-.28l.97-5.36.49.09-.97,5.36c-.07.4-.42.69-.8.69Z"/>
            <path class="cls-9" d="m103.34,214.81c-.39,0-.73-.28-.8-.69l-.97-5.36.49-.09.97,5.36c.03.18.17.3.34.28l1.24-.13.05.5-1.24.13s-.06,0-.08,0Z"/>
            <rect class="cls-9" x="98.19" y="210.59" width="3.14" height=".5"/>
          </g>
        </g>
      </g>
    </g>
  </g>
</svg>