<?xml version="1.0" encoding="UTF-8"?>
<svg id="Layer_2" data-name="Layer 2" xmlns="http://www.w3.org/2000/svg" viewBox="0 0 179.39 185.07">
  <defs>
    <style>
      .cls-1 {
        fill: #8b8a8d;
      }

      .cls-2 {
        fill: none;
        stroke: #8b8a8d;
        stroke-miterlimit: 10;
      }
    </style>
  </defs>
  <g id="Layer_4" data-name="Layer 4">
    <g>
      <g>
        <path class="cls-1" d="m50.89,184.88c-.55,0-1-.45-1-1v-68.74c0-.55.45-1,1-1s1,.45,1,1v68.74c0,.55-.45,1-1,1Z"/>
        <path class="cls-1" d="m50.89,118.82c-.28,0-.5-.22-.5-.5v-42.51c0-.28.22-.5.5-.5s.5.22.5.5v42.51c0,.28-.22.5-.5.5Z"/>
        <path class="cls-1" d="m50.89,79.54c-.14,0-.25-.11-.25-.25v-42.51c0-.14.11-.25.25-.25s.25.11.25.25v42.51c0,.14-.11.25-.25.25Z"/>
        <path class="cls-1" d="m50.89,44.9c-.07,0-.12-.06-.12-.12V2.26c0-.07.06-.12.12-.12s.12.06.12.12v42.51c0,.07-.06.12-.12.12Z"/>
        <circle class="cls-1" cx="50.89" cy="1.76" r="1.76"/>
      </g>
      <g>
        <path class="cls-1" d="m119.26,184.88c-.55,0-1-.45-1-1v-68.74c0-.55.45-1,1-1s1,.45,1,1v68.74c0,.55-.45,1-1,1Z"/>
        <path class="cls-1" d="m119.26,118.82c-.28,0-.5-.22-.5-.5v-42.51c0-.28.22-.5.5-.5s.5.22.5.5v42.51c0,.28-.22.5-.5.5Z"/>
        <path class="cls-1" d="m119.26,79.54c-.14,0-.25-.11-.25-.25v-42.51c0-.14.11-.25.25-.25s.25.11.25.25v42.51c0,.14-.11.25-.25.25Z"/>
        <path class="cls-1" d="m119.26,44.9c-.07,0-.12-.06-.12-.12V2.26c0-.07.06-.12.12-.12s.12.06.12.12v42.51c0,.07-.06.12-.12.12Z"/>
        <circle class="cls-1" cx="119.26" cy="1.76" r="1.76"/>
      </g>
      <g>
        <path class="cls-1" d="m115.19,184.91h-58.88c-.15,0-.29-.07-.39-.18-.09-.12-.13-.27-.1-.41l6.7-33.88c.05-.23.25-.4.49-.4h45.48c.24,0,.44.17.49.4l6.7,33.88c.03.15,0,.3-.1.41-.1.12-.24.18-.39.18Zm-58.27-1h57.66l-6.5-32.88h-44.66l-6.5,32.88Z"/>
        <path class="cls-1" d="m69,184.53c-.24,0-.45-.17-.49-.41l-5.99-33.5c-.05-.27.13-.53.4-.58.27-.05.53.13.58.4l5.99,33.5c.05.27-.13.53-.4.58-.03,0-.06,0-.09,0Z"/>
        <path class="cls-1" d="m68.98,184.53s-.06,0-.09,0c-.27-.05-.45-.31-.4-.58l5.99-33.5c.05-.27.31-.45.58-.4.27.05.45.31.4.58l-5.99,33.5c-.04.24-.25.41-.49.41Z"/>
        <path class="cls-1" d="m101.92,184.53c-.24,0-.45-.17-.49-.41l-5.99-33.5c-.05-.27.13-.53.4-.58.27-.05.53.13.58.4l5.99,33.5c.05.27-.13.53-.4.58-.03,0-.06,0-.09,0Z"/>
        <path class="cls-1" d="m101.9,184.53s-.06,0-.09,0c-.27-.05-.45-.31-.4-.58l5.99-33.5c.05-.27.31-.45.58-.4.27.05.45.31.4.58l-5.99,33.5c-.04.24-.25.41-.49.41Z"/>
      </g>
      <path class="cls-1" d="m160.52,46.29h-5.69c-5.35,0-9.7-4.35-9.7-9.7v-5.69c0-5.35,4.35-9.7,9.7-9.7h5.69c5.35,0,9.7,4.35,9.7,9.7v5.69c0,5.35-4.35,9.7-9.7,9.7Zm-5.69-24.09c-4.8,0-8.7,3.9-8.7,8.7v5.69c0,4.8,3.9,8.7,8.7,8.7h5.69c4.8,0,8.7-3.9,8.7-8.7v-5.69c0-4.8-3.9-8.7-8.7-8.7h-5.69Z"/>
      <path class="cls-1" d="m135.44,184.87s-.02,0-.03,0c-.28-.02-.48-.26-.46-.53l10.02-146.87c.02-.28.26-.48.53-.46.28.02.48.26.46.53l-10.02,146.87c-.02.26-.24.47-.5.47Z"/>
      <path class="cls-1" d="m178.89,184.89c-.26,0-.48-.2-.5-.47l-9.17-147.21c-.02-.28.19-.51.47-.53.31-.02.51.19.53.47l9.17,147.21c.02.28-.19.51-.47.53-.01,0-.02,0-.03,0Z"/>
      <path class="cls-1" d="m178.68,185.07c-.12,0-.24-.04-.33-.13l-41.04-37.13c-.1-.09-.16-.22-.16-.36,0-.14.05-.27.15-.37l36.11-34.98-31.39-30.42c-.19-.18-.2-.49-.03-.69l28.01-32.41c.18-.21.5-.23.71-.05.21.18.23.5.05.71l-27.7,32.05,31.42,30.45c.1.09.15.22.15.36s-.05.27-.15.36l-36.1,34.97,40.65,36.78c.2.19.22.5.04.71-.1.11-.24.16-.37.16Z"/>
      <path class="cls-1" d="m136.17,185.07c-.14,0-.27-.06-.37-.16-.18-.2-.17-.52.04-.71l40.65-36.78-36.1-34.97c-.1-.09-.15-.22-.15-.36s.05-.26.15-.36l31.42-30.45-27.7-32.05c-.18-.21-.16-.52.05-.71.21-.18.52-.16.71.05l28.01,32.41c.17.2.16.5-.03.69l-31.39,30.42,36.11,34.98c.1.1.15.23.15.37,0,.14-.06.27-.16.36l-41.04,37.13c-.09.09-.21.13-.33.13Z"/>
      <line class="cls-2" x1="33.15" y1="184.86" x2="33.15" y2="44.77"/>
      <path class="cls-2" d="m16.84,48.16c4.54,4.54,11.9,4.54,16.44,0"/>
      <path class="cls-2" d="m16.94,67c-4.54-4.54-11.9-4.54-16.44,0v-18.76c4.54-4.54,11.9-4.54,16.44,0"/>
      <path class="cls-2" d="m16.84,66.92c4.54,4.54,11.9,4.54,16.44,0"/>
    </g>
  </g>
</svg>