<?xml version="1.0" encoding="UTF-8"?>
<svg id="Layer_2" data-name="Layer 2" xmlns="http://www.w3.org/2000/svg" xmlns:xlink="http://www.w3.org/1999/xlink" viewBox="0 0 200.29 254.94">
  <defs>
    <style>
      .cls-1 {
        opacity: .7;
      }

      .cls-1, .cls-2 {
        fill: none;
      }

      .cls-3 {
        fill: url(#linear-gradient);
      }

      .cls-4 {
        fill: #8b8a8d;
      }

      .cls-5 {
        fill: #6d6e70;
      }

      .cls-6 {
        fill: #808184;
      }

      .cls-2 {
        stroke: #8b8a8d;
        stroke-miterlimit: 10;
        stroke-width: .75px;
      }

      .cls-7 {
        fill: url(#linear-gradient-8);
      }

      .cls-8 {
        fill: url(#linear-gradient-9);
      }

      .cls-9 {
        fill: url(#linear-gradient-3);
      }

      .cls-10 {
        fill: url(#linear-gradient-4);
      }

      .cls-11 {
        fill: url(#linear-gradient-2);
      }

      .cls-12 {
        fill: url(#linear-gradient-6);
      }

      .cls-13 {
        fill: url(#linear-gradient-7);
      }

      .cls-14 {
        fill: url(#linear-gradient-5);
      }

      .cls-15 {
        fill: url(#linear-gradient-14);
      }

      .cls-16 {
        fill: url(#linear-gradient-15);
      }

      .cls-17 {
        fill: url(#linear-gradient-13);
      }

      .cls-18 {
        fill: url(#linear-gradient-12);
      }

      .cls-19 {
        fill: url(#linear-gradient-10);
      }

      .cls-20 {
        fill: url(#linear-gradient-11);
      }
    </style>
    <linearGradient id="linear-gradient" x1="-.13" y1="205.17" x2="210.58" y2="205.17" gradientUnits="userSpaceOnUse">
      <stop offset="0" stop-color="#231f20"/>
      <stop offset="1" stop-color="#fff"/>
    </linearGradient>
    <linearGradient id="linear-gradient-2" x1="-.13" y1="209.12" x2="210.58" y2="209.12" xlink:href="#linear-gradient"/>
    <linearGradient id="linear-gradient-3" x1="-.13" y1="209.12" x2="210.58" y2="209.12" xlink:href="#linear-gradient"/>
    <linearGradient id="linear-gradient-4" x1="-.13" y1="213.98" x2="210.58" y2="213.98" xlink:href="#linear-gradient"/>
    <linearGradient id="linear-gradient-5" x1="-.13" y1="214.31" x2="210.58" y2="214.31" xlink:href="#linear-gradient"/>
    <linearGradient id="linear-gradient-6" x1="-.13" y1="228.02" x2="210.58" y2="228.02" xlink:href="#linear-gradient"/>
    <linearGradient id="linear-gradient-7" x1="-.13" y1="232.33" x2="210.58" y2="232.33" xlink:href="#linear-gradient"/>
    <linearGradient id="linear-gradient-8" x1="-.13" y1="233.71" x2="210.58" y2="233.71" xlink:href="#linear-gradient"/>
    <linearGradient id="linear-gradient-9" x1="-.13" y1="205.17" x2="210.58" y2="205.17" xlink:href="#linear-gradient"/>
    <linearGradient id="linear-gradient-10" x1="-.13" y1="213.98" x2="210.58" y2="213.98" xlink:href="#linear-gradient"/>
    <linearGradient id="linear-gradient-11" x1="-.13" y1="214.31" x2="210.58" y2="214.31" xlink:href="#linear-gradient"/>
    <linearGradient id="linear-gradient-12" x1="-.13" y1="228.02" x2="210.58" y2="228.02" xlink:href="#linear-gradient"/>
    <linearGradient id="linear-gradient-13" x1="-.13" y1="232.33" x2="210.58" y2="232.33" xlink:href="#linear-gradient"/>
    <linearGradient id="linear-gradient-14" x1="-.13" y1="233.71" x2="210.58" y2="233.71" xlink:href="#linear-gradient"/>
    <linearGradient id="linear-gradient-15" x1="-.13" y1="232.84" x2="210.58" y2="232.84" xlink:href="#linear-gradient"/>
  </defs>
  <g id="Layer_4" data-name="Layer 4">
    <g>
      <g>
        <path class="cls-4" d="m127.19,254.5h-58.88c-.15,0-.29-.07-.39-.18-.09-.12-.13-.27-.1-.41l6.7-33.88c.05-.23.25-.4.49-.4h45.48c.24,0,.44.17.49.4l6.7,33.88c.03.15,0,.3-.1.41-.1.12-.24.18-.39.18Zm-58.27-1h57.66l-6.5-32.88h-44.66l-6.5,32.88Z"/>
        <path class="cls-4" d="m81,254.12c-.24,0-.45-.17-.49-.41l-5.99-33.5c-.05-.27.13-.53.4-.58.27-.05.53.13.58.4l5.99,33.5c.05.27-.13.53-.4.58-.03,0-.06,0-.09,0Z"/>
        <path class="cls-4" d="m80.99,254.12s-.06,0-.09,0c-.27-.05-.45-.31-.4-.58l5.99-33.5c.05-.27.31-.45.58-.4.27.05.45.31.4.58l-5.99,33.5c-.04.24-.25.41-.49.41Z"/>
        <path class="cls-4" d="m113.92,254.12c-.24,0-.45-.17-.49-.41l-5.99-33.5c-.05-.27.13-.53.4-.58.27-.05.53.13.58.4l5.99,33.5c.05.27-.13.53-.4.58-.03,0-.06,0-.09,0Z"/>
        <path class="cls-4" d="m113.91,254.12s-.06,0-.09,0c-.27-.05-.45-.31-.4-.58l5.99-33.5c.05-.27.31-.45.58-.4.27.05.45.31.4.58l-5.99,33.5c-.04.24-.25.41-.49.41Z"/>
      </g>
      <g>
        <g>
          <path class="cls-5" d="m82.95,52.13l-9.33-6.12.07-8.59,9.32-3-.06,17.7Zm-8.82-6.39l8.33,5.46.05-16.09-8.32,2.68-.06,7.95Z"/>
          <path class="cls-5" d="m113.36,52.13l-.06-17.7,9.32,3,.07,8.59-9.33,6.12Zm.44-17.02l.05,16.09,8.33-5.46-.06-7.95-8.32-2.68Z"/>
          <path class="cls-5" d="m98.18,51.52c-.13,0-.26-.05-.36-.15l-.53-.53c-.1-.1-.15-.23-.15-.37l.15-15.03c0-.1.03-.2.09-.28l.38-.56c.09-.14.25-.22.42-.22h0c.17,0,.32.08.42.22l.36.52c.06.08.09.18.09.28l.15,15.12c0,.14-.05.27-.15.37l-.5.49c-.1.1-.23.14-.35.14Zm-.21-16.78l.21.14-.38.56-.15,15.03.54.54.51-.49-.15-15.12-.36-.52-.22-.14Z"/>
          <rect class="cls-5" x="78.04" y="43.06" width=".5" height="9.76" transform="translate(1.78 98.67) rotate(-65.02)"/>
          <rect class="cls-5" x="113.08" y="47.69" width="9.76" height=".5" transform="translate(-9.21 54.26) rotate(-24.96)"/>
        </g>
        <path class="cls-6" d="m112.97,219.88h-29.72c-.73,0-1.33-.59-1.34-1.31l-.82-86.9,1.14-45.53v-11.63l.25-37.8c.02-2.88.36-5.69,1.01-8.35,2.42-9.94,6.47-18.99,12.04-26.89l.14-.19c.57-.81,1.46-1.28,2.44-1.28h0c.98,0,1.87.47,2.45,1.28,5.81,8.29,9.93,17.41,12.24,27.1.63,2.65.96,5.43.98,8.27l.02,2.87.17,34.98v11.63l1.14,45.52-.82,86.91c0,.72-.61,1.31-1.34,1.31Zm-14.96-.5h14.96c.46,0,.83-.37.84-.82l.82-86.9-1.14-45.51v-11.64l-.19-37.86c-.02-2.8-.34-5.55-.96-8.16-2.29-9.64-6.38-18.7-12.16-26.93-.48-.68-1.22-1.07-2.04-1.07h0c-.82,0-1.56.39-2.04,1.07l-.14.19c-5.53,7.85-9.56,16.84-11.96,26.72-.64,2.62-.97,5.4-1,8.24l-.02,1.9-.23,35.9v11.63l-1.14,45.53.82,86.89c0,.45.38.82.84.82h14.76Z"/>
        <path class="cls-6" d="m113.13,219.79l-.1-.49,5.67-1.2.31-25.59v-4.98s-1.47-50.7-1.47-50.7c-.01-.42-.12-.83-.32-1.2l-2.61-4.77.44-.24,2.61,4.77c.24.43.37.92.39,1.42l1.47,50.7v4.99s-.31,25.99-.31,25.99l-6.06,1.28Z"/>
        <path class="cls-6" d="m114.42,209.62l-.49-.07,2.69-18.85c.02-.14.09-.27.21-.36s.26-.12.41-.1l.87.15c.16.03.29.12.38.26l1,1.74-.43.25-1-1.74-.89-.17-2.73,18.88Z"/>
        <rect class="cls-6" x="116.61" y="184.91" width=".5" height="4.89" transform="translate(-78.73 289.83) rotate(-85.7)"/>
        <path class="cls-6" d="m114.83,214.88c-.05,0-.1,0-.15-.02l-.53-.15.14-.48.53.15.73-5.11c.03-.23.21-.42.44-.46l.75-.13c.17-.03.34.02.46.14l2.05,1.91-.34.37-2.05-1.91-.78.12-.71,5.11c-.02.16-.11.29-.24.38-.09.06-.19.09-.29.09Z"/>
        <rect class="cls-6" x="116.68" y="213.78" width=".5" height="5.31" transform="translate(-120.29 151.3) rotate(-46.27)"/>
        <path class="cls-6" d="m83.02,219.79l-3.54-.75c-1.49-.31-2.54-1.59-2.56-3.11l-.29-23.41v-4.98s1.47-50.71,1.47-50.71c.01-.49.14-.98.37-1.42l2.51-4.74.44.23-2.51,4.74c-.19.37-.3.78-.32,1.2l-1.47,50.71v4.97s.28,23.41.28,23.41c.02,1.28.91,2.37,2.16,2.63l3.54.75-.1.49Z"/>
        <path class="cls-6" d="m81.73,209.62l-2.69-18.85-.91.11-1.03,1.76-.43-.25,1-1.74c.08-.14.22-.23.38-.26l.87-.15c.15-.02.29.01.41.1s.19.22.21.36l2.68,18.84-.49.07Z"/>
        <rect class="cls-6" x="76.85" y="187.1" width="4.89" height=".5" transform="translate(-13.68 6.4) rotate(-4.25)"/>
        <path class="cls-6" d="m81.32,214.88c-.1,0-.21-.03-.29-.09-.13-.09-.22-.22-.24-.38l-.68-5.08-.78-.16-2.09,1.92-.34-.37,2.05-1.91c.12-.11.3-.16.46-.14l.75.13c.23.04.41.22.44.46l.68,5.08.58-.12.14.48-.53.15s-.1.02-.15.02Z"/>
        <polygon class="cls-6" points="77.96 217.97 77.61 217.61 80.97 214.42 81.31 214.78 77.96 217.97"/>
        <g>
          <polygon class="cls-6" points="103.49 219.6 102.87 216.11 102.67 214.67 100.11 186.84 99.5 134.99 98.04 131.45 96.72 134.98 96.1 186.82 93.54 214.66 93.23 216.67 92.72 219.6 92.23 219.51 92.74 216.58 93.05 214.6 95.6 186.79 96.23 134.85 97.78 130.71 98.27 130.71 100 134.93 100.61 186.81 103.16 214.62 103.37 216.03 103.98 219.51 103.49 219.6"/>
          <polygon class="cls-6" points="96 219.63 95.5 219.58 96.32 210.84 95.5 207.44 95.5 207.4 97.03 192.11 96.84 191.25 94.6 203.11 94.11 203.02 96.58 189.96 97.07 189.95 97.54 192.08 96 207.41 96.82 210.8 96 219.63"/>
          <polygon class="cls-6" points="100.26 219.63 99.44 210.8 100.26 207.41 98.72 192.08 99.19 189.95 99.68 189.96 102.09 202.98 101.59 203.07 99.41 191.27 99.23 192.11 100.76 207.44 99.94 210.84 100.76 219.58 100.26 219.63"/>
          <polygon class="cls-6" points="97.07 190.05 96.58 189.96 97.45 185.46 97.7 130.96 98.2 130.96 97.95 185.51 97.07 190.05"/>
          <polygon class="cls-6" points="99.18 190.06 98.2 185.56 97.91 130.96 98.41 130.96 98.69 185.51 99.67 189.95 99.18 190.06"/>
          <rect class="cls-6" x="96.77" y="189.88" width="2.61" height=".5"/>
          <rect class="cls-6" x="97.32" y="191.89" width="1.6" height=".5"/>
          <path class="cls-6" d="m94.53,214.81s-.05,0-.08,0l-1.24-.13.05-.5,1.24.13c.18.01.31-.1.34-.28l.97-5.36.49.09-.97,5.36c-.07.41-.41.69-.8.69Z"/>
          <path class="cls-6" d="m101.71,214.81c-.39,0-.73-.29-.8-.69l-.97-5.36.49-.09.97,5.36c.03.18.18.29.34.28l1.25-.13.05.5-1.25.13s-.05,0-.08,0Z"/>
          <rect class="cls-6" x="96.57" y="210.59" width="3.14" height=".5"/>
        </g>
      </g>
      <g class="cls-1">
        <circle class="cls-3" cx="61.07" cy="205.17" r="26.19"/>
        <circle class="cls-11" cx="90.05" cy="209.12" r="9.27"/>
        <circle class="cls-9" cx="108.32" cy="209.12" r="9.27"/>
        <circle class="cls-10" cx="13.06" cy="213.98" r="6.35"/>
        <circle class="cls-14" cx="27.65" cy="214.31" r="8.75"/>
        <circle class="cls-12" cx="8.75" cy="228.02" r="8.75"/>
        <circle class="cls-13" cx="24.08" cy="232.33" r="17.4"/>
        <circle class="cls-7" cx="41.12" cy="233.71" r="20.48"/>
        <circle class="cls-8" cx="137.74" cy="205.17" r="26.19"/>
        <circle class="cls-19" cx="185.75" cy="213.98" r="6.35"/>
        <circle class="cls-20" cx="171.16" cy="214.31" r="8.75"/>
        <circle class="cls-18" cx="190.06" cy="228.02" r="8.75"/>
        <circle class="cls-17" cx="174.73" cy="232.33" r="17.4"/>
        <circle class="cls-15" cx="157.69" cy="233.71" r="20.48"/>
        <rect class="cls-16" x="41.55" y="211.34" width="117.11" height="42.99"/>
      </g>
      <path class="cls-2" d="m82.76,75.13l30.8,2.54h36.08c1.39,0,2.52,1.13,2.52,2.52v174.38h47.75v-16.26c0-6.6-.76-13.17-2.27-19.59l-35.07-149.39c-.38-1.61-1.81-2.75-3.47-2.75h-45.27l-31.12,2.84"/>
    </g>
  </g>
</svg>