<?xml version="1.0" encoding="UTF-8"?>
<svg id="Layer_2" data-name="Layer 2" xmlns="http://www.w3.org/2000/svg" xmlns:xlink="http://www.w3.org/1999/xlink" viewBox="0 0 139.92 157.36">
  <defs>
    <style>
      .cls-1 {
        opacity: .7;
      }

      .cls-1, .cls-2 {
        fill: none;
      }

      .cls-3 {
        fill: url(#linear-gradient);
      }

      .cls-4 {
        fill: #8b8a8d;
      }

      .cls-5, .cls-6 {
        fill: gray;
      }

      .cls-2 {
        stroke: gray;
        stroke-miterlimit: 10;
        stroke-width: .75px;
      }

      .cls-7 {
        fill: url(#linear-gradient-8);
      }

      .cls-8 {
        fill: url(#linear-gradient-9);
      }

      .cls-9 {
        fill: url(#linear-gradient-3);
      }

      .cls-10 {
        fill: url(#linear-gradient-4);
      }

      .cls-11 {
        fill: url(#linear-gradient-2);
      }

      .cls-12 {
        fill: url(#linear-gradient-6);
      }

      .cls-13 {
        fill: url(#linear-gradient-7);
      }

      .cls-14 {
        fill: url(#linear-gradient-5);
      }

      .cls-15 {
        fill: url(#linear-gradient-14);
      }

      .cls-16 {
        fill: url(#linear-gradient-15);
      }

      .cls-17 {
        fill: url(#linear-gradient-13);
      }

      .cls-18 {
        fill: url(#linear-gradient-12);
      }

      .cls-19 {
        fill: url(#linear-gradient-10);
      }

      .cls-20 {
        fill: url(#linear-gradient-11);
      }

      .cls-6 {
        opacity: .5;
      }
    </style>
    <linearGradient id="linear-gradient" x1="-.09" y1="122.76" x2="148.21" y2="122.76" gradientUnits="userSpaceOnUse">
      <stop offset="0" stop-color="#231f20"/>
      <stop offset="1" stop-color="#fff"/>
    </linearGradient>
    <linearGradient id="linear-gradient-2" x1="-.09" y1="125.54" x2="148.21" y2="125.54" xlink:href="#linear-gradient"/>
    <linearGradient id="linear-gradient-3" x1="-.09" y1="125.54" x2="148.21" y2="125.54" xlink:href="#linear-gradient"/>
    <linearGradient id="linear-gradient-4" x1="-.09" y1="128.96" x2="148.21" y2="128.96" xlink:href="#linear-gradient"/>
    <linearGradient id="linear-gradient-5" x1="-.09" y1="129.19" x2="148.21" y2="129.19" xlink:href="#linear-gradient"/>
    <linearGradient id="linear-gradient-6" x1="-.09" y1="138.84" x2="148.21" y2="138.84" xlink:href="#linear-gradient"/>
    <linearGradient id="linear-gradient-7" x1="-.09" y1="141.87" x2="148.21" y2="141.87" xlink:href="#linear-gradient"/>
    <linearGradient id="linear-gradient-8" x1="-.09" y1="142.84" x2="148.21" y2="142.84" xlink:href="#linear-gradient"/>
    <linearGradient id="linear-gradient-9" x1="-.09" y1="122.76" x2="148.21" y2="122.76" xlink:href="#linear-gradient"/>
    <linearGradient id="linear-gradient-10" x1="-.09" y1="128.96" x2="148.21" y2="128.96" xlink:href="#linear-gradient"/>
    <linearGradient id="linear-gradient-11" x1="-.09" y1="129.19" x2="148.21" y2="129.19" xlink:href="#linear-gradient"/>
    <linearGradient id="linear-gradient-12" x1="-.09" y1="138.84" x2="148.21" y2="138.84" xlink:href="#linear-gradient"/>
    <linearGradient id="linear-gradient-13" x1="-.09" y1="141.87" x2="148.21" y2="141.87" xlink:href="#linear-gradient"/>
    <linearGradient id="linear-gradient-14" x1="-.09" y1="142.84" x2="148.21" y2="142.84" xlink:href="#linear-gradient"/>
    <linearGradient id="linear-gradient-15" x1="-.09" y1="142.23" x2="148.21" y2="142.23" xlink:href="#linear-gradient"/>
  </defs>
  <g id="Layer_4" data-name="Layer 4">
    <g>
      <path class="cls-4" d="m74.78,86.68s0,.02,0,.03l-4.92,60.8c-.01.18-.17.32-.35.32s-.33-.14-.35-.32l-4.99-60.72c-.01-.2.13-.36.32-.38.19-.02.36.13.38.32l4.64,56.46,4.58-56.53c.02-.19.18-.33.38-.32.18.01.32.17.32.35Z"/>
      <g>
        <path class="cls-4" d="m75.66,63.45s0,.03,0,.05l-.64,3.93c-.03.15-.16.27-.31.27h-.79c-.07,0-.13-.02-.19-.06l-1.32-.96h-1.85c-.08,0-.16-.03-.22-.09-.06-.06-.09-.14-.09-.22h0s0-.86,0-.86c0-.13.08-.25.2-.29l3.65-1.45.05-.37c.03-.15.16-.26.31-.26h.88c.09,0,.18.04.24.11.05.06.07.13.07.2Zm-.35,0h0s0,0,0,0Zm-4.72,2.89h1.84c.07,0,.13.02.18.06l1.32.96h.77s.6-3.88.6-3.88h-.85s-.04.38-.04.38c-.02.11-.09.2-.2.24l-3.65,1.45.02.8Z"/>
        <path class="cls-4" d="m74.75,65.1s0,.04,0,.06l-.32,1.68c-.02.1-.09.19-.18.23-.1.04-.21.03-.29-.02l-1.06-.69c-.09-.06-.14-.15-.14-.26,0-.11.05-.2.13-.26l1.38-1c.1-.08.24-.08.35-.01.09.06.15.16.15.26Zm-.66,1.63l.3-1.58-1.28.95.98.63Z"/>
        <path class="cls-4" d="m73.8,64.66c0,.06-.03.12-.08.16-.4.3-1.49,1.17-1.81,1.43-.14.11-.33.11-.46-.01l-.34-.3c-.1-.09-.14-.21-.12-.34.02-.13.11-.23.23-.27l2.46-.9.1.14s.02.06.02.09Zm-2.46.99l.34.32c.2-.15.64-.5,1.06-.83l-1.39.51Z"/>
        <path class="cls-4" d="m71.69,66.35v1.89c0,.1-.04.2-.12.27-.07.07-.17.11-.27.11h-3.12c-.06,0-.56,0-.89.33-.2.2-.3.49-.3.85v3.3s-.35,0-.35,0v-3.3c0-.46.14-.83.41-1.1.42-.42,1.02-.44,1.13-.44h3.12s.04-.04.04-.04v-1.54s-.44,0-.44,0v1.14s-2.72,0-2.72,0c-.16,0-.74.03-1.25.4-.48.35-.73.88-.73,1.57v3.29s-.35,0-.35,0v-3.29c0-1.01.48-1.57.87-1.85.6-.44,1.27-.47,1.46-.47h2.37s0-1.14,0-1.14h1.14Z"/>
        <path class="cls-4" d="m67.24,74.68v.08c0,.23-.19.41-.41.41h-2.5c-.11,0-.21-.05-.29-.12s-.12-.18-.12-.29h0v-.08c0-.23.18-.41.41-.41h2.5c.23,0,.41.19.41.41Zm-2.91.14h2.5s.06-.03.06-.06v-.08s-.03-.06-.06-.06h-2.5s-.06.03-.06.06v.08h0s.03.06.06.06h0Z"/>
        <path class="cls-4" d="m66.01,70.79v.35s-1.94,0-1.94,0c-.03,0-.05.01-.07.03-.02.02-.03.05-.03.07h0s.01.05.03.07.05.03.07.03h1.94s0,.35,0,.35h-1.93c-.12,0-.23-.05-.32-.14-.09-.09-.13-.2-.13-.32h0c0-.12.05-.24.13-.32.09-.09.2-.13.32-.13h1.94Z"/>
        <path class="cls-4" d="m66.27,68.53v.35s-1.8,0-1.8,0c-.03,0-.05.01-.07.03-.06.06-.01.18.07.18h1.6s0,.34,0,.34h-1.6c-.25,0-.45-.19-.45-.44,0-.25.2-.45.45-.45h1.8Z"/>
        <path class="cls-4" d="m67.25,73.59h0s0,.17,0,.17c0,.37-.3.67-.67.67h-1.99c-.37,0-.67-.3-.67-.67h0s0-.17,0-.17c0-.37.3-.67.67-.67h1.99c.18,0,.34.07.47.2.13.13.2.29.2.47Zm-2.66.49h1.99c.08,0,.16-.03.22-.09.06-.06.09-.14.09-.22v-.17s0,0,0,0c0-.08-.03-.16-.09-.22s-.14-.09-.22-.09h-1.99c-.18,0-.32.14-.32.32v.17s0,0,0,0c0,.17.14.32.32.32h0Z"/>
        <path class="cls-4" d="m67.25,67.49h0v.11c0,.13-.05.25-.14.34-.09.09-.21.14-.34.14h-2.36c-.13,0-.25-.05-.34-.15-.09-.09-.14-.21-.14-.34h0v-.11c0-.13.05-.25.14-.34.09-.09.21-.14.34-.14h2.36c.13,0,.25.05.34.15.09.09.14.21.14.34Zm-2.84.24h2.36s.07-.01.1-.04.04-.06.04-.1v-.11h0s-.01-.07-.04-.1c-.03-.03-.06-.04-.1-.04h-2.36s-.07.01-.1.04-.04.06-.04.1v.11h0c0,.08.06.14.14.14h0Z"/>
        <path class="cls-4" d="m67.24,76.21v.08c0,.23-.18.41-.41.41h-2.5c-.23,0-.41-.19-.41-.41v-.08c0-.23.18-.41.41-.41h2.5c.23,0,.41.19.41.42Zm-2.98.08s.03.06.06.06h2.5s.06-.03.06-.06v-.08s-.03-.06-.06-.06h-2.5s-.06.03-.06.06v.08Z"/>
        <path class="cls-4" d="m67.92,77.27v.08c0,.11-.04.21-.12.29s-.18.12-.29.12h-3.18c-.11,0-.21-.05-.29-.12s-.12-.18-.12-.29h0v-.08c0-.11.04-.21.12-.29.08-.08.18-.12.29-.12h3.18c.23,0,.41.19.41.42Zm-3.65.08s.01.04.02.04c0,0,.02.02.04.02h3.18s.06-.03.06-.06v-.08s-.03-.06-.06-.06h-3.18s-.04,0-.04.01c0,0-.02.02-.02.04v.08h0Z"/>
        <path class="cls-4" d="m66.02,72.64v.35s-1.45-.02-1.45-.02c-.17,0-.34-.07-.46-.19s-.19-.29-.19-.46c0-.35.29-.66.66-.66h1.44s0,.35,0,.35h-1.44c-.17,0-.31.14-.31.31h0c0,.08.03.16.09.22.06.06.14.09.22.09l1.44.02Z"/>
        <path class="cls-4" d="m67.25,72.31h0c0,.27-.14.49-.38.59l-.14-.32c.14-.06.16-.18.16-.27h0c0-.11-.06-.22-.16-.27l.16-.31c.21.11.35.34.35.58Z"/>
        <polygon class="cls-4" points="71.78 71.38 71.77 75.5 71.58 75.52 67.34 75.52 67.32 75.32 67.32 71.2 67.51 71.18 68.94 71.18 68.94 71.53 67.67 71.53 67.67 75.17 71.42 75.17 71.43 71.53 70.17 71.53 70.17 71.18 71.76 71.18 71.78 71.38"/>
        <path class="cls-4" d="m70.49,69.05h0c0,.1-.06.25-.35.34-.16.05-.37.08-.6.08s-.44-.03-.6-.08c-.29-.09-.35-.23-.35-.34h0c0-.1.06-.25.35-.34.16-.05.37-.08.6-.08.22,0,.44.03.6.08.29.09.35.23.35.34Zm-1.46,0c.1.04.28.07.51.07s.41-.03.51-.07c-.1-.04-.28-.07-.51-.07-.23,0-.41.03-.51.07Z"/>
        <path class="cls-4" d="m70.5,69.4c0,.1,0,.18,0,.21-.03.29-.51.4-.94.4-.22,0-.44-.03-.6-.08-.29-.09-.35-.23-.35-.34h0s0-.55,0-.55h.35s0,.51,0,.51c.07.04.28.11.6.11.38,0,.58-.09.61-.12,0-.03-.01-.49-.01-.49h.35c0,.1,0,.24,0,.35Z"/>
        <path class="cls-4" d="m70.34,70.54c0,1.28,0,1.94,0,1.96-.03.26-.42.35-.79.35-.12,0-.54-.01-.71-.19-.07-.07-.1-.14-.08-.18v-2.73s.35,0,.35,0v2.68c.06.03.21.07.44.07.22,0,.38-.04.44-.07,0-.26,0-1.7,0-2.67h.35v.78Zm-1.23,1.94h0s0,0,0,0Z"/>
        <path class="cls-4" d="m70.34,72.35c-.03.26-.42.35-.79.35-.12,0-.54-.01-.71-.19-.07-.07-.06-.13-.08-.18h.35s-.02-.06-.02-.06c.03.03.2.08.46.09s.43-.06.46-.09c0,0-.02.02-.02.05l.35.04Z"/>
        <path class="cls-4" d="m70.34,72.19c-.03.26-.42.35-.79.35-.38,0-.79-.1-.79-.37h.35s-.02-.06-.02-.07c.03.03.2.08.46.09.26,0,.43-.06.46-.09,0,0-.02.02-.02.05l.35.04Z"/>
        <path class="cls-4" d="m70.34,72.03c-.03.26-.42.35-.79.35-.38,0-.79-.1-.79-.37h.35s-.02-.06-.02-.07c.03.03.2.09.46.09s.43-.06.46-.09c0,0-.02.02-.02.05l.35.04Z"/>
        <path class="cls-4" d="m70.34,71.87c-.03.26-.42.35-.79.35-.12,0-.54-.01-.71-.19-.07-.07-.08-.13-.08-.18h0s.35,0,.35,0h0s-.02-.06-.02-.07c.03.03.2.08.46.09s.43-.06.46-.09c0,0-.02.02-.02.05l.35.04Z"/>
        <path class="cls-4" d="m70.34,71.71c-.03.26-.42.35-.79.35-.38,0-.79-.1-.79-.37h.35s-.02-.06-.02-.07c.03.03.2.08.46.09.26,0,.43-.06.46-.09,0,0-.02.02-.02.05l.35.04Z"/>
        <path class="cls-4" d="m70.34,71.55c-.03.26-.42.35-.79.35-.12,0-.54-.01-.71-.19-.07-.07-.06-.13-.08-.18h.35s-.02-.06-.02-.06c.03.03.2.08.46.09.26,0,.43-.06.46-.09,0,0-.02.02-.02.05l.35.04Z"/>
        <path class="cls-4" d="m70.34,71.39c-.03.26-.42.35-.79.35-.38,0-.79-.1-.79-.37h.35s-.02-.06-.02-.07c.03.03.2.08.46.09.26,0,.43-.06.46-.09,0,0-.02.02-.02.05l.35.04Z"/>
        <path class="cls-4" d="m70.34,71.23c-.03.26-.42.35-.79.35-.12,0-.54-.01-.71-.19-.07-.07-.06-.14-.08-.18h.35s-.02-.06-.02-.06c.03.03.2.08.46.09s.43-.06.46-.09c0,0-.02.02-.02.05l.35.04Z"/>
        <path class="cls-4" d="m70.34,71.07c-.03.26-.42.35-.79.35-.38,0-.79-.1-.79-.37h.35s-.02-.06-.02-.07c.03.03.2.09.46.09s.43-.06.46-.09c0,0-.02.02-.02.05l.35.04Z"/>
        <path class="cls-4" d="m70.34,70.91c-.03.26-.42.35-.79.35-.12,0-.54-.01-.71-.19-.07-.07-.08-.13-.08-.18h0s.35,0,.35,0h0s-.02-.06-.02-.07c.03.03.2.08.46.09.26,0,.43-.06.46-.09,0,0-.02.02-.02.05l.35.04Z"/>
        <path class="cls-4" d="m70.34,70.75c-.03.26-.42.35-.79.35-.38,0-.79-.1-.79-.37h.35s-.02-.06-.02-.07c.03.03.2.09.46.09s.43-.06.46-.09c0,0-.02.02-.02.05l.35.04Z"/>
        <path class="cls-4" d="m70.34,70.59c-.03.26-.42.35-.79.35-.38,0-.79-.1-.79-.37h.35s-.02-.06-.02-.07c.03.03.2.08.46.09.26,0,.43-.06.46-.09,0,0-.02.02-.02.05l.35.04Z"/>
        <path class="cls-4" d="m70.34,70.43c-.03.26-.42.35-.79.35-.12,0-.54-.01-.71-.19-.07-.07-.06-.14-.08-.18h.35s-.02-.06-.02-.06c.03.03.2.08.46.09.26,0,.43-.06.46-.09,0,0-.02.02-.02.05l.35.04Z"/>
        <path class="cls-4" d="m70.34,70.27c-.03.26-.42.35-.79.35-.38,0-.79-.1-.79-.37h.35s-.02-.06-.02-.07c.03.03.2.09.46.09s.43-.06.46-.09c0,0-.02.02-.02.05l.35.04Z"/>
        <path class="cls-4" d="m70.34,70.11c-.03.26-.42.35-.79.35-.12,0-.54-.01-.71-.19-.07-.07-.08-.13-.08-.18h0s.35,0,.35,0h0s-.02-.06-.02-.07c.03.03.2.08.46.09.26,0,.43-.06.46-.09,0,0-.02.02-.02.05l.35.04Z"/>
        <path class="cls-4" d="m70.35,69.95c-.03.26-.42.35-.79.35-.38,0-.79-.1-.79-.37h.35s-.02-.06-.02-.07c.03.03.2.09.46.09s.43-.06.46-.09c0,0-.02.02-.02.05l.35.04Z"/>
        <path class="cls-4" d="m70.35,69.79c-.03.26-.42.35-.79.35-.12,0-.54-.01-.71-.19-.07-.07-.08-.13-.08-.18h0s.35,0,.35,0h0s-.02-.06-.02-.07c.03.03.2.08.46.09s.43-.06.46-.09c0,0-.02.02-.02.05l.35.04Z"/>
        <path class="cls-4" d="m70.14,73.2c0,.59,0,.61,0,.62-.03.27-.46.29-.59.29-.11,0-.39-.01-.52-.14-.04-.05-.07-.09-.07-.16v-1.18s.35,0,.35,0v1.1s.13.03.24.03c.12,0,.2-.02.25-.03,0-.23,0-1.1,0-1.1h.35c0,.24,0,.42,0,.58Zm-.84.6h0s0,0,0,0Z"/>
        <path class="cls-4" d="m69.97,74.3c0,.31,0,.32,0,.33-.01.15-.17.24-.42.24-.27,0-.42-.1-.42-.25v-.7s.35,0,.35,0v.59s.04,0,.07,0,.05,0,.07,0c0-.18,0-.59,0-.59h.35c0,.16,0,.29,0,.39Z"/>
        <rect class="cls-4" x="64.55" y="72.77" width=".3" height=".35" transform="translate(-8.31 137.57) rotate(-89.94)"/>
        <rect class="cls-4" x="64.53" y="74.26" width=".35" height=".16"/>
        <rect class="cls-4" x="64.52" y="71.51" width=".3" height=".35" transform="translate(-7.08 136.27) rotate(-89.94)"/>
        <rect class="cls-4" x="63.86" y="69.38" width=".79" height=".35" transform="translate(-5.39 133.72) rotate(-89.93)"/>
        <rect class="cls-4" x="64.09" y="68.12" width=".79" height=".35" transform="translate(-3.89 132.69) rotate(-89.93)"/>
        <rect class="cls-4" x="66.54" y="67.88" width=".32" height=".35" transform="translate(-1.43 134.68) rotate(-89.94)"/>
        <rect class="cls-4" x="64.16" y="70.66" width=".25" height=".35" transform="translate(-6.64 135.03) rotate(-89.92)"/>
        <rect class="cls-4" x="63.98" y="75.3" width=".96" height=".35" transform="translate(-11.09 139.85) rotate(-89.94)"/>
        <rect class="cls-4" x="66.23" y="75.3" width=".96" height=".35" transform="translate(-8.84 142.11) rotate(-89.94)"/>
        <rect class="cls-4" x="64.38" y="76.61" width=".51" height=".35" transform="translate(-12.23 141.32) rotate(-89.92)"/>
        <rect class="cls-4" x="66.24" y="76.61" width=".51" height=".35" transform="translate(-10.38 143.18) rotate(-89.92)"/>
        <path class="cls-4" d="m71.94,79.1h-2.43s0-.35,0-.35h1.88c-.14-.3-.4-.81-.59-1.17-.34-.61-.03-1.23-.02-1.26l.54-1.05.31.16-.54,1.05s-.23.48.01.93c.29.54.71,1.43.72,1.44l.12.25Z"/>
        <path class="cls-4" d="m69.71,78.74v.35s-2.48,0-2.48,0l.18-.27c.28-.42.58-.95.6-1.07l.35.02c0,.18-.27.63-.48.97h1.84Z"/>
        <path class="cls-4" d="m68.46,76.71h0s-.35,0-.35,0h0c0-.15-.07-.3-.07-.31l-.48-1,.31-.15.48,1s.11.22.11.46Z"/>
        <path class="cls-4" d="m66.13,69.49s-1.22.42-1.65.57c-.44.15-.48.21-.48.39h0s0,.07.02.09c.02.01.06.01.06.01h1.95s0,.35,0,.35h-1.93s-.17.02-.31-.1c-.06-.06-.14-.16-.14-.35h0c0-.43.28-.56.72-.72.43-.15,1.65-.57,1.65-.57l.11.33Z"/>
        <path class="cls-4" d="m71.57,71.3l-.33.11-.12-.36c-.03-.1-.05-.21-.03-.32l.02-.17c.01-.11-.02-.22-.09-.3l-.82-.91.26-.23.82.91c.14.16.21.37.18.58l-.02.17c0,.06,0,.12.02.17l.12.36Z"/>
        <path class="cls-4" d="m67.97,70.81c0,.08-.01.16-.04.23l-.12.36-.33-.11.12-.36c.02-.05.02-.11.02-.17l-.02-.17.35-.04.02.17s0,.06,0,.09Z"/>
        <path class="cls-4" d="m68.8,69.02l-.04.35-.98-.12c-.15-.02-.3-.01-.45.01l-.37.07-.06-.34.37-.07c.18-.03.37-.04.55-.02l.98.12Z"/>
        <path class="cls-4" d="m69.02,70c-.11.06-1.35.86-2.11,1.35l-.19-.29c2.13-1.4,2.17-1.4,2.23-1.4v.35-.17l.07.16Z"/>
        <g>
          <path class="cls-4" d="m74.8,70.18c-.65,1.67-.99,2.52-1.01,2.55-.12.23-.52.17-.86.04-.35-.14-.7-.38-.6-.63l1-2.54.32.13-.98,2.49c.05.05.18.15.38.23.21.08.37.1.44.09.09-.23.62-1.58.98-2.49l.32.13Z"/>
          <path class="cls-4" d="m73.57,72.77c-.42,1.08-.43,1.1-.44,1.11-.12.24-.54.1-.66.05-.12-.05-.23-.11-.31-.17-.17-.14-.16-.27-.13-.33l.43-1.09.32.13-.4,1.03s.11.08.22.12c.11.04.19.06.24.06.09-.22.4-1.03.4-1.03l.32.13Z"/>
          <path class="cls-4" d="m72.93,73.91c-.25.64-.26.65-.26.66-.07.13-.25.16-.48.06-.25-.1-.36-.24-.3-.39l.26-.65.32.13-.22.55s.04.02.07.03c.03.01.05.02.07.02.07-.17.22-.55.22-.55l.32.13Z"/>
          <path class="cls-4" d="m75.12,69.7c0,.06-.01.12-.04.18l-.04.09c-.05.11-.14.2-.25.25-.12.05-.24.05-.36,0l-.85-.35c-.24-.1-.35-.37-.25-.61l.04-.09c.05-.11.14-.2.25-.25.12-.05.24-.05.36,0l.84.35c.12.05.2.14.25.25.02.06.04.12.04.18Zm-1.4-.15l.85.35s.06.01.09,0,.05-.03.06-.06l.04-.09s.01-.06,0-.09c-.01-.03-.03-.05-.06-.06l-.85-.35s-.06-.01-.09,0c-.03.01-.05.03-.06.06l-.04.09c-.02.06,0,.13.06.15Z"/>
          <path class="cls-4" d="m75.03,69.14s0,.09-.03.13l-.02.05c-.04.08-.1.15-.19.19-.08.04-.18.03-.26,0l-.49-.21c-.18-.07-.26-.28-.19-.45l.02-.05c.04-.09.1-.15.19-.19.09-.03.18-.03.26,0l.49.21c.09.04.15.1.19.19.02.04.03.09.03.13Zm-.86-.15l.49.2.02-.05-.49-.2-.02.05Z"/>
          <path class="cls-4" d="m72.56,74.7c0,.23-.19.42-.42.42-.11,0-.22-.04-.3-.12-.08-.08-.12-.18-.12-.3h0c0-.11.04-.22.12-.3s.18-.12.3-.12c.23,0,.42.19.42.42Zm-.49,0s.03.07.07.07c.08,0,.08-.14,0-.14-.03,0-.04.01-.05.02,0,0-.02.02-.02.05h0Z"/>
          <path class="cls-4" d="m74.9,68.7c0,.19-.16.35-.35.35-.19,0-.35-.16-.35-.35h0c0-.09.04-.18.1-.25.07-.07.15-.1.25-.1.19,0,.35.16.35.35Z"/>
          <rect class="cls-4" x="71.55" y="74.94" width=".7" height=".35" transform="translate(-28.21 47.02) rotate(-30.57)"/>
          <polygon class="cls-4" points="72.27 74.29 72.13 74.61 71.54 74.37 71.67 74.04 72.27 74.29"/>
        </g>
        <path class="cls-4" d="m69.95,63.54h0s0,2.68,0,2.68c0,.2-.16.36-.36.36h-.07c-.1,0-.19-.04-.26-.11-.07-.07-.11-.16-.11-.26h0s0-2.68,0-2.68c0-.2.16-.36.36-.36h.07c.2,0,.36.16.36.36Zm-.45,2.68h.01s.07.01.07.01l.02-2.69h-.08s-.02,2.68-.02,2.68Z"/>
        <path class="cls-4" d="m68.91,65.46v.18c0,.22,0,.56,0,.82,0,.12-.04.21-.12.29-.08.08-.18.12-.29.12h-.99c-.58,0-.93-.24-.94-.25l-3.05-2.87v-.6s.77,0,.77,0v.27q4.62,1.9,4.62,2.05Zm-2.13.88s.27.17.72.17h.99s.04,0,.04-.02c.01-.3.02-.64.02-.86v-.07c-.49-.22-2.89-1.21-4.51-1.88l-.11-.04v-.15s-.08,0-.08,0v.1s2.92,2.75,2.92,2.75h0Z"/>
        <path class="cls-4" d="m68.22,65.65c0,.07-.03.14-.09.19l-.45.38c-.14.11-.33.11-.47,0l-1.5-1.27c-.1-.08-.12-.22-.05-.32.07-.11.2-.15.31-.1l2.1.9c.08.03.14.11.15.19,0,.01,0,.03,0,.04Zm-1.79-.55l1.01.85.34-.28-1.35-.58Z"/>
        <rect class="cls-4" x="69.93" y="65.23" width=".35" height=".65" transform="translate(4.4 135.53) rotate(-89.89)"/>
        <rect class="cls-4" x="68.85" y="65.26" width=".35" height=".6" transform="translate(3.33 134.45) rotate(-89.89)"/>
        <rect class="cls-4" x="69.5" y="65.6" width=".35" height="2.1" transform="translate(2.88 136.19) rotate(-89.89)"/>
        <rect class="cls-4" x="69.73" y="66.98" width="1.01" height=".35" transform="translate(2.99 137.3) rotate(-89.92)"/>
        <rect class="cls-4" x="68.39" y="66.97" width="1.01" height=".35" transform="translate(1.66 135.96) rotate(-89.92)"/>
        <rect class="cls-4" x="69.88" y="68.44" width=".35" height=".4"/>
        <rect class="cls-4" x="68.86" y="68.44" width=".35" height=".4"/>
        <path class="cls-4" d="m66.82,66.95s0,.15,0,.2l-.35.05c0-.06,0-.26,0-.26,0-.07-.04-.49-.5-.49h-.67s-.13,0-.25.06c-.14.07-.21.21-.21.4v.25s-.35,0-.35,0v-.25c0-.24.07-.44.22-.58.23-.23.56-.23.6-.23h.67c.66,0,.85.56.85.85Z"/>
        <path class="cls-4" d="m73.52,67.12v.95s0,.26-.16.44c-.08.08-.22.18-.45.18-.47,0-.64-.38-.64-.64h0s0-1.54,0-1.54h.35s0,1.54,0,1.54c0,.07.03.29.29.29.09,0,.16-.02.2-.07.07-.07.07-.19.07-.19v-.96s.35,0,.35,0Z"/>
        <rect class="cls-4" x="71.8" y="67.23" width=".35" height=".91" transform="translate(4.15 139.52) rotate(-89.89)"/>
        <rect class="cls-4" x="71.8" y="67.6" width=".35" height=".91" transform="translate(3.77 139.89) rotate(-89.89)"/>
        <path class="cls-4" d="m73.7,68.06h0c0,.22-.09.43-.24.58s-.36.24-.58.24c-.45,0-.82-.37-.82-.83h0s.35,0,.35,0h0c0,.26.21.48.48.48.13,0,.25-.05.34-.14.09-.09.14-.21.14-.34h0c0-.13-.05-.25-.14-.34l.25-.25c.16.16.24.36.24.58Z"/>
        <rect class="cls-4" x="67.84" y="66.6" width=".35" height="1.16" transform="translate(-26.44 52.43) rotate(-35.77)"/>
        <rect class="cls-4" x="67.9" y="68.6" width=".68" height=".35" transform="translate(-.63 136.91) rotate(-89.91)"/>
        <rect class="cls-4" x="66.65" y="66.74" width=".6" height=".35" transform="translate(-22.58 97.64) rotate(-63.93)"/>
        <rect class="cls-4" x="69.44" y="74.17" width=".35" height="3.27" transform="translate(-6.33 145.27) rotate(-89.89)"/>
        <rect class="cls-4" x="69.42" y="77.26" width=".35" height="5.44" transform="translate(-10.52 149.42) rotate(-89.89)"/>
        <rect class="cls-4" x="69.41" y="77.36" width=".35" height="5.72" transform="translate(-10.77 149.65) rotate(-89.89)"/>
        <path class="cls-4" d="m74.63,86.63c0,.13-.04.26-.11.37-.1.15-.25.25-.43.29-2.97.61-6.07.59-9.22-.04-.36-.07-.6-.43-.53-.79h0c.57-3.01,1.51-5.36,3.07-7.64l.05-.08h4.29s.05.08.05.08c1.78,2.62,2.33,5.3,2.81,7.67,0,.05.01.09.01.14Zm-9.96-.04c0,.15.11.29.26.32,3.1.62,6.16.64,9.08.04.09-.02.16-.07.21-.14.05-.07.07-.16.05-.25-.47-2.31-1.01-4.93-2.71-7.47h-3.92c-1.52,2.24-2.4,4.47-2.96,7.43h0s0,.04,0,.06Z"/>
        <path class="cls-4" d="m71.2,79.9s0,.08,0,.09v.17s-.67-.02-.67-.02v-.18s.03-1.58-.55-2.17c-.14-.14-.29-.2-.47-.2h-.17s0-.66,0-.66h.17c.37,0,.69.14.95.41.69.71.74,2.19.74,2.57Z"/>
        <path class="cls-4" d="m69.69,76.97v.62c0,.18-.15.32-.32.32h-.05c-.18,0-.32-.15-.32-.32v-.62c0-.18.15-.32.32-.32h.05c.18,0,.32.15.32.32Zm-.35.59h.03l-.02-.59-.03.03.03.57Z"/>
        <path class="cls-4" d="m69.34,76.73v.98c0,.18-.15.32-.32.32h-.05c-.18,0-.32-.15-.32-.32v-.98c0-.09.04-.17.1-.23s.14-.09.23-.09h.05c.18,0,.32.14.32.32Zm-.35.95h.03s-.03-.95-.03-.95l-.03.03.02.92Zm0,.03h0s0,0,0,0Z"/>
        <path class="cls-4" d="m68.98,76.73v.98c0,.09-.04.17-.1.23s-.14.09-.23.09h-.05c-.18,0-.32-.14-.32-.32v-.98c0-.18.15-.32.32-.32h.05c.18,0,.32.15.32.32Zm-.35.95h.03l-.02-.95-.03.03.03.92Z"/>
        <path class="cls-4" d="m68.61,77h0s0,.49,0,.49c0,.26-.21.47-.47.47h-.1c-.26,0-.47-.21-.47-.47v-.49c0-.12.05-.24.14-.33.09-.09.21-.14.33-.14h.1c.12,0,.24.05.33.14s.14.21.14.33Zm-.69.49c0,.06.05.12.12.12h.1c.06,0,.12-.05.12-.12v-.49h0c0-.07-.05-.12-.12-.12h-.1c-.07,0-.12.05-.12.12v.49Z"/>
        <path class="cls-4" d="m67.13,67.18h0s0,.73,0,.73c0,.1-.08.17-.17.17s-.17-.08-.17-.17h0s0-.73,0-.73c0-.1.08-.17.17-.17s.17.08.17.17Z"/>
        <path class="cls-4" d="m66.97,67.18h0v.73c0,.1-.08.17-.18.17s-.17-.08-.17-.17h0v-.73c0-.1.08-.17.18-.17s.17.08.17.17Z"/>
        <path class="cls-4" d="m66.81,67.18h0v.73c0,.1-.08.17-.18.17s-.17-.08-.17-.17h0v-.73c0-.1.08-.17.18-.17s.17.08.17.17Z"/>
        <path class="cls-4" d="m66.65,67.18h0s0,.73,0,.73c0,.1-.08.17-.17.17s-.17-.08-.17-.17h0s0-.73,0-.73c0-.1.08-.17.17-.17s.17.08.17.17Z"/>
        <path class="cls-4" d="m66.49,67.18h0v.73c0,.1-.08.17-.18.17s-.17-.08-.17-.17h0v-.73c0-.1.08-.17.18-.17s.17.08.17.17Z"/>
        <path class="cls-4" d="m66.33,67.18h0s0,.73,0,.73c0,.1-.08.17-.17.17s-.17-.08-.17-.17h0s0-.73,0-.73c0-.1.08-.17.17-.17s.17.08.17.17Z"/>
        <path class="cls-4" d="m66.17,67.18h0s0,.73,0,.73c0,.1-.08.17-.17.17s-.17-.08-.17-.17h0s0-.73,0-.73c0-.1.08-.17.17-.17s.17.08.17.17Z"/>
        <path class="cls-4" d="m66.01,67.18h0v.73c0,.1-.08.17-.18.17s-.17-.08-.17-.17h0v-.73c0-.1.08-.17.18-.17s.17.08.17.17Z"/>
        <path class="cls-4" d="m65.85,67.17h0s0,.73,0,.73c0,.1-.08.17-.17.17s-.17-.08-.17-.17h0s0-.73,0-.73c0-.1.08-.17.17-.17s.17.08.17.17Z"/>
        <path class="cls-4" d="m65.69,67.17h0v.73c0,.1-.08.17-.18.17s-.17-.08-.17-.17h0v-.73c0-.1.08-.17.18-.17s.17.08.17.17Z"/>
        <path class="cls-4" d="m65.53,67.17h0s0,.73,0,.73c0,.1-.08.17-.17.17s-.17-.08-.17-.17h0s0-.73,0-.73c0-.1.08-.17.17-.17s.17.08.17.17Z"/>
        <path class="cls-4" d="m65.37,67.17h0s0,.73,0,.73c0,.1-.08.17-.17.17s-.17-.08-.17-.17h0s0-.73,0-.73c0-.1.08-.17.17-.17s.17.08.17.17Z"/>
        <path class="cls-4" d="m65.21,67.17h0v.73c0,.1-.08.17-.18.17s-.17-.08-.17-.17h0v-.73c0-.1.08-.17.18-.17s.17.08.17.17Z"/>
        <path class="cls-4" d="m65.05,67.17h0s0,.73,0,.73c0,.1-.08.17-.17.17s-.17-.08-.17-.17h0s0-.73,0-.73c0-.1.08-.17.17-.17s.17.08.17.17Z"/>
        <path class="cls-4" d="m64.89,67.17h0v.73c0,.1-.08.17-.18.17s-.17-.08-.17-.17h0v-.73c0-.1.08-.17.18-.17s.17.08.17.17Z"/>
        <path class="cls-4" d="m64.73,67.17h0v.73c0,.1-.08.17-.18.17s-.17-.08-.17-.17h0v-.73c0-.1.08-.17.18-.17s.17.08.17.17Z"/>
        <path class="cls-4" d="m64.57,67.17h0s0,.73,0,.73c0,.1-.08.17-.17.17s-.17-.08-.17-.17h0s0-.73,0-.73c0-.1.08-.17.17-.17s.17.08.17.17Z"/>
        <path class="cls-4" d="m64.41,67.17h0v.73c0,.1-.08.17-.18.17s-.17-.08-.17-.17h0v-.73c0-.1.08-.17.18-.17s.17.08.17.17Z"/>
        <g>
          <path class="cls-4" d="m66.97,69.82h0c0,.1-.08.17-.17.17h-.76c-.1,0-.17-.08-.17-.18h0c0-.1.08-.17.17-.17h.76c.1,0,.17.08.17.18Z"/>
          <path class="cls-4" d="m66.97,70h0c0,.1-.08.17-.17.17h-.76c-.1,0-.17-.08-.17-.18h0c0-.1.08-.17.17-.17h.76c.1,0,.17.08.17.18Z"/>
          <path class="cls-4" d="m66.97,70.18c0,.09-.08.17-.17.17h-.77c-.1,0-.17-.08-.17-.18h0c0-.1.08-.17.17-.17h.77c.1,0,.17.08.17.18Z"/>
          <path class="cls-4" d="m66.97,70.36h0c0,.1-.08.17-.17.17h-.76c-.1,0-.17-.08-.17-.18h0c0-.1.08-.17.17-.17h.76c.1,0,.17.08.17.18Z"/>
          <path class="cls-4" d="m66.97,70.55h0c0,.1-.08.17-.17.17h-.76c-.1,0-.17-.08-.17-.18h0c0-.1.08-.17.17-.17h.76c.1,0,.17.08.17.18Z"/>
          <path class="cls-4" d="m66.97,70.73h0c0,.1-.08.17-.17.17h-.77c-.1,0-.17-.08-.17-.18h0c0-.1.08-.17.17-.17h.77c.1,0,.17.08.17.18Z"/>
          <path class="cls-4" d="m66.97,70.91h0c0,.1-.08.17-.17.17h-.76c-.1,0-.17-.08-.17-.18h0c0-.1.08-.17.17-.17h.76c.1,0,.17.08.17.18Z"/>
          <path class="cls-4" d="m66.97,71.09h0c0,.1-.08.17-.17.17h-.76c-.1,0-.17-.08-.17-.18h0c0-.1.08-.17.17-.17h.76c.1,0,.17.08.17.18Z"/>
          <path class="cls-4" d="m66.97,71.27h0c0,.1-.08.17-.17.17h-.76c-.1,0-.17-.08-.17-.18h0c0-.1.08-.17.17-.17h.76c.1,0,.17.08.17.18Z"/>
          <path class="cls-4" d="m66.97,71.46h0c0,.1-.08.17-.17.17h-.76c-.1,0-.17-.08-.17-.18h0c0-.1.08-.17.17-.17h.76c.1,0,.17.08.17.18Z"/>
          <path class="cls-4" d="m66.97,71.64c0,.08-.08.17-.17.17h-.76c-.1,0-.17-.08-.17-.18h0c0-.1.08-.17.17-.17h.76c.1,0,.17.08.17.18Z"/>
          <path class="cls-4" d="m66.97,71.82c0,.09-.08.17-.17.17h-.76c-.1,0-.17-.08-.17-.18h0c0-.1.08-.17.17-.17h.76c.1,0,.17.08.17.18Z"/>
          <path class="cls-4" d="m66.97,72h0c0,.1-.08.17-.17.17h-.76c-.1,0-.17-.08-.17-.18h0c0-.1.08-.17.17-.17h.76c.1,0,.17.08.17.18Z"/>
          <path class="cls-4" d="m66.97,72.18h0c0,.1-.08.17-.17.17h-.77c-.1,0-.17-.08-.17-.18h0c0-.1.08-.17.17-.17h.77c.1,0,.17.08.17.18Z"/>
          <path class="cls-4" d="m66.97,72.37h0c0,.1-.08.17-.17.17h-.76c-.1,0-.17-.08-.17-.18h0c0-.1.08-.17.17-.17h.76c.1,0,.17.08.17.18Z"/>
          <path class="cls-4" d="m66.97,72.55h0c0,.1-.08.17-.17.17h-.76c-.1,0-.17-.08-.17-.18h0c0-.1.08-.17.17-.17h.76c.1,0,.17.08.17.18Z"/>
          <path class="cls-4" d="m66.97,72.73h0c0,.1-.08.17-.17.17h-.77c-.1,0-.17-.08-.17-.18h0c0-.1.08-.17.17-.17h.77c.1,0,.17.08.17.18Z"/>
          <path class="cls-4" d="m66.97,72.91h0c0,.1-.08.17-.17.17h-.76c-.1,0-.17-.08-.17-.18h0c0-.1.08-.17.17-.17h.76c.1,0,.17.08.17.18Z"/>
        </g>
        <path class="cls-4" d="m73.49,82.74s-4.16.79-7.89,0l.07-.34c3.66.78,7.71.02,7.75,0l.07.34Z"/>
        <path class="cls-4" d="m73.22,82.14s-3.89.53-7.38,0l.05-.34c3.44.53,7.24.01,7.28,0l.05.35Z"/>
        <path class="cls-4" d="m74.45,86.64c-.05,0-5.25.92-9.96-.01l.07-.34c4.64.92,9.78.02,9.83.01l.06.34Z"/>
        <path class="cls-4" d="m74.33,86.07c-.05,0-5.15.92-9.76-.01l.07-.34c4.55.92,9.58.02,9.63.01l.06.34Z"/>
        <path class="cls-4" d="m74.22,85.43s-5.01.92-9.51-.01l.07-.34c4.43.92,9.33.02,9.37.01l.06.34Z"/>
        <path class="cls-4" d="m74.04,84.78s-4.83.92-9.17-.01l.07-.34c4.26.92,8.98.02,9.03.01l.07.34Z"/>
        <path class="cls-4" d="m73.91,84.18s-4.68.93-8.87-.01l.08-.34c4.12.92,8.68.02,8.73,0l.07.34Z"/>
        <path class="cls-4" d="m73.74,83.5s-4.46.93-8.46-.01l.08-.34c3.92.92,8.27.02,8.31,0l.07.34Z"/>
      </g>
      <path class="cls-6" d="m89.71,47.18c0,.91-10.5,1.4-20.39,1.4s-20.39-.49-20.39-1.4h.14c0,.6,8.32,1.27,20.25,1.27s20.25-.67,20.25-1.27h.14Z"/>
      <path class="cls-6" d="m89.71,43.06c0,.91-10.5,1.4-20.39,1.4s-20.39-.49-20.39-1.4h.14c0,.6,8.32,1.27,20.25,1.27s20.25-.67,20.25-1.27h.14Z"/>
      <path class="cls-6" d="m89.71,38.95c0,.91-10.5,1.4-20.39,1.4s-20.39-.49-20.39-1.4h.14c0,.6,8.32,1.27,20.25,1.27s20.25-.67,20.25-1.27h.14Z"/>
      <path class="cls-6" d="m89.71,34.84c0,.91-10.5,1.4-20.39,1.4s-20.39-.49-20.39-1.4h.14c0,.6,8.32,1.27,20.25,1.27s20.25-.67,20.25-1.27h.14Z"/>
      <path class="cls-6" d="m89.71,30.73c0,.91-10.5,1.4-20.39,1.4s-20.39-.49-20.39-1.4h.14c0,.6,8.32,1.27,20.25,1.27s20.25-.67,20.25-1.27h.14Z"/>
      <path class="cls-6" d="m89.71,26.61c0,.91-10.5,1.4-20.39,1.4s-20.39-.49-20.39-1.4h.14c0,.6,8.32,1.27,20.25,1.27s20.25-.67,20.25-1.27h.14Z"/>
      <path class="cls-6" d="m89.71,22.5c0,.91-10.5,1.4-20.39,1.4s-20.39-.49-20.39-1.4h.14c0,.6,8.32,1.27,20.25,1.27s20.25-.67,20.25-1.27h.14Z"/>
      <path class="cls-6" d="m89.71,18.39c0,.91-10.5,1.4-20.39,1.4s-20.39-.49-20.39-1.4h.14c0,.6,8.32,1.27,20.25,1.27s20.25-.67,20.25-1.27h.14Z"/>
      <path class="cls-5" d="m90.87,14.2c0,.12-.02.24-.07.36-.08.19-.16.38-.24.58-.16.38-.32.77-.45,1.16l-.27.83v30.04c0,.1-.08,2.26-2.08,5.12-3.32,4.74-9.31,7.59-13.75,9.15-.74.26-1.24.96-1.24,1.74v.2h-6.9v-.2c0-.78-.5-1.48-1.24-1.74-4.44-1.56-10.43-4.41-13.75-9.15-2-2.86-2.08-5.03-2.08-5.12v-30.04l-.27-.83c-.13-.39-.29-.78-.45-1.16-.08-.19-.16-.38-.24-.57-.05-.11-.07-.23-.07-.36,0-.56.48-1.01,1.08-1.01h2.01L64.4.64h9.84l13.55,12.55h2.01c.59,0,1.08.45,1.08,1.01Zm-1.44,2.88v-.06s.29-.86.29-.86c.13-.41.3-.81.46-1.19.08-.19.16-.38.24-.57.03-.07.04-.13.04-.2,0-.33-.3-.6-.67-.6h-2.17l-13.55-12.55h-9.52l-13.55,12.55h-2.17c-.37,0-.67.27-.67.6,0,.07.01.14.04.2.08.19.16.38.24.57.16.38.33.78.46,1.19l.29.92v30.07c0,.08.41,8.58,15.56,13.88.84.29,1.43,1.05,1.51,1.93h6.1c.08-.87.66-1.63,1.51-1.93,15.15-5.31,15.56-13.8,15.56-13.89v-30.06Z"/>
      <path class="cls-6" d="m83.33,17.09v29.2c0,3.53-1.36,6.89-3.83,9.46-2.48,2.57-5.87,4.59-10.1,6.01l-.04-.13c4.2-1.41,7.58-3.43,10.04-5.98,2.45-2.54,3.8-5.87,3.8-9.36v-29.2h.14Z"/>
      <path class="cls-6" d="m81.06,17.09v29.9c0,2.37-.61,4.68-1.78,6.67-1.43,2.45-4.3,5.85-9.88,8.09l-.05-.13c5.54-2.23,8.39-5.6,9.81-8.03,1.15-1.98,1.76-4.26,1.76-6.61v-29.9h.14Z"/>
      <path class="cls-6" d="m78.78,17.09v30.48c0,1.43-.22,2.83-.66,4.15-1.03,3.1-3.38,7.36-8.77,10.03l-.06-.12c5.34-2.66,7.68-6.88,8.7-9.95.43-1.31.65-2.69.65-4.11v-30.48h.14Z"/>
      <path class="cls-6" d="m76.39,17.09v30.97c0,.74-.06,1.47-.18,2.16-.4,2.36-1.85,8.22-6.74,11.53l-.08-.11c4.85-3.28,6.29-9.1,6.68-11.44.12-.69.17-1.4.17-2.14v-30.97h.14Z"/>
      <path class="cls-6" d="m74.17,17.09v31.74c0,.09-.4,8.62-4.74,12.91l-.1-.1c4.31-4.25,4.7-12.73,4.7-12.82v-31.74h.14Z"/>
      <path class="cls-6" d="m71.67,17.09v31.74c0,.09-.19,8.61-2.28,12.89l-.12-.06c2.08-4.26,2.27-12.75,2.27-12.84v-31.74h.14Z"/>
      <path class="cls-6" d="m85.72,17.09v28.51c0,4.22-1.97,8.2-5.42,10.91-2.82,2.21-6.5,3.98-10.97,5.26l-.04-.13c4.44-1.27,8.12-3.03,10.92-5.23,3.41-2.68,5.37-6.62,5.37-10.8v-28.51h.14Z"/>
      <path class="cls-6" d="m88.06,17.09v27.96c0,4.51-2.31,8.8-6.17,11.46-3.19,2.21-7.38,3.97-12.44,5.24l-.03-.13c5.04-1.27,9.21-3.03,12.39-5.22,3.83-2.64,6.11-6.89,6.11-11.35v-27.96h.14Z"/>
      <path class="cls-6" d="m69.44,61.63l-.04.13c-4.23-1.42-7.62-3.44-10.1-6.01-2.47-2.57-3.83-5.93-3.83-9.46v-29.2h.14v29.2c0,3.49,1.35,6.82,3.8,9.36,2.46,2.55,5.84,4.57,10.04,5.98Z"/>
      <path class="cls-6" d="m69.44,61.63l-.05.13c-5.58-2.24-8.45-5.64-9.88-8.09-1.16-2-1.78-4.31-1.78-6.67v-29.9h.14v29.9c0,2.34.61,4.63,1.76,6.61,1.42,2.44,4.27,5.81,9.81,8.03Z"/>
      <path class="cls-6" d="m69.5,61.63l-.06.12c-5.38-2.68-7.74-6.93-8.77-10.03-.44-1.32-.66-2.72-.66-4.15v-30.48h.14v30.48c0,1.42.22,2.8.65,4.11,1.02,3.08,3.36,7.3,8.7,9.95Z"/>
      <path class="cls-6" d="m69.4,61.64l-.08.11c-4.89-3.31-6.34-9.17-6.74-11.53-.12-.69-.18-1.42-.18-2.16v-30.97h.14v30.97c0,.73.06,1.45.17,2.14.4,2.35,1.84,8.16,6.68,11.44Z"/>
      <path class="cls-6" d="m69.46,61.65l-.1.1c-4.34-4.29-4.74-12.82-4.74-12.91v-31.74h.14v31.74c0,.08.4,8.56,4.7,12.82Z"/>
      <path class="cls-6" d="m69.53,61.66l-.12.06c-2.09-4.29-2.28-12.81-2.28-12.89v-31.74h.14v31.74c0,.08.19,8.57,2.27,12.84Z"/>
      <path class="cls-6" d="m69.49,61.63l-.04.13c-4.46-1.28-8.15-3.04-10.97-5.26-3.44-2.71-5.42-6.68-5.42-10.91v-28.51h.14v28.51c0,4.18,1.96,8.12,5.37,10.8,2.8,2.2,6.48,3.96,10.92,5.23Z"/>
      <path class="cls-6" d="m69.38,61.63l-.03.13c-5.06-1.27-9.24-3.04-12.44-5.24-3.86-2.67-6.17-6.95-6.17-11.46v-27.96h.14v27.96c0,4.47,2.28,8.71,6.11,11.35,3.18,2.2,7.35,3.96,12.39,5.22Z"/>
      <rect class="cls-5" x="49.08" y="16.98" width="40.52" height=".14"/>
      <rect class="cls-5" x="48.91" y="16.63" width="40.9" height=".14"/>
      <rect class="cls-5" x="50.89" y="13.43" width="36.85" height=".14"/>
      <rect class="cls-5" x="51.32" y="13.01" width="36.14" height=".14"/>
      <rect class="cls-6" x="69.31" y="17.16" width=".14" height="44.35"/>
      <rect class="cls-5" x="78.45" y="-.61" width=".14" height="15.22" transform="translate(12.23 49.66) rotate(-37.86)"/>
      <rect class="cls-5" x="75.19" y=".03" width=".14" height="13.94" transform="translate(6.79 39.01) rotate(-30.37)"/>
      <rect class="cls-5" x="71.21" y=".67" width=".14" height="12.65" transform="translate(1.39 22.64) rotate(-18.22)"/>
      <rect class="cls-5" x="52.32" y="6.93" width="15.22" height=".14" transform="translate(17.65 50.04) rotate(-52.17)"/>
      <rect class="cls-5" x="56.22" y="6.93" width="13.94" height=".14" transform="translate(25.16 57.95) rotate(-59.58)"/>
      <rect class="cls-5" x="60.85" y="6.93" width="12.65" height=".14" transform="translate(39.58 68.64) rotate(-71.83)"/>
      <path class="cls-4" d="m74.24,63.25c0,.06-.05.1-.1.1h-9.62c-.06,0-.1-.05-.1-.1s.05-.1.1-.1h9.62c.06,0,.1.05.1.1Z"/>
      <path class="cls-5" d="m73.79,0v.83h-9.19v-.83h9.19Zm-.27.56v-.29h-8.65v.29h8.65Z"/>
      <path class="cls-4" d="m69.59,126.42c-16.33,0-33.22-1.94-33.22-5.18,0-.14.11-.25.25-.25s.25.11.25.25c0,2.26,13.15,4.68,32.72,4.68s32.72-2.42,32.72-4.68c0-.14.11-.25.25-.25s.25.11.25.25c0,3.24-16.89,5.18-33.22,5.18Z"/>
      <path class="cls-4" d="m69.59,130.03c-16.33,0-33.22-1.94-33.22-5.18,0-.14.11-.25.25-.25s.25.11.25.25c0,2.26,13.15,4.68,32.72,4.68s32.72-2.42,32.72-4.68c0-.14.11-.25.25-.25s.25.11.25.25c0,3.24-16.89,5.18-33.22,5.18Z"/>
      <path class="cls-4" d="m102.56,126.27c-.14,0-.25-.11-.25-.25,0-2.26-13.15-4.68-32.72-4.68s-32.72,2.42-32.72,4.68c0,.14-.11.25-.25.25s-.25-.11-.25-.25c0-3.24,16.89-5.18,33.22-5.18s33.22,1.94,33.22,5.18c0,.14-.11.25-.25.25Z"/>
      <path class="cls-4" d="m102.56,122.65c-.14,0-.25-.11-.25-.25,0-2.26-13.15-4.68-32.72-4.68s-32.72,2.42-32.72,4.68c0,.14-.11.25-.25.25s-.25-.11-.25-.25c0-3.24,16.89-5.18,33.22-5.18s33.22,1.94,33.22,5.18c0,.14-.11.25-.25.25Z"/>
      <path class="cls-4" d="m103.77,149.03c-.27,0-.49-.22-.5-.49l-3.06-116.5c0-.28.21-.51.49-.51.26,0,.51.21.51.49l3.06,116.5c0,.28-.21.51-.49.51h-.01Z"/>
      <path class="cls-4" d="m86.9,146.49c-.14,0-.25-.11-.25-.25l-4.58-88.69c0-.14.11-.25.25-.25.16.02.25.11.25.25l4.58,88.69c0,.14-.11.25-.25.25h0Z"/>
      <path class="cls-4" d="m35.96,149.03h-.01c-.28,0-.49-.24-.49-.51l3.06-116.5c0-.28.24-.49.51-.49.28,0,.49.24.49.51l-3.06,116.5c0,.27-.23.49-.5.49Z"/>
      <path class="cls-4" d="m53.82,154.24h-.01c-.28,0-.49-.24-.49-.51l3.3-117.22c0-.28.25-.49.51-.49.28,0,.49.24.49.51l-3.3,117.22c0,.27-.23.49-.5.49Z"/>
      <path class="cls-4" d="m56.21,66.24h0l-17.92-.73c-.14,0-.25-.12-.24-.26,0-.14.13-.23.26-.24l17.92.73c.14,0,.25.12.24.26,0,.14-.12.24-.25.24Z"/>
      <path class="cls-4" d="m56.21,67.64h0l-17.92-.73c-.14,0-.25-.12-.24-.26,0-.14.13-.23.26-.24l17.92.73c.14,0,.25.12.24.26,0,.14-.12.24-.25.24Z"/>
      <path class="cls-4" d="m82.87,66.11c-.13,0-.25-.11-.25-.24,0-.14.1-.25.24-.26l18.8-.73c.14,0,.25.1.26.24,0,.14-.1.25-.24.26l-18.8.73h0Z"/>
      <path class="cls-4" d="m82.87,67.51c-.13,0-.25-.11-.25-.24,0-.14.1-.25.24-.26l18.8-.73c.13,0,.25.1.26.24,0,.14-.1.25-.24.26l-18.8.73h0Z"/>
      <path class="cls-4" d="m89.83,28.17v1c6.64.85,10.36,2.04,10.36,3.02,0,1.72-11.56,4.11-30.38,4.11s-30.38-2.4-30.38-4.11c0-.92,3.33-2.04,9.31-2.87v-1c-5.94.81-10.31,2.07-10.31,3.88,0,3.75,18.76,5.11,31.38,5.11s31.38-1.36,31.38-5.11c0-1.92-4.89-3.21-11.36-4.01Z"/>
      <path class="cls-4" d="m89.83,30.36v1c6.64.85,10.36,2.04,10.36,3.02,0,1.72-11.56,4.11-30.38,4.11s-30.38-2.4-30.38-4.11c0-.92,3.33-2.04,9.31-2.87v-1s-.06,0-.09.01c-5.89.81-10.22,2.06-10.22,3.87,0,3.75,18.76,5.11,31.38,5.11s31.38-1.36,31.38-5.11c0-1.92-4.89-3.21-11.36-4.01Z"/>
      <line class="cls-2" x1="38.85" y1="31.98" x2="48.91" y2="16.63"/>
      <line class="cls-2" x1="100.58" y1="31.87" x2="89.82" y2="16.63"/>
      <g class="cls-1">
        <circle class="cls-3" cx="42.98" cy="122.76" r="18.43"/>
        <circle class="cls-11" cx="63.38" cy="125.54" r="6.52"/>
        <circle class="cls-9" cx="76.24" cy="125.54" r="6.52"/>
        <circle class="cls-10" cx="9.19" cy="128.96" r="4.47"/>
        <circle class="cls-14" cx="19.46" cy="129.19" r="6.16"/>
        <circle class="cls-12" cx="6.16" cy="138.84" r="6.16"/>
        <circle class="cls-13" cx="16.94" cy="141.87" r="12.25"/>
        <circle class="cls-7" cx="28.94" cy="142.84" r="14.41"/>
        <circle class="cls-8" cx="96.94" cy="122.76" r="18.43"/>
        <circle class="cls-19" cx="130.73" cy="128.96" r="4.47"/>
        <circle class="cls-20" cx="120.47" cy="129.19" r="6.16"/>
        <circle class="cls-18" cx="133.77" cy="138.84" r="6.16"/>
        <circle class="cls-17" cx="122.98" cy="141.87" r="12.25"/>
        <circle class="cls-15" cx="110.98" cy="142.84" r="14.41"/>
        <rect class="cls-16" x="29.25" y="127.1" width="82.43" height="30.26"/>
      </g>
    </g>
  </g>
</svg>