<?xml version="1.0" encoding="UTF-8"?>
<svg id="Layer_2" data-name="Layer 2" xmlns="http://www.w3.org/2000/svg" viewBox="0 0 59.88 254.5">
  <defs>
    <style>
      .cls-1 {
        fill: #8b8a8d;
      }

      .cls-2 {
        fill: #6d6e70;
      }

      .cls-3 {
        fill: gray;
      }

      .cls-4 {
        fill: #808184;
      }
    </style>
  </defs>
  <g id="Layer_4" data-name="Layer 4">
    <g>
      <g>
        <path class="cls-1" d="m59.38,254.5H.5c-.15,0-.29-.07-.39-.18-.09-.12-.13-.27-.1-.41l6.7-33.88c.05-.23.25-.4.49-.4h45.48c.24,0,.44.17.49.4l6.7,33.88c.03.15,0,.3-.1.41-.1.12-.24.18-.39.18Zm-58.27-1h57.66l-6.5-32.88H7.61l-6.5,32.88Z"/>
        <path class="cls-1" d="m13.19,254.12c-.24,0-.45-.17-.49-.41l-5.99-33.5c-.05-.27.13-.53.4-.58.27-.05.53.13.58.4l5.99,33.5c.05.27-.13.53-.4.58-.03,0-.06,0-.09,0Z"/>
        <path class="cls-1" d="m13.17,254.12s-.06,0-.09,0c-.27-.05-.45-.31-.4-.58l5.99-33.5c.05-.27.31-.45.58-.4.27.05.45.31.4.58l-5.99,33.5c-.04.24-.25.41-.49.41Z"/>
        <path class="cls-1" d="m46.11,254.12c-.24,0-.45-.17-.49-.41l-5.99-33.5c-.05-.27.13-.53.4-.58.27-.05.53.13.58.4l5.99,33.5c.05.27-.13.53-.4.58-.03,0-.06,0-.09,0Z"/>
        <path class="cls-1" d="m46.09,254.12s-.06,0-.09,0c-.27-.05-.45-.31-.4-.58l5.99-33.5c.05-.27.31-.45.58-.4.27.05.45.31.4.58l-5.99,33.5c-.04.24-.25.41-.49.41Z"/>
      </g>
      <g>
        <g>
          <g>
            <path class="cls-3" d="m31.26,97.51c0,.16-.04.28-.13.36-.09.08-.2.12-.33.12-.11,0-.21-.02-.28-.04-.07-.03-.14-.08-.19-.14l-1.56-1.96s-.06-.05-.1-.05c-.03,0-.06,0-.08.03-.02.02-.04.04-.04.08v2.04h-.44v-2.12c0-.16.04-.28.13-.35.09-.08.21-.12.36-.12.12,0,.22.02.3.05.08.03.15.09.21.18l1.49,1.93s.07.05.11.05c.06,0,.1-.03.1-.1v-2.05h.44v2.1Z"/>
            <path class="cls-1" d="m30.8,98.12c-.13,0-.24-.02-.33-.05-.09-.04-.17-.1-.24-.18l-1.56-1.96v2.14s-.69,0-.69,0v-2.24c0-.19.06-.35.18-.45.11-.1.26-.15.44-.15.14,0,.25.02.35.06.1.04.19.11.27.22l1.48,1.91v-2.13h.69v2.23c0,.19-.06.34-.17.45-.11.1-.25.16-.41.16Zm-2.14-2.45c.08,0,.15.04.2.1l1.56,1.96s.08.08.14.1c.12.05.35.06.47-.06.06-.06.09-.15.09-.27v-1.98h-.19v1.93c0,.13-.09.22-.22.22-.08,0-.15-.03-.21-.1l-1.49-1.93c-.05-.07-.11-.12-.16-.14-.06-.02-.15-.04-.25-.04-.12,0-.21.03-.28.09-.06.05-.09.14-.09.26v1.99h.19v-1.91c0-.08.03-.14.08-.18.04-.03.1-.05.16-.05Z"/>
          </g>
          <g>
            <path class="cls-3" d="m31.04,100.08v.43h-2.14c-.06,0-.09.03-.09.09v.54h2.22v.41h-2.22v.55c0,.06.03.09.09.09h2.14v.42h-2.31c-.24,0-.36-.12-.36-.35v-1.84c0-.23.12-.34.36-.34h2.3Z"/>
            <path class="cls-1" d="m31.17,102.74h-2.43c-.31,0-.48-.17-.48-.48v-1.84c0-.3.18-.47.48-.47h2.43v.68h-2.23v.38h2.22v.66h-2.22v.39h2.23v.67Zm-2.43-2.53c-.2,0-.23.08-.23.22v1.84c0,.17.06.23.23.23h2.18v-.17h-2.01c-.13,0-.21-.09-.21-.21v-.68h2.22v-.16h-2.22v-.66c0-.13.09-.21.21-.21h2.01v-.18h-2.18Z"/>
          </g>
          <g>
            <path class="cls-3" d="m29.12,107.28c-.16,0-.3-.02-.41-.05-.11-.03-.2-.08-.28-.15-.07-.07-.12-.15-.16-.25-.03-.1-.05-.22-.05-.37v-1.72h.44v1.72c0,.13.03.23.1.3.07.06.17.09.32.09h1.18c.15,0,.26-.03.33-.09.07-.06.1-.16.1-.3v-1.72h.44v1.72c0,.28-.07.49-.21.62-.14.13-.36.19-.68.19h-1.14Z"/>
            <path class="cls-1" d="m30.25,107.41h-1.13c-.17,0-.32-.02-.44-.05-.13-.04-.24-.1-.33-.18-.08-.08-.15-.18-.19-.3-.04-.12-.05-.25-.05-.4v-1.85h.69v1.85c0,.1.02.17.06.21.04.04.12.06.24.06h1.18c.15,0,.21-.03.24-.06.04-.04.06-.1.06-.21v-1.85h.69v1.85c0,.32-.08.55-.25.71-.16.15-.41.23-.77.23Zm-1.9-2.53v1.6c0,.13.01.24.04.33.03.08.07.15.12.2.06.05.13.09.22.12.1.03.23.04.38.04h1.13c.28,0,.48-.05.6-.16.11-.1.17-.28.17-.52v-1.6h-.19v1.6c0,.17-.05.3-.14.39-.09.08-.23.12-.41.12h-1.18c-.18,0-.32-.04-.41-.13-.09-.09-.14-.22-.14-.39v-1.6h-.19Z"/>
          </g>
          <g>
            <path class="cls-3" d="m31.13,109.42v.43h-1.23v2.1h-.44v-2.1h-1.23v-.43h2.9Z"/>
            <path class="cls-1" d="m30.03,112.07h-.69v-2.1h-1.23v-.68h3.15v.68h-1.23v2.1Zm-.44-.25h.19v-2.1h1.23v-.18h-2.65v.18h1.23v2.1Z"/>
          </g>
          <g>
            <path class="cls-3" d="m28.73,116.62h-.43v-2.38c0-.1.06-.16.17-.16h1.81c.17,0,.3.02.4.06.1.04.18.1.24.16.06.06.11.14.14.22.03.08.05.16.05.24,0,.12-.02.23-.07.33-.05.1-.12.19-.23.25.1.04.19.1.24.18.06.08.08.2.08.36v.49c0,.05,0,.1,0,.13,0,.04,0,.07,0,.1h-.44s0-.08,0-.11c0-.03,0-.06,0-.09v-.45c0-.13-.04-.23-.11-.29-.07-.06-.16-.09-.28-.09h-1.56v1.03Zm1.51-1.42c.09,0,.16-.01.21-.04.05-.03.09-.06.13-.11.05-.06.07-.13.07-.21s-.02-.15-.07-.21c-.03-.04-.07-.07-.13-.1-.05-.02-.12-.04-.2-.04h-1.44s-.07.02-.07.07v.64h1.51Z"/>
            <path class="cls-1" d="m31.28,116.74h-.7v-.11s-.02-.08-.02-.11v-.55c0-.1-.02-.16-.07-.2-.05-.04-.11-.06-.2-.06h-1.43v1.03h-.68v-2.5c0-.17.11-.28.29-.28h1.81c.19,0,.33.02.45.07.11.05.21.12.28.19.07.08.12.16.16.26.04.1.06.19.06.28,0,.14-.03.27-.08.38-.03.07-.07.13-.12.18.05.04.09.08.12.13.07.11.11.25.11.43v.49c0,.05,0,.1,0,.13,0,.03,0,.06,0,.09l.02.15Zm-.47-.25h.19s0-.07,0-.11v-.49c0-.13-.02-.23-.06-.29-.04-.06-.1-.1-.18-.13l-.25-.09.23-.14c.09-.05.15-.12.18-.19.04-.09.06-.18.06-.28,0-.06-.01-.12-.04-.19-.03-.07-.06-.13-.11-.18-.05-.05-.12-.1-.2-.14-.08-.03-.2-.05-.35-.05h-1.81s-.04,0-.04,0v2.28s.18,0,.18,0v-1.03h1.68c.14,0,.26.04.36.12.1.08.15.22.15.39v.53Zm-.56-1.17h-1.63v-.77c0-.11.08-.19.2-.19h1.44c.11,0,.19.02.26.05.07.03.12.08.17.13.07.09.1.18.1.29s-.03.2-.1.29c-.04.06-.1.1-.17.14-.07.04-.16.06-.27.06Zm-1.38-.25h1.38c.08,0,.12-.01.15-.03.04-.02.07-.04.09-.07.03-.04.05-.08.05-.13s-.02-.09-.05-.14c-.02-.02-.05-.05-.08-.06-.02-.01-.07-.02-.15-.02h-1.38v.46Z"/>
          </g>
          <g>
            <path class="cls-3" d="m28.46,119.1c.07-.06.14-.12.21-.16.07-.04.15-.08.23-.11.08-.03.18-.05.28-.06.1-.01.21-.02.34-.02h.34c.13,0,.24,0,.34.02.1.01.19.03.28.06.08.03.16.06.23.11.07.04.14.1.21.16.12.11.22.25.28.4s.1.33.1.52-.03.37-.1.53-.16.29-.28.41c-.07.06-.14.11-.21.16-.07.04-.15.08-.23.1-.08.03-.18.04-.28.06-.1.01-.21.02-.34.02h-.34c-.13,0-.24,0-.34-.02-.1-.01-.19-.03-.28-.06-.08-.03-.16-.06-.23-.1-.07-.04-.14-.09-.21-.16-.12-.11-.22-.25-.28-.4-.07-.16-.1-.33-.1-.52s.03-.37.1-.52c.07-.15.16-.29.28-.4Zm2.4.93c0-.13-.03-.25-.08-.37-.05-.11-.13-.21-.22-.28-.07-.06-.16-.11-.25-.14s-.22-.05-.37-.05h-.49c-.15,0-.27.02-.37.05-.1.03-.18.08-.25.14-.09.08-.17.17-.22.28-.05.11-.08.23-.08.37,0,.11.02.22.06.32.04.1.1.19.17.26.07.08.17.14.28.19.11.05.25.07.41.07h.52c.16,0,.3-.02.41-.07.11-.05.2-.11.28-.19.07-.07.13-.16.17-.26.04-.1.06-.21.06-.32Z"/>
            <path class="cls-1" d="m29.85,121.41h-.34c-.13,0-.25,0-.36-.02-.11-.01-.21-.04-.3-.06-.09-.03-.18-.07-.26-.11-.08-.05-.16-.11-.23-.17-.13-.12-.24-.27-.31-.45-.07-.17-.11-.37-.11-.57s.04-.4.11-.57c.07-.17.18-.32.31-.44h0c.07-.07.15-.13.23-.17.08-.05.17-.09.26-.12s.19-.05.3-.07c.11-.01.23-.02.36-.02h.34c.13,0,.25,0,.36.02.11.01.21.04.3.07.09.03.18.07.26.12.08.05.15.11.23.17.13.12.24.27.31.44.07.17.11.36.11.57s-.04.4-.11.58c-.07.17-.18.33-.32.45-.07.07-.15.13-.23.17-.08.05-.17.09-.26.11-.09.03-.19.05-.3.06-.1.01-.22.02-.36.02Zm-.34-2.53c-.12,0-.23,0-.33.02-.09.01-.18.03-.25.05-.07.02-.14.06-.21.09-.06.04-.13.09-.19.14h0c-.11.1-.19.22-.25.36s-.09.3-.09.47.03.33.09.48c.06.14.15.26.25.36.06.06.12.1.19.14.06.04.13.07.21.09.08.02.16.04.25.05.09.01.2.02.33.02h.34c.12,0,.23,0,.33-.02.09-.01.17-.03.25-.05.07-.02.14-.05.2-.09.06-.04.13-.08.19-.14.11-.1.19-.22.25-.36.06-.14.09-.3.09-.48s-.03-.34-.09-.47c-.06-.14-.14-.26-.25-.36-.06-.06-.13-.11-.19-.14-.06-.04-.13-.07-.21-.1-.08-.02-.16-.04-.25-.05-.1-.01-.2-.02-.33-.02h-.34Zm.43,2.11h-.52c-.18,0-.33-.03-.46-.08-.12-.05-.23-.13-.32-.22-.08-.09-.15-.19-.19-.3-.05-.11-.07-.24-.07-.37,0-.15.03-.29.09-.42.06-.13.15-.24.26-.33.08-.07.18-.12.29-.16.11-.04.25-.06.41-.06h.49c.16,0,.3.02.41.06.11.04.21.09.29.16.11.09.2.2.26.33.06.13.09.27.09.42,0,.13-.02.25-.07.37-.05.11-.11.22-.2.3-.09.09-.19.16-.32.22-.13.05-.28.08-.46.08Zm-.51-1.68c-.13,0-.25.01-.33.04-.08.03-.16.07-.22.12-.08.07-.14.15-.19.24-.05.1-.07.2-.07.31,0,.1.02.19.05.27.04.09.08.16.14.22.07.07.14.12.24.16.09.04.21.06.36.06h.52c.14,0,.27-.02.36-.06s.17-.09.24-.16c.06-.06.11-.14.15-.22.04-.09.05-.17.05-.27,0-.12-.02-.22-.07-.31-.05-.1-.11-.18-.19-.24-.06-.05-.13-.09-.22-.12-.08-.03-.2-.04-.33-.04h-.49Z"/>
          </g>
          <g>
            <path class="cls-3" d="m31.26,125.52c0,.16-.04.28-.13.36-.09.08-.2.12-.33.12-.11,0-.21-.01-.28-.04-.07-.03-.14-.08-.19-.14l-1.56-1.96s-.06-.05-.1-.05c-.03,0-.06,0-.08.03-.02.02-.04.04-.04.08v2.04h-.44v-2.12c0-.16.04-.28.13-.35.09-.08.21-.12.36-.12.12,0,.22.02.3.05.08.03.15.09.21.18l1.49,1.93s.07.05.11.05c.06,0,.1-.03.1-.1v-2.05h.44v2.1Z"/>
            <path class="cls-1" d="m30.8,126.13c-.13,0-.24-.02-.33-.05-.09-.04-.17-.1-.24-.18l-1.56-1.96v2.14s-.69,0-.69,0v-2.24c0-.19.06-.35.18-.45.11-.1.26-.15.44-.15.14,0,.25.02.35.06.1.04.19.11.27.22l1.48,1.91v-2.13h.69v2.23c0,.19-.06.34-.17.45-.11.1-.25.16-.41.16Zm-2.14-2.45c.08,0,.15.04.2.1l1.56,1.96s.08.08.14.1c.12.05.35.07.48-.05.06-.06.09-.15.09-.27v-1.98h-.19v1.93c0,.13-.09.22-.22.22-.08,0-.15-.03-.21-.1l-1.49-1.93c-.05-.07-.11-.12-.16-.14-.06-.02-.15-.04-.25-.04-.12,0-.21.03-.28.09-.06.05-.09.14-.09.26v1.99h.19v-1.91c0-.08.03-.14.09-.18.04-.03.1-.05.15-.05Z"/>
          </g>
        </g>
        <g>
          <g>
            <path class="cls-3" d="m30.19,84.73c0,.17-.2.3-.45.3s-.45-.13-.45-.3.2-.3.45-.3.45.13.45.3"/>
            <path class="cls-1" d="m29.73,85.15c-.32,0-.58-.19-.58-.42s.25-.42.58-.42.58.19.58.42-.25.42-.58.42Zm0-.6c-.19,0-.33.09-.33.17s.14.17.33.17.33-.09.33-.17-.14-.17-.33-.17Z"/>
          </g>
          <g>
            <path class="cls-3" d="m29.98,83.85c0,.05-.11.09-.25.09s-.25-.04-.25-.09.11-.09.25-.09.25.04.25.09"/>
            <ellipse class="cls-1" cx="29.73" cy="83.85" rx=".37" ry=".22"/>
          </g>
          <g>
            <path class="cls-3" d="m29.28,92.48c0-.17.2-.3.45-.3s.45.13.45.3-.2.3-.45.3-.45-.13-.45-.3"/>
            <path class="cls-1" d="m29.73,92.9c-.32,0-.58-.19-.58-.42s.25-.42.58-.42.58.19.58.42-.25.42-.58.42Zm0-.6c-.19,0-.33.09-.33.17s.14.17.33.17.33-.09.33-.17-.14-.17-.33-.17Z"/>
          </g>
          <g>
            <path class="cls-3" d="m29.49,93.35c0-.05.11-.09.25-.09s.25.04.25.09-.11.09-.25.09-.25-.04-.25-.09"/>
            <ellipse class="cls-1" cx="29.73" cy="93.35" rx=".37" ry=".22"/>
          </g>
          <g>
            <path class="cls-3" d="m33.65,89.05c-.17,0-.3-.2-.3-.45s.13-.45.3-.45.3.2.3.45-.13.45-.3.45"/>
            <path class="cls-1" d="m33.65,89.18c-.24,0-.42-.25-.42-.58s.19-.58.42-.58.42.25.42.58-.19.58-.42.58Zm0-.91c-.08,0-.17.14-.17.33s.09.33.17.33.17-.14.17-.33-.09-.33-.17-.33Z"/>
          </g>
          <g>
            <path class="cls-3" d="m34.52,88.85c-.05,0-.09-.11-.09-.25s.04-.25.09-.25.09.11.09.25-.04.25-.09.25"/>
            <ellipse class="cls-1" cx="34.52" cy="88.6" rx=".22" ry=".37"/>
          </g>
          <g>
            <path class="cls-3" d="m32.92,85.08s.14.01.24.11c.1.1.15.2.11.24-.04.04-.14-.01-.24-.11s-.15-.2-.11-.24"/>
            <path class="cls-1" d="m33.23,85.57c-.12,0-.25-.11-.3-.16-.16-.16-.2-.32-.11-.42h0c.09-.09.26-.05.42.11.05.05.16.17.16.3,0,.05-.02.09-.05.12-.03.03-.07.05-.12.05h0Z"/>
          </g>
          <g>
            <path class="cls-3" d="m25.8,88.14c.17,0,.3.2.3.45s-.13.45-.3.45-.3-.2-.3-.45.13-.45.3-.45"/>
            <path class="cls-1" d="m25.8,89.18c-.24,0-.42-.25-.42-.58s.19-.58.42-.58.42.25.42.58-.19.58-.42.58Zm0-.91c-.08,0-.17.14-.17.33s.09.33.17.33.17-.14.17-.33-.09-.33-.17-.33Z"/>
          </g>
          <g>
            <path class="cls-3" d="m24.92,88.35c.05,0,.09.11.09.25s-.04.25-.09.25-.09-.11-.09-.25.04-.25.09-.25"/>
            <path class="cls-1" d="m24.92,88.97c-.13,0-.22-.15-.22-.37s.08-.37.22-.37.22.15.22.37-.08.37-.22.37Z"/>
          </g>
          <g>
            <path class="cls-3" d="m26.47,92.07s-.14-.01-.24-.11-.15-.2-.11-.24c.04-.04.14.01.24.11.1.1.15.2.11.24"/>
            <path class="cls-1" d="m26.44,92.21c-.12,0-.25-.11-.3-.16-.16-.16-.2-.32-.11-.42.03-.03.07-.05.12-.05h0c.12,0,.25.11.3.16.05.05.16.17.16.3,0,.05-.02.09-.05.12-.03.03-.07.05-.12.05h0Z"/>
          </g>
          <g>
            <path class="cls-3" d="m33.32,91.71s-.01.14-.11.24c-.1.1-.2.15-.24.11-.04-.04.01-.14.11-.24.1-.1.2-.15.24-.11"/>
            <path class="cls-1" d="m33.01,92.19h0s-.09-.02-.12-.05c-.03-.03-.05-.07-.05-.12,0-.12.11-.25.16-.3.05-.05.17-.16.29-.16h0s.09.02.12.05c.03.03.05.07.05.12,0,.12-.11.25-.16.3-.05.05-.17.16-.3.16Z"/>
          </g>
          <g>
            <path class="cls-3" d="m31.51,92.45c-.13,0-.2-.06-.25-.17-.1-.26-.28-.46-.5-.62-.23-.17-.49-.29-.78-.34-.29-.06-.58-.01-.85.11-.34.15-.64.36-.84.69-.03.06-.06.12-.09.18-.05.12-.12.18-.25.18-.18,0-.33-.08-.41-.24-.09-.16,0-.3.17-.33.45-.06.83-.27,1.12-.63.25-.3.5-.59.75-.89.09-.11.23-.11.32,0,.24.29.47.58.71.87.29.36.68.56,1.13.62.17.02.25.15.18.3-.07.15-.25.27-.42.26"/>
            <path class="cls-1" d="m27.97,92.6h-.01c-.23,0-.41-.11-.52-.3-.06-.11-.07-.23-.02-.32.05-.1.15-.17.29-.19.42-.06.76-.25,1.04-.58.21-.25.42-.5.63-.74l.12-.15c.07-.08.16-.12.25-.12h0c.1,0,.19.05.25.13.21.25.41.5.62.76l.09.11c.27.33.61.51,1.05.57.12.02.22.08.27.17.05.09.05.2,0,.31-.09.2-.31.34-.53.34h0c-.18,0-.3-.09-.36-.25-.08-.21-.23-.4-.46-.56-.23-.16-.47-.27-.73-.32-.25-.05-.51-.01-.77.1-.37.16-.62.37-.78.64-.03.05-.05.1-.08.16-.06.17-.18.26-.36.26Zm.36-.75c-.18.09-.38.15-.6.19-.05,0-.08.03-.1.05-.02.03,0,.07.01.09.06.11.17.17.31.17.06,0,.1-.01.13-.1.03-.07.06-.14.09-.2.04-.07.09-.14.15-.21Zm2.8-.02c.11.12.19.25.24.4.03.07.06.09.13.09h0c.12,0,.26-.08.3-.19,0-.02.02-.06,0-.09-.01-.02-.04-.04-.09-.04-.22-.03-.42-.09-.6-.17Zm-1.38-1.39s-.04.01-.06.04l-.12.15c-.21.25-.42.49-.63.74-.01.01-.02.03-.03.04.06-.03.12-.06.18-.09.31-.14.62-.18.92-.12.19.04.38.1.55.2-.01-.02-.03-.03-.04-.05l-.09-.11c-.21-.25-.41-.5-.62-.76-.02-.02-.04-.04-.06-.04h0Z"/>
          </g>
          <g>
            <path class="cls-3" d="m25.86,90.45c0-.21.04-.27.18-.33.29-.12.51-.34.67-.6.15-.24.26-.49.29-.77.03-.27-.02-.53-.13-.78-.15-.34-.36-.63-.69-.82-.04-.03-.09-.06-.14-.07-.18-.04-.22-.18-.19-.33.02-.14.09-.25.22-.32.16-.1.31-.03.34.15.06.4.22.74.51,1.01.23.21.47.4.7.6.1.08.19.16.29.25.11.09.1.23,0,.32-.3.24-.59.48-.89.73-.34.29-.53.66-.59,1.1-.02.13-.08.22-.18.23-.08,0-.15-.02-.21-.08-.11-.09-.17-.21-.17-.29"/>
            <path class="cls-1" d="m26.22,90.94c-.09,0-.18-.04-.27-.11-.13-.11-.21-.26-.22-.38h0c0-.25.06-.37.25-.45.25-.1.45-.28.62-.55.16-.25.25-.48.27-.72.03-.24-.01-.47-.12-.72-.16-.36-.37-.6-.64-.76-.05-.03-.08-.05-.11-.05-.22-.05-.33-.23-.29-.47.03-.18.12-.32.27-.41.12-.07.24-.08.34-.03.1.05.17.15.19.28.06.39.21.7.47.94.16.15.33.29.49.43l.5.42c.08.07.12.16.12.25,0,.1-.05.19-.13.25l-.31.25c-.19.16-.39.31-.58.47-.31.26-.49.6-.55,1.02-.04.28-.22.33-.29.34-.01,0-.03,0-.04,0Zm-.23-.5s.04.13.13.2c.06.05.09.05.12.05.02,0,.06,0,.07-.12.03-.21.08-.4.17-.57-.12.1-.24.18-.38.24-.08.03-.1.04-.1.21Zm.92-2.69c.03.05.05.11.08.16.13.29.18.57.14.85-.03.21-.1.43-.21.65,0,0,.02-.01.02-.02.19-.16.39-.32.58-.48l.31-.25s.04-.04.04-.06c0-.03-.02-.05-.03-.06l-.5-.42c-.14-.12-.29-.24-.43-.37Zm-.69-1.25s-.05,0-.08.03c-.09.05-.14.13-.16.24-.03.16.05.18.1.19.06.01.11.04.16.07.09.05.17.1.24.17-.09-.18-.15-.38-.19-.6,0-.05-.02-.08-.04-.09,0,0-.01,0-.02,0Z"/>
          </g>
          <g>
            <path class="cls-3" d="m33.24,90.81c-.1,0-.18-.06-.19-.17-.03-.19-.08-.37-.15-.54-.13-.29-.34-.51-.59-.71-.26-.22-.51-.44-.77-.66-.11-.09-.1-.23,0-.32.29-.24.58-.48.87-.71.35-.29.55-.67.61-1.12.02-.18.15-.26.31-.18.17.08.29.31.24.5-.02.07-.05.13-.12.15-.26.09-.46.26-.62.48-.19.25-.32.54-.37.85-.05.28,0,.55.11.81.16.36.38.67.74.87.04.02.07.04.11.05.15.06.2.13.19.29-.02.17-.1.3-.25.38-.03.02-.07.02-.11.03"/>
            <path class="cls-1" d="m33.23,90.94c-.17-.01-.28-.11-.31-.27-.03-.19-.08-.36-.15-.51-.13-.29-.35-.5-.55-.66-.19-.16-.38-.32-.57-.48l-.2-.17c-.08-.07-.12-.16-.12-.25s.05-.19.13-.25l.87-.71c.32-.26.5-.6.56-1.04.02-.13.08-.23.17-.28.09-.05.21-.05.32,0,.23.1.37.4.31.64-.04.15-.13.22-.2.24-.22.07-.4.22-.56.44-.19.25-.31.52-.35.8-.04.24,0,.48.1.74.17.39.39.65.68.81.03.02.06.03.1.04.2.08.29.21.27.42-.02.22-.13.39-.32.48-.04.02-.07.03-.1.03h-.07Zm-.25-.94s.02.04.03.06c.08.17.13.36.16.57,0,.03.01.05.06.06h.01s.03-.01.04-.02c.11-.06.17-.15.19-.28,0-.09,0-.12-.11-.16-.04-.02-.08-.04-.12-.06-.09-.05-.18-.11-.26-.18Zm-.45-2.22s-.02.02-.04.03l-.87.71s-.04.04-.04.06.01.04.03.06l.2.17c.19.16.38.32.57.48.05.04.1.08.15.13-.03-.06-.06-.12-.09-.18-.13-.29-.17-.59-.12-.88.03-.2.1-.4.2-.59Zm.69-1.27s-.02,0-.03,0c-.02.01-.04.05-.05.09-.03.21-.08.41-.17.59.13-.12.28-.2.44-.25,0,0,.03-.01.04-.06.03-.13-.05-.3-.17-.35-.01,0-.04-.02-.06-.02Z"/>
          </g>
          <g>
            <path class="cls-3" d="m27.96,84.72c.14,0,.2.05.26.18.11.26.3.46.53.62.25.17.52.3.83.34.26.04.5,0,.74-.1.35-.15.66-.35.86-.69.04-.06.06-.12.09-.18.04-.12.12-.18.25-.17.17,0,.31.08.4.22.1.17.02.31-.17.34-.45.06-.82.27-1.1.62-.24.29-.49.58-.73.86-.09.11-.22.11-.31,0-.24-.28-.47-.56-.7-.84-.3-.37-.68-.57-1.14-.63-.21-.03-.29-.18-.17-.36.08-.12.24-.21.39-.21"/>
            <path class="cls-1" d="m29.74,86.97h0c-.09,0-.18-.04-.25-.12l-.07-.08c-.21-.25-.42-.51-.63-.77-.28-.34-.62-.53-1.06-.59-.14-.02-.25-.09-.3-.2-.05-.11-.03-.23.04-.35.1-.16.3-.26.49-.26h0c.18,0,.3.08.37.26.09.22.25.41.48.57.26.18.51.28.78.32.22.03.45,0,.67-.09.38-.16.63-.36.8-.64.03-.05.06-.11.08-.17.06-.17.18-.26.35-.26,0,0,.01,0,.02,0,.22.01.39.11.5.28.07.12.08.23.04.34-.05.1-.16.17-.29.19-.42.06-.75.25-1.02.58-.18.21-.36.43-.54.64l-.19.23c-.07.08-.16.12-.25.12Zm-.81-1.19s.04.04.06.07c.21.26.42.51.63.76l.07.08s.03.03.06.03h0s.04-.01.06-.04l.19-.23c.18-.21.36-.42.54-.63.01-.02.03-.03.04-.05-.07.04-.14.07-.21.1-.26.11-.54.15-.8.11-.21-.03-.42-.1-.63-.21Zm2.56-.94c-.05,0-.09.02-.11.09-.03.07-.06.14-.1.21-.04.07-.09.13-.14.2.18-.09.37-.15.58-.18.05,0,.09-.03.1-.05.01-.02,0-.06-.02-.1-.06-.1-.16-.16-.29-.16,0,0,0,0-.01,0Zm-3.53,0c-.11,0-.23.06-.28.15-.03.04-.04.09-.03.11.01.03.05.05.11.05.21.03.4.08.58.17-.1-.12-.18-.24-.24-.38-.04-.09-.06-.1-.14-.1h0Z"/>
          </g>
          <g>
            <path class="cls-3" d="m27.14,90.64c0-.26.21-.4.45-.31.22.09.38.33.36.56-.01.21-.19.34-.4.29-.24-.06-.42-.3-.42-.54"/>
            <path class="cls-1" d="m27.66,91.32s-.08,0-.12-.01c-.3-.07-.52-.36-.52-.66,0-.17.07-.31.19-.39.12-.08.28-.09.43-.03.27.11.46.4.44.68,0,.14-.07.26-.18.33-.07.05-.16.08-.25.08Zm-.21-.89s-.07,0-.1.03c-.05.03-.08.1-.08.18h0c0,.19.15.37.33.42.06.02.12,0,.17-.03.04-.03.07-.08.07-.15.01-.17-.12-.37-.28-.43-.04-.02-.07-.02-.11-.02Z"/>
          </g>
          <g>
            <path class="cls-3" d="m32.34,90.64c0,.24-.17.47-.39.53-.23.07-.42-.07-.42-.31,0-.23.19-.47.41-.54.23-.07.41.08.41.32"/>
            <path class="cls-1" d="m31.83,91.31c-.1,0-.19-.03-.26-.08-.11-.08-.17-.22-.17-.37,0-.28.23-.58.5-.66.15-.04.29-.02.39.06.11.08.17.22.17.38h0c0,.29-.21.57-.48.65-.05.02-.1.02-.15.02Zm.21-.88s-.05,0-.07.01c-.17.05-.31.24-.32.42,0,.08.02.14.07.17.05.04.12.04.19.02.17-.05.3-.23.3-.41,0-.08-.02-.14-.07-.18-.03-.02-.06-.03-.1-.03Z"/>
          </g>
          <g>
            <path class="cls-3" d="m27.97,86.26c0,.25-.2.5-.45.55-.21.04-.38-.12-.37-.33,0-.22.17-.43.37-.51.24-.09.45.05.45.29"/>
            <path class="cls-1" d="m27.46,86.94c-.1,0-.2-.04-.28-.1-.1-.09-.16-.22-.15-.37.01-.27.2-.53.45-.62.15-.06.32-.04.44.04.12.08.18.21.18.37h0c0,.31-.25.61-.55.67-.03,0-.06,0-.09,0Zm.21-.88s-.07,0-.1.02c-.16.06-.28.23-.29.4,0,.07.02.13.07.17.04.04.1.05.15.04.19-.04.35-.24.35-.43h0c0-.07-.03-.13-.07-.16-.03-.02-.07-.03-.11-.03Z"/>
          </g>
          <g>
            <path class="cls-3" d="m31.82,85.94c.23,0,.47.22.5.47,0,.06,0,.13,0,.19-.04.16-.18.24-.34.21-.27-.05-.5-.36-.45-.62.03-.15.14-.25.3-.25"/>
            <path class="cls-1" d="m32.04,86.94s-.06,0-.09,0c-.17-.03-.33-.14-.43-.29-.1-.15-.14-.32-.12-.47.04-.21.2-.35.42-.35h0c.29,0,.58.27.62.58.01.09,0,.17-.01.23-.05.19-.21.31-.4.31Zm-.22-.87c-.09,0-.16.05-.17.15-.02.09.01.19.08.29.07.1.17.17.27.19.09.02.17-.02.2-.12,0-.04.01-.09,0-.14-.02-.18-.21-.36-.38-.36h0Z"/>
          </g>
          <g>
            <path class="cls-3" d="m26.52,85.06s.03.03.03.05c-.01.1-.22.31-.32.32-.04,0-.06,0-.06-.06.02-.11.2-.29.31-.31,0,0,.01,0,.04,0"/>
            <path class="cls-1" d="m26.22,85.56c-.07,0-.11-.03-.13-.05-.03-.03-.05-.08-.04-.15.03-.16.25-.38.41-.41h.12s.06.06.06.06h0s.05.07.04.13c-.02.16-.27.41-.43.43,0,0-.02,0-.03,0Z"/>
          </g>
          <g>
            <path class="cls-3" d="m26.53,85.07s-.01.14-.11.24-.2.15-.24.11c-.04-.04.01-.14.11-.24.1-.1.2-.15.24-.11"/>
            <path class="cls-1" d="m26.22,85.56s-.09-.02-.12-.05c-.09-.09-.05-.26.11-.42.05-.05.17-.16.3-.16h0s.09.02.12.05c.03.03.05.07.05.12,0,.12-.11.25-.16.3-.1.1-.21.16-.3.16Z"/>
          </g>
          <g>
            <path class="cls-3" d="m29.72,87.83c-.43,0-.78.35-.78.78s.35.78.78.78.78-.35.78-.78-.35-.78-.78-.78m0,1.72c-.52,0-.94-.42-.94-.94s.42-.94.94-.94.94.42.94.94-.42.94-.94.94"/>
            <path class="cls-1" d="m29.72,89.67c-.59,0-1.07-.48-1.07-1.07s.48-1.07,1.07-1.07,1.07.48,1.07,1.07-.48,1.07-1.07,1.07Zm0-1.72c-.36,0-.65.29-.65.65s.29.65.65.65.65-.29.65-.65-.29-.65-.65-.65Z"/>
          </g>
        </g>
        <g id="Back_RL_Logo" data-name="Back RL Logo">
          <g>
            <path class="cls-3" d="m28.19,59.06h0c-.36-.35-.87-.53-1.38-.49l-7.12.49,7.11.5c.52.04,1.03-.15,1.39-.5"/>
            <path class="cls-1" d="m26.93,59.69s-.09,0-.14,0l-7.11-.5v-.25l7.12-.49c.55-.04,1.08.15,1.47.52l.09.09-.09.1c-.36.35-.84.54-1.35.54Zm-5.44-.63l5.32.37c.43.03.87-.1,1.2-.37-.33-.27-.77-.4-1.19-.37l-5.33.37Z"/>
          </g>
          <g>
            <path class="cls-3" d="m35.9,64.13s0,0,0,0l.48-.86c.04-.06.1-.1.18-.1h0c.08,0,.14.04.18.1l.48.86s0,0,0,0h.25s0,0,0-.01l-.54-.96c-.08-.14-.22-.22-.38-.22h0c-.16,0-.3.08-.38.22l-.54.96s0,.01,0,.01h.24Z"/>
            <path class="cls-1" d="m37.48,64.25h-.31l-.04-.05-.5-.88s-.11-.05-.14,0l-.52.93h-.4s-.08-.13-.08-.13l.57-1.03c.1-.18.29-.28.49-.28s.39.11.49.28l.58,1.03-.07.13h-.08Z"/>
          </g>
          <g>
            <path class="cls-3" d="m23.31,62.93c.1,0,.18.03.24.1.07.07.1.15.1.24v.51c0,.1-.03.18-.1.24-.07.07-.15.1-.24.1h-1.03c-.09,0-.17-.03-.24-.1-.07-.07-.1-.15-.1-.24v-.51c0-.1.03-.18.1-.24.07-.07.15-.1.24-.1h1.03Zm.1.31s-.01-.05-.03-.07c-.02-.02-.04-.03-.07-.03h-1.03s-.05.01-.07.03c-.02.02-.03.04-.03.07v.58s.01.05.03.07c.02.02.04.03.07.03h1.03s.05-.01.07-.03c.02-.02.03-.04.03-.07v-.58Z"/>
            <path class="cls-1" d="m23.31,64.25h-1.03c-.13,0-.24-.05-.33-.14-.09-.09-.14-.2-.14-.33v-.51c0-.13.05-.24.14-.33.09-.09.2-.14.33-.14h1.03c.13,0,.24.05.33.14.09.09.14.2.14.33v.51c0,.13-.05.24-.14.33-.09.09-.2.14-.33.14Zm-.02-1h-1s.02.57.02.57l1-.02-.02-.54Zm0-.02h0s0,0,0,0Z"/>
          </g>
          <g>
            <path class="cls-3" d="m25.97,63.92s0,0,0,0c0,0,0,0,0,0v.18s0,0,0,0c0,0,0,0,0,0h-1.36c-.1,0-.18-.03-.24-.1-.07-.07-.1-.15-.1-.24v-.51c0-.09.03-.18.1-.24.07-.07.15-.1.24-.1h1.36s0,0,0,0c0,0,0,0,0,0v.18s0,0,0,0c0,0,0,0,0,0h-1.36s-.05.01-.07.03c-.02.02-.03.04-.03.07v.58s.01.05.03.07c.02.02.04.03.07.03h1.36Z"/>
            <path class="cls-1" d="m25.97,64.25h-1.36c-.13,0-.24-.05-.33-.14-.09-.09-.14-.2-.14-.33v-.51c0-.13.05-.24.14-.33.09-.09.2-.14.33-.14h1.41l.08.08v.3s-.07.08-.07.08h-.06s-1.33,0-1.33,0v.54h1.39l.08.08v.29s-.07.08-.07.08h-.06Z"/>
          </g>
          <g>
            <path class="cls-3" d="m29,63.43h1.42s0,0,0,0c0,0,0,0,0,0v.18s0,0,0,0c0,0,0,0,0,0h-1.42v.19s0,.05.03.07c.02.02.04.03.07.03h1.36s0,0,0,0c0,0,0,0,0,0v.18s0,0,0,0c0,0,0,0,0,0h-1.36c-.09,0-.18-.03-.24-.1-.07-.07-.1-.15-.1-.24v-.51c0-.09.03-.18.1-.24.07-.07.15-.1.24-.1h1.36s0,0,0,0c0,0,0,0,0,0v.18s0,0,0,0c0,0,0,0,0,0h-1.36s-.05.01-.07.03c-.02.02-.03.04-.03.07v.19Z"/>
            <path class="cls-1" d="m30.46,64.25h-1.36c-.13,0-.24-.05-.33-.14-.09-.09-.14-.2-.14-.33v-.51c0-.13.05-.24.14-.33.09-.09.2-.14.33-.14h1.41l.08.08v.3s-.07.08-.07.08h-.06s-1.33,0-1.33,0v.04h1.36l.07.08v.29s-.07.08-.07.08h-.06s-1.3,0-1.3,0v.04h1.39l.08.08v.29s-.07.08-.07.08h-.06Z"/>
          </g>
          <g>
            <polygon class="cls-3" points="31.11 62.95 31.11 62.94 31.12 62.93 32.8 62.93 32.81 62.94 32.81 62.95 32.81 63.13 32.81 63.14 32.8 63.14 32.08 63.14 32.08 64.12 32.08 64.12 32.07 64.13 31.85 64.13 31.85 64.12 31.84 64.12 31.84 63.14 31.12 63.14 31.11 63.14 31.11 63.13 31.11 62.95"/>
            <polygon class="cls-1" points="32.07 64.25 31.8 64.25 31.72 64.18 31.72 64.12 31.72 63.26 31.07 63.26 30.99 63.19 30.98 62.89 31.06 62.81 31.12 62.81 32.86 62.81 32.94 62.89 32.94 63.18 32.86 63.26 32.8 63.26 32.21 63.26 32.21 64.17 32.13 64.25 32.07 64.25"/>
          </g>
          <g>
            <path class="cls-3" d="m35.17,64.12s0,0,0,0c0,0,0,0,0,0h-1.36c-.09,0-.18-.03-.24-.1-.07-.07-.1-.15-.1-.24v-.84s0,0,0,0c0,0,0,0,0,0h.22s0,0,0,0c0,0,0,0,0,0v.88s.01.05.03.07c.02.02.04.03.07.03h1.36s0,0,0,0c0,0,0,0,0,0v.19Z"/>
            <path class="cls-1" d="m35.16,64.25h-1.36c-.13,0-.24-.05-.33-.14-.09-.09-.14-.2-.14-.33v-.89l.08-.08h.33s.08.07.08.07v.06s0,.86,0,.86h1.39l.08.08v.3s-.07.08-.07.08h-.06Z"/>
          </g>
          <g>
            <path class="cls-3" d="m39.68,63.27v.02c0,.09-.03.17-.1.24.07.07.1.15.1.24v.02c0,.09-.03.17-.1.24-.07.07-.15.1-.24.1h-1.36s0,0,0,0c0,0,0,0,0,0v-1.18s0,0,0,0c0,0,0,0,0,0h1.36c.09,0,.17.03.24.1.07.07.1.15.1.24m-1.47-.14v.29h1.13s.05-.01.07-.03c.02-.02.03-.04.03-.07v-.09s-.01-.05-.03-.07c-.02-.02-.04-.03-.07-.03h-1.13Zm1.23.68v-.08s-.01-.05-.03-.07c-.02-.02-.04-.03-.07-.03h-1.13v.29h1.13s.05,0,.07-.03c.02-.02.03-.04.03-.07"/>
            <path class="cls-1" d="m39.33,64.25h-1.41l-.08-.08v-.06s0-1.24,0-1.24l.09-.07h.05s1.36,0,1.36,0c.13,0,.24.05.33.14.09.09.14.2.14.33v.02c0,.09-.02.17-.06.24.04.07.06.15.06.24,0,.15-.05.26-.14.35-.09.09-.2.14-.33.14Zm-.02-.43h.12-.12Zm-.98-.02h.98v-.04h-.98v.04Zm0-.5h.98v-.04h-.98v.04Z"/>
          </g>
          <g>
            <polygon class="cls-3" points="26.56 61.37 28.2 61.37 27.38 60.63 26.56 61.37"/>
            <path class="cls-1" d="m28.53,61.49h-2.3l1.15-1.03,1.15,1.03Zm-1.64-.25h.99l-.49-.44-.5.44Z"/>
          </g>
          <g>
            <path class="cls-3" d="m31.62,59.06h-2.49l2.57,2.31h1.11l-1.74-1.57h.55c.52,0,.95-.42.95-.95v-1.16c0-.52-.42-.95-.95-.95h-5.07l.82.74h4.24c.11,0,.21.09.21.21v1.16c0,.11-.09.21-.21.21Z"/>
            <path class="cls-1" d="m33.14,61.49h-1.49l-2.84-2.56h2.82s.08-.04.08-.08v-1.16s-.04-.08-.08-.08h-4.29l-1.1-.99h5.39c.59,0,1.07.48,1.07,1.07v1.16c0,.59-.48,1.07-1.07,1.07h-.23l1.74,1.57Zm-1.39-.25h.74l-1.74-1.57h.88c.45,0,.82-.37.82-.82v-1.16c0-.45-.37-.82-.82-.82h-4.74l.54.49h4.2c.18,0,.33.15.33.33v1.16c0,.18-.15.33-.33.33h-2.16l2.29,2.06Z"/>
          </g>
          <g>
            <path class="cls-3" d="m20.94,63.69h.1c.15,0,.27-.12.27-.27v-.23c0-.15-.12-.27-.27-.27h-1.35v1.2h.24v-.99h1.12s.03.01.03.03v.3s-.01.03-.03.03h-.7l.71.64h.34l-.47-.43Z"/>
            <path class="cls-1" d="m20.06,64.25h-.49v-1.45h1.47c.22,0,.39.18.39.39v.23c0,.15-.09.29-.22.35l.52.47h-.72l-.96-.87v.87Zm0-.89h.9v-.1h-.9v.1Z"/>
          </g>
          <g>
            <path class="cls-3" d="m28.16,64.13h.04s0,0,0-.01l-.05-.03-.87-.56.86-.55.05-.03s0-.01,0-.01h-.06,0s-.31,0-.31,0c0,0,0,0-.01,0l-.8.48h-.23s0-.47,0-.47c0,0,0-.01-.01-.01h-.2s-.01,0-.01.01v1.17s0,.01.01.01h.2s.01,0,.01-.01v-.48h.23l.8.48s0,0,.01,0h.31s0,0,0,0h.02s0,0,0,0Z"/>
            <polygon class="cls-1" points="28.19 64.25 27.77 64.25 27.72 64.21 26.97 63.76 26.91 63.76 26.91 64.24 26.77 64.25 26.44 64.25 26.43 64.12 26.43 62.82 26.57 62.81 26.9 62.81 26.91 62.94 26.91 63.29 26.98 63.29 27.78 62.81 27.82 62.81 28.28 62.81 28.34 62.99 28.21 63.08 27.52 63.53 28.34 64.06 28.3 64.25 28.19 64.25"/>
          </g>
        </g>
        <g>
          <g>
            <path class="cls-2" d="m14.13,52.13l-9.33-6.12.07-8.59,9.32-3-.06,17.7Zm-8.82-6.39l8.33,5.46.05-16.09-8.32,2.68-.06,7.95Z"/>
            <path class="cls-2" d="m44.54,52.13l-.06-17.7,9.32,3,.07,8.59-9.33,6.12Zm.44-17.02l.05,16.09,8.33-5.46-.06-7.95-8.32-2.68Z"/>
            <path class="cls-2" d="m29.36,51.52c-.13,0-.26-.05-.36-.15l-.53-.53c-.1-.1-.15-.23-.15-.37l.15-15.03c0-.1.03-.2.09-.28l.38-.56c.09-.14.25-.22.42-.22h0c.17,0,.32.08.42.22l.36.52c.06.08.09.18.09.28l.15,15.12c0,.14-.05.27-.15.37l-.5.49c-.1.1-.23.14-.35.14Zm-.21-16.78l.21.14-.38.56-.15,15.03.54.54.51-.49-.15-15.12-.36-.52-.22-.14Z"/>
            <rect class="cls-2" x="9.23" y="43.06" width=".5" height="9.76" transform="translate(-37.98 36.29) rotate(-65.02)"/>
            <rect class="cls-2" x="44.26" y="47.69" width="9.76" height=".5" transform="translate(-15.64 25.22) rotate(-24.96)"/>
          </g>
          <path class="cls-4" d="m44.15,219.88H14.43c-.73,0-1.33-.59-1.34-1.31l-.82-86.9,1.14-45.53v-11.63l.25-37.8c.02-2.88.36-5.69,1.01-8.35,2.42-9.94,6.47-18.99,12.04-26.89l.14-.19c.57-.81,1.46-1.28,2.44-1.28h0c.98,0,1.87.47,2.45,1.28,5.81,8.29,9.93,17.41,12.24,27.1.63,2.65.96,5.43.98,8.27l.02,2.87.17,34.98v11.63l1.14,45.52-.82,86.91c0,.72-.61,1.31-1.34,1.31Zm-14.96-.5h14.96c.46,0,.83-.37.84-.82l.82-86.9-1.14-45.51v-11.64l-.19-37.86c-.02-2.8-.34-5.55-.96-8.16-2.29-9.64-6.38-18.7-12.16-26.93-.48-.68-1.22-1.07-2.04-1.07h0c-.82,0-1.56.39-2.04,1.07l-.14.19c-5.53,7.85-9.56,16.84-11.96,26.72-.64,2.62-.97,5.4-1,8.24l-.02,1.9-.23,35.9v11.63l-1.14,45.53.82,86.89c0,.45.38.82.84.82h14.76Z"/>
          <path class="cls-4" d="m44.32,219.79l-.1-.49,5.67-1.2.31-25.59v-4.98s-1.47-50.7-1.47-50.7c-.01-.42-.12-.83-.32-1.2l-2.61-4.77.44-.24,2.61,4.77c.24.43.37.92.39,1.42l1.47,50.7v4.99s-.31,25.99-.31,25.99l-6.06,1.28Z"/>
          <path class="cls-4" d="m45.61,209.62l-.49-.07,2.69-18.85c.02-.14.09-.27.21-.36s.26-.12.41-.1l.87.15c.16.03.29.12.38.26l1,1.74-.43.25-1-1.74-.89-.17-2.73,18.88Z"/>
          <rect class="cls-4" x="47.79" y="184.91" width=".5" height="4.89" transform="translate(-142.39 221.2) rotate(-85.7)"/>
          <path class="cls-4" d="m46.01,214.88c-.05,0-.1,0-.15-.02l-.53-.15.14-.48.53.15.73-5.11c.03-.23.21-.42.44-.46l.75-.13c.17-.03.34.02.46.14l2.05,1.91-.34.37-2.05-1.91-.78.12-.71,5.11c-.02.16-.11.29-.24.38-.09.06-.19.09-.29.09Z"/>
          <rect class="cls-4" x="47.86" y="213.78" width=".5" height="5.31" transform="translate(-141.54 101.58) rotate(-46.27)"/>
          <path class="cls-4" d="m14.2,219.79l-3.54-.75c-1.49-.31-2.54-1.59-2.56-3.11l-.29-23.41v-4.98s1.47-50.71,1.47-50.71c.01-.49.14-.98.37-1.42l2.51-4.74.44.23-2.51,4.74c-.19.37-.3.78-.32,1.2l-1.47,50.71v4.97s.28,23.41.28,23.41c.02,1.28.91,2.37,2.16,2.63l3.54.75-.1.49Z"/>
          <path class="cls-4" d="m12.91,209.62l-2.69-18.85-.91.11-1.03,1.76-.43-.25,1-1.74c.08-.14.22-.23.38-.26l.87-.15c.15-.02.29.01.41.1s.19.22.21.36l2.68,18.84-.49.07Z"/>
          <rect class="cls-4" x="8.03" y="187.1" width="4.89" height=".5" transform="translate(-13.87 1.29) rotate(-4.25)"/>
          <path class="cls-4" d="m12.5,214.88c-.1,0-.21-.03-.29-.09-.13-.09-.22-.22-.24-.38l-.68-5.08-.78-.16-2.09,1.92-.34-.37,2.05-1.91c.12-.11.3-.16.46-.14l.75.13c.23.04.41.22.44.46l.68,5.08.58-.12.14.48-.53.15s-.1.02-.15.02Z"/>
          <polygon class="cls-4" points="9.14 217.97 8.8 217.61 12.15 214.42 12.5 214.78 9.14 217.97"/>
          <g>
            <polygon class="cls-4" points="34.67 219.6 34.06 216.11 33.85 214.67 31.3 186.84 30.68 134.99 29.22 131.45 27.9 134.98 27.29 186.82 24.73 214.66 24.42 216.67 23.91 219.6 23.41 219.51 23.92 216.58 24.23 214.6 26.79 186.79 27.42 134.85 28.96 130.71 29.45 130.71 31.18 134.93 31.79 186.81 34.35 214.62 34.55 216.03 35.16 219.51 34.67 219.6"/>
            <polygon class="cls-4" points="27.18 219.63 26.69 219.58 27.5 210.84 26.68 207.44 26.69 207.4 28.22 192.11 28.03 191.25 25.78 203.11 25.29 203.02 27.76 189.96 28.25 189.95 28.72 192.08 27.19 207.41 28.01 210.8 27.18 219.63"/>
            <polygon class="cls-4" points="31.44 219.63 30.62 210.8 31.44 207.41 29.91 192.08 30.37 189.95 30.87 189.96 33.27 202.98 32.78 203.07 30.6 191.27 30.41 192.11 31.95 207.44 31.13 210.84 31.94 219.58 31.44 219.63"/>
            <polygon class="cls-4" points="28.25 190.05 27.76 189.96 28.63 185.46 28.88 130.96 29.38 130.96 29.13 185.51 28.25 190.05"/>
            <polygon class="cls-4" points="30.36 190.06 29.38 185.56 29.09 130.96 29.59 130.96 29.88 185.51 30.85 189.95 30.36 190.06"/>
            <rect class="cls-4" x="27.95" y="189.88" width="2.61" height=".5"/>
            <rect class="cls-4" x="28.5" y="191.89" width="1.6" height=".5"/>
            <path class="cls-4" d="m25.71,214.81s-.05,0-.08,0l-1.24-.13.05-.5,1.24.13c.18.01.31-.1.34-.28l.97-5.36.49.09-.97,5.36c-.07.41-.41.69-.8.69Z"/>
            <path class="cls-4" d="m32.9,214.81c-.39,0-.73-.29-.8-.69l-.97-5.36.49-.09.97,5.36c.03.18.18.29.34.28l1.25-.13.05.5-1.25.13s-.05,0-.08,0Z"/>
            <rect class="cls-4" x="27.75" y="210.59" width="3.14" height=".5"/>
          </g>
        </g>
      </g>
    </g>
  </g>
</svg>