<?xml version="1.0" encoding="UTF-8"?>
<svg id="Layer_2" data-name="Layer 2" xmlns="http://www.w3.org/2000/svg" viewBox="0 0 146.82 95.58">
  <defs>
    <style>
      .cls-1 {
        fill: #8b8a8d;
      }

      .cls-2 {
        fill: gray;
      }
    </style>
  </defs>
  <g id="Layer_4" data-name="Layer 4">
    <g>
      <path class="cls-1" d="m141.92,95.58H4.9c-2.7,0-4.9-2.2-4.9-4.9V4.9C0,2.2,2.2,0,4.9,0h137.01c2.7,0,4.9,2.2,4.9,4.9v85.77c0,2.7-2.2,4.9-4.9,4.9ZM4.9,1c-2.15,0-3.9,1.75-3.9,3.9v85.77c0,2.15,1.75,3.9,3.9,3.9h137.01c2.15,0,3.9-1.75,3.9-3.9V4.9c0-2.15-1.75-3.9-3.9-3.9H4.9Z"/>
      <g>
        <path class="cls-1" d="m46.28,84.35H13.48c-.14,0-.25-.11-.25-.25s.11-.25.25-.25h32.8c.14,0,.25.11.25.25s-.11.25-.25.25Z"/>
        <path class="cls-1" d="m13.45,84.27c-.14,0-.25-.11-.25-.25v-22.31c0-.14.11-.25.25-.25s.25.11.25.25v22.31c0,.14-.11.25-.25.25Z"/>
        <path class="cls-1" d="m16.28,61.96h-2.76c-.14,0-.25-.11-.25-.25s.11-.25.25-.25h2.76c.14,0,.25.11.25.25s-.11.25-.25.25Z"/>
        <path class="cls-1" d="m16.28,65.8h-2.76c-.14,0-.25-.11-.25-.25s.11-.25.25-.25h2.76c.14,0,.25.11.25.25s-.11.25-.25.25Z"/>
        <path class="cls-1" d="m16.28,81.13h-2.76c-.14,0-.25-.11-.25-.25s.11-.25.25-.25h2.76c.14,0,.25.11.25.25s-.11.25-.25.25Z"/>
        <path class="cls-1" d="m16.28,73.47h-2.76c-.14,0-.25-.11-.25-.25s.11-.25.25-.25h2.76c.14,0,.25.11.25.25s-.11.25-.25.25Z"/>
        <path class="cls-1" d="m16.28,69.63h-2.76c-.14,0-.25-.11-.25-.25s.11-.25.25-.25h2.76c.14,0,.25.11.25.25s-.11.25-.25.25Z"/>
        <path class="cls-1" d="m16.28,77.3h-2.76c-.14,0-.25-.11-.25-.25s.11-.25.25-.25h2.76c.14,0,.25.11.25.25s-.11.25-.25.25Z"/>
        <path class="cls-1" d="m19.03,84.3c-.14,0-.25-.11-.25-.25v-9.28c0-.14.11-.25.25-.25h3.45c.14,0,.25.11.25.25v9.12c0,.14-.11.25-.25.25s-.25-.11-.25-.25v-8.87h-2.95v9.03c0,.14-.11.25-.25.25Z"/>
        <path class="cls-1" d="m32.94,84.3c-.14,0-.25-.11-.25-.25v-10.67c0-.14.11-.25.25-.25h3.45c.14,0,.25.11.25.25v10.51c0,.14-.11.25-.25.25s-.25-.11-.25-.25v-10.26h-2.95v10.42c0,.14-.11.25-.25.25Z"/>
        <path class="cls-1" d="m39.89,84.3c-.14,0-.25-.11-.25-.25v-16.68c0-.14.11-.25.25-.25h3.45c.14,0,.25.11.25.25v16.52c0,.14-.11.25-.25.25s-.25-.11-.25-.25v-16.27h-2.95v16.43c0,.14-.11.25-.25.25Z"/>
        <path class="cls-1" d="m25.98,84.3c-.14,0-.25-.11-.25-.25v-6.06c0-.14.11-.25.25-.25h3.45c.14,0,.25.11.25.25v5.9c0,.14-.11.25-.25.25s-.25-.11-.25-.25v-5.65h-2.95v5.81c0,.14-.11.25-.25.25Z"/>
      </g>
      <path class="cls-1" d="m46.19,43.4H13.39c-.14,0-.25-.11-.25-.25s.11-.25.25-.25h32.8c.14,0,.25.11.25.25s-.11.25-.25.25Z"/>
      <path class="cls-1" d="m13.35,43.32c-.14,0-.25-.11-.25-.25v-22.31c0-.14.11-.25.25-.25s.25.11.25.25v22.31c0,.14-.11.25-.25.25Z"/>
      <path class="cls-1" d="m16.18,21.01h-2.76c-.14,0-.25-.11-.25-.25s.11-.25.25-.25h2.76c.14,0,.25.11.25.25s-.11.25-.25.25Z"/>
      <path class="cls-1" d="m16.18,24.84h-2.76c-.14,0-.25-.11-.25-.25s.11-.25.25-.25h2.76c.14,0,.25.11.25.25s-.11.25-.25.25Z"/>
      <path class="cls-1" d="m16.18,40.18h-2.76c-.14,0-.25-.11-.25-.25s.11-.25.25-.25h2.76c.14,0,.25.11.25.25s-.11.25-.25.25Z"/>
      <path class="cls-1" d="m16.18,32.51h-2.76c-.14,0-.25-.11-.25-.25s.11-.25.25-.25h2.76c.14,0,.25.11.25.25s-.11.25-.25.25Z"/>
      <path class="cls-1" d="m16.18,28.68h-2.76c-.14,0-.25-.11-.25-.25s.11-.25.25-.25h2.76c.14,0,.25.11.25.25s-.11.25-.25.25Z"/>
      <path class="cls-1" d="m16.18,36.34h-2.76c-.14,0-.25-.11-.25-.25s.11-.25.25-.25h2.76c.14,0,.25.11.25.25s-.11.25-.25.25Z"/>
      <path class="cls-1" d="m21.56,43.34c-.14,0-.25-.11-.25-.25v-13.85c0-.14.11-.25.25-.25h7.02c.14,0,.25.11.25.25v13.65c0,.14-.11.25-.25.25s-.25-.11-.25-.25v-13.4h-6.52v13.6c0,.14-.11.25-.25.25Z"/>
      <path class="cls-1" d="m35.72,43.34c-.14,0-.25-.11-.25-.25v-21.66c0-.14.11-.25.25-.25h7.02c.14,0,.25.11.25.25v21.46c0,.14-.11.25-.25.25s-.25-.11-.25-.25v-21.21h-6.52v21.41c0,.14-.11.25-.25.25Z"/>
      <path class="cls-1" d="m26.97,36.48c-.57,0-1.17-.3-1.77-.88-.59-.58-1.21-.86-1.81-.83-.9.04-1.51.74-1.52.75-.09.1-.25.12-.35.03-.1-.09-.12-.25-.03-.35.03-.04.76-.87,1.87-.92.75-.05,1.49.29,2.19.97.58.56,1.12.81,1.62.72.75-.13,1.17-.97,1.17-.98.06-.12.21-.17.33-.11.12.06.17.21.11.33-.02.04-.54,1.08-1.54,1.25-.09.02-.19.02-.28.02Z"/>
      <path class="cls-1" d="m41.13,29.09c-.57,0-1.17-.3-1.77-.88-.59-.58-1.21-.87-1.81-.83-.9.04-1.52.74-1.52.75-.09.11-.25.12-.35.03-.1-.09-.12-.25-.03-.35.03-.04.76-.87,1.87-.92.75-.03,1.49.29,2.19.97.58.56,1.12.81,1.61.72.75-.13,1.17-.97,1.18-.98.06-.12.21-.17.33-.11.12.06.17.21.11.33-.02.04-.54,1.08-1.54,1.25-.09.02-.19.02-.28.02Z"/>
      <path class="cls-1" d="m27.57,74.57c-.14,0-.25-.11-.25-.25v-12.85c0-.14.11-.25.25-.25s.25.11.25.25v12.85c0,.14-.11.25-.25.25Z"/>
      <path class="cls-1" d="m30.13,64.22c-.06,0-.13-.02-.18-.07l-2.38-2.38-2.38,2.38c-.1.1-.26.1-.35,0s-.1-.26,0-.35l2.56-2.56c.1-.1.26-.1.35,0l2.56,2.56c.1.1.1.26,0,.35-.05.05-.11.07-.18.07Z"/>
      <path class="cls-1" d="m76.94,51.89h-5.86c-.14,0-.25-.11-.25-.25s.11-.25.25-.25h5.86c.14,0,.25.11.25.25s-.11.25-.25.25Z"/>
      <path class="cls-1" d="m134.84,51.89h-5.86c-.14,0-.25-.11-.25-.25s.11-.25.25-.25h5.86c.14,0,.25.11.25.25s-.11.25-.25.25Z"/>
      <path class="cls-1" d="m134.84,40.41h-3.3c-.14,0-.25-.11-.25-.25s.11-.25.25-.25h3.3c.14,0,.25.11.25.25s-.11.25-.25.25Z"/>
      <path class="cls-1" d="m134.84,64.6h-3.3c-.14,0-.25-.11-.25-.25s.11-.25.25-.25h3.3c.14,0,.25.11.25.25s-.11.25-.25.25Z"/>
      <path class="cls-1" d="m74.37,40.41h-3.3c-.14,0-.25-.11-.25-.25s.11-.25.25-.25h3.3c.14,0,.25.11.25.25s-.11.25-.25.25Z"/>
      <path class="cls-1" d="m74.37,64.6h-3.3c-.14,0-.25-.11-.25-.25s.11-.25.25-.25h3.3c.14,0,.25.11.25.25s-.11.25-.25.25Z"/>
      <g>
        <g>
          <path class="cls-2" d="m100.4,77.93l-7.46-1.74c-.17-.04-.28-.21-.24-.38l4.95-22.13,2.99-11.5.69-2.95c.02-.08,1.92-8.24,2.43-10.32.57-2.35,3.8-5.63,3.93-5.77.74-.74,1.6-.56,1.7-.53.1.02.96.24,1.29,1.23.06.18,1.5,4.56.97,6.92-.47,2.09-2.38,10.24-2.4,10.32l-.69,2.96-2.41,11.63-5.36,22.03c-.04.17-.21.27-.38.24Zm-3.74-.95l3.76.88c.13.03.26-.05.29-.18l5.36-22.03,2.41-11.63.69-2.96c.02-.08,1.92-8.23,2.39-10.32.53-2.34-.9-6.69-.97-6.88-.31-.93-1.09-1.15-1.22-1.18,0,0,0,0,0,0h0s-.02,0-.02,0c-.12-.03-.92-.19-1.62.51-.14.14-3.35,3.4-3.91,5.74-.5,2.08-2.41,10.23-2.43,10.32l-.69,2.96-2.99,11.5-4.95,22.13c-.03.13.05.26.18.29l3.71.87Z"/>
          <path class="cls-1" d="m100.47,78.19s-.09,0-.13-.02l-7.46-1.74c-.3-.07-.49-.38-.43-.68l4.95-22.13,2.99-11.51.76-3.23c.34-1.47,1.91-8.17,2.36-10.03.59-2.44,3.86-5.75,4-5.89.84-.85,1.83-.63,1.94-.6.1.02,1.08.26,1.46,1.39.06.19,1.52,4.62.97,7.05-.42,1.87-2,8.62-2.33,10.06l-.75,3.23-2.41,11.63-5.37,22.04c-.06.26-.3.43-.55.43Zm8.55-55.29c-.28,0-.71.08-1.1.47-.13.14-3.3,3.37-3.85,5.62-.45,1.86-2.02,8.56-2.36,10.03l-.76,3.24-2.99,11.51-4.95,22.12,7.46,1.73,5.35-22.02,2.41-11.62.76-3.23c.34-1.44,1.91-8.18,2.33-10.05.51-2.27-.9-6.56-.96-6.74-.27-.81-.96-.99-1.04-1.01-.04,0-.15-.03-.3-.03Z"/>
        </g>
        <g>
          <path class="cls-2" d="m102.7,33.66l-1.94-2.04.51-2.12,2.46-.2-1.03,4.36Zm-1.86-2.06l1.81,1.91.98-4.12-2.3.19-.49,2.03Z"/>
          <path class="cls-1" d="m102.84,34.17l-2.35-2.47.59-2.43,2.99-.24-1.22,5.15Zm-1.72-2.64l1.4,1.47.79-3.33-1.78.15-.42,1.72Z"/>
        </g>
        <g>
          <path class="cls-2" d="m110.49,35.48l1.01-4.37,2.12,1.27-.48,2.13-2.64.97Zm1.06-4.25l-.95,4.13,2.47-.9.46-2.03-1.98-1.19Z"/>
          <path class="cls-1" d="m110.14,35.87l1.19-5.15,2.57,1.54-.55,2.44-3.2,1.17Zm1.57-4.25l-.77,3.34,1.91-.7.39-1.72-1.53-.92Z"/>
        </g>
        <g>
          <path class="cls-2" d="m106.64,34.44s-.05-.02-.07-.05l-.1-.17s-.02-.05-.01-.08l.92-3.77s.02-.04.03-.05l.13-.12.03.03-.03-.03s.06-.03.09-.02h0s.06.03.07.06l.06.15s0,.04,0,.06l-.85,3.8s-.02.05-.05.07l-.16.09s-.05.02-.08.01Zm.98-4.18h0s-.02,0-.03,0l-.13.12s0,0,0,.01l-.92,3.77s0,.01,0,.02l.1.17s.03.02.04,0l.16-.09s.01-.01.01-.02l.85-3.8s0-.01,0-.02l-.06-.15s-.02-.02-.02-.02Z"/>
          <path class="cls-1" d="m106.6,34.7v-.02s-.02,0-.02,0c-.09-.02-.17-.08-.22-.16l-.1-.17c-.05-.08-.07-.18-.04-.27l.94-3.84.22-.22s0,0,0,0l.19-.17.07.08s.04,0,.06,0c.11.03.21.11.25.22l.09.22v.14s-.86,3.8-.86,3.8c-.02.09-.08.18-.16.23l-.15.09c-.07.04-.15.06-.23.05h-.02Z"/>
        </g>
        <g>
          <polygon class="cls-2" points="97.68 53.79 96.57 54.92 93.03 67.67 92.72 68.92 91.22 75.36 92.77 75.93 92.74 76 91.13 75.4 92.65 68.9 92.96 67.66 96.51 54.88 97.63 53.74 97.68 53.79"/>
          <polygon class="cls-1" points="92.89 76.32 90.84 75.56 92.72 67.6 96.28 54.75 97.62 53.39 98.03 53.79 96.79 55.05 93.27 67.74 92.97 68.98 91.51 75.2 93.09 75.78 92.89 76.32"/>
        </g>
        <g>
          <path class="cls-2" d="m92.78,74.69h-.05s.64-6.08.64-6.08c0-.01,0-.03-.01-.04,0-.01-.02-.02-.04-.02l-.23-.02s-.03,0-.04.02l-.36.37-.03-.03.36-.37s.05-.03.08-.03l.23.02s.05.01.07.03c.02.02.02.05.02.07l-.64,6.07Z"/>
          <path class="cls-1" d="m93,74.96l-.54-.06.64-6.02-.38.4-.36-.35.14-.21.36-.37c.07-.08.17-.12.27-.11l.23.02c.09,0,.18.05.24.12.06.07.09.17.08.26l-.67,6.32Z"/>
        </g>
        <g>
          <polygon class="cls-2" points="94.49 67.94 92.98 67.69 92.99 67.64 94.49 67.89 94.49 67.94"/>
          <polygon class="cls-1" points="94.44 68.18 92.7 67.89 92.78 67.4 93.03 67.39 94.78 67.69 94.7 68.18 94.44 68.18"/>
        </g>
        <g>
          <path class="cls-2" d="m92.98,74.7l-.52.04s-.06-.01-.08-.03c-.02-.02-.03-.05-.03-.08l.14-1.31s0-.04-.03-.05l-.18-.08s-.03,0-.04,0l-.63.35-.02-.04.63-.35s.06-.02.09,0l.18.08s.06.06.06.1l-.14,1.31s0,.03.01.04c.01.01.02.02.04.02l.52-.04v.05Z"/>
          <path class="cls-1" d="m92.46,74.99c-.1,0-.19-.04-.26-.11-.07-.07-.1-.17-.09-.27l.12-1.12-.71.4-.24-.44.19-.16.63-.35c.1-.05.21-.06.31-.01l.18.08c.06.03.11.07.14.11h0c.04.08.07.16.06.24l-.12,1.07.54-.04.02.5-.24.07-.52.04s-.01,0-.02,0Z"/>
        </g>
        <g>
          <rect class="cls-2" x="91.11" y="75.02" width="1.37" height=".05" transform="translate(-25.18 55.71) rotate(-29.88)"/>
          <polygon class="cls-1" points="91.12 75.74 90.88 75.31 91.07 75.14 92.47 74.34 92.72 74.77 92.53 74.94 91.12 75.74"/>
        </g>
        <g>
          <polygon class="cls-2" points="106.07 55.75 106.56 57.25 104.08 70.26 103.81 71.51 102.3 77.95 100.66 77.77 100.65 77.84 102.36 78.03 103.88 71.52 104.15 70.27 106.63 57.25 106.13 55.73 106.07 55.75"/>
          <polygon class="cls-1" points="102.55 78.3 100.38 78.07 100.44 77.5 102.11 77.68 103.84 70.2 106.3 57.27 105.75 55.59 106.29 55.42 106.89 57.23 104.4 70.32 104.12 71.58 102.55 78.3"/>
        </g>
        <g>
          <path class="cls-2" d="m101.2,76.65l.04.02,2.12-5.73s.01-.02.03-.03c.01,0,.03,0,.04,0l.21.09s.02.02.03.03l.16.49h.05s-.16-.51-.16-.51c0-.03-.03-.05-.06-.06l-.21-.09s-.05,0-.08,0c-.02.01-.04.03-.05.06l-2.12,5.73Z"/>
          <path class="cls-1" d="m101.39,76.99l-.47-.17.04-.25,2.12-5.73c.03-.09.1-.16.18-.2.09-.04.19-.04.27,0l.21.08c.1.04.17.12.2.22l.23.73-.48.15-.12-.22-.09-.29-2.1,5.68Z"/>
        </g>
        <g>
          <polygon class="cls-2" points="102.66 69.85 104.12 70.29 104.13 70.24 102.67 69.8 102.66 69.85"/>
          <polygon class="cls-1" points="104.3 70.55 104.05 70.53 102.35 70.01 102.51 69.49 104.44 70.08 104.3 70.55"/>
        </g>
        <g>
          <path class="cls-2" d="m101.02,76.58l.45.27s.05.02.08,0c.03-.01.05-.03.06-.06l.45-1.24s.03-.03.05-.03h.19s.03.02.04.03l.41.59.04-.03-.41-.59s-.05-.04-.08-.04h-.19s-.08.02-.1.06l-.45,1.24s-.02.02-.03.03c-.01,0-.03,0-.04,0l-.45-.27-.02.04Z"/>
          <path class="cls-1" d="m101.51,77.11c-.06,0-.12-.01-.17-.04l-.67-.4.27-.48.46.28.37-1.01c.02-.06.06-.11.1-.15h.01c.06-.06.14-.09.23-.08h.19c.11.01.21.07.27.16l.55.8-.41.29-.18-.18-.32-.46-.39,1.06c-.03.09-.11.17-.2.21-.04.02-.08.02-.13.02Z"/>
        </g>
        <g>
          <rect class="cls-2" x="101.9" y="76.72" width=".05" height="1.37" transform="translate(-25.84 69.82) rotate(-33.82)"/>
          <polygon class="cls-1" points="102.26 78.31 102.08 78.13 101.18 76.78 101.63 76.48 102.67 78.03 102.26 78.31"/>
        </g>
        <g>
          <polygon class="cls-2" points="98.21 77.33 98.14 77.32 98.18 76.43 98.21 76.07 99.17 69.08 102.09 55.87 101.92 54.83 101.34 55.69 98.11 68.83 95.87 75.52 95.68 75.99 95.38 76.68 95.32 76.65 95.61 75.96 95.8 75.49 98.04 68.81 101.27 55.66 101.89 54.74 101.98 54.76 102.17 55.87 102.17 55.87 99.24 69.1 98.28 76.07 98.25 76.43 98.21 77.33"/>
          <polygon class="cls-1" points="98.44 77.59 97.87 77.56 97.96 76.04 98.92 69.05 101.84 55.86 101.78 55.49 101.57 55.79 98.35 68.89 96.11 75.6 95.51 77.01 94.99 76.78 95.57 75.4 97.8 68.73 101.07 55.52 101.78 54.46 101.85 54.48 102.06 54.18 102.12 54.54 102.2 54.56 102.42 55.87 102.41 55.92 99.48 69.15 98.5 76.46 98.44 77.59"/>
        </g>
        <g>
          <polygon class="cls-2" points="98.16 70.21 98.16 70.22 96.9 73.88 96.91 74.76 96.2 76.88 96.13 76.86 96.84 74.75 96.83 73.87 98.09 70.2 98.1 69.83 96.8 72.74 96.73 72.71 98.1 69.65 98.17 69.66 98.16 70.21"/>
          <polygon class="cls-1" points="96.36 77.2 95.82 77.01 96.59 74.71 96.58 73.83 96.85 73.04 96.4 72.84 97.96 69.36 98.42 69.46 98.4 70.3 97.15 73.92 97.16 74.8 96.36 77.2"/>
        </g>
        <g>
          <polygon class="cls-2" points="98.68 73.16 98.61 73.15 98.75 69.99 98.59 70.31 98.09 74.17 97.69 74.95 97.4 77.15 97.33 77.14 97.62 74.93 97.63 74.93 98.03 74.15 98.52 70.29 98.76 69.8 98.82 69.82 98.68 73.16"/>
          <polygon class="cls-1" points="97.61 77.43 97.04 77.36 97.4 74.83 97.78 74.07 98.29 70.18 98.62 69.51 99.08 69.63 98.92 73.42 98.44 73.4 98.32 74.28 97.94 75.03 97.61 77.43"/>
        </g>
        <g>
          <polygon class="cls-2" points="101.94 54.79 98.64 68.62 98.64 68.63 98.17 69.68 98.1 69.65 98.58 68.6 101.87 54.78 101.94 54.79"/>
          <polygon class="cls-1" points="98.29 70.01 97.77 69.77 98.35 68.5 101.69 54.48 102.24 54.61 98.89 68.68 98.29 70.01"/>
        </g>
        <g>
          <polygon class="cls-2" points="98.82 69.82 98.75 69.82 98.76 68.65 101.92 54.79 101.99 54.8 98.83 68.66 98.82 69.82"/>
          <polygon class="cls-1" points="99.07 70.07 98.5 70.06 98.51 68.64 101.74 54.49 102.29 54.62 99.08 68.71 99.07 70.07"/>
        </g>
        <g>
          <rect class="cls-2" x="98.4" y="69.43" width=".07" height=".67" transform="translate(8.11 149.75) rotate(-76.85)"/>
          <rect class="cls-1" x="98.15" y="69.18" width=".57" height="1.17" transform="translate(8.11 149.76) rotate(-76.86)"/>
        </g>
        <g>
          <rect class="cls-2" x="98.3" y="70.06" width=".07" height=".41" transform="translate(7.54 150.04) rotate(-76.85)"/>
          <rect class="cls-1" x="98.05" y="69.81" width=".57" height=".91" transform="translate(7.52 150.01) rotate(-76.83)"/>
        </g>
        <g>
          <path class="cls-2" d="m96.89,74.22l-.55,1.26c-.04.08-.13.12-.21.1l-.3-.1.02-.04.3.1c.06.02.13,0,.15-.07l.55-1.26.04.02Z"/>
          <path class="cls-1" d="m96.18,75.83s-.09,0-.14-.02l-.54-.19.16-.47.25.04.19.07.61-1.38.46.2-.06.25-.55,1.26c-.07.16-.22.25-.38.25Z"/>
        </g>
        <g>
          <path class="cls-2" d="m98.28,76.05l-.32-.04c-.09-.01-.15-.09-.15-.18l.06-1.37h.05s-.06,1.37-.06,1.37c0,.07.04.12.11.13l.32.04v.05Z"/>
          <path class="cls-1" d="m98.25,76.29l-.32-.04c-.22-.03-.38-.22-.36-.44l.07-1.62.5.02.04.25-.06,1.26.45.06-.06.5h-.25Z"/>
        </g>
        <g>
          <rect class="cls-2" x="97.23" y="74.45" width=".07" height=".81" transform="translate(2.25 152.54) rotate(-76.85)"/>
          <rect class="cls-1" x="96.98" y="74.2" width=".57" height="1.31" transform="translate(2.27 152.57) rotate(-76.87)"/>
        </g>
        <g>
          <path class="cls-2" d="m107.8,29.35c-1.28-.3-2.53-.67-3.76-1.12l.03-.07c2.44.89,5.01,1.49,7.63,1.78v.08c-1.32-.15-2.62-.37-3.9-.67Z"/>
          <path class="cls-1" d="m111.91,30.3l-.25-.03c-1.31-.15-2.63-.38-3.92-.68h0c-1.29-.3-2.56-.68-3.79-1.13l-.23-.09.2-.54.24.09c2.43.88,4.98,1.48,7.58,1.77l.25.03-.07.57Z"/>
        </g>
        <g>
          <path class="cls-2" d="m107.88,29c-1.27-.3-2.51-.67-3.72-1.11l.03-.07c2.42.88,4.96,1.48,7.56,1.77v.08c-1.31-.14-2.6-.37-3.86-.66Z"/>
          <path class="cls-1" d="m111.96,29.94l-.25-.03c-1.31-.15-2.61-.37-3.88-.67h0c-1.27-.3-2.54-.67-3.75-1.12l-.24-.09.2-.54.23.09c2.4.88,4.92,1.47,7.5,1.75l.25.03-.06.57Z"/>
        </g>
        <g>
          <path class="cls-2" d="m108.68,25.63c-.83-.19-1.64-.46-2.43-.81l.03-.07c1.56.68,3.23,1.07,4.95,1.16v.08c-.87-.04-1.72-.16-2.56-.36Z"/>
          <path class="cls-1" d="m111.47,26.25h-.25c-.88-.06-1.75-.18-2.6-.38-.84-.2-1.68-.47-2.47-.82l-.23-.1.23-.53.23.1c1.53.67,3.17,1.05,4.87,1.14h.25s-.03.59-.03.59Z"/>
        </g>
        <g>
          <rect class="cls-2" x="101.76" y="31.13" width=".08" height="2.52" transform="translate(13.47 92.47) rotate(-51.87)"/>
          <rect class="cls-1" x="101.51" y="30.88" width=".58" height="3.02" transform="translate(13.47 92.48) rotate(-51.88)"/>
        </g>
        <g>
          <rect class="cls-2" x="110.6" y="34.7" width="2.52" height=".08" transform="translate(-4.75 23.69) rotate(-11.84)"/>
          <polygon class="cls-1" points="110.44 35.33 110.32 34.77 113.27 34.15 113.39 34.71 110.44 35.33"/>
        </g>
      </g>
      <path class="cls-1" d="m60.36,95.52c-.28,0-.5-.22-.5-.5V11.37c0-.28.22-.5.5-.5s.5.22.5.5v83.66c0,.28-.22.5-.5.5Z"/>
      <path class="cls-1" d="m60.03,51.55H.91c-.28,0-.5-.22-.5-.5s.22-.5.5-.5h59.12c.28,0,.5.22.5.5s-.22.5-.5.5Z"/>
      <path class="cls-1" d="m145.86,11.81H.91c-.28,0-.5-.22-.5-.5s.22-.5.5-.5h144.95c.28,0,.5.22.5.5s-.22.5-.5.5Z"/>
      <circle class="cls-1" cx="8.08" cy="5.77" r="1.79"/>
      <circle class="cls-1" cx="14.92" cy="5.77" r="1.79"/>
      <circle class="cls-1" cx="22.24" cy="5.77" r="1.79"/>
      <path class="cls-1" d="m69.85,27.95c-.14,0-.25-.11-.25-.25v-7.82c0-.14.11-.25.25-.25h7.82c.14,0,.25.11.25.25s-.11.25-.25.25h-7.57v7.57c0,.14-.11.25-.25.25Z"/>
      <path class="cls-1" d="m136.3,27.95c-.14,0-.25-.11-.25-.25v-7.57h-7.57c-.14,0-.25-.11-.25-.25s.11-.25.25-.25h7.82c.14,0,.25.11.25.25v7.82c0,.14-.11.25-.25.25Z"/>
      <path class="cls-1" d="m136.3,85.6h-7.82c-.14,0-.25-.11-.25-.25s.11-.25.25-.25h7.57v-7.57c0-.14.11-.25.25-.25s.25.11.25.25v7.82c0,.14-.11.25-.25.25Z"/>
      <path class="cls-1" d="m77.67,85.6h-7.82c-.14,0-.25-.11-.25-.25v-7.82c0-.14.11-.25.25-.25s.25.11.25.25v7.57h7.57c.14,0,.25.11.25.25s-.11.25-.25.25Z"/>
    </g>
  </g>
</svg>