<?xml version="1.0" encoding="UTF-8"?>
<svg id="Layer_2" data-name="Layer 2" xmlns="http://www.w3.org/2000/svg" viewBox="0 0 145.77 57.67">
  <defs>
    <style>
      .cls-1 {
        fill: #8b8a8d;
      }
    </style>
  </defs>
  <g id="Layer_4" data-name="Layer 4">
    <g>
      <path class="cls-1" d="m145.17,13.83h-38.41c-.17,0-.33-.09-.42-.23-.09-.14-.1-.32-.03-.48L112.24.29c.08-.18.26-.29.45-.29h26.55c.19,0,.37.11.45.29l5.93,12.83c.07.15.06.34-.03.48-.09.14-.25.23-.42.23Zm-37.63-1h36.85l-5.47-11.83h-25.91l-5.47,11.83Z"/>
      <path class="cls-1" d="m132.3,9.25h-12.9c-.17,0-.33-.09-.42-.23-.09-.14-.1-.32-.03-.48l1.99-4.31c.08-.18.26-.29.45-.29h8.91c.19,0,.37.11.45.29l1.99,4.31c.07.15.06.34-.03.48-.09.14-.25.23-.42.23Zm-12.12-1h11.33l-1.53-3.31h-8.27l-1.53,3.31Z"/>
      <path class="cls-1" d="m121.48,5.03c-.07,0-.15-.02-.22-.05l-8.22-3.94c-.25-.12-.35-.42-.24-.67.12-.25.42-.35.67-.24l8.22,3.94c.25.12.35.42.24.67-.09.18-.27.28-.45.28Z"/>
      <path class="cls-1" d="m107.13,13.46c-.21,0-.4-.13-.47-.33-.09-.26.04-.55.31-.64l12.47-4.4c.26-.09.55.04.64.31.09.26-.04.55-.31.64l-12.47,4.4c-.05.02-.11.03-.17.03Z"/>
      <path class="cls-1" d="m130.42,4.85c-.19,0-.38-.11-.46-.3-.11-.25,0-.55.26-.66L138.99.04c.26-.11.55,0,.66.26.11.25,0,.55-.26.66l-8.78,3.85c-.07.03-.13.04-.2.04Z"/>
      <path class="cls-1" d="m144.49,13.46c-.06,0-.11,0-.17-.03l-12.47-4.4c-.26-.09-.4-.38-.31-.64.09-.26.38-.4.64-.31l12.47,4.4c.26.09.4.38.31.64-.07.21-.27.33-.47.33Z"/>
      <path class="cls-1" d="m87.65,35.83s-.03,0-.04,0L.46,28.77c-.26-.02-.46-.24-.46-.5s.2-.48.46-.5l87.03-7.15c.28-.02.52.18.54.46.02.28-.18.52-.46.54L6.65,28.27l81.04,6.56c.27.02.48.26.46.54-.02.26-.24.46-.5.46Z"/>
      <g>
        <path class="cls-1" d="m120.94,37.08s-.05,0-.07,0l-5.63-.91c-.22-.04-.38-.22-.38-.45v-1.13c0-.1.03-.19.09-.27l1.37-1.89v-2.65c0-.12.04-.23.13-.32.09-.08.2-.13.32-.13h1.23c.19,0,.35.11.42.29l2.07,5.24.53.07c.22.04.37.23.37.45v1.26c0,.13-.06.26-.16.34-.08.07-.19.11-.29.11Zm0-.5h0,0Zm-4.14-6.76v2.63c0,.1-.03.19-.09.26l-1.37,1.89v1.11s5.56.86,5.56.86v-1.21s-.55-.05-.55-.05c-.16-.03-.28-.13-.34-.28l-2.07-5.23-1.14.03Z"/>
        <path class="cls-1" d="m118.57,35.78s-.06,0-.08,0l-2.41-.46c-.15-.03-.27-.13-.33-.26-.06-.14-.05-.29.03-.42l.98-1.53c.08-.12.22-.2.37-.21.16,0,.29.07.38.19l1.43,1.98c.11.15.11.35.01.5-.08.13-.23.21-.38.21Zm-2.33-.94l2.26.43-1.36-1.83-.9,1.4Z"/>
        <path class="cls-1" d="m119.21,34.42c-.09,0-.17-.04-.23-.12-.42-.57-1.68-2.13-2.05-2.6-.16-.2-.15-.48.02-.67l.43-.49c.12-.14.3-.2.48-.17.18.03.33.16.39.33l1.3,3.53-.21.14s-.09.03-.13.03Zm-1.43-3.53l-.46.48c.21.28.72.92,1.19,1.52l-.73-2Z"/>
        <path class="cls-1" d="m116.78,31.39h-2.71c-.15,0-.29-.06-.39-.17-.1-.11-.16-.25-.16-.39v-4.48c0-.08,0-.8-.48-1.27-.29-.29-.7-.43-1.22-.44h-4.73s0-.51,0-.51h4.73c.66,0,1.19.2,1.57.59.6.6.63,1.46.63,1.63v4.48s.05.06.05.06h2.21s0-.63,0-.63h-1.63s0-3.91,0-3.91c0-.24-.04-1.06-.58-1.8-.5-.69-1.26-1.04-2.26-1.04h-4.72s0-.51,0-.51h4.72c1.45,0,2.24.69,2.66,1.25.63.86.67,1.82.67,2.09v3.4s1.63,0,1.63,0v1.63Z"/>
        <path class="cls-1" d="m104.85,25.02h-.12c-.33,0-.59-.27-.59-.59v-3.59c0-.16.07-.31.18-.42s.26-.17.42-.17h.12c.33,0,.59.27.59.59v3.59c0,.32-.27.59-.59.59Zm-.2-4.18v3.59s.04.09.09.09h.12s.09-.04.09-.09v-3.59s-.04-.09-.09-.09h-.12s-.09.05-.09.09h0Z"/>
        <path class="cls-1" d="m110.41,23.25h-.5s0-2.77,0-2.77c0-.04-.02-.08-.04-.1-.03-.03-.07-.04-.1-.04h0s-.08.02-.1.04-.04.07-.04.1v2.77s-.5,0-.5,0v-2.77c0-.17.07-.34.19-.46.12-.12.29-.19.46-.19h0c.17,0,.34.07.46.19.12.12.19.29.19.46v2.77Z"/>
        <path class="cls-1" d="m113.67,23.62h-.5s0-2.58,0-2.58c0-.04-.02-.08-.04-.1-.09-.09-.25-.02-.25.1v2.29s-.49,0-.49,0v-2.3c-.01-.36.28-.65.64-.65.36,0,.65.29.65.65v2.58Z"/>
        <path class="cls-1" d="m106.41,25.02h-.25c-.53,0-.95-.43-.95-.96v-2.86c0-.53.43-.95.96-.95h.25c.53,0,.95.43.95.96v2.86c0,.25-.1.49-.28.67-.18.18-.42.28-.67.28Zm-.7-3.81v2.86c0,.12.04.23.13.32.09.09.2.13.32.13h.25s0,0,0,0c.12,0,.23-.05.32-.13s.13-.2.13-.32v-2.86c0-.25-.2-.46-.45-.46h-.25s0,0,0,0c-.25,0-.45.2-.46.46h0Z"/>
        <path class="cls-1" d="m115.15,25.03h-.16c-.19,0-.36-.07-.49-.2-.13-.13-.2-.31-.2-.49v-3.38c0-.19.08-.36.21-.49.13-.13.31-.2.49-.2h.16c.19,0,.36.07.49.2.13.13.2.31.2.49v3.38c0,.19-.08.36-.21.49-.13.13-.31.2-.49.2Zm-.35-4.07v3.38c0,.05.02.1.05.14s.09.06.14.06h.15c.05,0,.1-.02.14-.06.04-.04.06-.09.06-.14v-3.38c0-.05-.02-.1-.05-.14s-.09-.06-.14-.06h-.15c-.11,0-.19.09-.19.19h0Z"/>
        <path class="cls-1" d="m102.65,25.02h-.12c-.32,0-.59-.27-.59-.59v-3.59c0-.32.27-.59.59-.59h.12c.32,0,.59.27.59.59v3.59c0,.33-.27.59-.6.59Zm-.11-4.27s-.09.04-.09.09v3.59s.04.09.09.09h.12s.09-.04.09-.09v-3.59s-.04-.09-.09-.09h-.12Z"/>
        <path class="cls-1" d="m101.13,25.98h-.12c-.16,0-.31-.06-.42-.17s-.17-.26-.17-.42v-4.55c0-.16.07-.31.18-.42s.26-.17.42-.17h.12c.16,0,.31.06.42.17.11.11.17.26.17.42v4.55c0,.32-.27.59-.6.59Zm-.11-5.23s-.05.02-.06.03c-.01,0-.03.03-.03.06v4.55s.04.09.08.09h.12s.09-.04.09-.09v-4.56s-.01-.05-.02-.06c0,0-.03-.03-.06-.03h-.12Z"/>
        <path class="cls-1" d="m107.77,23.27h-.5s.03-2.07.03-2.07c0-.25.1-.48.28-.66s.41-.28.66-.28c.5.01.94.42.94.94v2.07s-.5,0-.5,0v-2.07c0-.24-.2-.44-.44-.44h0c-.12,0-.23.05-.31.13-.08.08-.13.19-.13.31l-.03,2.07Z"/>
        <path class="cls-1" d="m108.24,25.02h0c-.39,0-.7-.2-.85-.54l.46-.2c.08.19.25.24.39.24h0c.16,0,.31-.09.39-.23l.44.24c-.16.31-.48.5-.83.5Z"/>
        <polygon class="cls-1" points="109.58 31.52 103.66 31.51 103.64 31.23 103.64 25.15 103.92 25.12 109.83 25.13 109.86 25.41 109.86 27.45 109.36 27.45 109.36 25.63 104.14 25.62 104.14 31.01 109.36 31.01 109.36 29.21 109.86 29.21 109.85 31.49 109.58 31.52"/>
        <path class="cls-1" d="m112.92,29.68h0c-.15,0-.35-.09-.48-.5-.07-.23-.11-.54-.11-.86s.04-.62.11-.86c.13-.41.34-.5.48-.5h0c.15,0,.35.09.48.5.07.23.11.54.11.86,0,.32-.04.62-.11.86-.13.41-.34.5-.48.5Zm0-2.09c-.05.15-.1.4-.1.73s.05.58.1.73c.05-.15.1-.4.1-.73,0-.33-.05-.58-.1-.73Z"/>
        <path class="cls-1" d="m112.41,29.68c-.14,0-.26,0-.3,0-.42-.04-.57-.73-.57-1.35,0-.32.04-.62.11-.86.13-.41.34-.5.48-.5h.78s0,.5,0,.5h-.73c-.06.09-.15.39-.15.85,0,.55.13.83.17.87.04-.01.7-.02.7-.02v.5c-.14,0-.34,0-.51,0Z"/>
        <path class="cls-1" d="m110.78,29.45c-1.83,0-2.77,0-2.81,0-.37-.04-.5-.61-.5-1.13,0-.18.02-.77.27-1.02.09-.09.2-.14.26-.11h3.91s0,.5,0,.5h-3.84c-.04.08-.1.31-.1.62,0,.32.06.55.1.63.37,0,2.43,0,3.83,0v.5h-1.12Zm-2.79-1.76h0,0Z"/>
        <path class="cls-1" d="m108.18,29.46c-.37-.04-.5-.61-.5-1.13,0-.18.02-.77.27-1.01.09-.09.19-.08.26-.11v.5h0c.05,0,.09-.02.09-.03-.04.05-.12.29-.12.66s.08.61.12.66c0,0-.03-.03-.07-.03l-.05.5Z"/>
        <path class="cls-1" d="m108.41,29.46c-.37-.04-.5-.61-.5-1.13,0-.55.14-1.13.53-1.13v.5c.05,0,.09-.02.09-.03-.04.05-.12.29-.12.66,0,.37.08.61.12.66,0,0-.03-.02-.07-.03l-.05.5Z"/>
        <path class="cls-1" d="m108.64,29.46c-.37-.04-.5-.61-.5-1.13,0-.54.14-1.13.53-1.13v.5c.05,0,.09-.02.09-.03-.04.05-.12.29-.12.66s.08.61.12.66c0,0-.03-.03-.07-.03l-.05.5Z"/>
        <path class="cls-1" d="m108.87,29.46c-.37-.04-.5-.61-.5-1.13,0-.18.02-.77.27-1.01.09-.09.19-.11.26-.11h0v.5h0c.05,0,.09-.02.09-.03-.04.05-.12.29-.12.66s.08.61.12.66c0,0-.03-.02-.07-.03l-.05.5Z"/>
        <path class="cls-1" d="m109.1,29.46c-.37-.04-.5-.61-.5-1.13,0-.55.14-1.13.53-1.13v.5c.05,0,.09-.02.09-.03-.04.05-.12.29-.12.66,0,.37.08.61.12.66,0,0-.03-.02-.07-.03l-.05.5Z"/>
        <path class="cls-1" d="m109.33,29.46c-.37-.04-.5-.61-.5-1.13,0-.18.02-.77.27-1.01.09-.09.19-.08.26-.11v.5h0c.05,0,.09-.02.09-.03-.04.05-.12.29-.12.66,0,.37.08.61.12.66,0,0-.03-.03-.07-.03l-.05.5Z"/>
        <path class="cls-1" d="m109.56,29.46c-.37-.04-.5-.61-.5-1.13,0-.55.14-1.13.53-1.13v.5c.05,0,.09-.02.09-.03-.04.05-.12.29-.12.66,0,.37.08.61.12.66,0,0-.03-.02-.07-.03l-.05.5Z"/>
        <path class="cls-1" d="m109.79,29.46c-.37-.04-.5-.61-.5-1.13,0-.18.02-.77.27-1.01.09-.09.2-.09.26-.11v.5h0c.05,0,.09-.02.09-.03-.04.05-.12.29-.12.66s.08.61.12.66c0,0-.03-.02-.07-.03l-.05.5Z"/>
        <path class="cls-1" d="m110.02,29.46c-.37-.04-.5-.61-.5-1.13,0-.55.14-1.13.53-1.13v.5c.05,0,.09-.02.09-.03-.04.05-.12.29-.12.66s.08.61.12.66c0,0-.03-.02-.07-.03l-.05.5Z"/>
        <path class="cls-1" d="m110.25,29.46c-.37-.04-.5-.61-.5-1.13,0-.18.02-.77.27-1.02.09-.09.19-.11.26-.11h0v.5h0c.05,0,.09-.02.09-.03-.04.05-.12.29-.12.66,0,.37.08.61.12.66,0,0-.03-.02-.07-.03l-.05.5Z"/>
        <path class="cls-1" d="m110.47,29.46c-.37-.04-.5-.61-.5-1.13,0-.55.14-1.13.53-1.13v.5c.05,0,.09-.02.09-.03-.04.05-.12.29-.12.66s.08.61.12.66c0,0-.03-.02-.07-.03l-.05.5Z"/>
        <path class="cls-1" d="m110.71,29.46c-.37-.04-.5-.61-.5-1.13,0-.55.14-1.13.53-1.13v.5c.05,0,.09-.02.09-.03-.04.05-.12.29-.12.66,0,.37.08.61.12.66,0,0-.03-.03-.07-.03l-.05.5Z"/>
        <path class="cls-1" d="m110.93,29.46c-.37-.04-.5-.61-.5-1.13,0-.18.02-.77.27-1.02.09-.09.2-.09.26-.11v.5h0c.05,0,.09-.02.09-.03-.04.05-.12.29-.12.66,0,.37.08.61.12.66,0,0-.03-.02-.07-.03l-.05.5Z"/>
        <path class="cls-1" d="m111.16,29.46c-.37-.04-.5-.61-.5-1.13,0-.55.14-1.13.53-1.13v.5c.05,0,.09-.02.09-.03-.04.05-.12.29-.12.66s.08.61.12.66c0,0-.03-.02-.07-.03l-.05.5Z"/>
        <path class="cls-1" d="m111.39,29.46c-.37-.04-.5-.61-.5-1.13,0-.18.02-.77.27-1.01.09-.09.19-.11.26-.11h0v.5h0c.05,0,.09-.02.09-.03-.04.05-.12.29-.12.66,0,.37.08.61.12.66,0,0-.03-.03-.07-.03l-.05.5Z"/>
        <path class="cls-1" d="m111.62,29.46c-.37-.04-.5-.61-.5-1.13,0-.55.14-1.13.53-1.13v.5c.05,0,.09-.02.09-.03-.04.05-.12.29-.12.66s.08.61.12.66c0,0-.03-.02-.07-.03l-.05.5Z"/>
        <path class="cls-1" d="m111.85,29.46c-.37-.04-.5-.61-.5-1.13,0-.18.02-.77.27-1.01.09-.09.19-.11.26-.11h0v.5h0c.05,0,.09-.02.09-.03-.04.05-.12.29-.12.66s.08.61.12.66c0,0-.03-.03-.07-.03l-.05.5Z"/>
        <path class="cls-1" d="m106.97,29.17c-.85,0-.87,0-.89,0-.39-.04-.42-.66-.42-.85,0-.16.02-.57.21-.75.07-.06.13-.1.23-.1h1.69s0,.5,0,.5h-1.58c-.02.06-.04.19-.04.35,0,.17.02.29.05.35.34,0,1.58,0,1.58,0v.5c-.34,0-.61,0-.82,0Zm-.86-1.21h0,0Z"/>
        <path class="cls-1" d="m105.39,28.92c-.44,0-.45,0-.47,0-.21-.02-.34-.25-.34-.6,0-.38.14-.61.36-.61h1s0,.5,0,.5h-.85s0,.06,0,.1,0,.08,0,.11c.26,0,.85,0,.85,0v.5c-.24,0-.42,0-.55,0Z"/>
        <rect class="cls-1" x="107.08" y="21.16" width=".5" height=".44" transform="translate(85.83 128.68) rotate(-89.94)"/>
        <rect class="cls-1" x="105.21" y="21.13" width=".23" height=".5"/>
        <rect class="cls-1" x="108.89" y="21.11" width=".5" height=".44" transform="translate(87.69 130.45) rotate(-89.94)"/>
        <rect class="cls-1" x="111.94" y="20.17" width=".5" height="1.14" transform="translate(91.31 132.89) rotate(-89.93)"/>
        <rect class="cls-1" x="113.75" y="20.5" width=".5" height="1.14" transform="translate(92.78 135.04) rotate(-89.93)"/>
        <rect class="cls-1" x="114.09" y="24.01" width=".5" height=".45" transform="translate(89.98 138.54) rotate(-89.94)"/>
        <rect class="cls-1" x="110.1" y="20.6" width=".5" height=".36" transform="translate(89.42 131.11) rotate(-89.92)"/>
        <rect class="cls-1" x="103.46" y="20.34" width=".5" height="1.37" transform="translate(82.57 124.71) rotate(-89.94)"/>
        <rect class="cls-1" x="103.45" y="23.57" width=".5" height="1.37" transform="translate(79.33 127.93) rotate(-89.94)"/>
        <rect class="cls-1" x="101.58" y="20.92" width=".5" height=".74" transform="translate(80.41 123.08) rotate(-89.92)"/>
        <rect class="cls-1" x="101.57" y="23.57" width=".5" height=".74" transform="translate(77.75 125.73) rotate(-89.92)"/>
        <path class="cls-1" d="m98.51,31.75v-3.49s.5,0,.5,0v2.7c.43-.21,1.17-.57,1.67-.84.88-.48,1.77-.05,1.81-.03l1.5.78-.23.44-1.5-.78s-.69-.33-1.34.02c-.77.42-2.05,1.02-2.06,1.03l-.36.17Z"/>
        <path class="cls-1" d="m99.02,28.56h-.5s0-3.56,0-3.56l.39.25c.6.4,1.36.83,1.53.85l-.02.5c-.26-.01-.91-.39-1.39-.69v2.64Z"/>
        <path class="cls-1" d="m101.93,26.76h0v-.5h0c.22,0,.44-.1.44-.1l1.44-.69.22.45-1.44.69s-.32.16-.66.16Z"/>
        <path class="cls-1" d="m112.28,23.42s-.6-1.75-.81-2.36c-.22-.63-.3-.69-.55-.69h0c-.06,0-.1.01-.12.03-.02.02-.02.08-.02.08v2.79s-.5,0-.5,0v-2.76h0s-.03-.25.14-.44c.08-.09.23-.2.5-.2h0c.62,0,.81.41,1.02,1.03.22.62.81,2.37.81,2.37l-.47.16Z"/>
        <path class="cls-1" d="m109.68,31.23l-.16-.47.52-.17c.15-.05.31-.06.47-.05l.24.03c.16.02.32-.03.44-.13l1.31-1.17.33.37-1.31,1.17c-.23.2-.53.3-.83.26l-.24-.03c-.08-.01-.17,0-.24.02l-.52.17Z"/>
        <path class="cls-1" d="m110.38,26.06c-.11,0-.23-.02-.33-.05l-.52-.17.16-.47.52.17c.08.03.16.04.24.02l.24-.03.06.5-.24.03s-.09,0-.13,0Z"/>
        <path class="cls-1" d="m112.96,27.25l-.5-.06.17-1.4c.03-.21.02-.43-.02-.64l-.1-.52.49-.09.1.52c.05.26.06.53.02.79l-.17,1.4Z"/>
        <path class="cls-1" d="m111.55,27.56c-.08-.16-1.23-1.94-1.94-3.02l.42-.27c2,3.06,2,3.1,2,3.2h-.5.25l-.23.09Z"/>
        <g>
          <path class="cls-1" d="m111.3,35.85c-2.39-.94-3.62-1.42-3.66-1.45-.33-.17-.25-.75-.05-1.23.2-.51.54-1,.9-.86l3.64,1.44-.18.46-3.57-1.41c-.07.07-.21.25-.32.55-.12.3-.14.53-.13.63.34.13,2.26.89,3.57,1.4l-.18.47Z"/>
          <path class="cls-1" d="m107.58,34.08c-1.54-.6-1.58-.62-1.59-.63-.34-.18-.14-.77-.07-.94.07-.17.16-.33.25-.44.2-.25.38-.23.48-.19l1.57.62-.18.46-1.47-.58c-.04.05-.11.16-.17.31-.06.16-.08.28-.09.35.31.13,1.47.58,1.47.58l-.18.47Z"/>
          <path class="cls-1" d="m105.94,33.18c-.92-.36-.94-.37-.95-.38-.19-.1-.22-.35-.09-.69.14-.35.35-.51.56-.43l.93.37-.18.46-.79-.31s-.03.06-.05.1c-.02.04-.03.07-.03.1.24.1.79.31.79.31l-.18.47Z"/>
          <path class="cls-1" d="m111.99,36.31c-.09,0-.17-.02-.26-.05l-.13-.06c-.16-.07-.29-.2-.36-.36-.07-.17-.07-.35,0-.51l.51-1.21c.14-.34.53-.5.87-.36l.13.06c.16.07.29.2.36.36.07.17.07.35,0,.51l-.51,1.21c-.07.17-.2.29-.36.36-.08.03-.17.05-.25.05Zm.22-2l-.5,1.21s-.02.09,0,.13.05.07.09.09l.13.06s.09.02.13,0c.04-.02.07-.05.09-.09l.51-1.21s.02-.09,0-.13c-.02-.04-.05-.07-.09-.09l-.13-.06c-.09-.04-.18,0-.22.09Z"/>
          <path class="cls-1" d="m112.78,36.18c-.06,0-.13-.01-.19-.04l-.08-.03c-.12-.05-.22-.15-.27-.27-.05-.12-.05-.26,0-.38l.3-.71c.11-.25.4-.37.65-.27l.08.03c.12.05.22.15.27.27.05.12.05.26,0,.38l-.29.71c-.05.12-.15.22-.27.27-.06.02-.12.04-.19.04Zm.22-1.23l-.29.7.08.02.29-.7-.07-.02Z"/>
          <path class="cls-1" d="m104.81,32.63c-.33,0-.6-.27-.6-.6,0-.16.06-.31.18-.42.11-.11.26-.18.42-.18h0c.16,0,.31.06.42.18s.18.26.18.42c0,.33-.27.6-.6.6Zm0-.7c-.05,0-.1.04-.1.1,0,.11.2.11.2,0,0-.04-.02-.06-.03-.07-.01-.01-.03-.03-.07-.03h0Z"/>
          <path class="cls-1" d="m113.42,35.99c-.28,0-.5-.23-.5-.5,0-.28.23-.5.5-.5h0c.13,0,.26.05.35.15.09.1.15.22.15.36,0,.28-.23.5-.5.5Z"/>
          <rect class="cls-1" x="103.96" y="31.2" width=".5" height="1.01" transform="translate(-1.64 57.42) rotate(-30.57)"/>
          <polygon class="cls-1" points="105.4 32.22 104.94 32.03 105.29 31.17 105.75 31.36 105.4 32.22"/>
        </g>
        <path class="cls-1" d="m120.81,28.9h-3.84c-.29,0-.52-.24-.52-.53v-.09c0-.14.05-.27.15-.37.1-.1.23-.15.37-.15h3.84c.29,0,.52.24.52.53v.09c0,.29-.23.52-.52.52Zm-3.84-.64l-.02.02v.09l3.86.03.02-.11-3.86-.03Z"/>
        <path class="cls-1" d="m118.06,27.41h-.26c-.31,0-.8,0-1.17,0-.17,0-.3-.06-.42-.17-.11-.11-.17-.26-.17-.42v-1.43c0-.83.35-1.33.36-1.35l4.11-4.37h.86s0,1.11,0,1.11h-.38q-2.72,6.62-2.94,6.62Zm-1.27-3.05s-.24.39-.25,1.04v1.43s.01.05.02.06c.43.02.92.02,1.24.03h.1c.32-.7,1.74-4.14,2.69-6.46l.06-.16h.22s0-.11,0-.11h-.15s-3.94,4.18-3.94,4.18h0Z"/>
        <path class="cls-1" d="m117.79,26.41c-.1,0-.2-.05-.27-.13l-.54-.65c-.16-.19-.16-.48,0-.67l1.83-2.15c.12-.14.31-.17.46-.07.15.09.21.28.14.45l-1.28,3.01c-.05.12-.15.2-.28.21-.02,0-.04,0-.05,0Zm.79-2.56l-1.22,1.44.4.49.83-1.94Z"/>
        <rect class="cls-1" x="117.45" y="28.86" width=".93" height=".5" transform="translate(88.57 146.97) rotate(-89.89)"/>
        <rect class="cls-1" x="117.49" y="27.32" width=".86" height=".5" transform="translate(90.12 145.44) rotate(-89.89)"/>
        <rect class="cls-1" x="114.84" y="28.25" width="3.01" height=".5" transform="translate(87.62 144.79) rotate(-89.89)"/>
        <rect class="cls-1" x="115.39" y="28.59" width=".5" height="1.45" transform="translate(86.17 144.91) rotate(-89.92)"/>
        <rect class="cls-1" x="115.39" y="26.67" width=".5" height="1.45" transform="translate(88.09 143) rotate(-89.92)"/>
        <rect class="cls-1" x="113.21" y="28.79" width=".57" height=".5"/>
        <rect class="cls-1" x="113.21" y="27.34" width=".57" height=".5"/>
        <path class="cls-1" d="m115.92,24.41s-.22-.01-.29,0l-.07-.5c.09-.01.37,0,.37,0,.1,0,.71-.05.71-.72v-.96s0-.19-.09-.36c-.11-.21-.29-.31-.57-.31h-.36s0-.5,0-.5h.36c.34,0,.62.11.83.32.33.34.33.8.33.85v.95c0,.95-.8,1.21-1.22,1.22Z"/>
        <path class="cls-1" d="m115.68,34.01h-1.36s-.37.01-.63-.23c-.11-.11-.25-.31-.25-.65,0-.67.55-.92.92-.92h2.21s0,.5,0,.5h-2.2c-.1,0-.42.03-.42.41,0,.13.03.23.1.29.1.1.27.09.27.1h1.38s0,.5,0,.5Z"/>
        <rect class="cls-1" x="114.22" y="31.55" width="1.3" height=".5" transform="translate(82.85 146.6) rotate(-89.89)"/>
        <rect class="cls-1" x="113.69" y="31.54" width="1.3" height=".5" transform="translate(82.32 146.07) rotate(-89.89)"/>
        <path class="cls-1" d="m114.33,34.27h0c-.32,0-.61-.12-.84-.35s-.35-.52-.35-.84c0-.65.53-1.18,1.18-1.18h0v.5h0c-.38,0-.68.31-.68.68,0,.18.07.35.2.48.13.13.3.2.48.2h0c.18,0,.35-.07.48-.2l.35.35c-.22.22-.52.35-.83.35Z"/>
        <rect class="cls-1" x="114.76" y="25.87" width="1.66" height=".5" transform="translate(6.54 72.5) rotate(-35.77)"/>
        <rect class="cls-1" x="113.06" y="25.97" width=".5" height=".97" transform="translate(86.69 139.72) rotate(-89.91)"/>
        <rect class="cls-1" x="115.73" y="24.16" width=".5" height=".86" transform="translate(42.91 117.96) rotate(-63.93)"/>
        <rect class="cls-1" x="100.89" y="28.16" width="4.69" height=".5" transform="translate(74.62 131.59) rotate(-89.89)"/>
        <rect class="cls-1" x="93.34" y="28.14" width="7.8" height=".5" transform="translate(68.67 125.58) rotate(-89.89)"/>
        <rect class="cls-1" x="92.79" y="28.13" width="8.21" height=".5" transform="translate(68.33 125.22) rotate(-89.89)"/>
        <path class="cls-1" d="m87.71,35.6c-.19,0-.37-.06-.53-.16-.22-.14-.36-.36-.42-.62-.87-4.26-.85-8.71.06-13.22.1-.52.61-.85,1.13-.76h0c4.31.81,7.69,2.17,10.96,4.4l.11.07v6.16s-.12.07-.12.07c-3.76,2.55-7.6,3.34-10.99,4.03-.07.01-.13.02-.2.02Zm.06-14.27c-.22,0-.42.15-.46.38-.9,4.44-.91,8.82-.06,13.02.02.12.1.23.2.3.1.07.23.1.35.07,3.31-.68,7.06-1.45,10.7-3.88v-5.62c-3.21-2.17-6.41-3.44-10.65-4.25h0s-.06,0-.09,0Z"/>
        <path class="cls-1" d="m97.36,30.69c-.07,0-.11,0-.12,0h-.25s.03-.96.03-.96h.25s2.26.05,3.11-.78c.2-.19.29-.41.29-.68v-.25s.95,0,.95,0v.25c0,.53-.2.99-.58,1.36-1.02.99-3.14,1.06-3.68,1.06Z"/>
        <path class="cls-1" d="m101.57,28.52h-.89c-.25,0-.46-.21-.46-.46v-.07c0-.25.21-.46.46-.46h.89c.25,0,.46.21.46.46v.08c0,.25-.21.46-.46.46Zm-.85-.5v.04l.85-.04-.04-.04-.81.04Z"/>
        <path class="cls-1" d="m101.91,28.02h-1.4c-.25,0-.46-.21-.46-.46v-.08c0-.25.21-.46.46-.46h1.4c.12,0,.24.05.33.14s.14.2.13.33v.07c0,.25-.21.46-.46.46Zm-1.36-.5v.04s1.36-.04,1.36-.04l-.04-.04-1.32.03Zm-.04,0h0s0,0,0,0Z"/>
        <path class="cls-1" d="m101.91,27.5h-1.4c-.12,0-.24-.05-.33-.14s-.14-.2-.13-.33v-.07c0-.25.21-.46.46-.46h1.4c.25,0,.46.21.46.46v.08c0,.25-.21.46-.46.46Zm-1.36-.5v.04l1.36-.04-.04-.04-1.32.04Z"/>
        <path class="cls-1" d="m101.51,26.97h-.7c-.37,0-.67-.3-.67-.67v-.15c0-.37.3-.67.67-.67h.7c.18,0,.35.07.47.2.13.13.2.29.2.47v.15c0,.18-.07.35-.2.47s-.29.2-.47.2Zm-.7-.98c-.09,0-.17.08-.17.17v.15c0,.09.08.17.17.17h.7c.09,0,.17-.08.17-.17v-.15c0-.09-.08-.17-.17-.17h-.7Z"/>
        <path class="cls-1" d="m115.6,24.85h-1.04c-.14,0-.25-.11-.25-.25s.11-.25.25-.25h1.04c.14,0,.25.11.25.25s-.11.25-.25.25Z"/>
        <path class="cls-1" d="m115.6,24.62h-1.04c-.14,0-.25-.11-.25-.25s.11-.25.25-.25h1.04c.14,0,.25.11.25.25s-.11.25-.25.25Z"/>
        <path class="cls-1" d="m115.6,24.39h-1.04c-.14,0-.25-.11-.25-.25s.11-.25.25-.25h1.04c.14,0,.25.11.25.25s-.11.25-.25.25Z"/>
        <path class="cls-1" d="m115.6,24.16h-1.04c-.14,0-.25-.11-.25-.25s.11-.25.25-.25h1.04c.14,0,.25.11.25.25s-.11.25-.25.25Z"/>
        <path class="cls-1" d="m115.6,23.93h-1.04c-.14,0-.25-.11-.25-.25s.11-.25.25-.25h1.04c.14,0,.25.11.25.25s-.11.25-.25.25Z"/>
        <path class="cls-1" d="m115.6,23.7h-1.04c-.14,0-.25-.11-.25-.25s.11-.25.25-.25h1.04c.14,0,.25.11.25.25s-.11.25-.25.25Z"/>
        <path class="cls-1" d="m115.6,23.47h-1.04c-.14,0-.25-.11-.25-.25s.11-.25.25-.25h1.04c.14,0,.25.11.25.25s-.11.25-.25.25Z"/>
        <path class="cls-1" d="m115.6,23.24h-1.04c-.14,0-.25-.11-.25-.25s.11-.25.25-.25h1.04c.14,0,.25.11.25.25s-.11.25-.25.25Z"/>
        <path class="cls-1" d="m115.6,23.02h-1.04c-.14,0-.25-.11-.25-.25s.11-.25.25-.25h1.04c.14,0,.25.11.25.25s-.11.25-.25.25Z"/>
        <path class="cls-1" d="m115.6,22.79h-1.04c-.14,0-.25-.11-.25-.25s.11-.25.25-.25h1.04c.14,0,.25.11.25.25s-.11.25-.25.25Z"/>
        <path class="cls-1" d="m115.6,22.56h-1.04c-.14,0-.25-.11-.25-.25s.11-.25.25-.25h1.04c.14,0,.25.11.25.25s-.11.25-.25.25Z"/>
        <path class="cls-1" d="m115.6,22.33h-1.04c-.14,0-.25-.11-.25-.25s.11-.25.25-.25h1.04c.14,0,.25.11.25.25s-.11.25-.25.25Z"/>
        <path class="cls-1" d="m115.6,22.1h-1.04c-.14,0-.25-.11-.25-.25s.11-.25.25-.25h1.04c.14,0,.25.11.25.25s-.11.25-.25.25Z"/>
        <path class="cls-1" d="m115.6,21.87h-1.04c-.14,0-.25-.11-.25-.25s.11-.25.25-.25h1.04c.14,0,.25.11.25.25s-.11.25-.25.25Z"/>
        <path class="cls-1" d="m115.6,21.64h-1.04c-.14,0-.25-.11-.25-.25s.11-.25.25-.25h1.04c.14,0,.25.11.25.25s-.11.25-.25.25Z"/>
        <path class="cls-1" d="m115.6,21.41h-1.04c-.14,0-.25-.11-.25-.25s.11-.25.25-.25h1.04c.14,0,.25.11.25.25s-.11.25-.25.25Z"/>
        <path class="cls-1" d="m115.6,21.18h-1.04c-.14,0-.25-.11-.25-.25s.11-.25.25-.25h1.04c.14,0,.25.11.25.25s-.11.25-.25.25Z"/>
        <path class="cls-1" d="m115.6,20.95h-1.04c-.14,0-.25-.11-.25-.25s.11-.25.25-.25h1.04c.14,0,.25.11.25.25s-.11.25-.25.25Z"/>
        <g>
          <path class="cls-1" d="m111.81,24.63h0c-.14,0-.25-.11-.25-.25v-1.1c0-.14.11-.25.25-.25h0c.14,0,.25.11.25.25v1.1c0,.14-.11.25-.25.25Z"/>
          <path class="cls-1" d="m111.55,24.63h0c-.14,0-.25-.11-.25-.25v-1.1c0-.14.11-.25.25-.25h0c.14,0,.25.11.25.25v1.1c0,.14-.11.25-.25.25Z"/>
          <path class="cls-1" d="m111.29,24.63c-.12-.01-.25-.11-.25-.25v-1.1c0-.14.11-.25.25-.25h0c.14,0,.25.11.25.25v1.1c0,.14-.11.25-.25.25Z"/>
          <path class="cls-1" d="m111.03,24.63h0c-.14,0-.25-.11-.25-.25v-1.1c0-.14.11-.25.25-.25h0c.14,0,.25.11.25.25v1.1c0,.14-.11.25-.25.25Z"/>
          <path class="cls-1" d="m110.77,24.63h0c-.14,0-.25-.11-.25-.25v-1.1c0-.14.11-.25.25-.25h0c.14,0,.25.11.25.25v1.1c0,.14-.11.25-.25.25Z"/>
          <path class="cls-1" d="m110.51,24.63h0c-.14,0-.25-.11-.25-.25v-1.1c0-.14.11-.25.25-.25h0c.14,0,.25.11.25.25v1.1c0,.14-.11.25-.25.25Z"/>
          <path class="cls-1" d="m110.25,24.63h0c-.14,0-.25-.11-.25-.25v-1.1c0-.14.11-.25.25-.25h0c.14,0,.25.11.25.25v1.1c0,.14-.11.25-.25.25Z"/>
          <path class="cls-1" d="m109.99,24.63h0c-.14,0-.25-.11-.25-.25v-1.1c0-.14.11-.25.25-.25h0c.14,0,.25.11.25.25v1.1c0,.14-.11.25-.25.25Z"/>
          <path class="cls-1" d="m109.72,24.63h0c-.14,0-.25-.11-.25-.25v-1.1c0-.14.11-.25.25-.25h0c.14,0,.25.11.25.25v1.1c0,.14-.11.25-.25.25Z"/>
          <path class="cls-1" d="m109.46,24.63h0c-.14,0-.25-.11-.25-.25v-1.1c0-.14.11-.25.25-.25h0c.14,0,.25.11.25.25v1.1c0,.14-.11.25-.25.25Z"/>
          <path class="cls-1" d="m109.2,24.63c-.11-.01-.25-.11-.25-.25v-1.1c0-.14.11-.25.25-.25h0c.14,0,.25.11.25.25v1.1c0,.14-.11.25-.25.25Z"/>
          <path class="cls-1" d="m108.94,24.63c-.12-.01-.25-.11-.25-.25v-1.1c0-.14.11-.25.25-.25h0c.14,0,.25.11.25.25v1.1c0,.14-.11.25-.25.25Z"/>
          <path class="cls-1" d="m108.68,24.63h0c-.14,0-.25-.11-.25-.25v-1.1c0-.14.11-.25.25-.25h0c.14,0,.25.11.25.25v1.1c0,.14-.11.25-.25.25Z"/>
          <path class="cls-1" d="m108.42,24.63h0c-.14,0-.25-.11-.25-.25v-1.1c0-.14.11-.25.25-.25h0c.14,0,.25.11.25.25v1.1c0,.14-.11.25-.25.25Z"/>
          <path class="cls-1" d="m108.16,24.63h0c-.14,0-.25-.11-.25-.25v-1.1c0-.14.11-.25.25-.25h0c.14,0,.25.11.25.25v1.1c0,.14-.11.25-.25.25Z"/>
          <path class="cls-1" d="m107.9,24.63h0c-.14,0-.25-.11-.25-.25v-1.1c0-.14.11-.25.25-.25h0c.14,0,.25.11.25.25v1.1c0,.14-.11.25-.25.25Z"/>
          <path class="cls-1" d="m107.64,24.63h0c-.14,0-.25-.11-.25-.25v-1.1c0-.14.11-.25.25-.25h0c.14,0,.25.11.25.25v1.1c0,.14-.11.25-.25.25Z"/>
          <path class="cls-1" d="m107.38,24.63h0c-.14,0-.25-.11-.25-.25v-1.1c0-.14.11-.25.25-.25h0c.14,0,.25.11.25.25v1.1c0,.14-.11.25-.25.25Z"/>
        </g>
        <path class="cls-1" d="m93.29,33.97c-.01-.06-1.13-5.96.01-11.31l.49.1c-1.12,5.25-.02,11.05-.01,11.11l-.49.09Z"/>
        <path class="cls-1" d="m94.14,33.59c0-.06-.75-5.57.01-10.57l.49.08c-.76,4.93-.02,10.38-.01,10.43l-.5.07Z"/>
        <path class="cls-1" d="m87.69,35.34c-.01-.07-1.32-7.53.02-14.28l.49.1c-1.32,6.66-.03,14.02-.02,14.09l-.49.09Z"/>
        <path class="cls-1" d="m88.51,35.18c-.01-.07-1.32-7.38.02-14l.49.1c-1.32,6.52-.03,13.73-.02,13.81l-.49.09Z"/>
        <path class="cls-1" d="m89.43,35.02c-.01-.07-1.32-7.19.02-13.63l.49.1c-1.32,6.35-.03,13.37-.02,13.44l-.49.09Z"/>
        <path class="cls-1" d="m90.37,34.76c-.01-.07-1.33-6.93.02-13.14l.49.11c-1.32,6.11-.03,12.88-.01,12.94l-.49.1Z"/>
        <path class="cls-1" d="m91.23,34.58c-.01-.07-1.33-6.71.02-12.72l.49.11c-1.32,5.91-.03,12.45-.01,12.51l-.49.1Z"/>
        <path class="cls-1" d="m92.21,34.34c-.01-.06-1.33-6.4.02-12.13l.49.11c-1.32,5.63-.03,11.85-.01,11.91l-.49.1Z"/>
      </g>
      <path class="cls-1" d="m106.75,57.67c-.28,0-.5-.22-.5-.5V13.33c0-.28.22-.5.5-.5s.5.22.5.5v43.85c0,.28-.22.5-.5.5Z"/>
      <path class="cls-1" d="m145.27,57.67c-.28,0-.5-.22-.5-.5V13.33c0-.28.22-.5.5-.5s.5.22.5.5v43.85c0,.28-.22.5-.5.5Z"/>
      <path class="cls-1" d="m138.75,44.83c-.14,0-.25-.11-.25-.25V.73c0-.14.11-.25.25-.25s.25.11.25.25v43.85c0,.14-.11.25-.25.25Z"/>
      <path class="cls-1" d="m113.28,44.83c-.14,0-.25-.11-.25-.25V.73c0-.14.11-.25.25-.25s.25.11.25.25v43.85c0,.14-.11.25-.25.25Z"/>
      <path class="cls-1" d="m132,20.23h-12.14c-.14,0-.25-.11-.25-.25s.11-.25.25-.25h12.14c.14,0,.25.11.25.25s-.11.25-.25.25Z"/>
      <path class="cls-1" d="m132,21.97h-12.14c-.14,0-.25-.11-.25-.25s.11-.25.25-.25h12.14c.14,0,.25.11.25.25s-.11.25-.25.25Z"/>
      <path class="cls-1" d="m132,23.71h-12.14c-.14,0-.25-.11-.25-.25s.11-.25.25-.25h12.14c.14,0,.25.11.25.25s-.11.25-.25.25Z"/>
      <path class="cls-1" d="m132,25.44h-12.14c-.14,0-.25-.11-.25-.25s.11-.25.25-.25h12.14c.14,0,.25.11.25.25s-.11.25-.25.25Z"/>
      <path class="cls-1" d="m132,27.18h-12.14c-.14,0-.25-.11-.25-.25s.11-.25.25-.25h12.14c.14,0,.25.11.25.25s-.11.25-.25.25Z"/>
      <path class="cls-1" d="m132,28.92h-12.14c-.14,0-.25-.11-.25-.25s.11-.25.25-.25h12.14c.14,0,.25.11.25.25s-.11.25-.25.25Z"/>
      <path class="cls-1" d="m132,30.65h-12.14c-.14,0-.25-.11-.25-.25s.11-.25.25-.25h12.14c.14,0,.25.11.25.25s-.11.25-.25.25Z"/>
      <path class="cls-1" d="m132,32.39h-12.14c-.14,0-.25-.11-.25-.25s.11-.25.25-.25h12.14c.14,0,.25.11.25.25s-.11.25-.25.25Z"/>
      <path class="cls-1" d="m132,34.13h-12.14c-.14,0-.25-.11-.25-.25s.11-.25.25-.25h12.14c.14,0,.25.11.25.25s-.11.25-.25.25Z"/>
      <path class="cls-1" d="m132,35.86h-12.14c-.14,0-.25-.11-.25-.25s.11-.25.25-.25h12.14c.14,0,.25.11.25.25s-.11.25-.25.25Z"/>
      <path class="cls-1" d="m132,37.6h-12.14c-.14,0-.25-.11-.25-.25s.11-.25.25-.25h12.14c.14,0,.25.11.25.25s-.11.25-.25.25Z"/>
      <path class="cls-1" d="m119.77,51.74c-.14,0-.25-.11-.25-.25V8.48c0-.14.11-.25.25-.25s.25.11.25.25v43.01c0,.14-.11.25-.25.25Z"/>
      <path class="cls-1" d="m132.12,51.74c-.14,0-.25-.11-.25-.25V8.48c0-.14.11-.25.25-.25s.25.11.25.25v43.01c0,.14-.11.25-.25.25Z"/>
    </g>
  </g>
</svg>