<?xml version="1.0" encoding="UTF-8"?>
<svg id="Layer_2" data-name="Layer 2" xmlns="http://www.w3.org/2000/svg" viewBox="0 0 229.39 114.73">
  <defs>
    <style>
      .cls-1 {
        fill: #8b8a8d;
      }

      .cls-2 {
        fill: #6d6e70;
      }

      .cls-3 {
        fill: #808184;
      }

      .cls-4 {
        fill: none;
        stroke: gray;
        stroke-miterlimit: 10;
        stroke-width: .5px;
      }
    </style>
  </defs>
  <g id="Layer_4" data-name="Layer 4">
    <g>
      <g>
        <g>
          <path class="cls-2" d="m175.01,9.73l6.38-9.73,8.96.07,3.13,9.72-18.47-.06Zm6.66-9.2l-5.7,8.69,16.79.06-2.79-8.68-8.3-.06Z"/>
          <path class="cls-2" d="m175.01,41.46l18.47-.06-3.13,9.72-8.96.07-6.38-9.73Zm17.75.46l-16.79.06,5.7,8.69,8.3-.06,2.79-8.68Z"/>
          <path class="cls-2" d="m175.65,25.62c0-.14.05-.27.15-.37l.56-.56c.1-.1.24-.16.38-.15l15.68.15c.11,0,.21.03.3.09l.58.4c.14.1.23.26.23.44h0c0,.18-.09.34-.23.44l-.54.37c-.09.06-.19.09-.29.09l-15.77.15c-.14,0-.28-.06-.38-.16l-.52-.53c-.1-.1-.15-.24-.15-.37Zm17.5-.22l-.15.21-.58-.4-15.68-.16-.56.56.52.54,15.77-.15.54-.37.15-.23Z"/>
          <rect class="cls-2" x="174.29" y="4.62" width="10.18" height=".52" transform="translate(99.22 165.42) rotate(-65.02)"/>
          <rect class="cls-2" x="179.12" y="41.17" width=".52" height="10.18" transform="translate(-2.76 80.03) rotate(-24.96)"/>
        </g>
        <path class="cls-3" d="m0,41.05V10.05c0-.76.61-1.39,1.37-1.39l90.66-.85,47.5,1.19h12.13l39.43.26c3,.03,5.94.38,8.71,1.06,10.37,2.52,19.81,6.75,28.06,12.56l.2.14c.85.6,1.33,1.53,1.33,2.55h0c0,1.03-.49,1.96-1.34,2.56-8.65,6.06-18.16,10.36-28.28,12.76-2.76.66-5.66,1-8.63,1.02l-3,.02-36.5.18h-12.14l-47.48,1.19-90.67-.85c-.75,0-1.37-.63-1.37-1.39Zm.52-15.6v15.6c0,.48.38.87.85.87l90.66.85,47.48-1.19h12.14l39.49-.2c2.93-.02,5.79-.36,8.51-1,10.05-2.39,19.51-6.66,28.1-12.69.71-.5,1.12-1.27,1.12-2.12h0c0-.85-.4-1.63-1.11-2.13l-.2-.14c-8.19-5.77-17.57-9.97-27.88-12.48-2.74-.67-5.63-1.02-8.59-1.04l-1.98-.02-37.45-.24h-12.13l-47.5-1.19L1.37,9.17c-.47,0-.85.4-.85.87v15.4Z"/>
        <path class="cls-3" d="m.1,41.22l.51-.11,1.25,5.92,26.7.33h5.19s52.89-1.54,52.89-1.54c.44-.01.87-.13,1.25-.34l4.98-2.73.25.46-4.98,2.72c-.45.25-.96.39-1.48.4l-52.9,1.53h-5.2s-27.12-.33-27.12-.33L.1,41.22Z"/>
        <path class="cls-3" d="m10.71,42.57l.07-.52,19.66,2.8c.15.02.28.1.38.22s.13.27.1.43l-.15.9c-.03.16-.13.31-.27.39l-1.81,1.04-.26-.45,1.81-1.04.17-.93-19.7-2.85Z"/>
        <rect class="cls-3" x="31.39" y="44.84" width="5.1" height=".52" transform="translate(-13.59 75.56) rotate(-85.7)"/>
        <path class="cls-3" d="m5.22,42.99c0-.05,0-.11.02-.16l.16-.55.5.15-.16.55,5.33.76c.24.03.44.22.48.46l.14.78c.03.17-.02.35-.14.48l-1.99,2.14-.38-.35,1.99-2.14-.13-.81-5.33-.74c-.16-.02-.31-.11-.4-.25-.06-.09-.09-.2-.09-.31Z"/>
        <rect class="cls-3" x=".83" y="44.92" width="5.54" height=".52" transform="translate(-31.54 16.55) rotate(-46.27)"/>
        <path class="cls-3" d="m.1,9.8l.78-3.69c.33-1.55,1.66-2.65,3.25-2.67l24.42-.3h5.2s52.91,1.54,52.91,1.54c.51.01,1.02.15,1.48.39l4.94,2.62-.24.46-4.94-2.62c-.38-.2-.81-.32-1.25-.33l-52.9-1.53h-5.19s-24.42.29-24.42.29c-1.34.02-2.47.94-2.74,2.25l-.78,3.69-.51-.11Z"/>
        <path class="cls-3" d="m10.71,8.46l19.66-2.8-.12-.95-1.83-1.07.26-.45,1.81,1.04c.15.08.24.23.27.39l.15.9c.02.15-.01.3-.1.43s-.23.2-.38.22l-19.66,2.8-.07-.52Z"/>
        <rect class="cls-3" x="33.68" y="3.37" width=".52" height="5.1" transform="translate(-.35 2.53) rotate(-4.25)"/>
        <path class="cls-3" d="m5.22,8.03c0-.11.03-.21.09-.31.09-.14.23-.23.4-.25l5.3-.71.17-.81-2-2.18.38-.35,1.99,2.14c.12.13.17.31.14.48l-.14.78c-.04.24-.23.43-.48.46l-5.3.71.13.6-.5.15-.16-.55c-.02-.05-.02-.11-.02-.16Z"/>
        <polygon class="cls-3" points="1.99 4.53 2.37 4.17 5.7 7.67 5.32 8.03 1.99 4.53"/>
        <g>
          <polygon class="cls-3" points=".3 31.16 3.93 30.52 5.43 30.31 34.47 27.64 88.57 27 92.26 25.47 88.57 24.09 34.49 23.46 5.45 20.78 3.36 20.46 .3 19.93 .39 19.41 3.44 19.95 5.51 20.27 34.52 22.94 88.71 23.59 93.03 25.2 93.03 25.72 88.62 27.52 34.5 28.16 5.49 30.82 4.01 31.03 .39 31.67 .3 31.16"/>
          <polygon class="cls-3" points=".26 23.35 .31 22.83 9.43 23.68 12.98 22.82 13.02 22.83 28.97 24.43 29.87 24.23 17.5 21.89 17.59 21.37 31.22 23.95 31.22 24.46 29 24.95 13.02 23.35 9.47 24.21 .26 23.35"/>
          <polygon class="cls-3" points=".26 27.79 9.47 26.94 13.02 27.79 29 26.19 31.22 26.68 31.22 27.19 17.63 29.7 17.53 29.18 29.85 26.91 28.97 26.72 12.98 28.32 9.43 27.46 .31 28.31 .26 27.79"/>
          <polygon class="cls-3" points="31.12 24.46 31.22 23.95 35.91 24.86 92.77 25.12 92.77 25.64 35.86 25.38 31.12 24.46"/>
          <polygon class="cls-3" points="31.11 26.67 35.8 25.64 92.77 25.34 92.77 25.86 35.86 26.16 31.22 27.17 31.11 26.67"/>
          <rect class="cls-3" x="30.78" y="24.15" width=".52" height="2.72"/>
          <rect class="cls-3" x="28.68" y="24.72" width=".52" height="1.67"/>
          <path class="cls-3" d="m5.3,21.81s0-.06,0-.09l.13-1.3.52.05-.13,1.3c-.01.19.11.32.29.36l5.59,1.01-.09.51-5.59-1.01c-.42-.08-.72-.43-.72-.84Z"/>
          <path class="cls-3" d="m5.3,29.31c0-.41.3-.76.72-.84l5.59-1.02.09.51-5.59,1.02c-.18.03-.3.19-.29.36l.13,1.3-.52.05-.13-1.3s0-.06,0-.09Z"/>
          <rect class="cls-3" x="9.17" y="23.94" width=".52" height="3.27"/>
        </g>
      </g>
      <g>
        <path class="cls-1" d="m127.28,114.73h-36.26c-.15,0-.28-.12-.28-.28s.12-.28.28-.28h36.26c.15,0,.28.12.28.28s-.12.28-.28.28Z"/>
        <path class="cls-1" d="m90.98,114.64c-.15,0-.28-.12-.28-.28v-24.66c0-.15.12-.28.28-.28s.28.12.28.28v24.66c0,.15-.12.28-.28.28Z"/>
        <path class="cls-1" d="m94.11,89.98h-3.05c-.15,0-.28-.12-.28-.28s.12-.28.28-.28h3.05c.15,0,.28.12.28.28s-.12.28-.28.28Z"/>
        <path class="cls-1" d="m94.11,94.22h-3.05c-.15,0-.28-.12-.28-.28s.12-.28.28-.28h3.05c.15,0,.28.12.28.28s-.12.28-.28.28Z"/>
        <path class="cls-1" d="m94.11,111.17h-3.05c-.15,0-.28-.12-.28-.28s.12-.28.28-.28h3.05c.15,0,.28.12.28.28s-.12.28-.28.28Z"/>
        <path class="cls-1" d="m94.11,102.69h-3.05c-.15,0-.28-.12-.28-.28s.12-.28.28-.28h3.05c.15,0,.28.12.28.28s-.12.28-.28.28Z"/>
        <path class="cls-1" d="m94.11,98.46h-3.05c-.15,0-.28-.12-.28-.28s.12-.28.28-.28h3.05c.15,0,.28.12.28.28s-.12.28-.28.28Z"/>
        <path class="cls-1" d="m94.11,106.93h-3.05c-.15,0-.28-.12-.28-.28s.12-.28.28-.28h3.05c.15,0,.28.12.28.28s-.12.28-.28.28Z"/>
        <path class="cls-1" d="m100.06,114.67c-.15,0-.28-.12-.28-.28v-15.32c0-.15.12-.28.28-.28h7.76c.15,0,.28.12.28.28v15.09c0,.15-.12.28-.28.28s-.28-.12-.28-.28v-14.81h-7.2v15.04c0,.15-.12.28-.28.28Z"/>
        <path class="cls-1" d="m115.71,114.67c-.15,0-.28-.12-.28-.28v-23.95c0-.15.12-.28.28-.28h7.76c.15,0,.28.12.28.28v23.72c0,.15-.12.28-.28.28s-.28-.12-.28-.28v-23.44h-7.2v23.67c0,.15-.12.28-.28.28Z"/>
        <path class="cls-1" d="m106.04,107.09c-.63,0-1.29-.33-1.96-.97-.66-.64-1.34-.95-2-.92-.99.04-1.67.82-1.68.83-.1.12-.27.13-.39.03-.12-.1-.13-.27-.03-.39.03-.04.84-.96,2.07-1.02.83-.05,1.64.32,2.42,1.07.64.62,1.24.89,1.79.8.83-.14,1.29-1.07,1.3-1.08.07-.14.24-.19.37-.13.14.07.19.23.13.37-.02.05-.6,1.19-1.7,1.38-.1.02-.21.03-.31.03Z"/>
        <path class="cls-1" d="m121.69,98.91c-.63,0-1.29-.33-1.96-.97-.66-.64-1.34-.96-2-.92-.99.04-1.68.82-1.68.83-.1.12-.27.13-.39.03-.12-.1-.13-.27-.03-.39.03-.04.84-.96,2.07-1.02.82-.03,1.64.32,2.42,1.07.64.62,1.24.89,1.78.8.82-.14,1.3-1.07,1.3-1.08.07-.14.23-.19.37-.12.14.07.19.23.13.37-.02.05-.6,1.19-1.7,1.38-.1.02-.21.03-.31.03Z"/>
      </g>
      <g>
        <path class="cls-1" d="m73.35,114.63h-36.26c-.15,0-.28-.12-.28-.28s.12-.28.28-.28h36.26c.15,0,.28.12.28.28s-.12.28-.28.28Z"/>
        <path class="cls-1" d="m37.06,114.54c-.15,0-.28-.12-.28-.28v-24.66c0-.15.12-.28.28-.28s.28.12.28.28v24.66c0,.15-.12.28-.28.28Z"/>
        <path class="cls-1" d="m40.18,89.87h-3.05c-.15,0-.28-.12-.28-.28s.12-.28.28-.28h3.05c.15,0,.28.12.28.28s-.12.28-.28.28Z"/>
        <path class="cls-1" d="m40.18,94.11h-3.05c-.15,0-.28-.12-.28-.28s.12-.28.28-.28h3.05c.15,0,.28.12.28.28s-.12.28-.28.28Z"/>
        <path class="cls-1" d="m40.18,111.07h-3.05c-.15,0-.28-.12-.28-.28s.12-.28.28-.28h3.05c.15,0,.28.12.28.28s-.12.28-.28.28Z"/>
        <path class="cls-1" d="m40.18,102.59h-3.05c-.15,0-.28-.12-.28-.28s.12-.28.28-.28h3.05c.15,0,.28.12.28.28s-.12.28-.28.28Z"/>
        <path class="cls-1" d="m40.18,98.35h-3.05c-.15,0-.28-.12-.28-.28s.12-.28.28-.28h3.05c.15,0,.28.12.28.28s-.12.28-.28.28Z"/>
        <path class="cls-1" d="m40.18,106.83h-3.05c-.15,0-.28-.12-.28-.28s.12-.28.28-.28h3.05c.15,0,.28.12.28.28s-.12.28-.28.28Z"/>
        <path class="cls-1" d="m43.22,114.57c-.15,0-.28-.12-.28-.28v-10.26c0-.15.12-.28.28-.28h3.81c.15,0,.28.12.28.28v10.08c0,.15-.12.28-.28.28s-.28-.12-.28-.28v-9.81h-3.26v9.98c0,.15-.12.28-.28.28Z"/>
        <path class="cls-1" d="m58.6,114.57c-.15,0-.28-.12-.28-.28v-11.79c0-.15.12-.28.28-.28h3.81c.15,0,.28.12.28.28v11.62c0,.15-.12.28-.28.28s-.28-.12-.28-.28v-11.34h-3.26v11.52c0,.15-.12.28-.28.28Z"/>
        <path class="cls-1" d="m66.29,114.57c-.15,0-.28-.12-.28-.28v-18.44c0-.15.12-.28.28-.28h3.81c.15,0,.28.12.28.28v18.26c0,.15-.12.28-.28.28s-.28-.12-.28-.28v-17.98h-3.26v18.16c0,.15-.12.28-.28.28Z"/>
        <path class="cls-1" d="m50.91,114.57c-.15,0-.28-.12-.28-.28v-6.7c0-.15.12-.28.28-.28h3.81c.15,0,.28.12.28.28v6.53c0,.15-.12.28-.28.28s-.28-.12-.28-.28v-6.25h-3.26v6.43c0,.15-.12.28-.28.28Z"/>
      </g>
      <g>
        <path class="cls-1" d="m178.25,114.63h-36.26c-.15,0-.28-.12-.28-.28s.12-.28.28-.28h36.26c.15,0,.28.12.28.28s-.12.28-.28.28Z"/>
        <path class="cls-1" d="m141.95,114.54c-.15,0-.28-.12-.28-.28v-24.66c0-.15.12-.28.28-.28s.28.12.28.28v24.66c0,.15-.12.28-.28.28Z"/>
        <path class="cls-1" d="m145.08,89.87h-3.05c-.15,0-.28-.12-.28-.28s.12-.28.28-.28h3.05c.15,0,.28.12.28.28s-.12.28-.28.28Z"/>
        <path class="cls-1" d="m145.08,94.11h-3.05c-.15,0-.28-.12-.28-.28s.12-.28.28-.28h3.05c.15,0,.28.12.28.28s-.12.28-.28.28Z"/>
        <path class="cls-1" d="m145.08,111.07h-3.05c-.15,0-.28-.12-.28-.28s.12-.28.28-.28h3.05c.15,0,.28.12.28.28s-.12.28-.28.28Z"/>
        <path class="cls-1" d="m145.08,102.59h-3.05c-.15,0-.28-.12-.28-.28s.12-.28.28-.28h3.05c.15,0,.28.12.28.28s-.12.28-.28.28Z"/>
        <path class="cls-1" d="m145.08,98.35h-3.05c-.15,0-.28-.12-.28-.28s.12-.28.28-.28h3.05c.15,0,.28.12.28.28s-.12.28-.28.28Z"/>
        <path class="cls-1" d="m145.08,106.83h-3.05c-.15,0-.28-.12-.28-.28s.12-.28.28-.28h3.05c.15,0,.28.12.28.28s-.12.28-.28.28Z"/>
        <path class="cls-1" d="m148.12,114.57c-.15,0-.28-.12-.28-.28v-10.26c0-.15.12-.28.28-.28h3.81c.15,0,.28.12.28.28v10.08c0,.15-.12.28-.28.28s-.28-.12-.28-.28v-9.81h-3.26v9.98c0,.15-.12.28-.28.28Z"/>
        <path class="cls-1" d="m163.5,114.57c-.15,0-.28-.12-.28-.28v-11.79c0-.15.12-.28.28-.28h3.81c.15,0,.28.12.28.28v11.62c0,.15-.12.28-.28.28s-.28-.12-.28-.28v-11.34h-3.26v11.52c0,.15-.12.28-.28.28Z"/>
        <path class="cls-1" d="m171.19,114.57c-.15,0-.28-.12-.28-.28v-18.44c0-.15.12-.28.28-.28h3.81c.15,0,.28.12.28.28v18.26c0,.15-.12.28-.28.28s-.28-.12-.28-.28v-17.98h-3.26v18.16c0,.15-.12.28-.28.28Z"/>
        <path class="cls-1" d="m155.81,114.57c-.15,0-.28-.12-.28-.28v-6.7c0-.15.12-.28.28-.28h3.81c.15,0,.28.12.28.28v6.53c0,.15-.12.28-.28.28s-.28-.12-.28-.28v-6.25h-3.26v6.43c0,.15-.12.28-.28.28Z"/>
      </g>
      <rect class="cls-4" x="157.39" y="41.86" width="7.1" height="21.81"/>
      <rect class="cls-4" x="25.14" y="47.59" width="7.1" height="16.08"/>
      <line class="cls-4" x1=".56" y1="63.67" x2="220.23" y2="63.67"/>
    </g>
  </g>
</svg>