<?xml version="1.0" encoding="UTF-8"?>
<svg id="Layer_2" data-name="Layer 2" xmlns="http://www.w3.org/2000/svg" viewBox="0 0 197.14 249.66">
  <defs>
    <style>
      .cls-1 {
        fill: #8b8a8d;
      }

      .cls-2, .cls-3 {
        fill: gray;
      }

      .cls-3 {
        opacity: .5;
      }

      .cls-4 {
        fill: none;
        stroke: #8b8a8d;
        stroke-miterlimit: 10;
        stroke-width: .25px;
      }
    </style>
  </defs>
  <g id="Layer_4" data-name="Layer 4">
    <g>
      <g>
        <path class="cls-1" d="m46.98,186.95H.4c-.2,0-.36-.16-.36-.36s.16-.36.36-.36h46.58c.2,0,.36.16.36.36s-.16.36-.36.36Z"/>
        <path class="cls-1" d="m.36,186.83c-.2,0-.36-.16-.36-.36v-31.68c0-.2.16-.36.36-.36s.36.16.36.36v31.68c0,.2-.16.36-.36.36Z"/>
        <path class="cls-1" d="m4.37,155.15H.46c-.2,0-.36-.16-.36-.36s.16-.36.36-.36h3.92c.2,0,.36.16.36.36s-.16.36-.36.36Z"/>
        <path class="cls-1" d="m4.37,160.59H.46c-.2,0-.36-.16-.36-.36s.16-.36.36-.36h3.92c.2,0,.36.16.36.36s-.16.36-.36.36Z"/>
        <path class="cls-1" d="m4.37,182.37H.46c-.2,0-.36-.16-.36-.36s.16-.36.36-.36h3.92c.2,0,.36.16.36.36s-.16.36-.36.36Z"/>
        <path class="cls-1" d="m4.37,171.48H.46c-.2,0-.36-.16-.36-.36s.16-.36.36-.36h3.92c.2,0,.36.16.36.36s-.16.36-.36.36Z"/>
        <path class="cls-1" d="m4.37,166.04H.46c-.2,0-.36-.16-.36-.36s.16-.36.36-.36h3.92c.2,0,.36.16.36.36s-.16.36-.36.36Z"/>
        <path class="cls-1" d="m4.37,176.93H.46c-.2,0-.36-.16-.36-.36s.16-.36.36-.36h3.92c.2,0,.36.16.36.36s-.16.36-.36.36Z"/>
        <path class="cls-1" d="m8.28,186.87c-.2,0-.36-.16-.36-.36v-13.18c0-.2.16-.36.36-.36h4.9c.2,0,.36.16.36.36v12.95c0,.2-.16.36-.36.36s-.36-.16-.36-.36v-12.6h-4.19v12.82c0,.2-.16.36-.36.36Z"/>
        <path class="cls-1" d="m28.03,186.87c-.2,0-.36-.16-.36-.36v-15.15c0-.2.16-.36.36-.36h4.9c.2,0,.36.16.36.36v14.92c0,.2-.16.36-.36.36s-.36-.16-.36-.36v-14.57h-4.19v14.79c0,.2-.16.36-.36.36Z"/>
        <path class="cls-1" d="m37.91,186.87c-.2,0-.36-.16-.36-.36v-23.68c0-.2.16-.36.36-.36h4.9c.2,0,.36.16.36.36v23.46c0,.2-.16.36-.36.36s-.36-.16-.36-.36v-23.1h-4.19v23.33c0,.2-.16.36-.36.36Z"/>
        <path class="cls-1" d="m18.15,186.87c-.2,0-.36-.16-.36-.36v-8.61c0-.2.16-.36.36-.36h4.9c.2,0,.36.16.36.36v8.38c0,.2-.16.36-.36.36s-.36-.16-.36-.36v-8.03h-4.19v8.25c0,.2-.16.36-.36.36Z"/>
      </g>
      <g>
        <path class="cls-1" d="m196.78,241.78h-46.58c-.2,0-.36-.16-.36-.36s.16-.36.36-.36h46.58c.2,0,.36.16.36.36s-.16.36-.36.36Z"/>
        <path class="cls-1" d="m150.16,241.66c-.2,0-.36-.16-.36-.36v-31.68c0-.2.16-.36.36-.36s.36.16.36.36v31.68c0,.2-.16.36-.36.36Z"/>
        <path class="cls-1" d="m154.17,209.98h-3.92c-.2,0-.36-.16-.36-.36s.16-.36.36-.36h3.92c.2,0,.36.16.36.36s-.16.36-.36.36Z"/>
        <path class="cls-1" d="m154.17,215.43h-3.92c-.2,0-.36-.16-.36-.36s.16-.36.36-.36h3.92c.2,0,.36.16.36.36s-.16.36-.36.36Z"/>
        <path class="cls-1" d="m154.17,237.21h-3.92c-.2,0-.36-.16-.36-.36s.16-.36.36-.36h3.92c.2,0,.36.16.36.36s-.16.36-.36.36Z"/>
        <path class="cls-1" d="m154.17,226.32h-3.92c-.2,0-.36-.16-.36-.36s.16-.36.36-.36h3.92c.2,0,.36.16.36.36s-.16.36-.36.36Z"/>
        <path class="cls-1" d="m154.17,220.87h-3.92c-.2,0-.36-.16-.36-.36s.16-.36.36-.36h3.92c.2,0,.36.16.36.36s-.16.36-.36.36Z"/>
        <path class="cls-1" d="m154.17,231.76h-3.92c-.2,0-.36-.16-.36-.36s.16-.36.36-.36h3.92c.2,0,.36.16.36.36s-.16.36-.36.36Z"/>
        <path class="cls-1" d="m158.08,241.7c-.2,0-.36-.16-.36-.36v-13.18c0-.2.16-.36.36-.36h4.9c.2,0,.36.16.36.36v12.95c0,.2-.16.36-.36.36s-.36-.16-.36-.36v-12.6h-4.19v12.82c0,.2-.16.36-.36.36Z"/>
        <path class="cls-1" d="m177.83,241.7c-.2,0-.36-.16-.36-.36v-15.15c0-.2.16-.36.36-.36h4.9c.2,0,.36.16.36.36v14.92c0,.2-.16.36-.36.36s-.36-.16-.36-.36v-14.57h-4.19v14.79c0,.2-.16.36-.36.36Z"/>
        <path class="cls-1" d="m187.71,241.7c-.2,0-.36-.16-.36-.36v-23.68c0-.2.16-.36.36-.36h4.9c.2,0,.36.16.36.36v23.46c0,.2-.16.36-.36.36s-.36-.16-.36-.36v-23.1h-4.19v23.33c0,.2-.16.36-.36.36Z"/>
        <path class="cls-1" d="m167.96,241.7c-.2,0-.36-.16-.36-.36v-8.61c0-.2.16-.36.36-.36h4.9c.2,0,.36.16.36.36v8.38c0,.2-.16.36-.36.36s-.36-.16-.36-.36v-8.03h-4.19v8.25c0,.2-.16.36-.36.36Z"/>
      </g>
      <g>
        <path class="cls-1" d="m48.28,241.78H1.7c-.2,0-.36-.16-.36-.36s.16-.36.36-.36h46.58c.2,0,.36.16.36.36s-.16.36-.36.36Z"/>
        <path class="cls-1" d="m1.66,241.66c-.2,0-.36-.16-.36-.36v-31.68c0-.2.16-.36.36-.36s.36.16.36.36v31.68c0,.2-.16.36-.36.36Z"/>
        <path class="cls-1" d="m5.67,209.98H1.76c-.2,0-.36-.16-.36-.36s.16-.36.36-.36h3.92c.2,0,.36.16.36.36s-.16.36-.36.36Z"/>
        <path class="cls-1" d="m5.67,215.43H1.76c-.2,0-.36-.16-.36-.36s.16-.36.36-.36h3.92c.2,0,.36.16.36.36s-.16.36-.36.36Z"/>
        <path class="cls-1" d="m5.67,237.21H1.76c-.2,0-.36-.16-.36-.36s.16-.36.36-.36h3.92c.2,0,.36.16.36.36s-.16.36-.36.36Z"/>
        <path class="cls-1" d="m5.67,226.32H1.76c-.2,0-.36-.16-.36-.36s.16-.36.36-.36h3.92c.2,0,.36.16.36.36s-.16.36-.36.36Z"/>
        <path class="cls-1" d="m5.67,220.87H1.76c-.2,0-.36-.16-.36-.36s.16-.36.36-.36h3.92c.2,0,.36.16.36.36s-.16.36-.36.36Z"/>
        <path class="cls-1" d="m5.67,231.76H1.76c-.2,0-.36-.16-.36-.36s.16-.36.36-.36h3.92c.2,0,.36.16.36.36s-.16.36-.36.36Z"/>
        <path class="cls-1" d="m13.32,241.7c-.2,0-.36-.16-.36-.36v-19.68c0-.2.16-.36.36-.36h9.96c.2,0,.36.16.36.36v19.38c0,.2-.16.36-.36.36s-.36-.16-.36-.36v-19.03h-9.25v19.32c0,.2-.16.36-.36.36Z"/>
        <path class="cls-1" d="m33.42,241.7c-.2,0-.36-.16-.36-.36v-30.76c0-.2.16-.36.36-.36h9.96c.2,0,.36.16.36.36v30.47c0,.2-.16.36-.36.36s-.36-.16-.36-.36v-30.12h-9.25v30.41c0,.2-.16.36-.36.36Z"/>
        <path class="cls-1" d="m21,231.96c-.81,0-1.66-.42-2.51-1.25-.84-.82-1.72-1.22-2.57-1.18-1.28.06-2.15,1.06-2.16,1.07-.13.15-.35.17-.5.04-.15-.13-.17-.35-.04-.5.04-.05,1.07-1.24,2.66-1.31,1.06-.07,2.11.41,3.1,1.38.82.8,1.59,1.14,2.3,1.03,1.06-.18,1.66-1.37,1.67-1.39.09-.18.3-.25.47-.16.18.09.25.3.16.47-.03.06-.77,1.53-2.18,1.77-.13.02-.27.03-.4.03Z"/>
        <path class="cls-1" d="m41.1,221.46c-.81,0-1.66-.42-2.51-1.25-.84-.82-1.72-1.24-2.57-1.18-1.28.06-2.15,1.06-2.16,1.07-.13.15-.35.17-.5.04-.15-.13-.17-.35-.04-.5.04-.05,1.07-1.24,2.66-1.31,1.06-.04,2.11.41,3.1,1.38.82.8,1.59,1.15,2.29,1.03,1.06-.18,1.67-1.37,1.67-1.39.09-.18.3-.25.48-.16.18.09.25.3.16.47-.03.06-.77,1.53-2.18,1.77-.13.02-.27.03-.4.03Z"/>
      </g>
      <g>
        <path class="cls-1" d="m196.63,187.15h-46.58c-.2,0-.36-.16-.36-.36s.16-.36.36-.36h46.58c.2,0,.36.16.36.36s-.16.36-.36.36Z"/>
        <path class="cls-1" d="m150.01,187.04c-.2,0-.36-.16-.36-.36v-31.68c0-.2.16-.36.36-.36s.36.16.36.36v31.68c0,.2-.16.36-.36.36Z"/>
        <path class="cls-1" d="m154.02,155.36h-3.92c-.2,0-.36-.16-.36-.36s.16-.36.36-.36h3.92c.2,0,.36.16.36.36s-.16.36-.36.36Z"/>
        <path class="cls-1" d="m154.02,160.8h-3.92c-.2,0-.36-.16-.36-.36s.16-.36.36-.36h3.92c.2,0,.36.16.36.36s-.16.36-.36.36Z"/>
        <path class="cls-1" d="m154.02,182.58h-3.92c-.2,0-.36-.16-.36-.36s.16-.36.36-.36h3.92c.2,0,.36.16.36.36s-.16.36-.36.36Z"/>
        <path class="cls-1" d="m154.02,171.69h-3.92c-.2,0-.36-.16-.36-.36s.16-.36.36-.36h3.92c.2,0,.36.16.36.36s-.16.36-.36.36Z"/>
        <path class="cls-1" d="m154.02,166.25h-3.92c-.2,0-.36-.16-.36-.36s.16-.36.36-.36h3.92c.2,0,.36.16.36.36s-.16.36-.36.36Z"/>
        <path class="cls-1" d="m154.02,177.14h-3.92c-.2,0-.36-.16-.36-.36s.16-.36.36-.36h3.92c.2,0,.36.16.36.36s-.16.36-.36.36Z"/>
        <path class="cls-1" d="m161.67,187.08c-.2,0-.36-.16-.36-.36v-19.68c0-.2.16-.36.36-.36h9.96c.2,0,.36.16.36.36v19.38c0,.2-.16.36-.36.36s-.36-.16-.36-.36v-19.03h-9.25v19.32c0,.2-.16.36-.36.36Z"/>
        <path class="cls-1" d="m181.77,187.08c-.2,0-.36-.16-.36-.36v-30.76c0-.2.16-.36.36-.36h9.96c.2,0,.36.16.36.36v30.47c0,.2-.16.36-.36.36s-.36-.16-.36-.36v-30.12h-9.25v30.41c0,.2-.16.36-.36.36Z"/>
        <path class="cls-1" d="m169.35,177.34c-.81,0-1.66-.42-2.51-1.25-.84-.82-1.72-1.22-2.57-1.18-1.28.06-2.15,1.06-2.16,1.07-.13.15-.35.17-.5.04-.15-.13-.17-.35-.04-.5.04-.05,1.07-1.24,2.66-1.31,1.06-.07,2.11.41,3.1,1.38.82.8,1.59,1.14,2.3,1.03,1.06-.18,1.66-1.37,1.67-1.39.09-.18.3-.25.47-.16.18.09.25.3.16.47-.03.06-.77,1.53-2.18,1.77-.13.02-.27.03-.4.03Z"/>
        <path class="cls-1" d="m189.45,166.83c-.81,0-1.66-.42-2.51-1.25-.84-.82-1.72-1.24-2.57-1.18-1.28.06-2.15,1.06-2.16,1.07-.13.15-.35.17-.5.04-.15-.13-.17-.35-.04-.5.04-.05,1.07-1.24,2.66-1.31,1.06-.04,2.11.41,3.1,1.38.82.8,1.59,1.15,2.29,1.03,1.06-.18,1.67-1.37,1.67-1.39.09-.18.3-.25.48-.16.18.09.25.3.16.47-.03.06-.77,1.53-2.18,1.77-.13.02-.27.03-.4.03Z"/>
      </g>
      <path class="cls-1" d="m63.9,86.71h-8.33c-.2,0-.36-.16-.36-.36s.16-.36.36-.36h8.33c.2,0,.36.16.36.36s-.16.36-.36.36Z"/>
      <path class="cls-1" d="m146.12,86.71h-8.33c-.2,0-.36-.16-.36-.36s.16-.36.36-.36h8.33c.2,0,.36.16.36.36s-.16.36-.36.36Z"/>
      <path class="cls-1" d="m146.12,70.41h-4.68c-.2,0-.36-.16-.36-.36s.16-.36.36-.36h4.68c.2,0,.36.16.36.36s-.16.36-.36.36Z"/>
      <path class="cls-1" d="m146.12,104.75h-4.68c-.2,0-.36-.16-.36-.36s.16-.36.36-.36h4.68c.2,0,.36.16.36.36s-.16.36-.36.36Z"/>
      <path class="cls-1" d="m60.26,70.41h-4.68c-.2,0-.36-.16-.36-.36s.16-.36.36-.36h4.68c.2,0,.36.16.36.36s-.16.36-.36.36Z"/>
      <path class="cls-1" d="m60.26,104.75h-4.68c-.2,0-.36-.16-.36-.36s.16-.36.36-.36h4.68c.2,0,.36.16.36.36s-.16.36-.36.36Z"/>
      <path class="cls-1" d="m53.84,52.71c-.2,0-.36-.16-.36-.36v-11.1c0-.2.16-.36.36-.36h11.1c.2,0,.36.16.36.36s-.16.36-.36.36h-10.75v10.75c0,.2-.16.36-.36.36Z"/>
      <path class="cls-1" d="m148.2,52.71c-.2,0-.36-.16-.36-.36v-10.75h-10.75c-.2,0-.36-.16-.36-.36s.16-.36.36-.36h11.1c.2,0,.36.16.36.36v11.1c0,.2-.16.36-.36.36Z"/>
      <path class="cls-1" d="m148.2,134.59h-11.1c-.2,0-.36-.16-.36-.36s.16-.36.36-.36h10.75v-10.75c0-.2.16-.36.36-.36s.36.16.36.36v11.1c0,.2-.16.36-.36.36Z"/>
      <path class="cls-1" d="m64.94,134.59h-11.1c-.2,0-.36-.16-.36-.36v-11.1c0-.2.16-.36.36-.36s.36.16.36.36v10.75h10.75c.2,0,.36.16.36.36s-.16.36-.36.36Z"/>
      <g>
        <path class="cls-3" d="m112.88,53.63c0,.52-5.95.8-11.54.8s-11.55-.27-11.55-.79h.08c0,.34,4.71.71,11.47.71s11.47-.39,11.47-.73h.08Z"/>
        <path class="cls-3" d="m112.87,51.3c0,.52-5.95.8-11.54.8s-11.55-.27-11.55-.79h.08c0,.34,4.71.71,11.47.71,6.76,0,11.47-.39,11.47-.73h.08Z"/>
        <path class="cls-3" d="m112.87,48.97c0,.52-5.95.8-11.54.8-5.6,0-11.55-.27-11.55-.79h.08c0,.34,4.71.71,11.47.71s11.47-.39,11.47-.73h.08Z"/>
        <path class="cls-3" d="m112.87,46.64c0,.52-5.95.8-11.54.8-5.6,0-11.55-.27-11.55-.79h.08c0,.34,4.71.71,11.47.71s11.47-.39,11.47-.73h.08Z"/>
        <path class="cls-3" d="m112.87,44.31c0,.52-5.95.8-11.54.8-5.6,0-11.55-.27-11.55-.79h.08c0,.34,4.71.71,11.47.71,6.76,0,11.47-.39,11.47-.73h.08Z"/>
        <path class="cls-3" d="m112.87,41.98c0,.52-5.95.8-11.54.8-5.6,0-11.55-.27-11.55-.79h.08c0,.34,4.71.71,11.47.71s11.47-.39,11.47-.73h.08Z"/>
        <path class="cls-3" d="m112.86,39.65c0,.52-5.95.8-11.54.8-5.6,0-11.55-.27-11.55-.79h.08c0,.34,4.71.71,11.47.71,6.76,0,11.47-.39,11.47-.73h.08Z"/>
        <path class="cls-3" d="m112.86,37.32c0,.52-5.95.8-11.54.8-5.6,0-11.55-.27-11.55-.79h.08c0,.34,4.71.71,11.47.71s11.47-.39,11.47-.73h.08Z"/>
        <path class="cls-2" d="m113.52,34.95c0,.07-.01.14-.04.2-.04.11-.09.22-.14.33-.09.21-.18.43-.26.66l-.15.47v17.01c.01.05-.03,1.28-1.16,2.9-1.88,2.69-5.27,4.3-7.78,5.19-.42.15-.7.54-.7.99v.12s-3.91,0-3.91,0v-.12c0-.44-.28-.84-.7-.99-2.52-.88-5.91-2.49-7.79-5.17-1.13-1.62-1.18-2.84-1.18-2.9v-17.01s-.17-.47-.17-.47c-.07-.22-.17-.44-.26-.66-.05-.11-.09-.22-.14-.33-.03-.06-.04-.13-.04-.2,0-.32.27-.57.61-.57h1.14s7.67-7.11,7.67-7.11h5.57s7.68,7.1,7.68,7.1h1.14c.34,0,.61.26.61.57Zm-.81,1.63v-.04s.16-.49.16-.49c.08-.23.17-.46.26-.67.05-.11.09-.21.13-.32.01-.04.02-.08.02-.12,0-.19-.17-.34-.38-.34h-1.23s-7.68-7.1-7.68-7.1h-5.39s-7.67,7.12-7.67,7.12h-1.23c-.21,0-.38.15-.38.34,0,.04,0,.08.02.12.04.11.09.21.13.32.09.22.19.44.26.67l.17.52v17.03s.25,4.86,8.83,7.85c.48.17.81.6.85,1.09h3.45c.04-.5.38-.93.85-1.09,8.57-3.01,8.8-7.82,8.8-7.87v-17.03Z"/>
        <path class="cls-3" d="m109.25,36.59v16.54c.02,2-.75,3.9-2.15,5.36-1.4,1.46-3.32,2.6-5.72,3.41l-.02-.07c2.38-.8,4.29-1.94,5.69-3.39,1.39-1.44,2.15-3.32,2.15-5.3v-16.54s.06,0,.06,0Z"/>
        <path class="cls-3" d="m107.96,36.59v16.93c.02,1.34-.33,2.65-.99,3.78-.81,1.39-2.43,3.31-5.59,4.59l-.03-.07c3.14-1.26,4.75-3.17,5.55-4.55.65-1.12.99-2.41.99-3.74v-16.93s.06,0,.06,0Z"/>
        <path class="cls-3" d="m106.67,36.59v17.26c.02.81-.11,1.6-.36,2.35-.58,1.76-1.91,4.17-4.96,5.69l-.03-.07c3.02-1.51,4.35-3.9,4.92-5.64.25-.74.37-1.52.37-2.33v-17.26s.06,0,.06,0Z"/>
        <path class="cls-3" d="m105.32,36.59v17.54c.01.42-.02.83-.08,1.22-.22,1.34-1.04,4.65-3.81,6.53l-.04-.06c2.74-1.86,3.56-5.15,3.78-6.48.07-.39.1-.8.1-1.21v-17.54s.06,0,.06,0Z"/>
        <path class="cls-3" d="m104.06,36.59v17.98c.01.05-.21,4.88-2.67,7.32l-.05-.05c2.44-2.41,2.66-7.21,2.66-7.26v-17.97s.06,0,.06,0Z"/>
        <path class="cls-3" d="m102.64,36.6v17.98s-.09,4.87-1.27,7.3l-.07-.03c1.17-2.41,1.28-7.22,1.28-7.27v-17.97s.06,0,.06,0Z"/>
        <path class="cls-3" d="m110.6,36.59v16.14c.02,2.39-1.1,4.64-3.05,6.18-1.59,1.25-3.68,2.26-6.21,2.98l-.02-.07c2.52-.72,4.6-1.72,6.18-2.97,1.93-1.52,3.04-3.75,3.03-6.12v-16.14s.06,0,.06,0Z"/>
        <path class="cls-3" d="m111.93,36.59v15.84c.02,2.55-1.29,4.98-3.47,6.5-1.81,1.25-4.18,2.25-7.04,2.98l-.02-.07c2.86-.72,5.22-1.72,7.02-2.96,2.17-1.5,3.46-3.9,3.45-6.43v-15.84s.06,0,.06,0Z"/>
        <path class="cls-3" d="m101.4,61.82l-.02.07c-2.39-.8-4.32-1.95-5.72-3.4-1.4-1.45-2.17-3.35-2.18-5.35v-16.54s.06,0,.06,0v16.54c.02,1.98.78,3.86,2.17,5.3,1.39,1.45,3.31,2.58,5.69,3.38Z"/>
        <path class="cls-3" d="m101.4,61.82l-.03.07c-3.16-1.27-4.79-3.19-5.6-4.58-.66-1.13-1.01-2.44-1.01-3.78v-16.93s.06,0,.06,0v16.93c.02,1.33.36,2.62,1.01,3.74.8,1.38,2.42,3.29,5.56,4.55Z"/>
        <path class="cls-3" d="m101.44,61.82l-.03.07c-3.05-1.51-4.39-3.92-4.97-5.68-.25-.75-.38-1.54-.38-2.35v-17.26s.06,0,.06,0v17.26c.02.8.14,1.58.39,2.33.58,1.74,1.9,4.13,4.93,5.63Z"/>
        <path class="cls-3" d="m101.38,61.83l-.04.06c-2.77-1.87-3.6-5.19-3.82-6.53-.07-.39-.1-.8-.1-1.22v-17.54s.06,0,.06,0v17.54c.01.41.05.82.11,1.21.22,1.33,1.04,4.62,3.79,6.48Z"/>
        <path class="cls-3" d="m101.42,61.83l-.05.05c-2.46-2.43-2.69-7.26-2.69-7.31v-17.98s.06,0,.06,0v17.98s.24,4.85,2.68,7.26Z"/>
        <path class="cls-3" d="m101.46,61.84l-.07.03c-1.19-2.43-1.3-7.25-1.3-7.3v-17.98s.06,0,.06,0v17.98s.13,4.86,1.31,7.27Z"/>
        <path class="cls-3" d="m101.43,61.82l-.02.07c-2.53-.72-4.62-1.72-6.21-2.97-1.95-1.53-3.07-3.78-3.07-6.17v-16.14s.06,0,.06,0v16.14c.02,2.37,1.12,4.6,3.06,6.11,1.59,1.25,3.67,2.24,6.19,2.96Z"/>
        <path class="cls-3" d="m101.37,61.82l-.02.07c-2.87-.72-5.24-1.72-7.05-2.96-2.19-1.51-3.5-3.94-3.5-6.49v-15.84s.06,0,.06,0v15.84c.02,2.53,1.31,4.93,3.48,6.43,1.8,1.24,4.16,2.24,7.02,2.95Z"/>
        <rect class="cls-2" x="89.85" y="36.54" width="22.95" height=".08"/>
        <rect class="cls-2" x="89.76" y="36.34" width="23.16" height=".08"/>
        <rect class="cls-2" x="90.88" y="34.53" width="20.87" height=".08"/>
        <rect class="cls-2" x="91.12" y="34.29" width="20.47" height=".08"/>
        <rect class="cls-3" x="101.32" y="36.64" width=".08" height="25.12"/>
        <rect class="cls-2" x="106.48" y="26.57" width=".08" height="8.62" transform="translate(3.5 71.95) rotate(-37.9)"/>
        <rect class="cls-2" x="104.64" y="26.93" width=".08" height="7.89" transform="translate(-1.23 57.25) rotate(-30.42)"/>
        <rect class="cls-2" x="102.38" y="27.3" width=".08" height="7.17" transform="translate(-4.52 33.66) rotate(-18.27)"/>
        <rect class="cls-2" x="91.68" y="30.85" width="8.62" height=".08" transform="translate(12.77 87.84) rotate(-52.22)"/>
        <rect class="cls-2" x="93.89" y="30.85" width="7.89" height=".08" transform="translate(21.73 99.69) rotate(-59.63)"/>
        <rect class="cls-2" x="96.51" y="30.85" width="7.17" height=".08" transform="translate(39.61 116.41) rotate(-71.88)"/>
        <path class="cls-2" d="m104.12,62.73s-.03.06-.06.06h-5.45s-.06-.02-.06-.05.03-.06.06-.06h5.45s.06.02.06.05Z"/>
        <path class="cls-2" d="m103.84,26.92v.47s-5.2,0-5.2,0v-.47s5.2,0,5.2,0Zm-.15.32v-.16s-4.9,0-4.9,0v.16s4.9,0,4.9,0Z"/>
        <g>
          <g>
            <path class="cls-1" d="m96.77,66.5h-.72c-.09,0-.17-.06-.18-.15l-.58-3.58c0-.05,0-.11.04-.15.04-.04.09-.07.14-.07h.8c.09,0,.17.06.18.15l.06.36s.02.05.05.06l3.32,1.32c.07.03.12.1.12.17v.78c0,.1-.08.18-.18.19h-1.7s-.03,0-.04.02l-1.2.87s-.07.04-.11.04Zm-1.3-3.83s-.04,0-.06.03c-.01.02-.02.04-.02.06h0s.58,3.58.58,3.58c0,.04.04.06.07.06h.72s.03,0,.04-.01l1.2-.87s.07-.04.11-.04h1.7s.07-.03.07-.07v-.78s-.02-.06-.05-.07l-3.32-1.32c-.06-.02-.1-.08-.11-.14l-.06-.36s-.04-.06-.07-.06h-.8Z"/>
            <path class="cls-1" d="m96.58,65.96s-.05,0-.07-.01c-.06-.02-.1-.07-.11-.13l-.29-1.53c-.01-.07.02-.15.08-.19.06-.04.14-.04.2,0l1.26.91s.08.09.08.15c0,.06-.03.12-.08.15l-.97.62s-.06.03-.1.03Zm-.36-1.7l.29,1.53s.02.04.04.05c.02,0,.05,0,.07,0l.97-.62s.03-.03.03-.06-.01-.05-.03-.06l-1.26-.91s-.07,0-.08,0c0,0-.04.03-.03.07h0Z"/>
            <path class="cls-1" d="m98.8,65.25s-.1-.02-.14-.05c-.38-.31-1.3-1.04-1.65-1.3h0s-.04-.06-.02-.1c.02-.03.06-.05.09-.04l2.11.78c.08.03.13.09.14.17.01.08-.01.16-.07.21l-.31.27s-.1.06-.15.06Zm-1.54-1.3c.42.33,1.14.9,1.46,1.16.04.03.1.03.15,0l.31-.27s.04-.07.04-.11c0-.04-.03-.07-.07-.09l-1.89-.69Z"/>
            <path class="cls-1" d="m103.29,71.53h-.11s0-3,0-3c0-1.15-1.07-1.18-1.19-1.18h-2.84c-.14,0-.25-.11-.25-.25v-1.61s.83,0,.83,0v1.04s2.26,0,2.26,0c.7,0,2.01.42,2.02,2.01v2.99s-.11,0-.11,0v-2.99c0-1.51-1.25-1.9-1.91-1.9h-2.37s0-1.03,0-1.03h-.61s0,1.5,0,1.5c0,.08.06.14.14.14h2.84c.13,0,1.3.03,1.3,1.29v3Z"/>
            <path class="cls-1" d="m105.54,73.3h-2.38c-.12,0-.22-.1-.22-.22v-.18c0-.12.1-.22.22-.22h2.38c.12,0,.22.1.22.22v.18c0,.12-.1.22-.22.22Zm-2.38-.5c-.06,0-.11.05-.11.11v.18c0,.06.05.11.11.11h2.38c.06,0,.11-.05.11-.11v-.18c0-.06-.05-.11-.11-.11h-2.38Z"/>
            <path class="cls-1" d="m105.72,70.14h-1.76s0-.11,0-.11h1.76c.11,0,.2-.09.2-.2s-.09-.2-.2-.2h-1.76s0-.11,0-.11h1.76c.17,0,.31.14.31.31s-.14.31-.31.31Z"/>
            <path class="cls-1" d="m105.36,68.08h-1.46s0-.12,0-.12h1.46c.11,0,.2-.08.2-.19s-.09-.2-.2-.2h-1.64s0-.11,0-.11h1.64c.17,0,.31.14.31.31s-.14.31-.31.31Z"/>
            <path class="cls-1" d="m105.36,72.62h-2.03c-.22,0-.4-.18-.4-.39v-.37c0-.22.18-.4.39-.4h2.03c.22,0,.4.18.4.39v.37c0,.22-.18.4-.39.4Zm-2.03-1.05c-.16,0-.28.13-.28.28v.37c0,.16.13.28.28.28h2.03c.16,0,.28-.13.28-.29v-.37c0-.16-.13-.28-.28-.28h-2.03Z"/>
            <path class="cls-1" d="m105.49,66.85h-2.28c-.15,0-.27-.12-.27-.27v-.23c0-.15.12-.27.27-.27h2.28c.15,0,.27.12.27.27v.23c0,.15-.12.27-.27.27Zm-2.28-.66c-.09,0-.16.07-.16.16v.23c0,.09.07.16.16.16h2.28c.09,0,.16-.07.16-.16v-.23c0-.09-.07-.16-.16-.16h-2.28Z"/>
            <path class="cls-1" d="m105.54,74.69h-2.38c-.12,0-.22-.1-.22-.22v-.18c0-.12.1-.22.22-.22h2.38c.12,0,.22.1.22.22v.18c0,.12-.1.22-.22.22Zm-2.38-.5c-.06,0-.11.05-.11.11v.18c0,.06.05.11.11.11h2.38c.06,0,.11-.05.11-.11v-.18c0-.06-.05-.11-.11-.11h-2.38Z"/>
            <path class="cls-1" d="m105.54,75.66h-3c-.12,0-.22-.1-.22-.22v-.18c0-.12.1-.22.22-.22h3c.12,0,.22.1.22.22v.18c0,.12-.1.22-.22.22Zm-3-.5c-.06,0-.11.05-.11.11v.18c0,.06.05.11.11.11h3c.06,0,.11-.05.11-.11v-.18c0-.06-.05-.11-.11-.11h-3Z"/>
            <path class="cls-1" d="m103.95,71.31v-.11s1.31-.02,1.31-.02c.21,0,.38-.17.38-.38s-.17-.38-.38-.38h-1.31s0-.11,0-.11h1.31c.27,0,.49.22.49.49s-.22.49-.49.49l-1.31.02Z"/>
            <path class="cls-1" d="m103.22,71.25c-.18-.08-.28-.24-.28-.44,0-.18.1-.35.26-.44l.05.1c-.13.07-.2.2-.2.34,0,.16.08.28.21.34l-.04.1Z"/>
            <path class="cls-1" d="m102.6,73.62h-3.7s-.07-.03-.07-.07v-3.59s.03-.07.07-.07h1.29s0,.11,0,.11h-1.25s0,3.52,0,3.52h3.62s0-3.52,0-3.52h-1.26s0-.11,0-.11h1.29s.07.03.07.07v3.59s-.03.07-.07.07Z"/>
            <path class="cls-1" d="m100.74,68.11c-.38,0-.76-.09-.76-.28,0-.36,1.51-.36,1.51,0,0,.18-.38.28-.76.28Zm0-.44c-.4,0-.64.11-.64.17s.24.17.64.16.64-.11.64-.17-.24-.17-.64-.16Z"/>
            <path class="cls-1" d="m100.74,68.6c-.35,0-.74-.08-.76-.27,0-.05,0-.46,0-.5h.11c0,.17,0,.46,0,.49,0,.06.23.17.65.17s.64-.11.64-.17v-.5s.11,0,.11,0v.5c0,.18-.38.28-.76.28Z"/>
            <path class="cls-1" d="m100.74,71.19c-.28,0-.6-.07-.61-.23,0-.04,0-2.08,0-2.49h.11c0,.83,0,2.42,0,2.48,0,.03.16.12.5.12s.5-.09.5-.12v-2.48s.11,0,.11,0v2.48c0,.16-.32.23-.61.23Z"/>
            <path class="cls-1" d="m100.74,71.05c-.28,0-.6-.07-.61-.23h.11s.16.11.5.11.5-.09.5-.12h.11c0,.16-.32.23-.61.23Z"/>
            <path class="cls-1" d="m100.74,70.91c-.28,0-.6-.07-.61-.23h.11s.16.11.5.11.5-.09.5-.12h.11c0,.16-.32.23-.61.23Z"/>
            <path class="cls-1" d="m100.74,70.76c-.28,0-.6-.07-.61-.23h.11s.16.11.5.11.5-.09.5-.12h.11c0,.16-.32.23-.61.23Z"/>
            <path class="cls-1" d="m100.73,70.62c-.28,0-.6-.07-.61-.23h.11s.16.11.5.11.5-.09.5-.12h.11c0,.16-.32.23-.61.23Z"/>
            <path class="cls-1" d="m100.73,70.47c-.28,0-.6-.07-.61-.23h.11s.16.11.5.11.5-.09.5-.12h.11c0,.16-.32.23-.61.23Z"/>
            <path class="cls-1" d="m100.73,70.32c-.28,0-.6-.07-.61-.23h.11s.16.11.5.11.5-.09.5-.12h.11c0,.16-.32.23-.61.23Z"/>
            <path class="cls-1" d="m100.73,70.18c-.28,0-.6-.07-.61-.23h.11s.16.11.5.11.5-.09.5-.12h.11c0,.16-.32.23-.61.23Z"/>
            <path class="cls-1" d="m100.73,70.03c-.28,0-.6-.07-.61-.23h.11s.16.11.5.11.5-.09.5-.12h.11c0,.16-.32.23-.61.23Z"/>
            <path class="cls-1" d="m100.73,69.89c-.28,0-.6-.07-.61-.23h.11s.16.11.5.11.5-.09.5-.12h.11c0,.16-.32.23-.61.23Z"/>
            <path class="cls-1" d="m100.73,69.74c-.28,0-.6-.07-.61-.23h.11s.16.11.5.11.5-.09.5-.12h.11c0,.16-.32.23-.61.23Z"/>
            <path class="cls-1" d="m100.73,69.6c-.28,0-.6-.07-.61-.23h.11s.16.11.5.11.5-.09.5-.12h.11c0,.16-.32.23-.61.23Z"/>
            <path class="cls-1" d="m100.73,69.45c-.28,0-.6-.07-.61-.23h.11s.16.11.5.11.5-.09.5-.12h.11c0,.16-.32.23-.61.23Z"/>
            <path class="cls-1" d="m100.73,69.31c-.28,0-.6-.07-.61-.23h.11s.16.11.5.11.5-.09.5-.12h.11c0,.16-.32.23-.61.23Z"/>
            <path class="cls-1" d="m100.73,69.16c-.28,0-.6-.07-.61-.23h.11s.16.11.5.11.5-.09.5-.12h.11c0,.16-.32.23-.61.23Z"/>
            <path class="cls-1" d="m100.73,69.01c-.28,0-.6-.07-.61-.23h.11s.16.11.5.11.5-.09.5-.12h.11c0,.16-.32.23-.61.23Z"/>
            <path class="cls-1" d="m100.73,68.87c-.28,0-.6-.07-.61-.23h.11s.16.11.5.11.5-.09.5-.12h.11c0,.16-.32.23-.61.23Z"/>
            <path class="cls-1" d="m100.73,68.72c-.28,0-.6-.07-.61-.23h.11s.16.11.5.11.5-.09.5-.12h.11c0,.16-.32.23-.61.23Z"/>
            <path class="cls-1" d="m100.74,72.33c-.21,0-.43-.05-.44-.17,0-.03,0-.76,0-1.08h.11c0,.41,0,1.03,0,1.07.01.02.12.07.33.07s.32-.05.33-.07v-1.06s.11,0,.11,0v1.07c0,.14-.27.18-.44.18Z"/>
            <path class="cls-1" d="m100.74,73.02c-.13,0-.27-.03-.28-.12,0-.01,0-.36,0-.64h.11c0,.22,0,.55,0,.62.02.01.07.03.17.03.09,0,.15-.02.17-.03v-.62s.11,0,.11,0v.63c0,.09-.14.13-.28.13Z"/>
            <rect class="cls-1" x="105.09" y="71.24" width=".11" height=".28"/>
            <rect class="cls-1" x="105.09" y="72.57" width=".11" height=".15"/>
            <rect class="cls-1" x="105.12" y="70.09" width=".11" height=".28"/>
            <rect class="cls-1" x="105.5" y="67.94" width=".11" height=".72"/>
            <rect class="cls-1" x="105.29" y="66.79" width=".11" height=".72"/>
            <rect class="cls-1" x="103.28" y="66.79" width=".11" height=".29"/>
            <rect class="cls-1" x="105.47" y="69.35" width=".11" height=".23"/>
            <rect class="cls-1" x="105.32" y="73.24" width=".11" height=".87"/>
            <rect class="cls-1" x="103.26" y="73.25" width=".11" height=".87"/>
            <rect class="cls-1" x="105.15" y="74.64" width=".11" height=".47"/>
            <rect class="cls-1" x="103.46" y="74.64" width=".11" height=".47"/>
            <path class="cls-1" d="m100.78,76.87h-2.05s.04-.08.04-.08c0,0,.38-.82.65-1.3.25-.46.02-.94.01-.95l-.49-.95.1-.05.49.95s.26.54-.02,1.05c-.22.39-.51,1-.61,1.22h1.88s0,.11,0,.11Z"/>
            <path class="cls-1" d="m102.66,76.87h-2.07s0-.11,0-.11h1.86c-.15-.23-.51-.82-.52-.99h.11c0,.13.35.69.56,1.02l.06.09Z"/>
            <path class="cls-1" d="m101.94,74.81h-.11c0-.19.09-.37.09-.37l.44-.91.1.05-.44.91s-.08.16-.08.32Z"/>
            <path class="cls-1" d="m105.72,69.41s-.03,0-.03,0h-1.75s0-.11,0-.11h1.75s.09,0,.14-.04c.04-.03.05-.08.05-.15,0-.24-.11-.31-.51-.45-.39-.14-1.5-.52-1.5-.52l.04-.11s1.11.38,1.5.52c.4.14.58.24.58.55,0,.1-.03.19-.09.24-.07.06-.15.07-.19.07Z"/>
            <path class="cls-1" d="m99.1,69.95l-.11-.04.11-.33c.02-.06.03-.13.02-.2l-.02-.15c-.02-.16.03-.32.14-.45l.74-.83.08.07-.74.83c-.09.1-.13.23-.11.36l.02.15c.01.08,0,.17-.02.25l-.11.33Z"/>
            <path class="cls-1" d="m102.42,69.95l-.11-.33c-.03-.08-.04-.17-.02-.25l.02-.15h.11s-.02.17-.02.17c0,.07,0,.14.02.2l.11.33-.11.04Z"/>
            <path class="cls-1" d="m101.45,68.02v-.11s.88-.11.88-.11c.16-.02.32-.01.47.01l.33.06-.02.11-.33-.06c-.14-.03-.29-.03-.44-.01l-.89.11Z"/>
            <path class="cls-1" d="m103.2,69.84c-.73-.48-1.85-1.21-1.93-1.24l.02-.04v-.07s.06,0,1.97,1.25l-.06.09Z"/>
            <g>
              <path class="cls-1" d="m97.18,71.22c-.1,0-.18-.02-.21-.09-.02-.03-.76-1.93-.91-2.32l.1-.04c.3.78.89,2.26.91,2.31.02.03.2.06.51-.07.32-.13.43-.27.42-.3l-.91-2.31.1-.04.91,2.31c.06.15-.21.33-.49.44-.15.06-.31.1-.44.1Z"/>
              <path class="cls-1" d="m97.74,72.25c-.08,0-.14-.02-.16-.07-.01-.02-.28-.71-.39-1l.1-.04c.15.38.38.96.39.99.02.01.14.02.33-.06.19-.07.28-.16.28-.19l-.39-.99.1-.04.39,1s.01.1-.09.18c-.06.05-.15.1-.25.14-.11.04-.22.07-.31.07Z"/>
              <path class="cls-1" d="m98.11,72.87c-.05,0-.1-.01-.12-.05,0-.01-.13-.33-.23-.59l.1-.04c.08.21.2.51.23.57.02,0,.08,0,.17-.03.08-.03.13-.07.15-.09l-.23-.58.1-.04.23.59c.03.09-.09.17-.22.22-.06.02-.13.04-.19.04Z"/>
              <path class="cls-1" d="m96.07,68.86c-.08,0-.16-.05-.19-.13l-.12-.29c-.02-.05-.02-.11,0-.16.02-.05.06-.09.11-.11l.97-.41c.05-.02.11-.02.16,0,.05.02.09.06.11.11l.12.29c.02.05.02.11,0,.16-.02.05-.06.09-.11.11l-.97.41s-.05.02-.08.02Zm.85-1.01s-.03,0-.04,0l-.97.41s-.04.03-.05.05c-.01.02,0,.05,0,.08l.12.29c.02.05.08.07.13.05l.97-.41s.04-.03.05-.05,0-.05,0-.08l-.12-.29s-.05-.06-.09-.06Z"/>
              <path class="cls-1" d="m96.07,68.19c-.07,0-.13-.04-.16-.11l-.05-.12c-.04-.09,0-.19.09-.23l.52-.22s.09-.02.13,0c.04.02.08.05.09.09l.05.12c.04.09,0,.19-.09.23l-.52.22s-.04.01-.07.01Zm.47-.57s-.02,0-.02,0l-.52.22s-.05.05-.03.08l.05.12s.05.05.08.03l.52-.22s.03-.02.03-.03c0-.02,0-.03,0-.05l-.05-.12s-.02-.03-.03-.03c0,0-.02,0-.02,0Z"/>
              <path class="cls-1" d="m98.39,73.26c-.15,0-.28-.12-.28-.28s.12-.28.28-.28.28.12.28.28-.12.28-.28.28Zm0-.44c-.09,0-.17.07-.17.17s.07.17.17.17.17-.07.17-.17-.07-.17-.17-.17Z"/>
              <path class="cls-1" d="m96.19,67.73c-.12,0-.22-.1-.22-.22s.1-.22.22-.22.22.1.22.22-.1.22-.22.22Zm0-.32c-.06,0-.1.05-.1.1s.05.1.1.1.1-.05.1-.1-.05-.1-.1-.1Z"/>
              <rect class="cls-1" x="98.54" y="73.03" width=".11" height=".64" transform="translate(-14.71 120.93) rotate(-59.43)"/>
              <rect class="cls-1" x="98.31" y="72.58" width=".59" height=".11" transform="translate(-20.19 42.86) rotate(-22.31)"/>
            </g>
            <path class="cls-1" d="m100.81,65.49h-.14c-.1,0-.19-.08-.19-.19v-2.52c0-.1.08-.19.18-.19h.14c.1,0,.19.08.19.19v2.52c0,.1-.08.19-.18.19Zm-.15-2.78s-.07.03-.07.07v2.52s.04.07.08.07h.14s.07-.03.07-.07v-2.52s-.04-.07-.08-.07h-.14Z"/>
            <path class="cls-1" d="m102.6,65.74h-.91c-.07,0-.14-.03-.19-.08-.05-.05-.08-.12-.08-.19,0-.23,0-.53,0-.73,0-.08,0-.14,0-.18,0-.05,0-.07,4.2-1.79v-.21s.5,0,.5,0v.4s-2.72,2.56-2.72,2.56c-.02.01-.31.21-.8.21Zm-1.06-1.14s0,.09,0,.14c0,.2,0,.5,0,.73,0,.04.02.08.04.11.03.03.07.05.11.05h.91c.46,0,.73-.19.73-.19l2.68-2.52v-.24s-.28,0-.28,0v.17s-.03.01-.03.01c-1.57.64-3.9,1.61-4.17,1.74Z"/>
            <path class="cls-1" d="m102.66,65.24c-.05,0-.1-.02-.15-.05l-.41-.34s-.05-.07-.04-.11c0-.04.03-.08.07-.1l1.91-.81c.06-.02.12,0,.16.05s.02.12-.03.16l-1.37,1.16s-.09.05-.15.05Zm1.43-1.32l-1.91.81v.02s.41.34.41.34c.04.04.11.04.15,0l1.37-1.16s0,0,0-.02c0-.01-.01,0-.02,0h0Z"/>
            <rect class="cls-1" x="99.95" y="64.6" width=".59" height=".11"/>
            <rect class="cls-1" x="100.95" y="64.6" width=".54" height=".11"/>
            <rect class="cls-1" x="99.68" y="65.6" width="1.91" height=".11"/>
            <rect class="cls-1" x="100.06" y="65.65" width=".11" height=".92"/>
            <rect class="cls-1" x="101.28" y="65.64" width=".11" height=".92"/>
            <rect class="cls-1" x="100.23" y="67.28" width=".11" height=".36"/>
            <rect class="cls-1" x="101.15" y="67.28" width=".11" height=".36"/>
            <path class="cls-1" d="m103.44,66.14l-.11-.02s0-.14,0-.19c0-.01.02-.67.67-.67h.61s.28,0,.47.18c.11.11.17.26.17.45v.23s-.11,0-.11,0v-.23c0-.16-.05-.29-.14-.37-.15-.15-.39-.15-.39-.15h-.61c-.54,0-.56.54-.56.56,0,.01,0,.16,0,.21Z"/>
            <path class="cls-1" d="m97.69,67.4c-.14,0-.26-.04-.34-.13-.13-.13-.12-.32-.12-.33v-.86s.11,0,.11,0v.87s0,.15.09.25c.06.06.14.09.26.09.36,0,.37-.35.37-.37v-1.4s.11,0,.11,0v1.4c0,.17-.1.48-.48.48Z"/>
            <rect class="cls-1" x="98.13" y="66.54" width=".82" height=".11"/>
            <rect class="cls-1" x="98.13" y="66.87" width=".82" height=".11"/>
            <path class="cls-1" d="m97.72,67.58c-.36,0-.65-.29-.65-.65,0-.17.07-.34.19-.46l.08.08c-.1.1-.16.24-.16.38,0,.3.24.54.54.54s.54-.24.54-.54h.11c0,.36-.29.65-.65.65Z"/>
            <rect class="cls-1" x="101.61" y="66.08" width="1.06" height=".11" transform="translate(-11.26 110.26) rotate(-54.18)"/>
            <rect class="cls-1" x="101.87" y="67.28" width=".11" height=".62"/>
            <rect class="cls-1" x="103.05" y="65.61" width=".11" height=".55" transform="translate(-18.46 52) rotate(-26.06)"/>
            <rect class="cls-1" x="99.19" y="73.92" width="2.98" height=".11"/>
            <rect class="cls-1" x="98.22" y="77.72" width="4.95" height=".11"/>
            <rect class="cls-1" x="98.1" y="77.95" width="5.21" height=".11"/>
            <path class="cls-1" d="m100.68,84.73c-1.37,0-2.73-.13-4.05-.41-.13-.03-.25-.11-.33-.22-.08-.11-.1-.25-.07-.39.44-2.14.94-4.57,2.55-6.94l.02-.02h3.8s.02.02.02.02c1.41,2.06,2.26,4.2,2.77,6.92.05.27-.13.54-.4.6-1.45.29-2.88.44-4.3.44Zm-1.83-7.86c-1.58,2.34-2.08,4.75-2.51,6.87-.02.11,0,.21.06.3.06.09.15.15.26.17,2.68.55,5.47.54,8.3-.03.21-.04.35-.25.31-.47h0c-.51-2.73-1.33-4.78-2.74-6.85h-3.68Z"/>
            <path class="cls-1" d="m99.34,77.84v-.06c0-.07-.04-1.64.64-2.34.22-.22.48-.34.79-.34h.06s0,.4,0,.4h-.06c-.2,0-.36.07-.5.22-.56.57-.53,2.04-.53,2.05v.06s-.4.01-.4.01Zm1.38-2.62c-.25.01-.47.11-.65.3-.58.6-.61,1.91-.61,2.2h.18c0-.28.03-1.53.56-2.08.15-.15.32-.24.53-.25v-.18Z"/>
            <path class="cls-1" d="m100.99,75.79h-.11c-.09,0-.16-.07-.16-.16v-.63c0-.09.07-.16.16-.16h.11c.09,0,.16.07.16.16v.63c0,.09-.07.16-.16.16Zm-.11-.83s-.05.02-.05.05v.63s.02.05.05.05h.11s.05-.02.05-.05v-.63s-.02-.05-.05-.05h-.11Z"/>
            <path class="cls-1" d="m101.31,75.9h-.11c-.09,0-.16-.07-.16-.16v-.95c0-.09.07-.16.16-.16h.11c.09,0,.16.07.16.16v.95c0,.09-.07.16-.16.16Zm-.11-1.16s-.05.02-.05.05v.95s.02.05.05.05h.11s.05-.02.05-.05v-.95s-.02-.05-.05-.05h-.11Z"/>
            <path class="cls-1" d="m101.63,75.9h-.11c-.09,0-.16-.07-.16-.16v-.95c0-.09.07-.16.16-.16h.11c.09,0,.16.07.16.16v.95c0,.09-.07.16-.16.16Zm-.11-1.16s-.05.02-.05.05v.95s.02.05.05.05h.11s.05-.02.05-.05v-.95s-.02-.05-.05-.05h-.11Z"/>
            <path class="cls-1" d="m102.18,75.83h-.22c-.14,0-.26-.12-.26-.26v-.57c0-.14.11-.26.26-.26h.22c.14,0,.26.12.26.26v.57c0,.14-.11.26-.26.26Zm-.22-.97c-.08,0-.15.07-.15.15v.57c0,.08.07.15.15.15h.22c.08,0,.15-.07.15-.15v-.57c0-.08-.07-.15-.15-.15h-.22Z"/>
            <path class="cls-1" d="m103.11,66.85s-.06-.02-.06-.06v-.66s.02-.06.06-.06.06.02.06.06v.66s-.02.06-.06.06Z"/>
            <path class="cls-1" d="m103.25,66.85s-.06-.02-.06-.06v-.66s.02-.06.06-.06.06.02.06.06v.66s-.02.06-.06.06Z"/>
            <path class="cls-1" d="m103.4,66.85s-.06-.02-.06-.06v-.66s.02-.06.06-.06.06.02.06.06v.66s-.02.06-.06.06Z"/>
            <path class="cls-1" d="m103.54,66.85s-.06-.02-.06-.06v-.66s.02-.06.06-.06.06.02.06.06v.66s-.02.06-.06.06Z"/>
            <path class="cls-1" d="m103.69,66.85s-.06-.02-.06-.06v-.66s.02-.06.06-.06.06.02.06.06v.66s-.02.06-.06.06Z"/>
            <path class="cls-1" d="m103.83,66.85s-.06-.02-.06-.06v-.66s.02-.06.06-.06.06.02.06.06v.66s-.02.06-.06.06Z"/>
            <path class="cls-1" d="m103.98,66.85s-.06-.02-.06-.06v-.66s.02-.06.06-.06.06.02.06.06v.66s-.02.06-.06.06Z"/>
            <path class="cls-1" d="m104.13,66.85s-.06-.02-.06-.06v-.66s.02-.06.06-.06.06.02.06.06v.66s-.02.06-.06.06Z"/>
            <path class="cls-1" d="m104.27,66.85s-.06-.02-.06-.06v-.66s.02-.06.06-.06.06.02.06.06v.66s-.02.06-.06.06Z"/>
            <path class="cls-1" d="m104.42,66.85s-.06-.02-.06-.06v-.66s.02-.06.06-.06.06.02.06.06v.66s-.02.06-.06.06Z"/>
            <path class="cls-1" d="m104.56,66.85s-.06-.02-.06-.06v-.66s.02-.06.06-.06.06.02.06.06v.66s-.02.06-.06.06Z"/>
            <path class="cls-1" d="m104.71,66.85s-.06-.02-.06-.06v-.66s.02-.06.06-.06.06.02.06.06v.66s-.02.06-.06.06Z"/>
            <path class="cls-1" d="m104.85,66.84s-.06-.02-.06-.06v-.66s.02-.06.06-.06.06.02.06.06v.66s-.02.06-.06.06Z"/>
            <path class="cls-1" d="m105,66.84s-.06-.02-.06-.06v-.66s.02-.06.06-.06.06.02.06.06v.66s-.02.06-.06.06Z"/>
            <path class="cls-1" d="m105.14,66.84s-.06-.02-.06-.06v-.66s.02-.06.06-.06.06.02.06.06v.66s-.02.06-.06.06Z"/>
            <path class="cls-1" d="m105.29,66.84s-.06-.02-.06-.06v-.66s.02-.06.06-.06.06.02.06.06v.66s-.02.06-.06.06Z"/>
            <path class="cls-1" d="m105.44,66.84s-.06-.02-.06-.06v-.66s.02-.06.06-.06.06.02.06.06v.66s-.02.06-.06.06Z"/>
            <path class="cls-1" d="m105.58,66.84s-.06-.02-.06-.06v-.66s.02-.06.06-.06.06.02.06.06v.66s-.02.06-.06.06Z"/>
            <g>
              <path class="cls-1" d="m103.94,68.59h-.7s-.06-.02-.06-.06.02-.06.06-.06h.7s.06.02.06.06-.02.06-.06.06Z"/>
              <path class="cls-1" d="m103.94,68.76h-.7s-.06-.02-.06-.06.02-.06.06-.06h.7s.06.02.06.06-.02.06-.06.06Z"/>
              <path class="cls-1" d="m103.94,68.92h-.7s-.06-.02-.06-.06.02-.06.06-.06h.7s.06.02.06.06-.02.06-.06.06Z"/>
              <path class="cls-1" d="m103.94,69.09h-.7s-.06-.02-.06-.06.02-.06.06-.06h.7s.06.02.06.06-.02.06-.06.06Z"/>
              <path class="cls-1" d="m103.94,69.25h-.7s-.06-.02-.06-.06.02-.06.06-.06h.7s.06.02.06.06-.02.06-.06.06Z"/>
              <path class="cls-1" d="m103.94,69.42h-.7s-.06-.02-.06-.06.02-.06.06-.06h.7s.06.02.06.06-.02.06-.06.06Z"/>
              <path class="cls-1" d="m103.94,69.58h-.7s-.06-.02-.06-.06.02-.06.06-.06h.7s.06.02.06.06-.02.06-.06.06Z"/>
              <path class="cls-1" d="m103.94,69.75h-.7s-.06-.02-.06-.06.02-.06.06-.06h.7s.06.02.06.06-.02.06-.06.06Z"/>
              <path class="cls-1" d="m103.94,69.91h-.7s-.06-.02-.06-.06.02-.06.06-.06h.7s.06.02.06.06-.02.06-.06.06Z"/>
              <path class="cls-1" d="m103.94,70.08h-.7s-.06-.02-.06-.06.02-.06.06-.06h.7s.06.02.06.06-.02.06-.06.06Z"/>
              <path class="cls-1" d="m103.94,70.25h-.7s-.06-.02-.06-.06.02-.06.06-.06h.7s.06.02.06.06-.02.06-.06.06Z"/>
              <path class="cls-1" d="m103.94,70.41h-.7s-.06-.02-.06-.06.02-.06.06-.06h.7s.06.02.06.06-.02.06-.06.06Z"/>
              <path class="cls-1" d="m103.94,70.58h-.7s-.06-.02-.06-.06.02-.06.06-.06h.7s.06.02.06.06-.02.06-.06.06Z"/>
              <path class="cls-1" d="m103.94,70.74h-.7s-.06-.02-.06-.06.02-.06.06-.06h.7s.06.02.06.06-.02.06-.06.06Z"/>
              <path class="cls-1" d="m103.94,70.91h-.7s-.06-.02-.06-.06.02-.06.06-.06h.7s.06.02.06.06-.02.06-.06.06Z"/>
              <path class="cls-1" d="m103.94,71.07h-.7s-.06-.02-.06-.06.02-.06.06-.06h.7s.06.02.06.06-.02.06-.06.06Z"/>
              <path class="cls-1" d="m103.94,71.24h-.7s-.06-.02-.06-.06.02-.06.06-.06h.7s.06.02.06.06-.02.06-.06.06Z"/>
              <path class="cls-1" d="m103.94,71.4h-.7s-.06-.02-.06-.06.02-.06.06-.06h.7s.06.02.06.06-.02.06-.06.06Z"/>
            </g>
            <path class="cls-1" d="m100.95,80.5c-2.1,0-3.75-.31-3.78-.32l.02-.11s3.74.71,7.09,0l.02.11c-1.13.24-2.3.32-3.36.32Z"/>
            <path class="cls-1" d="m100.95,79.86c-1.96,0-3.51-.21-3.54-.21l.02-.11s3.51.48,6.65,0l.02.11c-1.06.16-2.15.22-3.14.22Z"/>
            <path class="cls-1" d="m101.08,84.11c-2.65,0-4.75-.37-4.78-.37l.02-.11s4.74.83,8.98,0l.02.11c-1.43.28-2.91.38-4.25.38Z"/>
            <path class="cls-1" d="m101.08,83.59c-2.6,0-4.65-.37-4.68-.37l.02-.11s4.64.83,8.8,0l.02.11c-1.4.28-2.85.38-4.16.38Z"/>
            <path class="cls-1" d="m101.06,83.01c-2.53,0-4.53-.37-4.56-.37l.02-.11s4.52.83,8.57,0l.02.11c-1.36.28-2.78.38-4.05.38Z"/>
            <path class="cls-1" d="m101.07,82.41c-2.44,0-4.37-.37-4.4-.37l.02-.11s4.35.83,8.26,0l.02.11c-1.31.28-2.68.38-3.91.38Z"/>
            <path class="cls-1" d="m101.04,81.87c-2.36,0-4.22-.37-4.25-.37l.02-.11s4.21.83,7.98,0l.02.11c-1.27.28-2.59.38-3.78.38Z"/>
            <path class="cls-1" d="m101,81.25c-2.25,0-4.03-.37-4.05-.37l.02-.11s4.01.83,7.61,0l.03.11c-1.21.28-2.47.38-3.6.38Z"/>
          </g>
          <rect class="cls-1" x="96.12" y="66.46" width=".11" height=".9"/>
        </g>
        <path class="cls-2" d="m113.2,102.02c.04,6.51.02,31.98.02,32.23v9.23s.86,36.13.86,36.13l-.7,68.96c0,.53-.44.96-.97.96l-23.31-.02c-.53,0-.96-.43-.97-.96l-.58-68.97.93-36.12v-9.23c0-.26.03-25.72.09-32.23m.24,0c-.05,6.51-.08,31.98-.08,32.23v9.23s-.94,36.12-.94,36.12l.58,68.96c0,.4.33.73.73.73h11.73s11.58.02,11.58.02c.4,0,.73-.33.74-.73l.7-68.96-.87-36.13v-9.23c0-.26.03-25.72-.01-32.23"/>
        <path class="cls-2" d="m89.1,249.64l23.31.02c.6,0,1.09-.49,1.1-1.09l.7-68.96-.87-36.13v-9.23c0-1.05.03-25.8-.01-32.24h-.23s0,0,0,0h-.26c.04,6.44.02,31.18.02,32.23v9.23s.86,36.13.86,36.13l-.7,68.95c0,.33-.28.6-.61.6l-23.31-.02c-.33,0-.6-.27-.61-.6l-.58-68.96.93-36.12v-9.24c0-.26.03-25.77.09-32.23h-.49c-.05,6.43-.08,31.18-.08,32.23v9.23s-.94,36.12-.94,36.12l.58,68.97c0,.6.5,1.09,1.1,1.09Z"/>
        <path class="cls-2" d="m112.98,103.17l7.15,2.31.05,6.64-7.16,4.69-.03-13.63Zm6.92,2.48l-6.68-2.15.03,12.88,6.69-4.38-.04-6.34Z"/>
        <path class="cls-2" d="m112.85,103.17v-.18s7.4,2.39,7.4,2.39l.05,6.73v.07s-7.42,4.86-7.42,4.86l-.03-13.87Zm6.92,2.57l-6.42-2.07.03,12.46,6.44-4.22-.04-6.18Z"/>
        <path class="cls-2" d="m81.54,112.08l.06-6.64,7.15-2.29-.06,13.63-7.15-4.7Zm.29-6.46l-.05,6.34,6.68,4.39.05-12.88-6.68,2.14Z"/>
        <path class="cls-2" d="m81.47,112.19l-.06-.04.06-6.71v-.09s7.41-2.38,7.41-2.38l-.06,14.04-7.35-4.83Zm.49-6.48l-.05,6.17,6.43,4.23.05-12.46-6.43,2.06Z"/>
        <path class="cls-2" d="m100.59,116.29l-.39-.39c-.06-.06-.1-.14-.1-.23l.13-11.85c0-.06.02-.13.06-.18l.28-.4c.06-.09.16-.14.26-.14h0c.11,0,.2.05.26.14l-.1.07.1-.07.3.44c.04.05.06.11.06.18l.11,11.79c0,.09-.03.17-.09.23l-.42.42c-.06.06-.14.09-.23.09s-.16-.03-.22-.09Zm.17-12.92l-.28.4s-.01.03-.02.05l-.13,11.85s0,.05.03.06l.39.39s.09.03.12,0l.42-.42s.03-.04.02-.06l-.11-11.79s0-.03-.01-.05l-.3-.44s-.06-.04-.07-.04h0s-.05,0-.07.04Z"/>
        <path class="cls-2" d="m100.5,116.38l-.39-.39c-.09-.09-.13-.2-.13-.32l.13-11.85c0-.09.03-.17.08-.25l.28-.41c.14-.21.46-.25.65-.09h.02s.07.09.07.09h0s.3.44.3.44c.05.07.08.16.08.25l.11,11.79c0,.12-.05.24-.13.32l-.42.42c-.09.08-.2.13-.32.13s-.23-.05-.31-.13Zm.59-12.5l-.27-.39-.24.33-.13,11.83.35.35.38-.38-.1-11.74Zm-.23-.44h0s0,0,0,0Z"/>
        <polygon class="cls-2" points="113.92 179.91 116.41 184.01 118.04 224.25 118.09 228.15 118.07 248.26 113.09 248.87 113.11 249.08 118.28 248.45 118.3 228.14 118.25 224.24 116.63 183.94 114.1 179.8 113.92 179.91"/>
        <polygon class="cls-2" points="113 249.23 118.41 248.56 118.43 228.14 118.38 224.24 116.75 183.9 116.74 183.88 114.15 179.62 113.74 179.87 116.29 184.04 117.91 224.25 117.96 228.15 117.94 248.15 112.94 248.76 113 249.23"/>
        <path class="cls-2" d="m113.9,245.18l.14.02,2.32-18.42s.03-.08.06-.1c.03-.03.08-.04.12-.03l.68.11s.08.03.11.07l.8,1.35.12-.07-.8-1.35c-.05-.08-.12-.13-.21-.14l-.68-.11c-.08-.01-.16,0-.23.06-.07.05-.11.12-.12.2l-2.32,18.42Z"/>
        <path class="cls-2" d="m114.16,245.34l.02-.13,2.32-18.42.05-.15-.02.13.68.11.88,1.48.34-.2-.87-1.46c-.06-.11-.17-.18-.3-.2l-.68-.11c-.11-.02-.23,0-.32.08-.09.07-.15.17-.17.29l-2.33,18.55.4.05Z"/>
        <polygon class="cls-2" points="113.55 224.01 118.17 224.31 118.17 224.17 113.56 223.87 113.55 224.01"/>
        <polygon class="cls-2" points="118.29 224.45 118.31 224.05 113.44 223.73 113.41 224.13 118.29 224.45"/>
        <path class="cls-2" d="m113.31,245.08l1.52.49c.08.02.17,0,.25-.04.07-.05.12-.13.13-.21l.49-3.99c0-.07.06-.12.12-.13l.58-.11s.1,0,.13.04l1.63,1.48.1-.11-1.63-1.48c-.07-.06-.16-.09-.25-.07l-.58.11c-.13.02-.22.13-.24.26l-.49,3.99s-.03.08-.07.11c-.04.02-.08.03-.13.02l-1.52-.49-.04.14Z"/>
        <path class="cls-2" d="m114.91,245.71c.08,0,.17-.02.24-.07.1-.07.17-.18.19-.3l.49-3.99.6-.13,1.74,1.57.27-.3-1.72-1.56c-.1-.09-.23-.13-.36-.1l-.58.11c-.18.03-.32.18-.34.37l-.49,3.98-.07.14.04-.12-1.64-.53-.11.38,1.63.53s.08.02.12.02Z"/>
        <rect class="cls-2" x="116.5" y="244.83" width=".14" height="4.16" transform="translate(-143.39 163.4) rotate(-46.92)"/>
        <polygon class="cls-2" points="118.05 248.56 118.33 248.27 118.23 248.18 115.1 245.25 114.83 245.55 118.05 248.56"/>
        <polygon class="cls-2" points="87.72 179.89 85.21 183.98 83.52 224.22 83.47 228.12 83.45 248.23 88.43 248.85 88.4 249.06 83.23 248.42 83.25 228.11 83.31 224.21 85 183.91 87.53 179.77 87.72 179.89"/>
        <polygon class="cls-2" points="88.51 249.21 88.57 248.74 83.58 248.12 83.59 228.12 83.65 224.22 85.34 184.02 87.89 179.85 87.49 179.6 87.42 179.71 84.87 183.88 84.87 183.91 83.18 224.2 83.12 228.11 83.1 248.53 88.51 249.21"/>
        <path class="cls-2" d="m87.62,245.16l-.14.02-2.29-18.42s-.03-.08-.06-.1c-.03-.03-.07-.04-.12-.03l-.68.11s-.08.03-.11.07l-.8,1.35-.12-.07.8-1.35c.05-.08.12-.13.21-.14l.68-.11c.08-.01.16,0,.23.06.07.05.11.12.12.2l2.29,18.42Z"/>
        <path class="cls-2" d="m87.36,245.32l.4-.05-2.3-18.55c-.01-.12-.07-.22-.17-.29-.09-.07-.21-.1-.32-.08l-.68.11c-.13.02-.23.09-.3.2l-.87,1.46.34.2.87-1.46.7-.12h0s.03.02.03.02l2.3,18.55Z"/>
        <polygon class="cls-2" points="88.01 223.99 83.39 224.28 83.38 224.14 88 223.85 88.01 223.99"/>
        <polygon class="cls-2" points="83.27 224.42 88.15 224.11 88.12 223.71 83.25 224.02 83.27 224.42"/>
        <path class="cls-2" d="m88.21,245.06l-1.52.49c-.08.02-.17,0-.25-.04-.07-.05-.12-.13-.13-.21l-.48-3.99c0-.07-.06-.12-.12-.13l-.58-.11s-.1,0-.13.04l-1.63,1.47-.1-.11,1.63-1.47c.07-.06.16-.09.25-.07l.58.11c.13.02.22.13.24.26l.48,3.99s.03.08.07.11c.04.02.08.03.13.02l1.52-.49.04.14Z"/>
        <path class="cls-2" d="m86.61,245.69s.08,0,.11-.02l1.64-.53-.11-.38-1.64.53h0s-.03-.02-.03-.02l-.48-3.99c-.02-.18-.16-.33-.34-.37l-.58-.11c-.13-.02-.27.01-.36.1l-1.72,1.56.27.3,1.72-1.56.6.1.5,4.01c.02.12.08.23.19.3.07.05.15.07.24.07Z"/>
        <rect class="cls-2" x="82.86" y="246.81" width="4.16" height=".14" transform="translate(-145.52 124.19) rotate(-42.98)"/>
        <polygon class="cls-2" points="83.46 248.53 86.69 245.52 86.42 245.23 86.33 245.32 83.19 248.24 83.46 248.53"/>
        <polygon class="cls-2" points="96 249.23 96.22 249.27 96.7 246.59 96.86 245.49 98.88 224.15 99.4 182.98 100.64 180.05 101.76 182.98 102.2 224.15 104.19 245.49 104.43 247.03 104.83 249.27 105.04 249.24 104.64 246.99 104.4 245.47 102.42 224.14 101.97 182.94 100.78 179.8 100.51 179.8 99.18 182.93 99.18 182.96 98.67 224.14 96.65 245.47 96.49 246.56 96 249.23"/>
        <polygon class="cls-2" points="104.72 249.42 105.19 249.34 104.77 246.97 104.53 245.45 102.54 224.12 102.09 182.89 100.86 179.67 100.43 179.67 99.06 182.93 98.54 224.14 96.52 245.46 96.36 246.54 95.86 249.33 96.32 249.41 96.83 246.62 96.99 245.51 99.01 224.17 99.53 183.01 100.63 180.39 101.63 183 102.07 224.15 104.06 245.51 104.3 247.05 104.72 249.42"/>
        <polygon class="cls-2" points="101.07 228.19 101.07 228.21 102.27 239.94 101.62 242.55 102.26 249.3 102.47 249.28 101.84 242.56 102.48 239.96 101.29 228.2 101.54 227.12 103.37 236.63 103.58 236.59 101.65 226.57 101.44 226.57 101.07 228.19"/>
        <path class="cls-2" d="m101.49,242.54l.64-2.61-1.19-11.71v-.04s.39-1.74.39-1.74h.42s1.95,10.12,1.95,10.12l.02.13-.46.09-1.74-9.03-.11.47,1.19,11.73v.02s-.64,2.61-.64,2.61l.63,6.7v.13s-.46.04-.46.04l-.65-6.91Zm.05-15.84l-.09.39h.17s-.08-.39-.08-.39h0Z"/>
        <polygon class="cls-2" points="97.5 236.56 97.71 236.6 99.51 227.12 99.75 228.2 98.54 239.95 99.18 242.56 98.53 249.28 98.74 249.3 99.39 242.54 99.39 242.53 98.75 239.94 99.97 228.19 99.6 226.57 99.39 226.57 97.5 236.56"/>
        <path class="cls-2" d="m98.39,249.39l.66-6.82-.63-2.59v-.02s1.21-11.75,1.21-11.75l-.1-.45-1.7,8.99-.46-.09,1.92-10.11.02-.1h.42s.39,1.72.39,1.72v.02s-1.21,11.75-1.21,11.75l.63,2.59v.02s-.66,6.9-.66,6.9l-.47-.04Zm1.11-22.7l-.08.4h.17s-.09-.4-.09-.4Z"/>
        <polygon class="cls-2" points="100.59 179.91 100.76 223.15 100.76 223.16 101.44 226.61 101.65 226.57 100.97 223.13 100.81 179.91 100.59 179.91"/>
        <polygon class="cls-2" points="101.34 226.76 101.8 226.67 101.78 226.55 101.1 223.11 100.94 179.78 100.47 179.78 100.47 179.91 100.63 223.19 101.34 226.76"/>
        <polygon class="cls-2" points="99.4 226.57 99.61 226.61 100.39 223.14 100.65 179.91 100.43 179.91 100.17 223.13 99.4 226.57"/>
        <polygon class="cls-2" points="99.71 226.77 100.51 223.17 100.78 179.78 100.31 179.78 100.31 179.91 100.04 223.13 99.25 226.66 99.71 226.77"/>
        <rect class="cls-2" x="99.54" y="226.58" width="2.05" height=".22"/>
        <rect class="cls-2" x="99.42" y="226.45" width="2.3" height=".47"/>
        <rect class="cls-2" x="99.9" y="228.12" width="1.26" height=".22"/>
        <rect class="cls-2" x="99.77" y="227.99" width="1.51" height=".47"/>
        <path class="cls-2" d="m102.06,240.95l.76,4.11c.05.27.29.46.56.43l.98-.1v-.14s-.99.1-.99.1c-.19.02-.37-.12-.4-.31l-.76-4.11-.14.03Z"/>
        <path class="cls-2" d="m103.33,245.62s.04,0,.06,0l1.1-.11-.04-.4-1.1.11c-.12.01-.24-.08-.26-.21l-.78-4.24-.39.07.78,4.23c.06.32.32.54.63.54Z"/>
        <path class="cls-2" d="m96.67,245.38l.98.1c.27.03.51-.16.56-.43l.77-4.11-.14-.03-.77,4.11c-.04.2-.21.33-.4.31l-.98-.1v.14Z"/>
        <path class="cls-2" d="m97.7,245.61c.31,0,.57-.22.63-.54l.79-4.23-.39-.07-.02.13-.77,4.11c-.03.13-.14.22-.27.21l-1.1-.11-.04.4,1.1.11s.04,0,.07,0Z"/>
        <rect class="cls-2" x="99.27" y="242.46" width="2.46" height=".22"/>
        <rect class="cls-2" x="99.14" y="242.33" width="2.72" height=".47"/>
        <rect class="cls-2" x="112.76" y="113.55" width="7.65" height=".24" transform="translate(-37.05 59.72) rotate(-24.93)"/>
        <rect class="cls-2" x="112.63" y="113.42" width="7.91" height=".49" transform="translate(-37.04 59.72) rotate(-24.93)"/>
        <rect class="cls-2" x="85.05" y="109.81" width=".24" height="7.65" transform="translate(-53.84 142.71) rotate(-64.96)"/>
        <rect class="cls-2" x="84.92" y="109.68" width=".49" height="7.91" transform="translate(-53.86 142.61) rotate(-64.92)"/>
        <path class="cls-2" d="m88.42,102.03s-1.35-2.85-2.47-7.05c-1.09-4.12-1.78-11.35-1.87-16.06-.09-4.58,3.32-6.23,3.36-6.24l.35-.17,12.17,23.58.08.16-.15.1c-3.76,2.47-7.53,4.42-11.21,5.78l-.17.06-.08-.17Zm-.82-28.98c-.16.08-3.2,1.64-3.12,5.86.09,4.68.77,11.87,1.86,15.96.95,3.58,2.06,6.15,2.36,6.81,3.55-1.33,7.18-3.2,10.8-5.57l-11.91-23.06Z"/>
        <path class="cls-2" d="m112.97,102.15c-3.68-1.37-7.45-3.32-11.2-5.8l-.15-.1,12.3-23.72.35.17s3.44,1.67,3.35,6.25c-.1,4.7-.8,11.93-1.9,16.05-1.13,4.2-2.47,7.02-2.48,7.05l-.08.17-.17-.07Zm-10.82-6.04c3.61,2.37,7.24,4.25,10.79,5.59.3-.66,1.42-3.22,2.38-6.81,1.09-4.09,1.79-11.27,1.88-15.95.09-4.25-2.9-5.77-3.1-5.87l-11.95,23.04Z"/>
      </g>
      <g>
        <rect class="cls-4" x="90.29" y=".12" width="21.88" height="26.93" rx=".66" ry=".66"/>
        <line class="cls-4" x1="90.44" y1="3.69" x2="112.1" y2="3.69"/>
        <line class="cls-4" x1="90.44" y1="4.78" x2="112.1" y2="4.78"/>
        <line class="cls-4" x1="90.44" y1="5.87" x2="112.1" y2="5.87"/>
        <line class="cls-4" x1="90.44" y1="6.96" x2="112.1" y2="6.96"/>
        <line class="cls-4" x1="90.44" y1="8.05" x2="112.1" y2="8.05"/>
        <line class="cls-4" x1="90.44" y1="9.14" x2="112.1" y2="9.14"/>
        <line class="cls-4" x1="90.44" y1="10.23" x2="112.1" y2="10.23"/>
        <line class="cls-4" x1="90.44" y1="11.32" x2="112.1" y2="11.32"/>
        <line class="cls-4" x1="90.44" y1="12.41" x2="112.1" y2="12.41"/>
        <line class="cls-4" x1="90.44" y1="13.5" x2="112.1" y2="13.5"/>
        <line class="cls-4" x1="90.44" y1="14.59" x2="112.1" y2="14.59"/>
        <line class="cls-4" x1="90.44" y1="15.68" x2="112.1" y2="15.68"/>
        <line class="cls-4" x1="90.44" y1="16.77" x2="112.1" y2="16.77"/>
        <line class="cls-4" x1="90.44" y1="17.86" x2="112.1" y2="17.86"/>
        <line class="cls-4" x1="90.44" y1="18.95" x2="112.1" y2="18.95"/>
        <line class="cls-4" x1="90.44" y1="20.04" x2="112.1" y2="20.04"/>
        <line class="cls-4" x1="90.44" y1="21.13" x2="112.1" y2="21.13"/>
        <line class="cls-4" x1="90.44" y1="22.21" x2="112.1" y2="22.21"/>
        <line class="cls-4" x1="90.44" y1="23.3" x2="112.1" y2="23.3"/>
      </g>
    </g>
  </g>
</svg>