<?xml version="1.0" encoding="UTF-8"?>
<svg id="Layer_2" data-name="Layer 2" xmlns="http://www.w3.org/2000/svg" viewBox="0 0 57.37 117.38">
  <defs>
    <style>
      .cls-1 {
        fill: #8b8a8d;
      }
    </style>
  </defs>
  <g id="Layer_4" data-name="Layer 4">
    <g>
      <g>
        <path class="cls-1" d="m7.83,20.87h-3.81c-.48,0-.89-.35-.97-.82L.01,1.13c-.05-.28.03-.57.22-.79.19-.22.46-.34.74-.34h4.24c.48,0,.88.34.96.81l.34,1.91c.02.13.11.24.24.29l17.57,6.98c.37.15.62.51.62.91v4.13c0,.54-.44.98-.98.98h-8.99c-.08,0-.16.03-.23.07l-6.35,4.6c-.17.12-.37.19-.57.19ZM.98.59c-.12,0-.22.05-.29.14-.07.09-.11.2-.09.31h0s3.05,18.92,3.05,18.92c.03.19.19.33.38.33h3.81c.08,0,.16-.03.23-.07l6.35-4.6c.17-.12.37-.19.57-.19h8.99c.21,0,.39-.17.39-.39v-4.13c0-.16-.1-.3-.24-.36L6.54,3.56c-.32-.13-.54-.4-.6-.74l-.34-1.91c-.03-.19-.19-.32-.38-.32H.98Z"/>
        <path class="cls-1" d="m6.85,18.01c-.13,0-.26-.03-.38-.08-.29-.13-.51-.39-.56-.71l-1.52-8.1c-.07-.39.1-.78.43-.99.33-.21.76-.2,1.08.03l6.65,4.81c.26.19.41.49.4.81,0,.32-.17.61-.44.78l-5.13,3.29c-.16.1-.34.15-.52.15Zm-1.89-9l1.52,8.1c.02.12.1.22.22.27.11.05.24.04.35-.03l5.13-3.29c.11-.07.17-.18.17-.3s-.05-.24-.15-.31l-6.65-4.81c-.19-.14-.37-.05-.42-.01-.05.03-.21.15-.17.38h0Z"/>
        <path class="cls-1" d="m18.59,14.31c-.26,0-.53-.09-.75-.26-2.01-1.62-6.88-5.53-8.74-6.91h0c-.16-.12-.21-.34-.11-.51.1-.18.3-.26.49-.19l11.16,4.11c.4.15.69.49.76.91.08.42-.07.84-.39,1.12l-1.64,1.43c-.23.2-.51.3-.79.3Zm-8.12-6.88c2.24,1.73,6.03,4.78,7.74,6.16.23.18.55.18.78-.02l1.64-1.43c.16-.14.24-.35.2-.57-.04-.21-.18-.38-.39-.46l-9.97-3.68Z"/>
        <path class="cls-1" d="m42.33,47.53h-.59v-15.89c0-6.1-5.63-6.27-6.27-6.27h-15.04c-.73,0-1.32-.59-1.32-1.32v-8.54h4.39v5.48h11.97c3.69,0,10.66,2.23,10.66,10.66v15.84h-.59v-15.84c0-7.96-6.58-10.07-10.07-10.07h-12.56v-5.48h-3.2v7.95c0,.4.33.73.73.73h15.04c.7,0,6.86.19,6.86,6.86v15.89Z"/>
        <path class="cls-1" d="m54.21,56.91h-12.6c-.64,0-1.16-.52-1.16-1.16v-.95c0-.64.52-1.16,1.16-1.16h12.6c.64,0,1.16.52,1.16,1.16v.95c0,.64-.52,1.16-1.16,1.16Zm-12.6-2.68c-.31,0-.57.26-.57.57v.95c0,.31.26.57.57.57h12.6c.31,0,.57-.26.57-.57v-.95c0-.31-.26-.57-.57-.57h-12.6Z"/>
        <path class="cls-1" d="m55.17,40.21h-9.31v-.59h9.31c.58,0,1.05-.47,1.05-1.05s-.47-1.05-1.05-1.05h-9.31v-.59h9.31c.9,0,1.64.73,1.64,1.64s-.73,1.64-1.64,1.64Z"/>
        <path class="cls-1" d="m53.29,29.28l-7.71-.06v-.59s7.72.06,7.72.06c.57,0,1.04-.47,1.04-1.05s-.47-1.05-1.05-1.05h-8.66v-.59h8.66c.9,0,1.64.73,1.64,1.64s-.73,1.64-1.64,1.64Z"/>
        <path class="cls-1" d="m53.28,53.33h-10.74c-1.15,0-2.09-.94-2.09-2.09v-1.97c0-1.15.94-2.09,2.09-2.09h10.74c1.15,0,2.09.94,2.09,2.09v1.97c0,1.15-.94,2.09-2.09,2.09Zm-10.74-5.56c-.83,0-1.5.67-1.5,1.5v1.97c0,.83.67,1.5,1.5,1.5h10.74c.83,0,1.5-.67,1.5-1.5v-1.97c0-.83-.67-1.5-1.5-1.5h-10.74Z"/>
        <path class="cls-1" d="m53.94,22.78h-12.07c-.79,0-1.43-.64-1.43-1.43v-1.24c0-.79.64-1.43,1.43-1.43h12.07c.79,0,1.43.64,1.43,1.43v1.24c0,.79-.64,1.43-1.43,1.43Zm-12.07-3.51c-.46,0-.84.38-.84.84v1.24c0,.46.38.84.84.84h12.07c.46,0,.84-.38.84-.84v-1.24c0-.46-.38-.84-.84-.84h-12.07Z"/>
        <path class="cls-1" d="m54.21,64.29h-12.6c-.64,0-1.16-.52-1.16-1.16v-.95c0-.64.52-1.16,1.16-1.16h12.6c.64,0,1.16.52,1.16,1.16v.95c0,.64-.52,1.16-1.16,1.16Zm-12.6-2.68c-.31,0-.57.26-.57.57v.95c0,.31.26.57.57.57h12.6c.31,0,.57-.26.57-.57v-.95c0-.31-.26-.57-.57-.57h-12.6Z"/>
        <path class="cls-1" d="m54.21,69.4h-15.85c-.64,0-1.16-.52-1.16-1.16v-.95c0-.64.52-1.16,1.16-1.16h15.85c.64,0,1.16.52,1.16,1.16v.95c0,.64-.52,1.16-1.16,1.16Zm-15.85-2.68c-.31,0-.57.26-.57.57v.95c0,.31.26.57.57.57h15.85c.31,0,.57-.26.57-.57v-.95c0-.31-.26-.57-.57-.57h-15.85Z"/>
        <path class="cls-1" d="m45.82,46.4v-.59s6.93-.09,6.93-.09c1.12,0,2.03-.91,2.03-2.03s-.91-2.03-2.03-2.03h-6.94v-.59h6.94c1.44,0,2.62,1.17,2.62,2.62s-1.17,2.62-2.62,2.62l-6.94.09Z"/>
        <path class="cls-1" d="m41.93,46.04c-.94-.4-1.48-1.25-1.48-2.34,0-.97.53-1.85,1.39-2.31l.28.52c-.66.36-1.08,1.04-1.08,1.79,0,.84.41,1.5,1.12,1.8l-.23.54Z"/>
        <path class="cls-1" d="m38.62,58.57h-19.58c-.22,0-.39-.17-.39-.39v-19.02c0-.22.17-.39.39-.39h6.8v.59h-6.6v18.62h19.18v-18.62h-6.65v-.59h6.85c.22,0,.39.18.39.39v19.02c0,.22-.18.39-.39.39Z"/>
        <path class="cls-1" d="m28.84,29.42c-1.99,0-4-.5-4-1.47,0-1.92,8-1.92,8,0,0,.96-2.01,1.47-4,1.47Zm0-2.34c-2.12,0-3.41.57-3.41.87s1.3.88,3.41.88,3.41-.57,3.41-.88-1.3-.87-3.41-.87Z"/>
        <path class="cls-1" d="m28.84,32.05c-1.86,0-3.9-.45-4-1.44-.03-.26,0-2.42,0-2.67h.59c-.01.92-.02,2.43,0,2.6.03.32,1.23.91,3.41.91s3.41-.57,3.41-.88v-2.63h.59v2.63c0,.96-2.01,1.47-4,1.47Z"/>
        <path class="cls-1" d="m28.84,45.72c-1.5,0-3.16-.37-3.25-1.2-.02-.21,0-11,0-13.17h.59c0,4.41-.02,12.83,0,13.11.02.18.86.66,2.66.66s2.66-.47,2.66-.64v-13.14h.59v13.14c0,.84-1.68,1.23-3.25,1.23Z"/>
        <path class="cls-1" d="m28.79,45c-1.5,0-3.16-.37-3.24-1.2l.59-.06c.02.18.86.67,2.66.67s2.66-.47,2.66-.64h.59c0,.84-1.68,1.23-3.25,1.23Z"/>
        <path class="cls-1" d="m28.79,44.23c-1.5,0-3.16-.37-3.24-1.2l.59-.06c.02.18.86.67,2.66.67s2.66-.47,2.66-.64h.59c0,.84-1.68,1.23-3.25,1.23Z"/>
        <path class="cls-1" d="m28.79,43.46c-1.5,0-3.16-.37-3.24-1.2l.59-.06c.02.18.86.67,2.66.67s2.66-.49,2.66-.64h.59c0,.84-1.68,1.23-3.25,1.23Z"/>
        <path class="cls-1" d="m28.79,42.69c-1.5,0-3.16-.37-3.24-1.2l.59-.06c.02.18.86.67,2.66.67s2.66-.49,2.66-.64h.59c0,.84-1.68,1.23-3.25,1.23Z"/>
        <path class="cls-1" d="m28.79,41.92c-1.5,0-3.16-.37-3.24-1.2l.59-.06c.02.18.86.67,2.66.67s2.66-.47,2.66-.64h.59c0,.84-1.68,1.23-3.25,1.23Z"/>
        <path class="cls-1" d="m28.79,41.15c-1.5,0-3.16-.37-3.24-1.2l.59-.06c.02.18.86.67,2.66.67s2.66-.47,2.66-.64h.59c0,.84-1.68,1.23-3.25,1.23Z"/>
        <path class="cls-1" d="m28.79,40.38c-1.5,0-3.16-.37-3.24-1.2l.59-.06c.02.18.86.67,2.66.67s2.66-.47,2.66-.64h.59c0,.84-1.68,1.23-3.25,1.23Z"/>
        <path class="cls-1" d="m28.79,39.61c-1.5,0-3.16-.37-3.24-1.2l.59-.06c.02.18.86.67,2.66.67s2.66-.47,2.66-.64h.59c0,.84-1.68,1.23-3.25,1.23Z"/>
        <path class="cls-1" d="m28.79,38.84c-1.5,0-3.16-.37-3.24-1.2l.59-.06c.02.18.86.67,2.66.67s2.66-.49,2.66-.64h.59c0,.84-1.68,1.23-3.25,1.23Z"/>
        <path class="cls-1" d="m28.79,38.07c-1.5,0-3.16-.37-3.24-1.2l.59-.06c.02.18.86.67,2.66.67s2.66-.49,2.66-.64h.59c0,.84-1.68,1.23-3.25,1.23Z"/>
        <path class="cls-1" d="m28.79,37.3c-1.5,0-3.16-.37-3.24-1.2l.59-.06c.02.18.86.67,2.66.67s2.66-.47,2.66-.64h.59c0,.84-1.68,1.23-3.25,1.23Z"/>
        <path class="cls-1" d="m28.79,36.53c-1.5,0-3.16-.37-3.24-1.2l.59-.06c.02.18.86.67,2.66.67s2.66-.47,2.66-.64h.59c0,.84-1.68,1.23-3.25,1.23Z"/>
        <path class="cls-1" d="m28.79,35.76c-1.5,0-3.16-.37-3.24-1.2l.59-.06c.02.18.86.67,2.66.67s2.66-.47,2.66-.64h.59c0,.84-1.68,1.23-3.25,1.23Z"/>
        <path class="cls-1" d="m28.79,34.99c-1.5,0-3.16-.37-3.24-1.2l.59-.06c.02.18.86.67,2.66.67s2.66-.49,2.66-.64h.59c0,.84-1.68,1.23-3.25,1.23Z"/>
        <path class="cls-1" d="m28.79,34.22c-1.5,0-3.16-.37-3.24-1.2l.59-.06c.02.18.86.67,2.66.67s2.66-.49,2.66-.64h.59c0,.84-1.68,1.23-3.25,1.23Z"/>
        <path class="cls-1" d="m28.79,33.45c-1.5,0-3.16-.37-3.24-1.2l.59-.06c.02.18.86.67,2.66.67s2.66-.47,2.66-.64h.59c0,.84-1.68,1.23-3.25,1.23Z"/>
        <path class="cls-1" d="m28.79,32.68c-1.5,0-3.16-.37-3.24-1.2l.59-.06c.02.18.86.67,2.66.67s2.66-.47,2.66-.64h.59c0,.84-1.68,1.23-3.25,1.23Z"/>
        <path class="cls-1" d="m28.84,51.76c-1.11,0-2.25-.28-2.32-.9-.01-.14,0-4.03,0-5.69h.59c0,2.17-.01,5.47,0,5.64.05.09.64.37,1.73.37s1.67-.26,1.73-.38v-5.63s.58,0,.58,0v5.66c0,.74-1.46.93-2.32.93Z"/>
        <path class="cls-1" d="m28.84,55.4c-.69,0-1.44-.17-1.49-.64,0-.08,0-1.88,0-3.38h.59c0,1.17,0,2.91,0,3.27.09.06.39.16.9.16.47,0,.79-.09.9-.15v-3.27h.59v3.35c0,.5-.77.67-1.49.67Z"/>
        <rect class="cls-1" x="51.85" y="46.02" width=".59" height="1.47"/>
        <rect class="cls-1" x="51.85" y="53.07" width=".59" height=".78"/>
        <rect class="cls-1" x="52.01" y="39.94" width=".59" height="1.47"/>
        <rect class="cls-1" x="54.03" y="28.54" width=".59" height="3.81"/>
        <rect class="cls-1" x="52.91" y="22.45" width=".59" height="3.81"/>
        <rect class="cls-1" x="42.28" y="22.45" width=".59" height="1.52"/>
        <rect class="cls-1" x="53.86" y="36" width=".59" height="1.21"/>
        <rect class="cls-1" x="53.02" y="56.62" width=".59" height="4.61"/>
        <rect class="cls-1" x="42.17" y="56.62" width=".59" height="4.61"/>
        <rect class="cls-1" x="52.14" y="63.99" width=".59" height="2.47"/>
        <rect class="cls-1" x="43.21" y="63.99" width=".59" height="2.47"/>
        <path class="cls-1" d="m29.01,75.77h-10.86l.2-.42s2.03-4.31,3.44-6.89c1.33-2.43.09-4.98.08-5.01l-2.6-5.03.52-.27,2.6,5.04c.06.12,1.39,2.85-.09,5.56-1.14,2.09-2.68,5.29-3.23,6.44h9.93v.59Z"/>
        <path class="cls-1" d="m38.94,75.77h-10.94v-.59h9.85c-.78-1.22-2.71-4.33-2.75-5.25l.59-.02c.03.69,1.82,3.68,2.95,5.4l.3.46Z"/>
        <path class="cls-1" d="m35.17,64.87h-.59c0-1.02.45-1.94.47-1.98l2.32-4.82.53.26-2.33,4.82s-.41.84-.41,1.72Z"/>
        <path class="cls-1" d="m55.19,36.33c-.09,0-.14,0-.15,0h-9.24s0-.59,0-.59h9.28s.46.05.74-.2c.19-.17.28-.44.28-.82,0-1.26-.57-1.63-2.68-2.38-2.07-.73-7.93-2.74-7.93-2.74l.19-.56s5.87,2.01,7.94,2.74c2.09.73,3.08,1.26,3.08,2.93,0,.55-.16.98-.49,1.26-.35.31-.78.35-1.01.35Z"/>
        <path class="cls-1" d="m20.16,39.16l-.56-.19.58-1.73c.11-.34.15-.7.1-1.06l-.1-.8c-.11-.86.16-1.72.73-2.36l3.93-4.4.44.39-3.93,4.4c-.46.52-.68,1.21-.59,1.89l.1.8c.06.44.01.9-.13,1.32l-.58,1.73Z"/>
        <path class="cls-1" d="m37.7,39.16l-.58-1.73c-.14-.42-.19-.88-.13-1.32l.1-.8.59.07-.1.8c-.05.35,0,.72.1,1.06l.58,1.73-.56.19Z"/>
        <path class="cls-1" d="m32.59,28.95l-.07-.59,4.71-.58c.84-.1,1.68-.07,2.5.08l1.76.33-.11.58-1.76-.33c-.76-.14-1.55-.17-2.32-.07l-4.71.58Z"/>
        <path class="cls-1" d="m41.84,38.62c-3.88-2.54-9.79-6.39-10.21-6.56l.09-.21v-.36c.11,0,.31,0,10.44,6.64l-.32.49Z"/>
        <g>
          <path class="cls-1" d="m10,45.88c-.53,0-.95-.13-1.11-.45-.1-.18-4.03-10.24-4.82-12.25l.55-.21c1.61,4.11,4.67,11.94,4.8,12.2.08.16,1.04.3,2.71-.36,1.7-.67,2.29-1.43,2.24-1.56l-4.8-12.23.55-.22,4.8,12.23c.31.79-1.12,1.76-2.57,2.33-.79.31-1.66.53-2.34.53Z"/>
          <path class="cls-1" d="m12.92,51.33c-.4,0-.72-.1-.85-.36-.06-.12-1.48-3.75-2.08-5.3l.55-.21c.79,2.02,1.99,5.09,2.06,5.25.08.06.73.11,1.74-.29,1-.4,1.46-.86,1.48-.98l-2.07-5.24.55-.22,2.07,5.27c.08.2.06.54-.48.97-.33.27-.81.53-1.34.74-.56.22-1.16.37-1.63.37Z"/>
          <path class="cls-1" d="m14.88,54.59c-.28,0-.51-.08-.61-.28-.04-.07-.69-1.75-1.24-3.14l.55-.21c.43,1.09,1.06,2.7,1.19,3.04.11.02.43,0,.9-.18.44-.17.7-.37.78-.47l-1.2-3.05.55-.22,1.22,3.11c.18.46-.47.91-1.14,1.17-.33.13-.7.23-1.01.23Z"/>
          <path class="cls-1" d="m4.13,33.39c-.44,0-.85-.26-1.03-.68l-.64-1.54c-.11-.27-.11-.58,0-.85.11-.27.33-.49.6-.6l5.16-2.15c.27-.11.58-.12.85,0,.27.11.49.33.6.6l.64,1.54c.11.27.11.58,0,.85-.11.28-.33.49-.6.6l-5.16,2.15c-.14.06-.28.08-.43.08Zm4.52-5.32c-.07,0-.13.01-.2.04l-5.16,2.15c-.13.05-.23.15-.28.28-.05.13-.05.27,0,.4l.64,1.54c.11.26.42.39.68.28l5.16-2.15c.13-.05.23-.15.28-.28s.05-.27,0-.4l-.64-1.54c-.08-.2-.28-.32-.48-.32Z"/>
          <path class="cls-1" d="m4.13,29.83c-.36,0-.7-.21-.85-.56l-.26-.63c-.19-.47.03-1,.49-1.2l2.74-1.14c.23-.09.48-.09.7,0,.23.09.4.27.5.5l.26.63c.19.47-.03,1.01-.49,1.2l-2.74,1.14c-.11.05-.23.07-.35.07Zm2.48-3.02s-.08,0-.13.03l-2.74,1.14c-.17.07-.25.26-.18.43l.26.63c.07.17.26.25.43.18l2.74-1.14c.08-.03.14-.1.18-.18.03-.08.03-.17,0-.25l-.26-.63c-.03-.08-.1-.14-.18-.18-.04-.02-.08-.02-.13-.02Z"/>
          <path class="cls-1" d="m16.35,56.65c-.81,0-1.47-.66-1.47-1.47s.66-1.47,1.47-1.47,1.47.66,1.47,1.47-.66,1.47-1.47,1.47Zm0-2.35c-.49,0-.88.39-.88.88s.4.88.88.88.88-.4.88-.88-.4-.88-.88-.88Z"/>
          <path class="cls-1" d="m4.77,27.39c-.63,0-1.14-.51-1.14-1.14s.51-1.14,1.14-1.14,1.14.51,1.14,1.14-.51,1.14-1.14,1.14Zm0-1.69c-.3,0-.55.25-.55.55s.25.55.55.55.55-.25.55-.55-.25-.55-.55-.55Z"/>
          <rect class="cls-1" x="17.17" y="55.48" width=".59" height="3.39" transform="translate(-40.63 43.08) rotate(-59.38)"/>
          <rect class="cls-1" x="15.93" y="53.07" width="3.1" height=".59" transform="translate(-18.91 10.6) rotate(-22.26)"/>
        </g>
        <path class="cls-1" d="m29.22,15.55h-.76c-.54,0-.98-.44-.98-.98V1.23c0-.54.44-.98.98-.98h.76c.54,0,.98.44.98.98v13.34c0,.54-.44.98-.98.98Zm-.76-14.72c-.22,0-.39.18-.39.39v13.34c0,.22.18.39.39.39h.76c.22,0,.39-.18.39-.39V1.23c0-.22-.18-.39-.39-.39h-.76Z"/>
        <path class="cls-1" d="m38.71,16.9h-4.79c-.38,0-.74-.15-1.01-.42-.27-.27-.41-.63-.41-1,.01-1.22,0-2.81,0-3.85,0-.42,0-.75,0-.94,0-.27,0-.38,22.25-9.47V.12h2.64v2.12l-14.42,13.54c-.1.07-1.62,1.13-4.25,1.13Zm-5.63-6.05c0,.19,0,.45,0,.76,0,1.05.02,2.64,0,3.87,0,.22.08.43.23.58.16.16.36.24.59.24h4.79c2.43,0,3.87-.98,3.88-.99L56.78,1.98V.71h-1.46v.9l-.18.07c-8.29,3.39-20.64,8.48-22.06,9.17Z"/>
        <path class="cls-1" d="m39.01,14.23c-.27,0-.55-.09-.77-.28l-2.18-1.83c-.18-.15-.26-.37-.23-.61.03-.23.18-.42.4-.51l10.1-4.3c.31-.13.65-.02.82.26s.12.64-.14.85l-7.23,6.12c-.22.19-.5.29-.78.29Zm7.55-6.98l-10.1,4.3-.02.12,2.18,1.83c.23.19.56.19.79,0l7.23-6.12s.05-.04.01-.09c-.03-.05-.07-.04-.09-.03h0Z"/>
        <rect class="cls-1" x="24.64" y="10.87" width="3.13" height=".59"/>
        <rect class="cls-1" x="29.95" y="10.87" width="2.87" height=".59"/>
        <rect class="cls-1" x="23.22" y="16.14" width="10.1" height=".59"/>
        <rect class="cls-1" x="25.23" y="16.39" width=".59" height="4.88"/>
        <rect class="cls-1" x="31.68" y="16.39" width=".59" height="4.88"/>
        <rect class="cls-1" x="26.13" y="25.05" width=".59" height="1.92"/>
        <rect class="cls-1" x="31.01" y="25.05" width=".59" height="1.92"/>
        <path class="cls-1" d="m43.12,19.02l-.58-.08c.02-.17.01-.72,0-1.02,0-.05.08-3.56,3.55-3.56h3.21c.07,0,1.49,0,2.47.97.59.59.9,1.39.9,2.4v1.2h-.59v-1.2c0-.84-.24-1.51-.72-1.98-.81-.8-2.06-.8-2.05-.79h-3.22c-2.88,0-2.96,2.84-2.96,2.96,0,.07.04.83,0,1.11Z"/>
        <path class="cls-1" d="m12.72,25.65c-.76,0-1.36-.23-1.79-.67-.68-.71-.63-1.72-.63-1.76v-4.57s.59,0,.59,0v4.58s-.03.82.47,1.34c.31.32.77.49,1.36.49,1.92,0,1.94-1.86,1.94-1.94v-7.4h.59v7.4c0,.88-.53,2.53-2.53,2.53Z"/>
        <rect class="cls-1" x="15.01" y="21.09" width="4.36" height=".59"/>
        <rect class="cls-1" x="15.01" y="22.88" width="4.36" height=".59"/>
        <path class="cls-1" d="m12.85,26.64c-1.89,0-3.43-1.54-3.43-3.43,0-.92.36-1.78,1-2.42l.42.42c-.54.54-.83,1.25-.83,2.01,0,1.56,1.27,2.84,2.84,2.84s2.84-1.27,2.84-2.84h.59c0,1.89-1.54,3.43-3.43,3.43Z"/>
        <rect class="cls-1" x="33.47" y="18.69" width="5.58" height=".59" transform="translate(-.37 37.25) rotate(-54.14)"/>
        <rect class="cls-1" x="34.83" y="25.02" width=".59" height="3.27"/>
        <rect class="cls-1" x="41.08" y="16.24" width=".59" height="2.9" transform="translate(-3.57 19.94) rotate(-26.01)"/>
        <rect class="cls-1" x="20.63" y="60.18" width="15.76" height=".59"/>
        <rect class="cls-1" x="15.46" y="80.29" width="26.21" height=".59"/>
        <rect class="cls-1" x="14.82" y="81.47" width="27.56" height=".59"/>
        <path class="cls-1" d="m28.45,117.38c-7.26,0-14.42-.72-21.43-2.16-.71-.15-1.32-.56-1.72-1.17-.4-.61-.54-1.33-.39-2.04,2.34-11.34,4.99-24.19,13.5-36.7l.09-.13h20.09l.09.13c7.43,10.92,11.94,22.21,14.64,36.61.27,1.45-.68,2.87-2.13,3.16-7.65,1.53-15.25,2.3-22.74,2.3Zm-9.65-41.61c-8.37,12.37-11,25.11-13.32,36.36-.11.56,0,1.12.31,1.6.31.47.79.8,1.35.91,14.16,2.91,28.94,2.87,43.93-.14,1.13-.23,1.87-1.34,1.66-2.48h0c-2.71-14.45-7.03-25.3-14.46-36.26h-19.47Z"/>
        <path class="cls-1" d="m21.4,80.88v-.3c-.02-.35-.18-8.69,3.41-12.38,1.15-1.18,2.56-1.78,4.18-1.78h.3v2.11h-.3c-1.04,0-1.92.37-2.67,1.14-2.94,3.02-2.82,10.77-2.82,10.85v.3s-2.1.05-2.1.05Zm7.29-13.85c-1.33.07-2.49.6-3.46,1.6-3.09,3.17-3.25,10.11-3.25,11.65l.93-.02c0-1.48.16-8.08,2.99-10.98.8-.82,1.71-1.25,2.79-1.31v-.93Z"/>
        <path class="cls-1" d="m30.12,70.07h-.59c-.46,0-.84-.37-.84-.84v-3.33c0-.46.38-.84.84-.84h.59c.46,0,.84.38.84.84v3.33c0,.46-.37.84-.84.84Zm-.59-4.41c-.14,0-.25.11-.25.25v3.33c0,.14.11.25.25.25h.59c.14,0,.25-.11.25-.25v-3.33c0-.14-.11-.25-.25-.25h-.59Z"/>
        <path class="cls-1" d="m31.79,70.63h-.59c-.46,0-.84-.38-.84-.84v-5.04c0-.46.38-.84.84-.84h.59c.46,0,.84.38.84.84v5.04c0,.46-.37.84-.84.84Zm-.59-6.12c-.13,0-.25.11-.25.25v5.04c0,.13.11.25.25.25h.59c.14,0,.25-.11.25-.25v-5.04c0-.14-.11-.25-.25-.25h-.59Z"/>
        <path class="cls-1" d="m33.52,70.63h-.59c-.46,0-.84-.38-.84-.84v-5.04c0-.46.37-.84.84-.84h.59c.46,0,.84.38.84.84v5.04c0,.46-.38.84-.84.84Zm-.59-6.12c-.14,0-.25.11-.25.25v5.04c0,.14.11.25.25.25h.59c.13,0,.25-.11.25-.25v-5.04c0-.13-.11-.25-.25-.25h-.59Z"/>
        <path class="cls-1" d="m36.4,70.3h-1.17c-.75,0-1.36-.61-1.36-1.36v-3.02c0-.75.61-1.36,1.36-1.36h1.17c.75,0,1.36.61,1.36,1.36v3.02c0,.75-.61,1.36-1.36,1.36Zm-1.17-5.15c-.43,0-.77.35-.77.77v3.02c0,.43.35.77.77.77h1.17c.43,0,.77-.35.77-.77v-3.02c0-.43-.35-.77-.77-.77h-1.17Z"/>
        <path class="cls-1" d="m41.36,22.76c-.16,0-.3-.13-.3-.3v-3.49c0-.16.13-.3.3-.3s.3.13.3.3v3.49c0,.16-.13.3-.3.3Z"/>
        <path class="cls-1" d="m42.13,22.76c-.16,0-.3-.13-.3-.3v-3.49c0-.16.13-.3.3-.3s.3.13.3.3v3.49c0,.16-.13.3-.3.3Z"/>
        <path class="cls-1" d="m42.9,22.76c-.16,0-.3-.13-.3-.3v-3.49c0-.16.13-.3.3-.3s.3.13.3.3v3.49c0,.16-.13.3-.3.3Z"/>
        <path class="cls-1" d="m43.67,22.76c-.16,0-.3-.13-.3-.3v-3.49c0-.16.13-.3.3-.3s.3.13.3.3v3.49c0,.16-.13.3-.3.3Z"/>
        <path class="cls-1" d="m44.44,22.76c-.16,0-.3-.13-.3-.3v-3.49c0-.16.13-.3.3-.3s.3.13.3.3v3.49c0,.16-.13.3-.3.3Z"/>
        <path class="cls-1" d="m45.21,22.76c-.16,0-.3-.13-.3-.3v-3.49c0-.16.13-.3.3-.3s.3.13.3.3v3.49c0,.16-.13.3-.3.3Z"/>
        <path class="cls-1" d="m45.98,22.76c-.16,0-.3-.13-.3-.3v-3.49c0-.16.13-.3.3-.3s.3.13.3.3v3.49c0,.16-.13.3-.3.3Z"/>
        <path class="cls-1" d="m46.75,22.76c-.16,0-.3-.13-.3-.3v-3.49c0-.16.13-.3.3-.3s.3.13.3.3v3.49c0,.16-.13.3-.3.3Z"/>
        <path class="cls-1" d="m47.52,22.76c-.16,0-.3-.13-.3-.3v-3.49c0-.16.13-.3.3-.3s.3.13.3.3v3.49c0,.16-.13.3-.3.3Z"/>
        <path class="cls-1" d="m48.29,22.76c-.16,0-.3-.13-.3-.3v-3.49c0-.16.13-.3.3-.3s.3.13.3.3v3.49c0,.16-.13.3-.3.3Z"/>
        <path class="cls-1" d="m49.06,22.76c-.16,0-.3-.13-.3-.3v-3.49c0-.16.13-.3.3-.3s.3.13.3.3v3.49c0,.16-.13.3-.3.3Z"/>
        <path class="cls-1" d="m49.83,22.76c-.16,0-.3-.13-.3-.3v-3.49c0-.16.13-.3.3-.3s.3.13.3.3v3.49c0,.16-.13.3-.3.3Z"/>
        <path class="cls-1" d="m50.6,22.76c-.16,0-.3-.13-.3-.3v-3.49c0-.16.13-.3.3-.3s.3.13.3.3v3.49c0,.16-.13.3-.3.3Z"/>
        <path class="cls-1" d="m51.37,22.76c-.16,0-.3-.13-.3-.3v-3.49c0-.16.13-.3.3-.3s.3.13.3.3v3.49c0,.16-.13.3-.3.3Z"/>
        <path class="cls-1" d="m52.14,22.76c-.16,0-.3-.13-.3-.3v-3.49c0-.16.13-.3.3-.3s.3.13.3.3v3.49c0,.16-.13.3-.3.3Z"/>
        <path class="cls-1" d="m52.91,22.76c-.16,0-.3-.13-.3-.3v-3.49c0-.16.13-.3.3-.3s.3.13.3.3v3.49c0,.16-.13.3-.3.3Z"/>
        <path class="cls-1" d="m53.68,22.76c-.16,0-.3-.13-.3-.3v-3.49c0-.16.13-.3.3-.3s.3.13.3.3v3.49c0,.16-.13.3-.3.3Z"/>
        <path class="cls-1" d="m54.45,22.76c-.16,0-.3-.13-.3-.3v-3.49c0-.16.13-.3.3-.3s.3.13.3.3v3.49c0,.16-.13.3-.3.3Z"/>
        <g>
          <path class="cls-1" d="m45.76,31.99h-3.68c-.16,0-.3-.13-.3-.3s.13-.3.3-.3h3.68c.16,0,.3.13.3.3s-.13.3-.3.3Z"/>
          <path class="cls-1" d="m45.76,32.86h-3.68c-.16,0-.3-.13-.3-.3s.13-.3.3-.3h3.68c.16,0,.3.13.3.3s-.13.3-.3.3Z"/>
          <path class="cls-1" d="m45.76,33.74h-3.68c-.16,0-.3-.13-.3-.3s.13-.3.3-.3h3.68c.16,0,.3.13.3.3s-.13.3-.3.3Z"/>
          <path class="cls-1" d="m45.76,34.61h-3.68c-.16,0-.3-.13-.3-.3s.13-.3.3-.3h3.68c.16,0,.3.13.3.3s-.13.3-.3.3Z"/>
          <path class="cls-1" d="m45.76,35.49h-3.68c-.16,0-.3-.13-.3-.3s.13-.3.3-.3h3.68c.16,0,.3.13.3.3s-.13.3-.3.3Z"/>
          <path class="cls-1" d="m45.76,36.37h-3.68c-.16,0-.3-.13-.3-.3s.13-.3.3-.3h3.68c.16,0,.3.13.3.3s-.13.3-.3.3Z"/>
          <path class="cls-1" d="m45.76,37.24h-3.68c-.16,0-.3-.13-.3-.3s.13-.3.3-.3h3.68c.16,0,.3.13.3.3s-.13.3-.3.3Z"/>
          <path class="cls-1" d="m45.76,38.12h-3.68c-.16,0-.3-.13-.3-.3s.13-.3.3-.3h3.68c.16,0,.3.13.3.3s-.13.3-.3.3Z"/>
          <path class="cls-1" d="m45.76,38.99h-3.68c-.16,0-.3-.13-.3-.3s.13-.3.3-.3h3.68c.16,0,.3.13.3.3s-.13.3-.3.3Z"/>
          <path class="cls-1" d="m45.76,39.87h-3.68c-.16,0-.3-.13-.3-.3s.13-.3.3-.3h3.68c.16,0,.3.13.3.3s-.13.3-.3.3Z"/>
          <path class="cls-1" d="m45.76,40.75h-3.68c-.16,0-.3-.13-.3-.3s.13-.3.3-.3h3.68c.16,0,.3.13.3.3s-.13.3-.3.3Z"/>
          <path class="cls-1" d="m45.76,41.62h-3.68c-.16,0-.3-.13-.3-.3s.13-.3.3-.3h3.68c.16,0,.3.13.3.3s-.13.3-.3.3Z"/>
          <path class="cls-1" d="m45.76,42.5h-3.68c-.16,0-.3-.13-.3-.3s.13-.3.3-.3h3.68c.16,0,.3.13.3.3s-.13.3-.3.3Z"/>
          <path class="cls-1" d="m45.76,43.37h-3.68c-.16,0-.3-.13-.3-.3s.13-.3.3-.3h3.68c.16,0,.3.13.3.3s-.13.3-.3.3Z"/>
          <path class="cls-1" d="m45.76,44.25h-3.68c-.16,0-.3-.13-.3-.3s.13-.3.3-.3h3.68c.16,0,.3.13.3.3s-.13.3-.3.3Z"/>
          <path class="cls-1" d="m45.76,45.12h-3.68c-.16,0-.3-.13-.3-.3s.13-.3.3-.3h3.68c.16,0,.3.13.3.3s-.13.3-.3.3Z"/>
          <path class="cls-1" d="m45.76,46h-3.68c-.16,0-.3-.13-.3-.3s.13-.3.3-.3h3.68c.16,0,.3.13.3.3s-.13.3-.3.3Z"/>
          <path class="cls-1" d="m45.76,46.88h-3.68c-.16,0-.3-.13-.3-.3s.13-.3.3-.3h3.68c.16,0,.3.13.3.3s-.13.3-.3.3Z"/>
        </g>
        <path class="cls-1" d="m29.91,95.01c-11.1,0-19.85-1.67-19.99-1.69l.11-.58c.2.04,19.78,3.77,37.51,0l.12.58c-5.98,1.27-12.17,1.7-17.76,1.7Z"/>
        <path class="cls-1" d="m29.89,91.58c-10.4,0-18.59-1.12-18.72-1.14l.08-.58c.18.02,18.55,2.53,35.18,0l.09.58c-5.6.85-11.4,1.14-16.64,1.14Z"/>
        <path class="cls-1" d="m30.55,114.09c-14.04,0-25.12-1.96-25.28-1.99l.1-.58c.25.04,25.06,4.43,47.53,0l.11.58c-7.56,1.49-15.39,1.99-22.47,1.99Z"/>
        <path class="cls-1" d="m30.59,111.35c-13.76,0-24.61-1.96-24.77-1.99l.11-.58c.24.04,24.56,4.44,46.57,0l.12.58c-7.41,1.49-15.09,1.99-22.02,1.99Z"/>
        <path class="cls-1" d="m30.48,108.26c-13.4,0-23.96-1.96-24.12-1.99l.11-.58c.24.05,23.91,4.43,45.33,0l.12.58c-7.22,1.49-14.69,1.99-21.44,1.99Z"/>
        <path class="cls-1" d="m30.5,105.11c-12.92,0-23.1-1.96-23.25-1.99l.11-.58c.23.04,23.04,4.43,43.68,0l.12.58c-6.96,1.49-14.16,1.99-20.67,1.99Z"/>
        <path class="cls-1" d="m30.36,102.23c-12.49,0-22.35-1.96-22.49-1.99l.12-.58c.22.04,22.27,4.43,42.24,0l.13.58c-6.73,1.49-13.7,1.99-19.99,1.99Z"/>
        <path class="cls-1" d="m30.13,98.94c-11.91,0-21.3-1.96-21.44-1.99l.12-.58c.21.05,21.22,4.43,40.24,0l.13.58c-6.42,1.49-13.06,1.99-19.06,1.99Z"/>
      </g>
      <rect class="cls-1" x="4.38" y="20.66" width=".59" height="4.75"/>
    </g>
  </g>
</svg>