<?xml version="1.0" encoding="UTF-8"?>
<svg id="Layer_2" data-name="Layer 2" xmlns="http://www.w3.org/2000/svg" viewBox="0 0 82.26 152.04">
  <defs>
    <style>
      .cls-1 {
        fill: #8b8a8d;
      }

      .cls-2, .cls-3 {
        fill: gray;
      }

      .cls-3 {
        opacity: .5;
      }
    </style>
  </defs>
  <g id="Layer_4" data-name="Layer 4">
    <g>
      <path class="cls-1" d="m41.07,12.23c-15.08,0-37.51-1.63-37.51-6.11S25.99,0,41.07,0s37.51,1.63,37.51,6.11-22.43,6.11-37.51,6.11Zm0-11.03C18.57,1.2,4.75,4.06,4.75,6.11s13.82,4.92,36.31,4.92,36.32-2.86,36.32-4.92S63.57,1.2,41.07,1.2Z"/>
      <path class="cls-1" d="m41.07,14.84c-15.08,0-37.51-1.63-37.51-6.11S25.99,2.61,41.07,2.61s37.51,1.63,37.51,6.11-22.43,6.11-37.51,6.11Zm0-11.03C18.57,3.81,4.75,6.67,4.75,8.73s13.82,4.92,36.31,4.92,36.32-2.86,36.32-4.92-13.82-4.92-36.32-4.92Z"/>
      <path class="cls-1" d="m40.8,118.77c-19.52,0-39.71-2.32-39.71-6.19,0-.17.13-.3.3-.3s.3.13.3.3c0,2.7,15.72,5.59,39.11,5.59s39.11-2.89,39.11-5.59c0-.17.13-.3.3-.3s.3.13.3.3c0,3.87-20.19,6.19-39.71,6.19Z"/>
      <path class="cls-1" d="m40.8,123.09c-19.52,0-39.71-2.32-39.71-6.19,0-.17.13-.3.3-.3s.3.13.3.3c0,2.7,15.72,5.59,39.11,5.59s39.11-2.89,39.11-5.59c0-.17.13-.3.3-.3s.3.13.3.3c0,3.87-20.19,6.19-39.71,6.19Z"/>
      <path class="cls-1" d="m80.21,118.59c-.17,0-.3-.13-.3-.3,0-2.7-15.72-5.59-39.11-5.59S1.69,115.59,1.69,118.29c0,.17-.13.3-.3.3s-.3-.13-.3-.3c0-3.87,20.19-6.19,39.71-6.19s39.71,2.32,39.71,6.19c0,.17-.13.3-.3.3Z"/>
      <path class="cls-1" d="m80.21,114.27c-.17,0-.3-.13-.3-.3,0-2.7-15.72-5.59-39.11-5.59S1.69,111.27,1.69,113.97c0,.17-.13.3-.3.3s-.3-.13-.3-.3c0-3.87,20.19-6.19,39.71-6.19s39.71,2.32,39.71,6.19c0,.17-.13.3-.3.3Z"/>
      <path class="cls-1" d="m81.66,145.81c-.32,0-.59-.26-.6-.58l-3.66-139.27c0-.33.25-.6.58-.61.31,0,.6.25.61.58l3.66,139.27c0,.33-.25.6-.58.61h-.02Z"/>
      <path class="cls-1" d="m57.04,26.83c-.16,0-.3-.13-.3-.29l-.55-25.55c0-.17.13-.3.29-.31.16.02.3.13.31.29l.55,25.55c0,.17-.13.3-.29.31h0Z"/>
      <path class="cls-1" d="m61.5,142.77c-.16,0-.3-.13-.3-.29l-.89-47.18c0-.17.13-.3.29-.3.19.02.3.13.3.29l.89,47.18c0,.17-.13.3-.29.3h0Z"/>
      <path class="cls-1" d="m.6,145.81h-.02c-.33,0-.59-.28-.58-.61L3.66,5.92c0-.33.28-.59.61-.58.33,0,.59.28.58.61L1.2,145.23c0,.32-.27.58-.6.58Z"/>
      <path class="cls-3" d="m70.16,81.97c0,1.24-14.25,1.9-27.65,1.9s-27.65-.67-27.65-1.9h.18c0,.81,11.28,1.72,27.46,1.72s27.46-.91,27.46-1.72h.18Z"/>
      <path class="cls-3" d="m70.16,76.39c0,1.24-14.25,1.9-27.65,1.9s-27.65-.67-27.65-1.9h.18c0,.81,11.28,1.72,27.46,1.72s27.46-.91,27.46-1.72h.18Z"/>
      <path class="cls-3" d="m70.16,70.81c0,1.24-14.25,1.9-27.65,1.9s-27.65-.67-27.65-1.9h.18c0,.81,11.28,1.72,27.46,1.72s27.46-.91,27.46-1.72h.18Z"/>
      <path class="cls-3" d="m70.16,65.23c0,1.24-14.25,1.9-27.65,1.9s-27.65-.67-27.65-1.9h.18c0,.81,11.28,1.72,27.46,1.72s27.46-.91,27.46-1.72h.18Z"/>
      <path class="cls-3" d="m70.16,59.65c0,1.24-14.25,1.9-27.65,1.9s-27.65-.67-27.65-1.9h.18c0,.81,11.28,1.72,27.46,1.72s27.46-.91,27.46-1.72h.18Z"/>
      <path class="cls-3" d="m70.16,54.08c0,1.24-14.25,1.9-27.65,1.9s-27.65-.67-27.65-1.9h.18c0,.81,11.28,1.72,27.46,1.72s27.46-.91,27.46-1.72h.18Z"/>
      <path class="cls-3" d="m70.16,48.5c0,1.24-14.25,1.9-27.65,1.9s-27.65-.67-27.65-1.9h.18c0,.81,11.28,1.72,27.46,1.72s27.46-.91,27.46-1.72h.18Z"/>
      <path class="cls-3" d="m70.16,42.92c0,1.24-14.25,1.9-27.65,1.9s-27.65-.67-27.65-1.9h.18c0,.81,11.28,1.72,27.46,1.72s27.46-.91,27.46-1.72h.18Z"/>
      <path class="cls-2" d="m71.75,37.25c0,.17-.03.33-.09.48-.1.26-.21.52-.32.78-.22.51-.44,1.04-.61,1.57l-.37,1.12v40.74c0,.13-.11,3.07-2.82,6.95-4.5,6.43-12.63,10.29-18.65,12.41-1.01.35-1.68,1.3-1.68,2.37v.28h-9.35v-.28c0-1.06-.68-2.01-1.68-2.37-6.02-2.11-14.15-5.98-18.65-12.41-2.71-3.88-2.82-6.82-2.82-6.94v-40.74l-.37-1.12c-.17-.53-.4-1.06-.61-1.57-.11-.26-.22-.52-.32-.78-.06-.15-.09-.32-.09-.48,0-.76.65-1.37,1.46-1.37h2.73l18.37-17.02h13.34l18.37,17.02h2.73c.8,0,1.46.62,1.46,1.37Zm-1.95,3.91v-.09s.39-1.16.39-1.16c.18-.55.41-1.09.63-1.61.11-.26.22-.51.32-.77.04-.09.05-.18.05-.28,0-.45-.41-.82-.9-.82h-2.95l-18.37-17.02h-12.9l-18.37,17.02h-2.95c-.5,0-.9.37-.9.82,0,.09.02.19.05.28.1.26.21.51.32.77.22.52.45,1.06.63,1.62l.39,1.25v40.78c0,.11.56,11.63,21.1,18.83,1.14.4,1.93,1.43,2.04,2.61h8.27c.11-1.18.9-2.21,2.04-2.61,20.54-7.2,21.1-18.72,21.1-18.83v-40.77Z"/>
      <path class="cls-3" d="m61.52,41.16v39.6c0,4.79-1.85,9.34-5.2,12.82-3.36,3.49-7.97,6.23-13.7,8.16l-.06-.18c5.7-1.92,10.29-4.65,13.62-8.11,3.32-3.45,5.15-7.96,5.15-12.7v-39.6h.18Z"/>
      <path class="cls-3" d="m58.43,41.16v40.55c0,3.21-.83,6.34-2.41,9.05-1.94,3.33-5.83,7.93-13.4,10.98l-.07-.17c7.52-3.02,11.38-7.59,13.3-10.9,1.56-2.68,2.38-5.78,2.38-8.96v-40.55h.18Z"/>
      <path class="cls-3" d="m55.34,41.16v41.34c0,1.94-.3,3.84-.9,5.63-1.39,4.2-4.59,9.98-11.89,13.61l-.08-.17c7.24-3.6,10.41-9.33,11.8-13.5.59-1.78.89-3.65.89-5.57v-41.34h.18Z"/>
      <path class="cls-3" d="m52.1,41.16v42.01c0,1-.08,1.99-.24,2.93-.54,3.21-2.51,11.15-9.14,15.64l-.1-.15c6.57-4.45,8.53-12.34,9.06-15.52.16-.93.24-1.9.24-2.9v-42.01h.18Z"/>
      <path class="cls-3" d="m49.09,41.16v43.05c0,.12-.54,11.69-6.43,17.51l-.13-.13c5.84-5.77,6.37-17.27,6.38-17.39v-43.04h.18Z"/>
      <path class="cls-3" d="m45.7,41.16v43.05c0,.12-.26,11.67-3.1,17.49l-.17-.08c2.82-5.78,3.08-17.29,3.08-17.41v-43.05h.18Z"/>
      <path class="cls-3" d="m64.76,41.16v38.66c0,5.73-2.68,11.12-7.35,14.79-3.82,3-8.82,5.4-14.87,7.13l-.05-.18c6.03-1.72,11.01-4.11,14.81-7.1,4.62-3.64,7.28-8.97,7.28-14.65v-38.66h.18Z"/>
      <path class="cls-3" d="m67.93,41.16v37.92c0,6.12-3.13,11.93-8.37,15.55-4.33,2.99-10.01,5.39-16.87,7.11l-.05-.18c6.84-1.72,12.49-4.1,16.81-7.09,5.19-3.58,8.29-9.34,8.29-15.4v-37.92h.18Z"/>
      <path class="cls-3" d="m42.67,101.57l-.06.18c-5.73-1.93-10.34-4.67-13.7-8.16-3.35-3.48-5.2-8.04-5.2-12.82v-39.6h.18v39.6c0,4.74,1.83,9.25,5.15,12.7,3.34,3.46,7.92,6.19,13.62,8.11Z"/>
      <path class="cls-3" d="m42.68,101.57l-.07.17c-7.57-3.04-11.46-7.65-13.4-10.98-1.58-2.71-2.41-5.84-2.41-9.05v-40.55h.18v40.55c0,3.18.82,6.28,2.38,8.96,1.92,3.3,5.79,7.87,13.3,10.9Z"/>
      <path class="cls-3" d="m42.76,101.57l-.08.17c-7.3-3.63-10.5-9.4-11.89-13.61-.6-1.8-.9-3.69-.9-5.63v-41.34h.18v41.34c0,1.92.3,3.8.89,5.57,1.38,4.17,4.55,9.9,11.8,13.5Z"/>
      <path class="cls-3" d="m42.62,101.58l-.1.15c-6.63-4.49-8.6-12.43-9.14-15.64-.16-.94-.24-1.93-.24-2.93v-42.01h.18v42.01c0,.99.08,1.97.24,2.9.54,3.18,2.49,11.06,9.06,15.52Z"/>
      <path class="cls-3" d="m42.71,101.59l-.13.13c-5.89-5.82-6.43-17.39-6.43-17.51v-43.05h.18v43.05c0,.11.54,11.61,6.38,17.38Z"/>
      <path class="cls-3" d="m42.8,101.61l-.17.08c-2.84-5.81-3.09-17.37-3.1-17.49v-43.05h.18v43.05c0,.11.26,11.63,3.08,17.41Z"/>
      <path class="cls-3" d="m42.75,101.57l-.05.18c-6.05-1.73-11.06-4.13-14.87-7.13-4.67-3.67-7.35-9.06-7.35-14.79v-38.66h.18v38.66c0,5.67,2.65,11.01,7.28,14.65,3.8,2.99,8.78,5.37,14.81,7.1Z"/>
      <path class="cls-3" d="m42.59,101.56l-.05.18c-6.86-1.73-12.54-4.12-16.87-7.11-5.24-3.62-8.36-9.43-8.36-15.55v-37.92h.18v37.92c0,6.06,3.1,11.81,8.29,15.4,4.31,2.98,9.97,5.37,16.81,7.09Z"/>
      <rect class="cls-2" x="15.06" y="41.02" width="54.96" height=".18"/>
      <rect class="cls-2" x="14.83" y="40.54" width="55.48" height=".18"/>
      <rect class="cls-2" x="17.52" y="36.2" width="49.98" height=".18"/>
      <rect class="cls-2" x="18.1" y="35.63" width="49.02" height=".18"/>
      <rect class="cls-3" x="42.5" y="41.25" width=".18" height="60.15"/>
      <rect class="cls-2" x="54.9" y="17.15" width=".18" height="20.64" transform="translate(-5.29 39.53) rotate(-37.86)"/>
      <rect class="cls-2" x="50.48" y="18.02" width=".18" height="18.91" transform="translate(-6.95 29.34) rotate(-30.37)"/>
      <rect class="cls-2" x="45.07" y="18.9" width=".18" height="17.16" transform="translate(-6.33 15.5) rotate(-18.22)"/>
      <rect class="cls-2" x="19.46" y="27.38" width="20.64" height=".18" transform="translate(-10.19 34.15) rotate(-52.17)"/>
      <rect class="cls-2" x="24.75" y="27.38" width="18.91" height=".18" transform="translate(-6.81 43.06) rotate(-59.58)"/>
      <rect class="cls-2" x="31.03" y="27.38" width="17.16" height=".18" transform="translate(1.15 56.54) rotate(-71.83)"/>
      <path class="cls-2" d="m49.19,103.76c0,.08-.06.14-.14.14h-13.05c-.08,0-.14-.06-.14-.14s.06-.14.14-.14h13.05c.08,0,.14.06.14.14Z"/>
      <path class="cls-2" d="m48.57,17.98v1.13h-12.46v-1.13h12.46Zm-.37.76v-.39h-11.73v.39h11.73Z"/>
      <path class="cls-1" d="m21.95,152.04h-.02c-.33,0-.59-.28-.58-.61L25.29,11.28c0-.33.3-.58.61-.58.33,0,.59.28.58.61l-3.94,140.14c0,.32-.27.58-.6.58Z"/>
      <path class="cls-1" d="m14.55,46.29h0l-11.18-.33c-.17,0-.29-.14-.29-.31,0-.16.15-.28.31-.29l11.18.33c.17,0,.29.14.29.31,0,.16-.14.29-.3.29Z"/>
      <path class="cls-1" d="m14.55,47.96h0l-11.18-.33c-.17,0-.29-.14-.29-.31,0-.17.15-.27.31-.29l11.18.33c.17,0,.29.14.29.31,0,.16-.14.29-.3.29Z"/>
      <path class="cls-1" d="m70.36,46.07c-.16,0-.29-.13-.3-.29,0-.16.12-.3.29-.31l8.78-.26c.16,0,.3.12.31.29,0,.16-.12.3-.29.31l-8.78.26h0Z"/>
      <path class="cls-1" d="m70.37,47.74c-.16,0-.29-.13-.3-.29,0-.16.12-.3.29-.31l8.78-.26c.15,0,.3.12.31.29,0,.16-.12.3-.29.31l-8.78.26h0Z"/>
    </g>
  </g>
</svg>